<?xml version="1.0" encoding="utf-8"?>
<!-- Generator: Adobe Illustrator 16.0.0, SVG Export Plug-In . SVG Version: 6.00 Build 0)  -->
<!DOCTYPE svg PUBLIC "-//W3C//DTD SVG 1.1//EN" "http://www.w3.org/Graphics/SVG/1.1/DTD/svg11.dtd">
<svg version="1.1" id="Layer_1" xmlns="http://www.w3.org/2000/svg" xmlns:xlink="http://www.w3.org/1999/xlink" x="0px" y="0px"
	 width="146.955px" height="318.75px" viewBox="0 0 146.955 318.75" enable-background="new 0 0 146.955 318.75"
	 xml:space="preserve">
<g>
	<g>
		<g>
			<path fill="#4D4D4D" d="M93.722,317.492c-0.339,0-0.658-0.172-0.843-0.462c-0.412-0.645-1.077-0.78-1.562-0.78H57.186
				c-0.705,0-1.23,0.262-1.562,0.778c-0.203,0.316-0.564,0.488-0.942,0.455c-3.258-0.329-6.579-0.893-10.271-1.539
				c-0.414-0.073-0.739-0.397-0.812-0.812c-0.37-2.095-1.298-4.592-3.625-4.592c-0.248,0-0.514,0.026-0.79,0.078
				c-0.769,0.146-1.5,0.217-2.237,0.217c-2.41,0-4.279-0.775-6.086-1.524c-1.745-0.724-3.393-1.407-5.512-1.407
				c-0.708,0-1.34,0.143-1.877,0.423c-0.331,0.173-0.731,0.146-1.037-0.068c-3.335-2.339-5.467-5.087-6.335-8.168
				c-4.506-15.994-4-61.299-3.161-136.356l0.023-2.091c0.046-4.172-0.484-12.176-1.156-22.309
				c-1.601-24.132-4.019-60.602-1.324-86.587c1.397-13.507,3.642-21.173,8.005-27.341c0.236-0.334,0.654-0.488,1.051-0.395
				c1.449,0.35,2.968-0.014,4.191-1.012l14.762-12.068c1.284-1.047,2.143-2.712,2.357-4.566c0.042-0.367,0.284-0.681,0.628-0.816
				c0.711-0.279,1.446-0.545,2.188-0.803c8.458-2.935,19.328-4.552,30.608-4.552s22.148,1.617,30.604,4.552
				c0.743,0.255,1.477,0.523,2.189,0.803c0.344,0.135,0.585,0.448,0.628,0.814c0.217,1.855,1.076,3.52,2.357,4.568L124.816,24
				c1.223,0.998,2.743,1.36,4.191,1.011c0.392-0.094,0.814,0.06,1.051,0.395c4.362,6.164,6.607,13.83,8.008,27.341
				c2.694,25.983,0.276,62.45-1.323,86.581c-0.672,10.137-1.203,18.145-1.156,22.317l0.024,2.173
				c0.836,75.012,1.34,120.289-3.164,136.277c-0.989,3.514-3.606,6.582-7.781,9.12c-0.406,0.247-0.935,0.174-1.258-0.181
				c-0.684-0.748-1.598-1.112-2.794-1.112c-2.12,0-3.768,0.688-5.512,1.414c-1.809,0.754-3.678,1.534-6.092,1.534
				c-0.724,0-1.474-0.072-2.229-0.216c-0.273-0.052-0.537-0.077-0.784-0.077c-2.448,0-3.365,2.738-3.703,5.036
				c-0.063,0.435-0.404,0.777-0.839,0.843c-2.526,0.385-5.14,0.782-7.636,1.03C93.787,317.49,93.754,317.492,93.722,317.492z
				 M57.186,314.25h34.131c1.158,0,2.15,0.418,2.855,1.19c2.047-0.22,4.18-0.535,6.27-0.852c0.849-4.391,3.277-6.552,6.712-5.898
				c0.634,0.12,1.259,0.181,1.857,0.181c2.014,0,3.62-0.67,5.322-1.38c1.849-0.771,3.761-1.568,6.281-1.568
				c1.444,0,2.669,0.397,3.651,1.183c3.355-2.179,5.459-4.717,6.256-7.552c4.427-15.712,3.924-60.881,3.09-135.713l-0.024-2.174
				c-0.048-4.25,0.485-12.291,1.161-22.471c1.595-24.063,4.006-60.429,1.328-86.243c-1.32-12.748-3.379-20.093-7.288-25.868
				c-1.854,0.246-3.72-0.297-5.237-1.536L108.787,13.48c-1.559-1.275-2.606-3.132-2.988-5.277c-0.516-0.195-1.041-0.384-1.573-0.566
				c-8.254-2.865-18.89-4.442-29.952-4.442c-11.062,0-21.7,1.577-29.952,4.441c-0.53,0.184-1.057,0.373-1.574,0.567
				c-0.38,2.146-1.428,4.002-2.99,5.277L24.996,25.549c-1.519,1.239-3.379,1.784-5.237,1.536
				c-3.909,5.778-5.968,13.124-7.287,25.868c-2.678,25.817-0.266,62.184,1.33,86.249c0.675,10.177,1.208,18.214,1.161,22.463
				l-0.023,2.092c-0.837,74.878-1.343,120.074,3.085,135.791c0.702,2.488,2.417,4.755,5.103,6.745
				c0.679-0.258,1.423-0.389,2.222-0.389c2.518,0,4.43,0.793,6.278,1.56c1.701,0.705,3.308,1.372,5.32,1.372
				c0.61,0,1.221-0.06,1.866-0.182c3.314-0.627,5.697,1.361,6.616,5.438c3.179,0.555,6.083,1.037,8.905,1.344
				C55.04,314.666,56.031,314.25,57.186,314.25z"/>
		</g>
	</g>
	<g>
		<path fill="#4D4D4D" d="M30.731,143.559c-0.147,0-0.295-0.033-0.432-0.098c-0.297-0.143-0.505-0.421-0.556-0.747l-7.377-47.021
			c-0.232-1.143-0.734-4.053-0.173-5.212c0.502-1.047,1.666-1.926,4.149-3.129c3.102-1.502,10.366-5.021,21.884-7.82
			c7.687-1.866,16.693-2.853,26.047-2.853s18.36,0.986,26.043,2.853c11.54,2.804,18.789,6.319,21.885,7.82
			c2.481,1.201,3.646,2.079,4.153,3.13c0.558,1.159,0.058,4.068-0.183,5.265l-0.018,0.113l-7.35,46.854
			c-0.052,0.325-0.259,0.604-0.556,0.747c-0.296,0.142-0.646,0.129-0.93-0.034c-0.079-0.045-8.006-4.523-20.159-6.518
			c-5.019-0.823-13.574-1.314-22.887-1.314c-9.313,0-17.869,0.491-22.887,1.314c-12.184,1.999-20.08,6.472-20.159,6.517
			C31.076,143.514,30.904,143.559,30.731,143.559z M74.274,133.594c9.415,0,18.092,0.501,23.211,1.341
			c9.807,1.609,16.815,4.72,19.561,6.088l7.159-45.63c0.352-1.76,0.51-3.634,0.346-4.051c-0.357-0.739-2.009-1.604-3.221-2.191
			c-3.039-1.474-10.152-4.924-21.485-7.677c-7.531-1.829-16.373-2.796-25.571-2.796s-18.041,0.967-25.575,2.796
			c-11.311,2.749-18.44,6.202-21.484,7.677c-1.211,0.587-2.862,1.453-3.219,2.197c-0.164,0.414-0.005,2.287,0.341,4.003l0.032,0.209
			l7.134,45.463c2.745-1.369,9.752-4.479,19.561-6.088C56.183,134.095,64.859,133.594,74.274,133.594z"/>
	</g>
	<g>
		<path fill="#4D4D4D" d="M74.274,295.025c-9.996,0-18.947-0.556-23.945-1.486c-13.642-2.533-23.391-6.929-23.488-6.973
			c-0.323-0.146-0.544-0.454-0.581-0.807c-0.017-0.165-1.687-16.762,1.84-33.903c0.38-1.844,0.807-3.634,1.267-5.321
			c0.076-0.279,0.269-0.511,0.529-0.637c0.259-0.127,0.562-0.134,0.827-0.021c0.016,0.007,0.667,0.282,1.886,0.72
			c5.376,1.935,20.198,6.435,41.665,6.435c23.581,0,36.982-4.409,41.649-6.306c1.212-0.496,1.825-0.812,1.831-0.815
			c0.268-0.14,0.585-0.149,0.862-0.029c0.277,0.121,0.484,0.361,0.564,0.652c0.47,1.723,0.908,3.573,1.302,5.502
			c3.478,17.077,1.822,33.56,1.805,33.724c-0.036,0.353-0.257,0.66-0.58,0.807c-0.097,0.044-9.846,4.439-23.488,6.973
			C93.221,294.47,84.269,295.025,74.274,295.025z M28.198,284.976c2.18,0.928,10.895,4.442,22.497,6.597
			c4.885,0.91,13.7,1.453,23.58,1.453c9.879,0,18.695-0.543,23.581-1.453c11.602-2.154,20.316-5.669,22.497-6.597
			c0.253-3.035,1.223-17.558-1.827-32.54c-0.3-1.463-0.624-2.881-0.969-4.228c-0.251,0.109-0.543,0.234-0.877,0.371
			c-4.778,1.94-18.471,6.453-42.404,6.453c-21.782,0-36.867-4.582-42.341-6.552c-0.353-0.127-0.661-0.241-0.922-0.34
			c-0.341,1.325-0.66,2.706-0.951,4.119C26.963,267.305,27.943,281.93,28.198,284.976z"/>
	</g>
	<g>
		<g>
			<path fill="#4D4D4D" d="M29.481,189.683c-0.12,0-0.239-0.021-0.354-0.064l-8.628-3.269c-0.415-0.158-0.677-0.57-0.643-1.013
				c0.177-2.275,0.591-8.805,0.62-20.264c0.012-6.602-0.488-15.534-0.971-24.172c-0.294-5.249-0.571-10.207-0.74-14.647
				c-0.705-18.66-0.006-31.923,0.001-32.055c0.028-0.51,0.436-0.917,0.946-0.944c0.524-0.032,0.959,0.335,1.04,0.84l8.23,51.212
				c0.007,0.041,0.011,0.083,0.012,0.125l1.485,43.218c0.011,0.334-0.145,0.652-0.417,0.848
				C29.892,189.619,29.688,189.683,29.481,189.683z M21.906,184.743l6.524,2.472l-1.431-41.653l-6.522-40.581
				c-0.062,5.486-0.03,12.79,0.288,21.198c0.167,4.422,0.444,9.372,0.737,14.611c0.485,8.667,0.986,17.629,0.974,24.289
				C22.45,175.539,22.103,181.933,21.906,184.743z"/>
		</g>
		<g>
			<path fill="#4D4D4D" d="M119.064,189.683c-0.206,0-0.41-0.063-0.582-0.188c-0.272-0.194-0.429-0.513-0.417-0.847l1.485-43.218
				c0.001-0.042,0.005-0.083,0.012-0.125l8.233-51.212c0.081-0.504,0.538-0.867,1.04-0.84c0.51,0.027,0.918,0.434,0.945,0.944
				c0.008,0.132,0.707,13.396,0.001,32.055c-0.168,4.428-0.444,9.37-0.737,14.602c-0.484,8.655-0.985,17.605-0.973,24.219
				c0.021,9.02,0.245,16.398,0.618,20.243c0.044,0.449-0.219,0.872-0.641,1.032l-8.631,3.269
				C119.304,189.661,119.184,189.683,119.064,189.683z M121.547,145.562l-1.432,41.653l6.517-2.467
				c-0.338-4.067-0.54-11.149-0.56-19.67c-0.013-6.672,0.49-15.651,0.976-24.335c0.292-5.223,0.568-10.156,0.736-14.565
				c0.317-8.409,0.35-15.714,0.288-21.201L121.547,145.562z"/>
		</g>
	</g>
	<g>
		<g>
			<path fill="#4D4D4D" d="M20.599,253.425c-0.113,0-0.227-0.02-0.337-0.059c-0.391-0.14-0.655-0.507-0.663-0.922
				c-0.01-0.495-0.969-49.686,0.002-63.107c0.024-0.328,0.208-0.624,0.491-0.79c0.284-0.167,0.633-0.182,0.93-0.044l8.942,4.179
				c0.343,0.16,0.566,0.5,0.576,0.879l0.997,36.138c0.002,0.066-0.003,0.133-0.014,0.198c-0.033,0.188-0.838,4.699-4.19,12.137
				c-3.819,8.474-5.889,10.94-5.975,11.041C21.165,253.301,20.885,253.425,20.599,253.425z M21.505,190.937
				c-0.685,12.742-0.155,47.38,0.034,58.199c0.949-1.645,2.282-4.178,3.971-7.925c2.979-6.612,3.894-10.896,4.025-11.565
				l-0.977-35.413L21.505,190.937z"/>
		</g>
		<g>
			<path fill="#4D4D4D" d="M127.948,253.425c-0.287,0-0.566-0.124-0.761-0.351c-0.086-0.101-2.152-2.567-5.974-11.041
				c-3.35-7.438-4.156-11.948-4.188-12.137c-0.012-0.065-0.016-0.132-0.015-0.198l0.997-36.138c0.011-0.379,0.233-0.719,0.576-0.879
				l8.94-4.179c0.299-0.14,0.646-0.123,0.93,0.044c0.284,0.166,0.468,0.462,0.491,0.79c0.972,13.422,0.013,62.612,0.003,63.107
				c-0.009,0.415-0.272,0.782-0.663,0.922C128.175,253.406,128.062,253.425,127.948,253.425z M119.014,229.646
				c0.132,0.67,1.045,4.953,4.023,11.565c1.688,3.746,3.022,6.279,3.971,7.924c0.188-10.819,0.718-45.456,0.033-58.198l-7.051,3.296
				L119.014,229.646z"/>
		</g>
	</g>
	<g>
		<path fill="#4D4D4D" d="M44.584,315.959c-0.058,0-0.116-0.005-0.174-0.016c-9.767-1.722-17.16-4.308-21.975-7.685
			c-0.286-0.2-0.446-0.535-0.424-0.884c0.023-0.349,0.226-0.659,0.536-0.821c0.826-0.431,1.769-0.649,2.802-0.649
			c2.518,0,4.43,0.793,6.278,1.56c1.701,0.705,3.308,1.372,5.32,1.372c0.61,0,1.221-0.06,1.866-0.182
			c3.5-0.664,5.953,1.587,6.755,6.131c0.057,0.321-0.047,0.65-0.278,0.881C45.102,315.855,44.847,315.959,44.584,315.959z
			 M25.623,307.908c4.264,2.429,10.177,4.371,17.635,5.791c-0.514-1.653-1.478-3.158-3.283-3.158c-0.248,0-0.514,0.026-0.79,0.078
			c-0.758,0.144-1.511,0.217-2.237,0.217c-2.411,0-4.279-0.775-6.087-1.524C29.193,308.619,27.613,307.964,25.623,307.908z"/>
	</g>
	<g>
		<path fill="#4D4D4D" d="M101.306,316.396c-0.262,0-0.517-0.104-0.705-0.291c-0.225-0.224-0.33-0.541-0.284-0.854
			c0.715-4.86,3.207-7.28,6.837-6.596c0.646,0.122,1.256,0.182,1.865,0.182c2.011,0,3.617-0.667,5.318-1.372
			c1.849-0.767,3.76-1.56,6.277-1.56c1.76,0,3.196,0.597,4.271,1.774c0.202,0.221,0.294,0.52,0.252,0.815
			c-0.043,0.296-0.215,0.558-0.471,0.713c-5.272,3.208-13.081,5.623-23.209,7.177C101.406,316.392,101.356,316.396,101.306,316.396z
			 M105.991,310.541c-1.971,0-2.947,1.764-3.428,3.642c8.388-1.384,15.022-3.379,19.77-5.943c-0.495-0.225-1.065-0.335-1.719-0.335
			c-2.119,0-3.767,0.684-5.512,1.407c-1.807,0.749-3.675,1.524-6.084,1.524c-0.736,0-1.468-0.071-2.236-0.217
			C106.506,310.567,106.24,310.541,105.991,310.541z"/>
	</g>
	<g>
		<g>
			<path fill="#4D4D4D" d="M129.148,114.443c-1.109,0-1.69-0.986-1.727-2.93c-0.027-1.534-0.07-3.074-0.11-4.549
				c-0.128-4.622-0.229-8.271,0.14-9.759c0.13-0.526,0.656-0.856,1.187-0.736c1.972,0.436,5.728,2.41,5.833,6.764
				c0.079,3.282-2.089,8.668-3.827,10.449C130.144,114.194,129.654,114.443,129.148,114.443z M129.252,98.793
				c-0.116,1.767-0.031,4.87,0.059,8.115c0.041,1.481,0.083,3.028,0.111,4.568c0.004,0.225,0.016,0.409,0.03,0.559
				c1.151-1.457,3.086-5.977,3.019-8.755C132.407,100.645,130.494,99.354,129.252,98.793z"/>
		</g>
		<g>
			<path fill="#4D4D4D" d="M145.955,111.428c-0.108,0-0.217-0.018-0.322-0.053l-14.248-4.844c-0.453-0.154-0.734-0.609-0.668-1.084
				c0.469-3.385,2.121-3.89,3.064-3.89c0.359,0,0.739,0.073,1.129,0.216c2.389,0.829,10.332,3.692,11.513,5.47
				c0.624,0.937,0.8,2.115,0.508,3.407c-0.062,0.276-0.24,0.513-0.487,0.651C146.293,111.385,146.124,111.428,145.955,111.428z
				 M132.853,104.917l12.183,4.142c-0.046-0.263-0.139-0.5-0.277-0.708c-0.603-0.854-5.93-3.102-10.521-4.695
				c-0.185-0.068-0.332-0.099-0.455-0.099C133.301,103.557,133.013,104.28,132.853,104.917z"/>
		</g>
		<g>
			<path fill="#4D4D4D" d="M145.59,112.495c-0.089,0-0.179-0.012-0.268-0.037l-13.994-3.891c-0.419-0.116-0.715-0.49-0.731-0.924
				c-0.002-0.042-0.039-1.05,0.12-2.196c0.041-0.295,0.211-0.557,0.465-0.714c0.254-0.156,0.563-0.191,0.848-0.096l14.248,4.844
				c0.486,0.166,0.768,0.672,0.652,1.172c-0.167,0.718-0.417,1.231-0.445,1.287C146.312,112.287,145.961,112.495,145.59,112.495z"/>
		</g>
	</g>
	<g>
		<g>
			<path fill="#4D4D4D" d="M19.293,114.117C19.293,114.117,19.293,114.117,19.293,114.117c-0.542,0-1.076-0.278-1.632-0.849
				c-1.818-1.866-4.051-7.119-3.967-10.364c0.113-4.361,4.084-6.332,6.168-6.764c0.521-0.104,1.035,0.21,1.17,0.724
				c0.376,1.427,0.303,4.666,0.15,9.832c-0.043,1.458-0.087,2.978-0.117,4.49C21.018,113.608,20.076,114.117,19.293,114.117z
				 M19.244,98.426c-1.329,0.533-3.48,1.813-3.551,4.53c-0.075,2.912,2.111,7.586,3.326,8.87c0.022-0.167,0.041-0.389,0.046-0.678
				c0.03-1.52,0.075-3.046,0.118-4.51C19.281,103.339,19.374,100.187,19.244,98.426z"/>
		</g>
		<g>
			<path fill="#4D4D4D" d="M2.6,111.318c-0.161,0-0.321-0.039-0.466-0.115c-0.244-0.128-0.424-0.352-0.498-0.617
				c-0.385-1.384-0.232-2.653,0.442-3.67c1.182-1.777,9.125-4.641,11.531-5.476c0.372-0.137,0.751-0.209,1.112-0.209
				c0.973,0,2.668,0.532,3.094,4.095c0.056,0.468-0.223,0.912-0.669,1.064l-14.223,4.874C2.818,111.3,2.709,111.318,2.6,111.318z
				 M14.721,103.23c-0.124,0-0.271,0.031-0.438,0.093c-4.609,1.6-9.937,3.848-10.539,4.7c-0.197,0.297-0.285,0.626-0.307,0.95
				l12.26-4.201C15.511,103.936,15.189,103.23,14.721,103.23z"/>
		</g>
		<g>
			<path fill="#4D4D4D" d="M2.912,112.167c-0.369,0-0.718-0.205-0.892-0.547c-0.022-0.044-0.225-0.45-0.386-1.039
				c-0.139-0.509,0.142-1.039,0.641-1.209l14.223-4.874c0.286-0.097,0.6-0.061,0.855,0.098c0.256,0.16,0.425,0.427,0.462,0.727
				c0.129,1.063,0.092,1.961,0.09,1.999c-0.019,0.433-0.314,0.804-0.731,0.919l-13.994,3.89
				C3.091,112.156,3.001,112.167,2.912,112.167z"/>
		</g>
	</g>
	<g>
		<path fill="#4D4D4D" d="M14.105,175.55c-1.276,0-2.314-1.107-2.314-2.468V160.93c0-1.361,1.038-2.468,2.314-2.468
			c0.552,0,1,0.448,1,1v15.088C15.105,175.103,14.658,175.55,14.105,175.55z"/>
	</g>
	<g>
		<path fill="#4D4D4D" d="M13.449,236.353c-1.275,0-2.312-1.107-2.312-2.468v-12.151c0-1.359,1.038-2.466,2.312-2.466
			c0.552,0,1,0.447,1,1v15.085C14.449,235.905,14.001,236.353,13.449,236.353z"/>
	</g>
	<g>
		<path fill="#4D4D4D" d="M134.442,175.55c-0.553,0-1-0.447-1-1v-15.088c0-0.552,0.447-1,1-1c1.275,0,2.312,1.107,2.312,2.468
			v12.152C136.755,174.442,135.718,175.55,134.442,175.55z"/>
	</g>
	<g>
		<path fill="#4D4D4D" d="M135.098,236.353c-0.553,0-1-0.447-1-1v-15.085c0-0.553,0.447-1,1-1c1.276,0,2.314,1.106,2.314,2.466
			v12.151C137.412,235.245,136.374,236.353,135.098,236.353z"/>
	</g>
	<g>
		<path fill="#4D4D4D" d="M20.641,27.144L20.641,27.144c-0.526,0-1.055-0.063-1.571-0.188c-0.322-0.078-0.585-0.31-0.702-0.621
			c-0.117-0.31-0.072-0.658,0.119-0.929c1.64-2.321,3.637-4.547,6.678-7.445c1.46-1.392,3.077-2.861,4.79-4.417l0.723-0.657
			c2.676-2.435,6.309-4.567,10.798-6.337c0.327-0.128,0.697-0.076,0.976,0.137c0.278,0.214,0.424,0.559,0.384,0.908
			c-0.277,2.402-1.371,4.493-3.079,5.886L24.996,25.549C23.717,26.592,22.212,27.144,20.641,27.144z M40.424,9.155
			c-3.442,1.518-6.262,3.266-8.399,5.211L31.3,15.024c-1.703,1.547-3.312,3.009-4.755,4.385c-2.296,2.188-3.971,3.972-5.337,5.7
			c0.901-0.112,1.764-0.489,2.523-1.109l14.762-12.068C39.345,11.236,40.01,10.269,40.424,9.155z"/>
	</g>
	<g>
		<path fill="#4D4D4D" d="M127.906,27.144L127.906,27.144c-1.571,0-3.078-0.551-4.355-1.594L108.787,13.48
			c-1.704-1.395-2.797-3.484-3.078-5.884c-0.041-0.349,0.104-0.694,0.383-0.909c0.279-0.215,0.65-0.267,0.978-0.138
			c4.492,1.771,8.126,3.903,10.801,6.337l0.676,0.614c1.649,1.499,3.163,2.875,4.557,4.195c3.184,3.011,5.265,5.317,6.956,7.711
			c0.191,0.271,0.236,0.619,0.12,0.929c-0.117,0.31-0.38,0.542-0.701,0.621C128.961,27.081,128.433,27.144,127.906,27.144z
			 M108.125,9.156c0.414,1.114,1.078,2.081,1.928,2.776l14.764,12.069c0.758,0.619,1.62,0.996,2.522,1.108
			c-1.425-1.802-3.184-3.665-5.611-5.961c-1.385-1.312-2.888-2.678-4.527-4.167l-0.676-0.615
			C114.389,12.423,111.568,10.674,108.125,9.156z"/>
	</g>
</g>
</svg>
