<?xml version="1.0" encoding="utf-8"?>
<!-- Generator: Adobe Illustrator 16.0.0, SVG Export Plug-In . SVG Version: 6.00 Build 0)  -->
<!DOCTYPE svg PUBLIC "-//W3C//DTD SVG 1.1//EN" "http://www.w3.org/Graphics/SVG/1.1/DTD/svg11.dtd">
<svg version="1.1" id="Layer_1" xmlns="http://www.w3.org/2000/svg" xmlns:xlink="http://www.w3.org/1999/xlink" x="0px" y="0px"
	 width="235.559px" height="56.25px" viewBox="0 0 235.559 56.25" enable-background="new 0 0 235.559 56.25" xml:space="preserve">
<g>
	<path fill="#E91E63" d="M34.496,36.45h-4.6V4.634c0-1.694-1.378-3.072-3.072-3.072H19.04c-1.694,0-3.072,1.378-3.072,3.072v0.112
		c0,1.723,1.35,3.071,3.072,3.071h4.6v8.48c-2.38-1.998-5.249-3.146-8.016-3.146c-8.2,0-14.384,6.496-14.384,15.111
		c0,8.583,6.184,15.056,14.384,15.056c2.91,0,5.704-1.088,8.061-3.105c0.25,1.445,1.512,2.547,3.027,2.547h7.784
		c1.694,0,3.072-1.379,3.072-3.072v-0.168C37.568,37.829,36.19,36.45,34.496,36.45z M23.64,24.607v7.317
		c-1.41,3.176-4.378,5.141-7.792,5.141c-4.677,0-8.072-3.7-8.072-8.799s3.395-8.8,8.072-8.8
		C19.262,19.466,22.229,21.431,23.64,24.607z"/>
	<path fill="#E91E63" d="M72.117,16.677c-2.342-2.735-6.012-4.013-10.208-3.457c-3.036,0.427-6.046,2.262-8.437,5.061v-1.661
		c0-1.694-1.378-3.072-3.072-3.072h-7.84c-1.694,0-3.072,1.378-3.072,3.072v0.11c0,1.665,1.407,3.072,3.072,3.072h4.656V36.45H42.56
		c-1.666,0-3.072,1.406-3.072,3.072v0.11c0,1.695,1.378,3.072,3.072,3.072h15.456c1.723,0,3.072-1.351,3.072-3.072v-0.11
		c0-1.693-1.378-3.072-3.072-3.072h-4.544v-8.315c1.272-4.107,4.009-7.259,7.355-8.451c1.701-0.628,3.96-0.641,5.261-0.077
		c-1.092,1.056-1.505,2.559-1.394,3.834c0.213,2.063,1.764,4.146,4.747,4.146c2.417,0,4.276-1.688,4.74-4.317
		C74.526,21.053,73.754,18.589,72.117,16.677z"/>
	<path fill="#E91E63" d="M116.1,13.21c-4.966,0-9.368,2.41-12.124,6.106c-2.746-3.696-7.131-6.106-12.08-6.106
		c-8.333,0-15.112,6.754-15.112,15.056c0,8.333,6.779,15.112,15.112,15.112c4.949,0,9.333-2.419,12.08-6.13
		c2.756,3.711,7.158,6.13,12.124,6.13c8.299,0,15.053-6.779,15.053-15.112C131.152,19.964,124.398,13.21,116.1,13.21z
		 M91.896,37.065c-4.853,0-8.8-3.947-8.8-8.8s3.948-8.8,8.8-8.8c4.822,0,8.744,3.947,8.744,8.8S96.719,37.065,91.896,37.065z
		 M116.1,37.065c-4.851,0-8.799-3.947-8.799-8.8s3.948-8.8,8.799-8.8c4.818,0,8.741,3.947,8.741,8.8S120.919,37.065,116.1,37.065z"
		/>
	<path fill="#E91E63" d="M153.337,13.21c-3.095,0-5.858,0.914-8.11,2.664c-0.343-1.319-1.567-2.328-2.978-2.328h-7.785
		c-1.692,0-3.07,1.378-3.07,3.072v0.11c0,1.724,1.349,3.072,3.07,3.072h4.602v28.632h-4.602c-1.692,0-3.07,1.377-3.07,3.072v0.111
		c0,1.723,1.349,3.072,3.07,3.072h15.457c1.723,0,3.071-1.351,3.071-3.072v-0.111c0-1.695-1.378-3.072-3.071-3.072h-4.601v-7.695
		c2.254,1.734,4.983,2.64,8.017,2.64c8.199,0,14.383-6.496,14.383-15.112C167.72,19.683,161.538,13.21,153.337,13.21z
		 M153.113,19.466c4.603,0,8.072,3.783,8.072,8.8c0,5.099-3.396,8.8-8.072,8.8c-3.413,0-6.382-1.965-7.792-5.142v-7.317
		C146.731,21.431,149.7,19.466,153.113,19.466z"/>
	<path fill="#E91E63" d="M196.74,34.136c-1.146-1.227-2.958-1.191-4.596,0.223c-1.504,1.367-3.57,2.765-7.503,2.765
		c-3.633,0-6.62-2.347-7.742-5.951h16.422c1.523,0,4.08-0.573,4.08-4.417c0-5.258-3.586-13.601-13.208-13.601
		c-8.604,0-13.601,7.503-13.935,14.56c-0.211,4.295,1.236,8.301,4.074,11.284c2.691,2.823,6.353,4.381,10.309,4.381
		c5.396,0,9.273-1.489,11.847-4.549C197.861,37.228,197.958,35.429,196.74,34.136z M183.913,19.411c3.75,0,5.959,1.804,6.725,5.504
		h-13.471C178.089,22.449,180.017,19.411,183.913,19.411z"/>
	<path fill="#E91E63" d="M232.173,16.677c-2.344-2.735-6.014-4.015-10.209-3.457c-3.035,0.428-6.045,2.262-8.437,5.061v-1.661
		c0-1.694-1.378-3.072-3.071-3.072h-7.841c-1.692,0-3.071,1.378-3.071,3.072v0.11c0,1.665,1.406,3.072,3.071,3.072h4.656V36.45
		h-4.656c-1.665,0-3.071,1.406-3.071,3.072v0.11c0,1.695,1.379,3.072,3.071,3.072h15.456c1.723,0,3.072-1.351,3.072-3.072v-0.11
		c0-1.693-1.378-3.072-3.072-3.072h-4.544v-8.315c1.271-4.107,4.008-7.259,7.354-8.451c1.701-0.628,3.959-0.641,5.262-0.077
		c-1.092,1.056-1.506,2.559-1.396,3.834c0.215,2.063,1.766,4.146,4.748,4.146c2.416,0,4.275-1.688,4.739-4.317
		C234.581,21.053,233.81,18.589,232.173,16.677z"/>
</g>
</svg>
