<?xml version="1.0" encoding="utf-8"?>
<!-- Generator: Adobe Illustrator 16.0.0, SVG Export Plug-In . SVG Version: 6.00 Build 0)  -->
<!DOCTYPE svg PUBLIC "-//W3C//DTD SVG 1.1//EN" "http://www.w3.org/Graphics/SVG/1.1/DTD/svg11.dtd">
<svg version="1.1" id="Layer_1" xmlns="http://www.w3.org/2000/svg" xmlns:xlink="http://www.w3.org/1999/xlink" x="0px" y="0px"
	 width="250px" height="250px" viewBox="0 0 250 250" enable-background="new 0 0 250 250" xml:space="preserve">
<path fill="#666666" d="M67.212,132.492c1.928,15.558,9.991,29.188,21.649,38.4l-0.008-38.4H67.212z M88.831,79.119
	c-10.925,8.639-18.677,21.09-21.192,35.437l21.214,0.011L88.831,79.119z M106.83,114.523h17.349V66.734
	c-5.972,0.061-11.834,1.074-17.327,2.892L106.83,114.523z M124.995,43.925c-44.414,0-80.416,36.296-80.416,81.071
	c0,44.772,36.001,81.079,80.416,81.079c44.427,0,80.426-36.307,80.426-81.079C205.421,80.221,169.422,43.925,124.995,43.925z
	 M173.29,62.525l3.185,3.008l-3.433,8.76l8.611-3.84l3.206,3.058l-8.622,14.556l-3.173-3.118l4.82-8.528l-0.039-0.033l-9.382,4.027
	l-1.284-1.218l3.56-9.564l-0.039-0.033l-8.021,5.432l-3.239-3.008L173.29,62.525z M137.864,54.883
	c1.521-4.716,6.87-6.627,11.537-5.102c4.666,1.51,7.922,6.209,6.413,10.925c-1.604,5.036-6.507,7.372-11.713,5.675
	C138.889,64.696,136.256,59.919,137.864,54.883z M119.287,46.729c3.361-0.264,6.027,1.063,6.309,4.545
	c0.17,2.259-0.981,4.297-3.367,4.903l5.873,6.259l-5.498,0.446l-4.661-5.95l-0.044,0.005l0.496,6.27l-4.418,0.358l-1.289-16.313
	L119.287,46.729z M90.946,54.321l13.223,11.493l-4.176,2.209l-2.292-2.005l-5.405,2.859l0.267,3.08l-4.165,2.188l-1.725-17.553
	L90.946,54.321z M70.545,68.332l2.645,2.424l-3.622,3.995l2.008,1.84l3.272-3.62L77.5,75.4l-3.289,3.62l4.708,4.331l-2.983,3.306
	L63.953,75.615L70.545,68.332z M52.708,94.716l11.68,4.898l2.05-4.937l3.289,1.377l-3.738,9.068l-14.983-6.286L52.708,94.716z
	 M62.887,120.087l-2.84,1.091l-0.066,6.143l2.804,1.218l-0.058,4.735l-16.148-6.796l0.058-4.882l16.308-6.275L62.887,120.087z
	 M124.995,184.6c-32.641,0-59.122-26.688-59.122-59.604c0-32.913,26.481-59.601,59.122-59.601c32.649,0,59.126,26.688,59.126,59.601
	C184.121,157.912,157.644,184.6,124.995,184.6z M180.893,96.92l14.997-6.275l3.702,9.03l-3.295,1.372l-2.017-4.893l-2.501,1.047
	l1.912,4.645l-3.301,1.377l-1.917-4.645l-2.589,1.08l2.027,4.903l-3.301,1.383L180.893,96.92z M196.154,132.172
	c-5.245,0.177-9.085-3.678-9.278-9.187c-0.188-5.51,3.383-9.625,8.628-9.807c4.903-0.166,8.507,4.264,8.672,9.2
	C204.341,127.326,201.058,131.996,196.154,132.172z M195.636,117.829c-2.787,0.104-4.76,2.347-4.672,5.013
	c0.1,2.667,2.215,4.782,5.008,4.688c2.243-0.077,4.21-2.341,4.116-4.997C199.994,119.856,197.878,117.751,195.636,117.829z
	 M118.102,54.162c1.438-0.11,3.036-0.501,2.898-2.27c-0.148-1.774-1.779-1.906-3.217-1.791l-0.435,0.033l0.319,4.066L118.102,54.162
	z M145.357,62.454c2.523,0.821,5.212-0.468,6.065-3.157c0.688-2.148-0.743-4.782-3.267-5.597s-5.201,0.479-5.906,2.628
	C141.396,59.01,142.845,61.644,145.357,62.454z M56.793,122.335l-5.179,1.769v0.044l5.135,1.906L56.793,122.335z M95.114,63.693
	l-4.008-3.774l-0.036,0.022l0.777,5.471L95.114,63.693z M106.83,180.347c5.493,1.817,11.36,2.843,17.349,2.897v-50.72H106.83
	V180.347z M126.107,183.057v-0.011c-0.033,0-0.077,0.011-0.116,0.011H126.107z M126.097,66.943l0.011,116.103
	c31.503-0.375,56.89-26.214,56.89-58.05C182.997,93.124,157.533,67.252,126.097,66.943z M161.5,80.971
	c0.964,0,1.752,0.793,1.752,1.774c0,0.958-0.788,1.752-1.752,1.752c-0.959,0-1.747-0.793-1.747-1.752
	C159.753,81.764,160.541,80.971,161.5,80.971z M142.261,87.152v-1.686h20.936v1.686H142.261z M163.196,89.014v2.204h-20.936v-2.204
	H163.196z M157.092,80.971c0.953,0,1.736,0.793,1.736,1.774c0,0.958-0.783,1.752-1.736,1.752c-0.98,0-1.757-0.793-1.757-1.752
	C155.335,81.764,156.111,80.971,157.092,80.971z M152.651,80.971c0.97,0,1.752,0.793,1.752,1.774c0,0.958-0.782,1.752-1.752,1.752
	c-0.958,0-1.74-0.793-1.74-1.752C150.911,81.764,151.693,80.971,152.651,80.971z M148.233,80.971c0.964,0,1.746,0.793,1.746,1.774
	c0,0.958-0.782,1.752-1.746,1.752c-0.976,0-1.741-0.793-1.741-1.752C146.492,81.764,147.258,80.971,148.233,80.971z M143.804,80.971
	c0.958,0,1.752,0.793,1.752,1.774c0,0.958-0.794,1.752-1.752,1.752c-0.959,0-1.741-0.793-1.741-1.752
	C142.062,81.764,142.845,80.971,143.804,80.971z M131.595,114.831c0-0.474,0.188-0.898,0.496-1.212l3.096-2.165
	c1.521-1.02,1.234-2.711,1.025-4.099c-0.231-1.394-1.687-0.733-2.116-0.22c-0.661,0.655-1.548,1.058-2.545,1.058
	c-1.994,0-3.604-1.548-3.604-3.559c0-1.989,1.609-3.625,3.604-3.625c0.997,0,1.884,0.413,2.545,1.069
	c0.43,0.507,1.885,1.173,2.116-0.226c0.209-1.388,0.495-3.074-1.025-4.099l-3.096-2.165c-0.309-0.303-0.496-0.738-0.496-1.207
	c0-0.948,0.766-1.713,1.697-1.713c0.468,0,0.893,0.193,1.189,0.501l4.805,3.338c-0.281,1.389,0.661,6.446,4.071,8.066
	c-3.41,1.609-4.248,6.446-4.071,8.126l-4.805,3.339c-0.297,0.314-0.722,0.501-1.189,0.501
	C132.36,116.539,131.595,115.773,131.595,114.831z M168.772,91.609c2.171,1.024,10.026,7.338,10.026,17.889
	c0,10.562-9.311,15.983-15.128,16.027h-19.481c-1.025,0-1.852,0.827-1.852,1.868c0,1.02,0.826,1.856,1.852,1.856l18.324-0.011
	c5.79,0,10.49,4.917,10.49,10.757c0,5.841-4.7,10.424-10.49,10.424l-17.454-0.011c-0.97,0-1.752,0.782-1.752,1.752
	c0,0.98,0.782,1.763,1.752,1.763l13.233,0.012c3.119,0,5.664,2.556,5.664,5.696c0,3.162-2.545,5.675-5.664,5.675l-7.999,0.033
	c-0.738,0-1.334,0.595-1.334,1.333c0,0.749,0.596,1.355,1.334,1.355h6.143c2.144,0,4.551,3.195-0.066,4.958
	c0.039-0.914-0.104-2.236-2.044-2.236c-1.917,0-4.903-0.011-4.903-0.011c-2.38,0-4.324-1.808-4.324-4.21
	c0-2.391,1.944-4.495,4.324-4.495l8.43,0.011c0.915,0,1.653-0.749,1.653-1.675c0-0.914-0.738-1.697-1.653-1.697h-13.515
	c-4.38,0-7.917-3.559-7.917-7.978c0-4.396,3.537-7.801,7.917-7.801h16.578c1.019,0,1.846-0.551,1.846-1.576
	c0-1.035-0.827-1.917-1.846-1.917h-16.727c-6.59,0-11.934-5.366-11.934-12.008c0-6.644,5.344-12.032,11.934-12.032l16.07,0.005
	c1.251,0,2.265-1.085,2.265-2.347s-1.014-2.209-2.265-2.209l-18.109,0.005c0.876-3.812,3.339-4.396,5.526-4.391h8.435
	c0.97,0,1.741-0.793,1.741-1.757c0-0.981-0.771-1.62-1.741-1.62h-8.435c-3.637,0-5.383-3.229-5.526-4.986h8.728
	c0.732-2.347,2.182-3.515,3.779-3.515h9.311C167.158,94.546,168.469,92.485,168.772,91.609z"/>
</svg>
