<?xml version="1.0" encoding="utf-8"?>
<!-- Generator: Adobe Illustrator 16.0.0, SVG Export Plug-In . SVG Version: 6.00 Build 0)  -->
<!DOCTYPE svg PUBLIC "-//W3C//DTD SVG 1.1//EN" "http://www.w3.org/Graphics/SVG/1.1/DTD/svg11.dtd">
<svg version="1.1" id="Layer_1" xmlns="http://www.w3.org/2000/svg" xmlns:xlink="http://www.w3.org/1999/xlink" x="0px" y="0px"
	 width="250px" height="250px" viewBox="0 0 250 250" enable-background="new 0 0 250 250" xml:space="preserve">
<g>
	<path fill="#666666" d="M36.934,158.821h6.521c1.02,2.332,1.941,4.793,2.696,6.919c0.429-0.017,0.883-0.068,1.35-0.068
		c0.459,0,0.85,0.052,1.355,0.068l-7.699-17.927h-0.604l-7.999,17.927c0.287-0.017,0.54-0.068,0.892-0.068
		c0.305,0,0.604,0.052,0.947,0.068C35.111,163.331,36.025,161.076,36.934,158.821 M40.226,151.165l2.859,6.576h-5.667
		L40.226,151.165z"/>
	<path fill="#666666" d="M55.311,164.943c-2.023,0-3.142-1.029-4.171-2.658h-0.261c-0.073,0.771-0.197,1.535-0.463,2.28
		c0.874,0.961,2.932,1.483,4.184,1.483c3.48,0,6.349-2.187,6.349-5.838c0-5.496-8.098-3.593-8.098-8.291
		c0-1.835,1.475-3.001,3.245-3.001c1.509,0,2.619,0.823,3.168,2.221h0.253c0.218-0.729,0.381-1.44,0.694-2.101
		c-0.947-0.866-2.443-1.243-3.678-1.243c-3.074,0-5.693,1.612-5.693,4.938c0,5.778,8.038,3.687,8.038,8.471
		C58.878,163.254,57.39,164.943,55.311,164.943"/>
	<path fill="#666666" d="M68.231,149.408v16.384c0.343-0.018,0.729-0.068,1.127-0.068c0.36,0,0.716,0.051,1.123,0.068v-16.384
		c2.302,0,4.09,0.154,5.367,0.316c-0.025-0.248-0.081-0.514-0.081-0.763c0-0.274,0.056-0.488,0.081-0.789H62.611
		c0.009,0.301,0.072,0.515,0.072,0.789c0,0.249-0.063,0.515-0.072,0.763C64.056,149.562,65.625,149.408,68.231,149.408"/>
	<path fill="#666666" d="M95.718,156.575c0-6.164-4.892-8.779-9.705-8.779c-5.328,0-9.525,3.559-9.525,9.174
		c0,5.487,3.781,9.079,9.474,9.079C91.676,166.049,95.718,162.311,95.718,156.575 M79.017,157.287c0-5.213,2.714-8.634,7.236-8.634
		c2.062,0,4.046,0.866,5.324,2.486c1.35,1.715,1.633,3.516,1.633,5.642c0.176,2.829-1.771,8.419-7.181,8.419
		C82.193,165.2,79.017,162.474,79.017,157.287"/>
	<path fill="#666666" d="M100.811,151.929h0.257l11.081,12.269c0.536,0.565,1.063,1.209,1.338,1.543h0.768v-17.567
		c-0.262,0.043-0.48,0.095-0.716,0.095c-0.267,0-0.506-0.052-0.716-0.095v13.238h-0.253l-12.214-13.238h-0.994v17.567
		c0.244-0.017,0.455-0.068,0.725-0.068c0.219,0,0.463,0.052,0.725,0.068V151.929z"/>
	<path fill="#666666" d="M128.117,152.494c1.758,3.335,3.532,6.688,5.178,10.065l1.424,2.897h0.287
		c1.53-3.54,3.733-7.639,6.709-12.963c0.352,2.555,0.883,8.094,1.299,13.246c0.411-0.017,0.814-0.068,1.209-0.068
		c0.398,0,0.758,0.052,1.208,0.068c-0.698-4.896-1.384-11.205-2.083-17.567h-0.515c-2.598,4.621-4.964,9.097-7.407,13.478
		c-2.743-4.552-5.213-9.37-7.266-13.478h-0.652c-0.266,2.718-1.805,13.443-2.469,17.567c0.321-0.017,0.583-0.068,0.922-0.068
		c0.283,0,0.574,0.052,0.904,0.068C126.865,162.594,127.547,157.501,128.117,152.494"/>
	<path fill="#666666" d="M151.522,158.821h6.521c1.012,2.332,1.963,4.793,2.696,6.919c0.429-0.017,0.883-0.068,1.346-0.068
		c0.459,0,0.854,0.052,1.342,0.068l-7.712-17.927h-0.574l-7.999,17.927c0.287-0.017,0.562-0.068,0.896-0.068
		c0.305,0,0.588,0.052,0.943,0.068C149.701,163.331,150.609,161.076,151.522,158.821 M154.802,151.165l2.863,6.576h-5.649
		L154.802,151.165z"/>
	<path fill="#666666" d="M177.308,152.1c0-2.598-1.749-3.927-5.702-3.927h-5.439v17.576c0.352-0.025,0.721-0.077,1.127-0.077
		c0.356,0,0.712,0.052,1.119,0.077v-8.582h0.99l2.041,2.409l3.026,3.918c0.535,0.729,1.067,1.449,1.642,2.255
		c0.438-0.025,0.96-0.077,1.453-0.077c0.476,0,0.943,0.052,1.487,0.077l-0.493-0.651l-1.234-1.424l-5.294-6.704
		C174.641,156.498,177.308,155.066,177.308,152.1 M171.713,156.078c-1.295,0.24-2.915,0.146-3.313,0.111v-7.056
		c1.093-0.061,2.833-0.104,3.794,0.034c1.92,0.309,2.812,1.457,2.812,3.232C175.005,154.397,173.621,155.684,171.713,156.078"/>
	<path fill="#666666" d="M184.715,149.408v16.384c0.386-0.018,0.741-0.068,1.127-0.068c0.365,0,0.733,0.051,1.149,0.068v-16.384
		c2.259,0,4.063,0.154,5.354,0.316c-0.021-0.248-0.078-0.514-0.078-0.763c0-0.274,0.057-0.488,0.078-0.789h-13.233
		c0.021,0.301,0.063,0.515,0.063,0.789c0,0.249-0.042,0.515-0.063,0.763C180.565,149.562,182.139,149.408,184.715,149.408"/>
	<path fill="#666666" d="M197.554,148.173c-0.412,0.043-0.776,0.095-1.132,0.095c-0.377,0-0.755-0.052-1.132-0.095v17.567
		c0.377-0.017,0.755-0.068,1.132-0.068c0.355,0,0.72,0.052,1.132,0.068V148.173z"/>
	<path fill="#666666" d="M203.983,151.929h0.271l11.094,12.269c0.523,0.565,1.042,1.209,1.333,1.543h0.768v-17.567
		c-0.257,0.043-0.497,0.095-0.733,0.095c-0.257,0-0.471-0.052-0.703-0.095v13.238h-0.261l-12.17-13.238h-1.029v17.567
		c0.235-0.017,0.472-0.068,0.741-0.068c0.202,0,0.434,0.052,0.69,0.068V151.929z"/>
	<path fill="#666666" d="M245.098,83.951h-99.941c-2.816,0-5.122,0.866-6.803,2.563c-1.213,1.218-2.053,2.786-2.486,4.682
		c0,0.077-0.163,0.433-0.978,0.433h-19.774c-0.845,0-0.965-0.373-0.965-0.416c-0.445-1.895-1.294-3.48-2.494-4.698
		c-1.689-1.697-3.987-2.563-6.808-2.563H4.886c-0.643,0.025-2.212,0.159-3.112,1.573c-0.394,0.707-0.707,1.903,0.181,3.566
		c0.021,0,1.821,3.035,1.821,3.035c0.771,1.218,1.604,1.655,3.404,1.779c0.038,0,0.874,0.086,1.448,1.102l1.874,3.283
		c0.395,0.764,1.294,2.508,4.475,2.949c0.048,0,0.965,0.112,1.483,1.072l2.298,4.029c0.66,1.333,1.607,1.801,3.313,2.345
		l41.817,12.261c1.406,0.437,2.002,2.019,2.002,2.019c0.981,2.594,2.293,4.698,8.835,6.673l34.179,9.336
		c0.424,0.129,4.354,1.329,7.3-1.518l7.999-7.647c0,0,0.352-0.334,0.793-0.334c0.446,0,0.797,0.334,0.797,0.334
		c0.026,0.009,8.008,7.647,8.008,7.647c2.976,2.847,6.881,1.646,7.313,1.518c-0.009,0,34.174-9.336,34.208-9.336
		c6.494-1.975,7.875-4.122,8.792-6.673c0.052-0.111,0.601-1.582,2.002-2.019c0,0,6.327-1.861,41.792-12.261
		c1.736-0.544,2.67-1.012,3.339-2.345l2.272-3.986c0.527-1.003,1.44-1.115,1.479-1.115c3.189-0.424,4.115-2.169,4.527-2.949
		c-0.018,0,1.855-3.283,1.855-3.283c0.574-1.016,1.415-1.102,1.458-1.102c1.787-0.107,2.645-0.562,3.36-1.779
		c0,0.018,1.865-3.035,1.865-3.035c0.368-0.72,0.553-1.401,0.553-2.058c0-0.527-0.137-1.041-0.382-1.487
		C247.34,84.11,245.788,83.99,245.098,83.951 M137.697,91.611c0.339-1.556,1.012-2.82,1.977-3.776
		c1.329-1.329,3.159-2.002,5.482-2.002h45.911c-1.577,1.2-2.396,2.649-2.447,2.757c-0.536,0.985-1.213,2.164-1.998,3.493h-49.1
		C137.607,91.895,137.697,91.611,137.697,91.611 M175.966,102.629v-2.285l4.397,0.604c-0.6,0.733-1.213,1.457-1.855,2.221
		C177.367,102.933,176.51,102.749,175.966,102.629 M177.397,104.407c-0.463,0.498-0.947,1.008-1.432,1.557v-1.844L177.397,104.407z
		 M175.966,98.895V96.91l7.12,0.484c-0.515,0.729-1.089,1.462-1.659,2.221L175.966,98.895z M175.966,95.393v-1.878h9.761
		c-0.502,0.768-1.037,1.587-1.634,2.448L175.966,95.393z M104.849,85.833c2.323,0,4.158,0.673,5.487,2.002
		c0.977,0.956,1.646,2.221,1.984,3.776c0,0,0.068,0.271,0.18,0.472H63.396c-0.775-1.256-2.015-3.493-2.015-3.493
		c-0.043-0.107-0.857-1.578-2.439-2.757H104.849z M71.502,103.169c-0.643-0.764-1.269-1.487-1.869-2.221l4.386-0.604v2.293
		L71.502,103.169z M74.019,104.12v1.826c-0.455-0.531-0.935-1.041-1.406-1.539C73.187,104.296,73.649,104.193,74.019,104.12
		 M68.608,99.615c-0.587-0.759-1.162-1.492-1.685-2.221l7.095-0.484v1.984L68.608,99.615z M65.912,95.954
		c-0.583-0.853-1.145-1.672-1.633-2.439h9.739v1.878L65.912,95.954z M7.304,92.083c-1.247-0.107-1.521-0.244-1.925-0.9
		c0,0-1.659-2.786-1.801-2.971c-0.278-0.522-0.347-0.899-0.347-1.179c0.03-0.664,0.488-1.183,1.715-1.2h49.812
		c3.369,0,5.371,3.438,5.371,3.438c0.434,0.836,0.965,1.753,1.569,2.812H7.304z M14.064,99.14c-1.266-0.446-1.659-1.214-1.93-1.698
		c-0.763-1.333-1.801-3.288-2.302-3.927h52.748c0.502,0.802,1.063,1.655,1.646,2.551L17.969,99.14
		C17.249,99.221,15.127,99.393,14.064,99.14 M20.314,105.334l-2.221-3.91c-0.146-0.296-0.322-0.54-0.523-0.746
		c0.305-0.029,47.656-3.185,47.656-3.185c0.535,0.763,1.097,1.561,1.723,2.354l-44.333,5.937
		C20.939,106.002,20.426,105.449,20.314,105.334 M33.376,110.058c-4.6-1.372-8.334-2.448-9.915-2.919l44.5-5.972
		c0.626,0.768,1.243,1.539,1.921,2.341l-30.475,6.229C38.293,109.984,35.026,110.478,33.376,110.058 M48.461,114.481
		c-3.396-0.999-6.979-2.045-10.365-3.039c0.917-0.125,1.561-0.24,1.611-0.258c0,0,22.081-4.557,31.268-6.442
		c0.904,1.02,1.86,2.031,2.877,3.069l-20.436,6.293C53.378,114.139,50.608,115.056,48.461,114.481 M64.382,119.154
		c-0.441-0.129-5.308-1.565-11.531-3.383c0.6-0.124,0.994-0.27,1.012-0.291c0,0.021,17.143-5.277,21.15-6.529
		c1.453,1.437,3.044,2.851,4.72,4.235l-11.047,5.157C67.961,118.704,65.839,119.54,64.382,119.154 M105.179,124.954
		c-2.576-0.737-5.075-1.612-7.493-2.632c5.174-5.389,11.394-11.883,12.877-13.443h4.103L105.179,124.954z M116.35,108.879h3.447
		l-5.008,18.056c-2.803-0.407-5.504-0.926-8.179-1.599C110.267,119.167,115.115,110.953,116.35,108.879 M96.249,121.722
		c-2.065-0.93-4.11-1.977-6.096-3.095c5.898-4.235,12.089-8.643,13.61-9.748h4.797L96.249,121.722z M88.777,117.825
		c-2.165-1.316-4.273-2.739-6.322-4.325c4.689-2.183,9.058-4.24,9.885-4.621h8.955L88.777,117.825z M81.155,112.492
		c-0.09-0.086-2.928-2.481-4.153-3.613h11.93L81.155,112.492z M73.238,127.196c-4.33-1.638-4.981-3.288-5.595-4.845
		c-0.051-0.137-0.364-0.969-1.059-1.787c1.458-0.266,2.667-0.892,2.735-0.913c-0.03,0,5.852-2.73,11.639-5.475
		c2.143,1.663,4.312,3.181,6.541,4.549l-10.318,7.403C77.165,126.163,75.013,127.754,73.238,127.196 M85.622,130.675l-9.156-2.501
		c0.896-0.382,1.539-0.85,1.591-0.888c0,0,5.097-3.661,10.803-7.746c2.058,1.217,4.175,2.311,6.327,3.279l-6.006,6.284
		C88.662,129.638,86.969,131.001,85.622,130.675 M98.299,134.139l-9.83-2.675c1.008-0.592,1.697-1.312,1.758-1.381
		c0,0,2.838-2.934,6.365-6.625c2.556,1.059,5.153,1.984,7.815,2.761l-3.236,5.511C100.768,132.458,99.438,134.318,98.299,134.139
		 M111.111,136.865c-0.574,0.352-1.222,0.411-1.972,0.257l-8.621-2.366c1.063-0.857,1.758-2.058,1.887-2.298
		c0,0,1.457-2.469,3.434-5.832c2.808,0.741,5.646,1.316,8.564,1.719l-1.667,6.008C112.715,134.353,112.338,136.119,111.111,136.865
		 M114.918,136.119c-0.664,0.626-1.385,1.003-2.109,1.157c0.947-1.055,1.286-2.392,1.342-2.623l1.698-6.142
		c2.13,0.262,4.312,0.429,6.516,0.484C120.606,130.675,114.918,136.119,114.918,136.119 M124.298,127.582
		c-2.757,0-5.428-0.18-8.072-0.468l5.067-18.235h3.005V127.582z M75.51,107.434c0,0-0.025-0.017-0.025-0.038V93.528h99.041v13.889
		l-0.039,0.017H75.51z M135.345,108.879h4.072l12.916,13.469c-2.439,0.994-4.917,1.869-7.511,2.58L135.345,108.879z
		 M143.378,125.336c-2.646,0.673-5.367,1.191-8.175,1.599l-4.978-18.056h3.43L143.378,125.336z M141.453,108.879h4.779l13.632,9.748
		c-2.006,1.148-4.029,2.165-6.104,3.095C149.251,117.036,143.866,111.421,141.453,108.879 M148.715,108.879h8.938l9.902,4.621
		c-2.049,1.586-4.145,3.005-6.327,4.325C156.461,114.404,151.437,110.812,148.715,108.879 M161.086,108.879h11.918
		c-1.223,1.222-4.086,3.558-4.163,3.613C165.917,111.15,163.102,109.809,161.086,108.879 M125.729,127.582v-18.703h2.983
		l5.066,18.235C131.135,127.419,128.455,127.582,125.729,127.582 M133.861,134.928c0,0-4.646-4.433-6.221-5.932
		c2.217-0.056,4.377-0.248,6.508-0.484l1.719,6.158c0.039,0.215,0.382,1.543,1.329,2.606
		C135.906,136.925,135.516,136.539,133.861,134.928 M140.879,137.122c-0.771,0.154-1.41,0.095-1.98-0.257
		c-1.18-0.729-1.604-2.409-1.638-2.513l-1.659-6.008c2.94-0.402,5.778-0.994,8.535-1.719l3.468,5.85
		c0.116,0.223,0.811,1.423,1.869,2.28L140.879,137.122z M151.707,134.139c-1.145,0.18-2.456-1.681-2.847-2.375l-3.262-5.545
		c2.666-0.776,5.264-1.702,7.818-2.761l6.354,6.625c0.072,0.069,0.759,0.789,1.778,1.381L151.707,134.139z M166.033,130.229
		l-1.646,0.446c-1.35,0.326-3.048-1.037-3.558-1.571c0,0-2.632-2.756-6.01-6.284c2.165-0.969,4.261-2.062,6.331-3.279l10.828,7.755
		c0.039,0.029,0.665,0.497,1.561,0.879C171.139,128.847,166.033,130.229,166.033,130.229 M182.361,122.352
		c-0.613,1.557-1.26,3.207-5.581,4.845c-1.801,0.527-3.939-1.033-3.939-1.051c-0.018,0-4.836-3.464-10.327-7.42
		c2.233-1.368,4.39-2.868,6.524-4.531l11.669,5.457c0.072,0.021,1.243,0.647,2.726,0.913
		C182.722,121.366,182.413,122.197,182.361,122.352 M185.632,119.154c-1.427,0.386-3.597-0.45-4.291-0.811
		c0,0-5.457-2.546-11.068-5.157c1.677-1.385,3.267-2.799,4.725-4.205l21.15,6.521c0.034,0.013,0.433,0.146,0.994,0.27
		L185.632,119.154z M201.558,114.481c-2.118,0.587-4.926-0.343-4.978-0.343l-0.021-0.034l-20.404-6.28
		c1.016-1.016,1.993-2.062,2.897-3.082l31.255,6.442c0.052,0.018,0.699,0.133,1.599,0.258L201.558,114.481z M216.664,110.058
		c-1.685,0.42-4.96-0.073-6.058-0.321c0,0-20.876-4.27-30.475-6.255c0.682-0.775,1.295-1.564,1.903-2.314l44.514,5.972
		L216.664,110.058z M231.916,101.437c0-0.013-1.826,3.224-2.199,3.897c-0.103,0.098-0.635,0.668-2.323,0.449l-44.338-5.937
		c0.626-0.793,1.179-1.591,1.736-2.354l47.094,3.125c0.056,0.013,0.253,0.03,0.54,0.06
		C232.229,100.884,232.062,101.167,231.916,101.437 M239.773,94.115l-1.898,3.326c-0.274,0.484-0.669,1.252-1.938,1.698
		c-1.051,0.253-3.151,0.081-3.906,0l-46.258-3.074c0.592-0.896,1.166-1.749,1.672-2.551h52.727
		C240.022,93.687,239.902,93.879,239.773,94.115 M246.422,88.212c-0.013,0.018-1.796,2.971-1.796,2.971
		c-0.352,0.54-0.549,0.793-1.933,0.9H188.32c0.591-1.059,1.109-1.976,1.556-2.812c0.03-0.018,1.95-3.438,5.358-3.438h49.838
		c0.514,0,1.2,0.086,1.547,0.673c0.043,0.077,0.154,0.24,0.154,0.527C246.773,87.312,246.697,87.689,246.422,88.212"/>
	<path fill="#666666" d="M81.632,95.727l-4.219,9.487h1.166v-0.069c0.335-1.131,0.785-2.246,1.196-3.309c0,0,0.073-0.15,0.103-0.236
		h3.275c0.433,1.003,0.913,2.178,1.376,3.575l0.034,0.039h1.582l-4.085-9.487H81.632z M80.199,100.875
		c0.086-0.176,1.196-2.816,1.334-3.125c0.12,0.309,1.26,2.949,1.337,3.125H80.199z"/>
	<path fill="#666666" d="M89.969,99.838c-0.985-0.403-1.929-0.759-1.929-1.895c0-0.861,0.665-1.483,1.582-1.483
		c0.746,0,1.315,0.407,1.569,1.11l0.034,0.06h0.253l0.386-1.174l-0.043-0.052c-0.523-0.497-1.363-0.678-1.942-0.678
		c-1.873,0-3.052,1.042-3.052,2.628c0,1.65,1.213,2.113,2.289,2.56c0.978,0.373,1.882,0.72,1.882,1.86
		c0,1.028-0.793,1.86-1.779,1.86c-0.887,0-1.513-0.42-2.074-1.354l-0.018-0.034h-0.244l-0.305,1.299l0.052,0.021
		c0.497,0.544,1.638,0.802,2.229,0.802c1.984,0,3.382-1.277,3.382-3.125C92.241,100.721,91.079,100.271,89.969,99.838"/>
	<path fill="#666666" d="M99.777,96.91v-0.974h-0.068h-6.975v0.974l0.103-0.018c0.798-0.094,1.586-0.149,2.843-0.149v8.5h1.337v-8.5
		c0.943,0,1.83,0.056,2.692,0.149L99.777,96.91z"/>
	<path fill="#666666" d="M104.506,95.727c-2.967,0-5.028,2.007-5.028,4.849c0,2.863,2.015,4.779,5.002,4.779
		c3.087,0,5.175-2.001,5.175-4.972C109.654,97.172,107.057,95.727,104.506,95.727 M108.171,100.678c0,0.866-0.343,2.152-1.184,3.031
		c-0.677,0.698-1.487,1.059-2.481,1.059c-2.152,0-3.562-1.564-3.562-4.047c0-2.696,1.432-4.397,3.69-4.397
		c1.081,0,2.101,0.476,2.718,1.277c0.669,0.879,0.819,1.792,0.819,2.867V100.678z"/>
	<path fill="#666666" d="M118.077,95.937v6.859c-0.051-0.047-6.353-6.859-6.353-6.859h-0.613v9.277h0.888v-7.189h0.021
		c0.051,0.064,5.739,6.34,5.739,6.34l0.717,0.832l0.029,0.018h0.484v-9.277h-0.081H118.077z"/>
	<path fill="#666666" d="M133.969,95.937h-0.052h-0.335l-2.237,4.073c0,0-1.449,2.571-1.564,2.82
		c-1.389-2.323-2.624-4.741-3.687-6.854l-0.025-0.039h-0.464l-0.029,0.082c-0.133,1.342-0.913,6.953-1.27,9.092l-0.008,0.104h1.102
		v-0.069c0-1.324,0.253-3.279,0.497-5.35c0,0,0.094-0.922,0.137-1.281c0.163,0.312,1.921,3.626,2.556,5.011l0.771,1.526h0.248
		l0.018-0.047c0.771-1.775,1.882-3.82,3.353-6.49c0.227,1.611,0.506,4.797,0.651,6.631l0.025,0.069h1.406v-0.104
		c-0.317-2.246-0.665-5.226-1.093-9.092V95.937z"/>
	<path fill="#666666" d="M140.205,95.727h-0.364l-4.239,9.487h1.145l0.03-0.069c0.334-1.152,0.78-2.28,1.209-3.335
		c0,0,0.072-0.124,0.085-0.21h3.279c0.442,1.029,0.909,2.221,1.39,3.575l0.021,0.039h1.586l-4.077-9.487H140.205z M138.396,100.875
		c0.086-0.176,1.196-2.786,1.324-3.125c0.138,0.309,1.286,2.949,1.351,3.125H138.396z"/>
	<path fill="#666666" d="M151.081,98.042c0-1.424-1.008-2.105-3.065-2.105h-2.82h-0.061v9.272h1.334v-4.449h0.373
		c0.038,0.051,1.071,1.247,1.071,1.247c-0.034,0,1.543,2.02,1.543,2.02l0.866,1.183h0.047h1.697c0,0-3.497-4.398-3.669-4.6
		C150.073,100.288,151.081,99.323,151.081,98.042 M146.469,100.082v-3.493c0.535-0.026,1.371-0.086,1.855,0.017
		c0.935,0.142,1.411,0.69,1.411,1.595c0,0.939-0.626,1.629-1.668,1.826C147.502,100.146,146.807,100.112,146.469,100.082"/>
	<path fill="#666666" d="M151.836,95.937v0.97l0.098-0.014c0.78-0.094,1.548-0.158,2.816-0.158v8.509h1.338v-8.509
		c0.965,0,1.856,0.052,2.684,0.158l0.099,0.014v-0.97h-0.064H151.836z"/>
	<line fill="#666666" x1="160.619" y1="105.214" x2="160.619" y2="95.954"/>
	<path fill="#666666" d="M170.208,102.796h-0.038c-0.039-0.047-6.314-6.859-6.314-6.859h-0.66v9.281h0.926v-7.193h0.025
		c0.043,0.061,5.736,6.34,5.736,6.34l0.716,0.832l0.522,0.021v-9.281h-0.913V102.796z"/>
</g>
</svg>
