<?xml version="1.0" encoding="utf-8"?>
<!-- Generator: Adobe Illustrator 16.0.0, SVG Export Plug-In . SVG Version: 6.00 Build 0)  -->
<!DOCTYPE svg PUBLIC "-//W3C//DTD SVG 1.1//EN" "http://www.w3.org/Graphics/SVG/1.1/DTD/svg11.dtd">
<svg version="1.1" id="Layer_1" xmlns="http://www.w3.org/2000/svg" xmlns:xlink="http://www.w3.org/1999/xlink" x="0px" y="0px"
	 width="250px" height="250px" viewBox="0 0 250 250" enable-background="new 0 0 250 250" xml:space="preserve">
<g>
	<g>
		<path fill="#666666" d="M157.905,152.427l9.48,10.531c-0.816-0.019-1.588-0.052-2.402-0.052c-13.17,0-23.908,5.024-23.908,15.843
			c0,8.726,10.738,15.842,23.908,15.842c13.158,0,23.918-7.116,23.918-15.842c0-8.365-10.881-19.511-16.439-26.322H157.905z
			 M176.364,178.438c0,4.508-5.115,8.175-11.381,8.175c-6.273,0-11.412-3.667-11.412-8.175c0-4.518,5.139-8.185,11.412-8.185
			C171.249,170.253,176.364,173.92,176.364,178.438"/>
	</g>
	<g>
		<path fill="#666666" d="M126.05,180.795c0,8.669-14.199,8.669-14.199,0v-16.981H99.63v18.148c0,17.711,38.365,17.865,38.365,0
			v-18.148H126.05V180.795z"/>
	</g>
	<g>
		<rect x="193.304" y="163.813" fill="#666666" width="9.971" height="30.675"/>
	</g>
	<g>
		<path fill="#666666" d="M57.78,153.49l4.232,5.167l-23.58,35.819h14.164l3.852-6.335h26.93l4.031,6.335h14.785l-28.33-40.986
			H57.78z M61.501,179.783l8.123-13.41l8.484,13.41H61.501z"/>
	</g>
	<g>
		<path fill="#666666" d="M199.456,54.7c-9.463-0.115-18.27,3.047-25.26,8.456c-6.703-5.145-15.002-8.243-24.074-8.364
			c-9.484-0.138-18.295,3.041-25.258,8.439c-6.678-5.15-15.037-8.244-24.107-8.37c-9.416-0.161-18.143,3.006-25.156,8.324
			c-6.68-5.104-14.963-8.151-23.986-8.301C29.259,54.584,10.8,72.589,10.489,94.915c-0.293,22.338,17.676,40.79,40.025,41.1
			c9.428,0.121,18.184-2.994,25.162-8.352c6.662,5.094,14.984,8.197,24.018,8.307c9.482,0.138,18.25-3.024,25.262-8.444
			c6.68,5.144,15.004,8.271,24.074,8.38c9.461,0.156,18.264-3.034,25.26-8.409c6.668,5.116,15.031,8.232,24.086,8.364
			c22.35,0.275,40.812-17.664,41.135-40.015C239.804,73.491,221.817,55.033,199.456,54.7 M198.438,131.216
			c-9.354-0.145-17.838-3.829-24.184-9.79c-6.961,6.277-15.406,9.997-25.156,9.852c-9.357-0.109-17.818-3.811-24.113-9.754
			c-6.742,6.3-15.928,9.968-25.252,9.818c-8.943-0.121-17.578-3.639-24.057-9.674c-1.018,0.943-2.227,1.933-3.582,2.909
			c-6.047,4.386-13.508,6.937-21.533,6.818c-14.682-0.197-27.26-9.244-32.615-21.994c-1.402-0.127-2.621-0.374-3.703-0.701
			c-1.529-4.288-2.379-8.933-2.314-13.762c0.279-20.913,17.082-37.847,37.748-38.583c0.562,0.839,1.184,1.886,1.701,3.156h0.184
			c9.244,0.155,18.062,3.845,24.648,10.33l-0.293-5.082c6.363-5.036,14.309-8.128,22.943-8.438c0.299,0.465,1.137,1.575,1.838,3.161
			c9.037,0.109,18.285,4.104,24.672,10.238l-0.275-4.833c6.346-5.163,14.389-8.336,23.09-8.605c0.57,0.828,1.168,1.856,1.697,3.133
			h0.184c9.111,0.126,18.199,4.3,24.695,10.497l-0.322-5.105c6.404-5.139,14.4-8.3,23.098-8.634
			c0.309,0.471,1.645,3.173,1.861,3.173c19.291,0.891,34.697,12.451,35.486,36.438C235.497,115.575,218.229,131.485,198.438,131.216
			"/>
	</g>
	<g>
		<path fill="#666666" d="M63.421,108.676c-1.562-4.311-2.408-8.961-2.307-13.79c0.098-8.939,3.215-17.136,8.4-23.666
			c1.988-0.058,4.018-0.092,5.168-0.092c-6.156-5.978-14.43-9.467-23.156-9.588C32.829,61.287,17.394,76.336,17.13,94.996
			c-0.195,16.314,11.197,30.104,26.471,33.535c0.535-0.655,1.109-1.379,1.695-2.104c1.713,0.322,3.506,0.488,5.348,0.523
			c7.092,0.086,13.668-2.167,19.301-6.363l4.727,0.092c-3.186-3.236-5.795-7.093-7.582-11.336
			C65.692,109.229,64.485,108.999,63.421,108.676 M50.665,125.325c-16.451-0.226-29.689-13.779-29.488-30.26
			C21.405,78.613,35.019,65.38,51.47,65.587c6.129,0.08,11.795,2.018,16.504,5.248c-5.111,6.708-8.227,15.009-8.324,24.051
			c-0.133,9.421,2.994,18.165,8.324,25.114C64.329,122.41,58.149,125.416,50.665,125.325"/>
	</g>
	<g>
		<path fill="#666666" d="M81.028,85.752c0.65-1.667,1.838-2.569,1.838-2.569c-1.098-3.938-4.275-8.071-7.172-11.037
			c-5.635,5.984-9.158,13.974-9.393,22.827c-0.162,5.99,2.131,15.475,6.701,20.762c0.861,1.013,1.547,2.146,2.748,3.186l0.121-4.312
			c4.352-5.208,6.604-11.91,6.713-18.71C82.614,92.352,82.097,88.931,81.028,85.752 M75.677,112.408
			c-3.432-4.938-5.422-10.939-5.33-17.377c0.082-6.151,2.025-11.847,5.283-16.561c3.41,4.926,5.398,10.951,5.324,17.399
			C80.878,102.015,78.935,107.688,75.677,112.408"/>
	</g>
	<g>
		<path fill="#666666" d="M130.153,85.706c0.639-1.684,1.852-2.581,1.852-2.581c-0.949-3.352-4.352-8.261-7.082-10.974
			c-5.646,5.955-9.123,13.934-9.232,22.763c-0.131,9.22,3.484,17.66,9.404,23.879l0.109-4.024c3.645-5.857,6.404-11.52,6.49-18.924
			C131.751,92.329,131.206,88.897,130.153,85.706 M124.923,112.206c-3.363-4.908-5.289-10.864-5.197-17.233
			c0.092-6.076,1.99-11.698,5.168-16.383c3.318,4.915,5.26,10.865,5.186,17.217C129.974,101.888,128.095,107.516,124.923,112.206"/>
	</g>
	<g>
		<path fill="#666666" d="M162.091,108.539c-1.57-4.317-2.363-8.932-2.311-13.761c0.121-8.933,3.281-17.142,8.42-23.684l5.078,0.029
			c-6.324-5.95-14.338-9.548-23.225-9.68c-9.203-0.109-17.613,3.443-23.785,9.307c6.42,6.68,10.018,15.819,9.863,25.149
			c-0.109,8.916-3.668,17.755-9.709,24.189c4.305,4.052,9.686,7.013,15.699,8.352c0.504-0.685,1.098-1.403,1.678-2.127
			c1.73,0.31,3.523,0.493,5.346,0.517c7.686,0.127,14.164-2.69,19.66-6.391l4.322-0.121c-3.074-3.196-5.588-6.949-7.357-11.1
			C164.362,109.12,163.171,108.855,162.091,108.539 M149.175,125.208c-6.191-0.091-11.904-2.011-16.652-5.312
			c5.059-6.679,8.115-14.934,8.242-23.936c0.15-9.399-2.979-18.096-8.301-25.074c4.979-3.495,11.025-5.484,17.527-5.403
			c6.145,0.104,11.881,2.069,16.578,5.334c-5.053,6.674-8.123,14.934-8.238,23.93c-0.113,9.387,2.979,18.131,8.303,25.092
			C162.999,122.243,156.745,125.33,149.175,125.208"/>
	</g>
	<g>
		<path fill="#666666" d="M230.731,83.01c-2.707-9.583-16.295-21.66-31.346-21.66c-9.174-0.12-17.543,3.45-23.764,9.284
			c6.416,6.737,10.025,15.899,9.928,25.211c-0.121,8.669-3.627,17.976-9.812,24.202c4.334,4.013,9.721,6.949,15.729,8.316
			c0.512-0.66,1.092-1.384,1.678-2.132c1.736,0.334,3.535,0.518,5.342,0.529c17.348,0.235,31.672-13.693,31.953-31.03
			c0.012-3.564-0.527-6.967-1.574-10.146C229.509,83.913,230.731,83.01,230.731,83.01 M198.513,125.151
			c-6.15-0.074-11.883-2.022-16.623-5.311c5.098-6.651,8.139-14.958,8.266-23.942c0.121-9.387-2.996-18.113-8.312-25.08
			c4.932-3.472,10.979-5.502,17.48-5.409c16.445,0.224,29.689,13.836,29.488,30.294C228.589,112.149,214.97,125.358,198.513,125.151
			"/>
	</g>
	<g>
		<path fill="#666666" d="M179.521,85.643c0.678-1.684,1.85-2.569,1.85-2.569c-1.068-3.875-4.266-8.071-7.174-11.014
			c-5.598,5.979-9.094,13.946-9.213,22.775c-0.117,9.341,3.557,17.831,9.6,24.086l0.062-4.15c4.334-5.915,6.312-11.174,6.443-18.993
			C181.118,92.265,180.601,88.845,179.521,85.643 M174.255,112.182c-3.393-4.914-5.311-10.897-5.213-17.29
			c0.074-6.07,1.988-11.715,5.154-16.395c3.393,4.897,5.352,10.87,5.289,17.257C179.394,101.848,177.474,107.504,174.255,112.182"/>
	</g>
	<g>
		<path fill="#666666" d="M112.776,108.625c-1.559-4.316-2.357-8.973-2.316-13.801c0.127-8.916,3.277-17.13,8.449-23.66l4.857-0.115
			c-6.438-5.956-14.043-9.428-23.092-9.542c-9.133-0.132-17.439,3.403-23.59,9.232c6.404,6.829,10.041,15.417,9.943,25.218
			c-0.121,9.053-3.748,17.802-9.943,24.287c4.312,4.047,9.916,6.96,15.693,8.265c0.518-0.695,1.062-1.407,1.684-2.149
			c1.736,0.321,3.529,0.505,5.334,0.528c6.375,0.093,14.637-2.052,19.492-6.449l4.553-0.023c-3.098-3.185-5.633-6.973-7.375-11.141
			C115.058,109.171,113.839,108.941,112.776,108.625 M99.825,125.267c-6.139-0.075-11.771-1.967-16.498-5.22
			c5.129-6.68,8.215-15.003,8.334-24.028c0.094-9.451-3.033-18.217-8.381-25.184c4.928-3.397,10.934-5.375,17.332-5.289
			c6.191,0.092,11.906,2.058,16.654,5.34c-5.041,6.679-8.117,14.957-8.238,23.936c-0.121,9.375,2.961,18.068,8.271,25.041
			C113.679,122.284,107.396,125.393,99.825,125.267"/>
	</g>
</g>
</svg>
