<?xml version="1.0" encoding="utf-8"?>
<!-- Generator: Adobe Illustrator 16.0.0, SVG Export Plug-In . SVG Version: 6.00 Build 0)  -->
<!DOCTYPE svg PUBLIC "-//W3C//DTD SVG 1.1//EN" "http://www.w3.org/Graphics/SVG/1.1/DTD/svg11.dtd">
<svg version="1.1" id="Layer_1" xmlns="http://www.w3.org/2000/svg" xmlns:xlink="http://www.w3.org/1999/xlink" x="0px" y="0px"
	 width="250px" height="250px" viewBox="0 0 250 250" enable-background="new 0 0 250 250" xml:space="preserve">
<g>
	<path fill="#666666" d="M2.45,93.933c0.254,0.132,2.242,1.137,2.936,1.512c0.686,0.374,3.52,1.788,3.52,1.788
		s-0.025,0.132-0.037,0.268c-0.051,0.119-0.238,1.064-0.357,1.617c-0.123,0.588-0.367,1.792-0.43,2.077
		c-0.043,0.306-0.09,0.694,0.268,0.859c0.369,0.17,2.15,1.031,2.904,1.367c0.758,0.333,3.676,1.669,3.676,1.669
		s-0.02,0.852,0.031,1.209c0.008,0.417,0.131,1.744,0.199,2.052c0.068,0.324,0.039,0.889,0.494,1.183
		c0.451,0.285,1.227,0.587,2.027,0.852c0.812,0.217,1.119,0.341,2.311,0.655c1.17,0.333,2.66,0.716,2.66,0.716
		s0.141,0.808,0.393,1.774c0.211,0.954,0.434,2.073,0.701,2.657c0.264,0.553,0.533,0.668,0.848,0.838
		c0.318,0.132,1.727,0.404,2.277,0.498c0.531,0.115,1.703,0.302,2.533,0.421c0.801,0.098,2.617,0.268,2.617,0.268
		s0.104,0.18,0.18,0.341c0.062,0.18,0.791,1.23,1.148,1.729c0.336,0.545,0.707,1.098,1.105,1.512
		c0.389,0.425,0.619,0.808,1.064,0.94c0.443,0.17,2.057,0.459,3.15,0.639c1.057,0.144,3.002,0.391,3.941,0.49
		c0.955,0.102,2.75,0.119,2.75,0.119s0.15,0.703,0.363,1.307c0.242,0.617,0.398,0.991,0.986,1.74
		c0.574,0.762,0.975,0.869,1.572,1.013c0.629,0.103,2.133,0.231,2.672,0.231c0.57,0.024,3.328,0.05,3.861,0.05
		c0.537,0,2.52-0.05,2.52-0.05s0.082,0.317,0.191,0.57c0.102,0.251,0.627,1.238,0.84,1.523c0.238,0.362,0.43,0.651,0.945,1.11
		c0.502,0.438,0.893,0.63,1.455,0.689c0.57,0.086,1.678-0.05,2.648-0.157c0.961-0.094,2.561-0.425,3.256-0.592
		c0.686-0.156,2.443-0.587,2.443-0.587s0.361,0.712,0.74,1.234c0.396,0.562,0.754,0.957,1.021,1.192
		c0.281,0.204,0.482,0.408,1.631,0.473c1.141,0.076,2.4-0.303,3.508-0.562c1.115-0.251,2.732-0.792,2.732-0.792
		s0.021,0.2,0.148,0.681c0.154,0.444,0.639,1.725,1.201,3.126c0.553,1.392,1.018,2.345,1.639,3.499
		c0.592,1.145,1.242,2.264,2.119,3.464c0.869,1.176,1.898,2.436,2.551,3.159c0.629,0.723,3.375,3.436,4.176,4.134
		c0.816,0.71,2.865,2.199,3.75,2.835c0.891,0.595,2.396,1.51,3.277,1.992c0.881,0.48,3.031,1.531,4.039,1.979
		c0.912,0.438,2.32,0.982,2.32,0.982s0.281,0.591,0.469,1.018c0.162,0.425,1.021,2.06,1.145,2.272
		c0.068,0.18,0.414,0.231,0.656,0.18c0.213-0.048,1.486-0.546,1.895-0.716c0.43-0.191,1.609-0.621,1.609-0.621
		s0.629,0.966,0.918,1.389c0.27,0.373,0.941,1.353,1.039,1.535c0.119,0.17,0.408,0.17,0.562,0.12
		c0.141-0.072,0.92-0.562,1.469-0.852c0.52-0.265,1.812-0.959,1.812-0.959s0.664,0.797,0.84,1.031
		c0.215,0.247,1.268,1.469,1.418,1.656c0.131,0.188,0.373,0.237,0.557,0.122c0.174-0.072,1.141-0.842,1.506-1.119
		c0.375-0.255,1.49-1.072,1.49-1.072s0.898,0.929,1.219,1.242c0.369,0.358,1.275,1.192,1.488,1.294
		c0.217,0.107,0.371-0.028,0.371-0.028s0.191-0.157,0.273-0.269c0.105-0.12,0.879-0.83,1.199-1.167
		c0.307-0.293,1.188-1.141,1.188-1.141s0.238,0.218,0.482,0.367c0.25,0.152,1.012,0.773,1.484,1.11
		c0.436,0.349,0.842,0.66,1.061,0.736c0.182,0.094,0.336,0.111,0.441,0.012c0.078-0.06,1.027-1.161,1.303-1.54
		c0.357-0.494,1.039-1.289,1.039-1.289s1.162,0.65,1.443,0.833c0.281,0.138,1.656,0.911,1.795,0.945
		c0.162,0.064,0.424,0.136,0.551-0.008c0.109-0.103,0.812-1.137,1.051-1.512c0.242-0.404,0.953-1.438,0.953-1.438
		s1.049,0.43,1.516,0.621c0.469,0.17,1.736,0.652,1.992,0.75c0.26,0.067,0.498,0.018,0.639-0.17
		c0.102-0.167,0.609-1.158,0.891-1.746c0.281-0.66,0.812-1.665,0.812-1.665s1.336-0.519,2.477-1.038
		c1.133-0.545,3.803-1.954,5.258-2.848c1.432-0.886,3.316-2.253,4.354-3.074c1.031-0.846,2.969-2.566,3.41-3.009
		c0.457-0.473,1.184-1.252,1.664-1.767c0.537-0.507,2.633-3.137,3.154-3.908c0.443-0.626,1.844-2.937,2.125-3.469
		c0.307-0.583,1.172-2.375,1.336-2.813c0.188-0.435,0.84-2.358,0.84-2.358s0.523,0.238,1.119,0.417
		c0.617,0.196,1.346,0.396,1.932,0.49c0.602,0.093,1.051,0.131,1.332,0.093c0.295-0.051,0.869-0.442,1.207-0.689
		c0.334-0.255,0.766-0.762,1.02-1.064c0.256-0.361,0.619-1.085,0.619-1.085s0.395,0.14,0.719,0.233
		c0.293,0.104,1.678,0.49,2.227,0.656c0.531,0.123,1.791,0.408,2.361,0.498c0.588,0.056,1.252,0.226,1.959,0.136
		c0.672-0.089,1.09-0.608,1.451-0.923c0.303-0.252,0.75-0.941,0.949-1.332c0.213-0.351,0.494-1.172,0.494-1.172
		s0.426,0.196,0.855,0.324c0.396,0.124,1.863,0.417,2.592,0.497c0.729,0.107,2.252,0.209,2.963,0.223
		c0.686,0.021,1.426-0.043,1.984-0.115c0.596-0.06,0.715-0.251,1.029-0.554c0.293-0.268,0.533-0.677,0.699-1.025
		c0.182-0.329,0.48-1.091,0.625-1.567c0.123-0.446,0.346-1.243,0.346-1.243s0.723-0.021,1.166,0c0.484,0.014,1.816,0.025,2.49,0.025
		c0.688,0,3.23-0.067,3.639-0.084c0.408-0.018,1.031-0.065,1.703-0.195c0.646-0.12,0.855-0.385,1.084-0.601
		c0.223-0.229,0.482-0.604,0.703-1.103c0.197-0.532,0.389-1.209,0.439-1.489c0.064-0.27,0.252-1.367,0.252-1.367
		s0.355,0.098,0.799,0.149c0.562,0.046,1.418,0.144,2.189,0.203c0.799,0.039,2.379,0.039,2.91,0.039
		c0.533,0,1.631-0.039,1.857-0.119c0.225-0.076,0.713-0.387,1.012-0.668c0.289-0.239,0.873-0.924,1.213-1.405
		c0.307-0.48,0.787-1.401,0.959-1.835c0.162-0.438,0.549-1.859,0.549-1.859s0.502-0.013,1.021-0.052
		c0.523-0.051,2.018-0.218,2.787-0.289c0.814-0.107,1.613-0.281,2.256-0.421c0.631-0.146,0.881-0.354,1.264-0.674
		c0.363-0.302,0.695-0.97,0.832-1.353c0.135-0.396,0.301-1.277,0.34-1.801c0.062-0.505,0.102-1.643,0.102-1.643s0.32,0,0.711-0.017
		c0.371-0.042,1.27-0.188,1.908-0.319c0.66-0.111,1.953-0.519,2.303-0.693c0.357-0.167,0.902-0.482,1.158-0.771
		c0.25-0.354,0.635-1.026,0.762-1.545c0.158-0.574,0.158-1.261,0.191-1.853c0.016-0.57-0.051-1.523-0.051-1.523
		s1.229-0.314,1.881-0.494c0.697-0.166,2.213-0.825,2.6-0.983c0.396-0.157,1.439-0.774,1.52-0.817
		c0.09-0.05,0.049-0.817,0.049-1.153c0-0.315-0.271-1.388-0.469-1.933c-0.17-0.498-0.686-1.708-0.686-1.708s1.732-0.731,2.406-0.992
		c0.668-0.276,2.719-1.315,2.902-1.447c0.195-0.09,0.336-0.178,0.502-0.375c0.154-0.188,0.566-0.919,0.646-1.068
		c0.064-0.14-0.051-0.255-0.281-0.494c-0.211-0.281-0.812-1.078-1.387-1.771c-0.617-0.672-2.064-2.048-2.24-2.133
		c-0.143-0.149-0.535-0.149-1.484-0.059c-0.822,0.059-5.799,0.446-8.102,0.685c-2.299,0.264-6.912,0.442-8.244,0.485
		c-1.389,0.047-5.785-0.157-7.896-0.264c-2.09-0.102-12.541-0.728-14.92-0.718c-2.363,0.046-13.934,0.574-15.865,0.697
		c-1.906,0.094-8.568,0.379-10.629,0.41c-3.107,0.029-6.066-0.316-7.334-0.469c-1.266-0.14-5.76-0.592-7.658-0.638
		c-1.891-0.031-3.129,0.115-4.648,0.22c-1.555,0.115-4.248,0.542-6.014,0.915c-1.732,0.379-3.803,1.005-3.803,1.005
		s-2.834-1.277-4.158-1.805c-1.35-0.523-4.832-1.587-7.896-2.261c-3.053-0.672-7.48-1.026-10.604-1.026
		c-3.115,0-6.271,0.354-9.221,0.834c-2.938,0.438-6.789,1.512-8.266,2.023c-1.457,0.498-4.334,1.617-4.334,1.617
		s-1.725-0.541-3.252-0.762c-1.498-0.264-8.229-0.703-10.354-0.703c-2.137,0-12.906,0.481-15.178,0.557
		c-2.262,0.063-9.094-0.281-11.584-0.434c-2.494-0.136-12.539-0.506-14.711-0.485c-2.172,0.025-11.148,0.174-12.707,0.259
		c-1.57,0.103-8.576,0.515-9.531,0.515h-7.045c-1.668,0-5.898-0.191-6.848-0.314c-0.953-0.098-4.543-0.48-4.883-0.503
		c-0.32-0.038-0.729,0.043-1.082,0.392C5.05,88.566,4.659,89.025,4.122,89.6c-0.52,0.584-2.35,2.737-2.35,2.737
		S1.849,92.58,1.96,93.01C2.065,93.449,2.181,93.763,2.45,93.933 M15.548,102.328c-0.307-0.136-2.309-1.022-2.857-1.273
		c-0.57-0.268-1.531-0.643-1.711-0.894c-0.18-0.222-0.09-0.559-0.09-0.848c0-0.29,0-0.651-0.332-0.919
		c-0.32-0.277-0.719-0.571-0.719-0.571l0.131-0.639c0,0,1.771-0.008,2.32,0.026c0.549,0.021,3.801,0.144,4.941,0.144
		c1.121,0,4.662,0.111,5.531,0.073c0.852-0.051,5.648,0.073,6.666,0.073c1.043,0,6.053,0.021,7.082,0.021
		c1.031,0.034,6.76,0.046,7.65,0.046c0.895,0,5.602,0,6.695,0.034c1.098,0.004,5.84-0.034,6.896-0.034
		c1.072,0,3.801,0.038,4.4,0.034c0.602-0.034,1.07-0.06,1.197-0.102c0.113-0.034,0.506-0.218,0.723-0.103
		c0.252,0.124,0.34,0.367,0.443,0.511c0.119,0.111,0.318,0.307,0.439,0.375c0.123,0.102,0.379,0.209,0.531,0.438
		c0.148,0.218,0.148,0.218,0.396,0.396c0.238,0.196,0.301,0.281,0.213,0.387c-0.09,0.111-0.461,0.559-0.609,0.822
		c-0.152,0.242-0.213,0.485-0.295,0.571c-0.105,0.071-0.625,0.144-0.625,0.144s0.307-0.255,0.268-0.463
		c-0.051-0.188-0.422-0.681-1.152-0.737c-0.779-0.046-2.635,0.111-3.486,0.213c-0.84,0.094-6.424,0.574-7.389,0.66
		c-0.994,0.098-8.693,0.643-10.018,0.762c-1.32,0.098-7.428,0.456-8.586,0.532c-1.176,0.098-5.773,0.319-7.164,0.4
		c-1.43,0.107-4.691,0.243-5.955,0.298c-1.234,0.056-3.686,0.111-4.164,0.056C16.483,102.74,15.862,102.472,15.548,102.328
		 M93.446,132.083c0.055,0.178,0.137,0.354,0.029,0.399c-0.188,0.073-0.561,0.341-0.678,0.383c-0.123,0.065-0.422,0.052-0.6-0.216
		c-0.086-0.167-0.549-0.209-0.881-0.494c-0.361-0.239-0.322-0.435-0.311-0.728c0.008-0.273,0.174-1.316,0.094-1.571
		c-0.094-0.201-0.303-0.66-0.303-0.66s0.52-1.247,0.639-1.478c0.152-0.221,0.303-0.596,0.303-0.596s0.127,0.639,0.268,0.959
		c0.129,0.285,0.43,0.624,0.533,0.971c0.08,0.237,0.598,1.573,0.676,1.795c0.102,0.196,0.26,0.536,0.203,0.737
		C93.356,131.772,93.368,131.926,93.446,132.083 M87.938,118.64c-0.281-0.498-0.461-0.528-0.691-0.597
		c-0.25-0.071-0.336,0.022-0.693-0.157c-0.383-0.196-0.557-0.579-0.801-0.626c-0.238-0.039-0.199-0.073-0.395,0
		c-0.289,0.145-0.473,0.034-0.473,0.034s1.148-1.051,1.707-1.622c0.545-0.558,1.627-1.617,2.123-2.073
		c0.451-0.503,1.303-1.311,1.303-1.311s0.188,0.293,0.58,0.314c0.408,0.035,0.799,0.077,1.09,0.094
		c0.309,0.042,0.812,0.042,0.969-0.105c0.15-0.167,0.363-0.218,0.363-0.218s-0.238,0.323-0.533,0.711
		c-0.326,0.412-1.158,1.583-1.625,2.286c-0.469,0.737-1.525,2.299-1.703,2.588c-0.191,0.303-0.584,0.919-0.711,1.128
		c-0.119,0.132-0.281,0.357-0.281,0.357S88.206,119.096,87.938,118.64 M87.337,105.227c0,0-0.891,0.694-1.201,0.979
		c-0.293,0.314-0.816,0.783-0.932,0.859c-0.127,0.06-0.57-0.17-0.863-0.327c-0.281-0.115-0.934-0.302-1.172-0.324
		c-0.254-0.03-0.434-0.03-0.434-0.03s0.639-0.553,1.074-0.919c0.428-0.337,1.26-0.877,1.607-1.179
		c0.426-0.247,0.719-0.447,0.818-0.498c0.131-0.013,0.264,0.059,0.357,0.144c0.062,0.085,0.318,0.085,0.396,0.25
		c0.045,0.218,0,0.414,0.045,0.528c0.09,0.132,0.256,0.09,0.303,0.188C87.368,105.018,87.337,105.227,87.337,105.227
		 M87.354,106.065c0.303-0.234,0.881-0.693,0.881-0.693s0.281,0.034,0.238,0.208c-0.055,0.136,0.162,0.178,0.256,0.178
		c0.137,0,0.438-0.084,0.52-0.05c0.105,0.05,0.23,0.123,0.23,0.289c0,0.205,0,0.358,0.098,0.374c0.059,0.013,0.242-0.016,0.26,0.065
		c0.012,0.084,0.021,0.182,0.021,0.182s-0.98,1.005-1.402,1.349c-0.416,0.414-1.061,1.078-1.141,1.188
		c-0.076,0.111-0.139,0.191-0.139,0.191s-0.16-0.392-0.504-0.707c-0.336-0.302-0.49-0.413-0.805-0.486
		c-0.354-0.111-0.664-0.111-0.664-0.111s0.762-0.701,1.133-1.024C86.704,106.666,87.077,106.3,87.354,106.065 M85.077,102.763
		c-0.141,0.224-0.217,0.421-0.6,0.795c-0.432,0.413-0.758,0.593-1.014,0.822c-0.27,0.23-0.66,0.553-0.877,0.588
		c-0.209,0.05-0.537-0.142-0.711-0.188c-0.162-0.035-0.689-0.23-0.83-0.316c-0.129-0.084-0.328-0.157-0.49-0.144
		c-0.152,0.021-0.617,0.123-0.617,0.123v-0.349c0,0,1.068-0.583,1.439-0.796c0.336-0.213,1.477-0.75,1.938-1.035
		c0.518-0.255,1.037-0.446,1.318-0.433c0.281,0.038,0.525,0.13,0.562,0.25C85.235,102.225,85.204,102.545,85.077,102.763
		 M83.315,100.579c-0.193,0.102-1.299,0.728-1.721,0.915c-0.408,0.182-1.35,0.634-1.625,0.676c-0.295,0.009-0.594-0.063-0.883-0.161
		c-0.25-0.077-0.375-0.119-0.51-0.132c-0.133-0.008-0.451,0-0.451,0s0.039-0.098,0.039-0.178c0-0.099,0.033-0.222,0.033-0.222
		s0.928-0.507,1.719-0.848c0.801-0.324,2.381-0.906,2.721-0.975c0.34-0.077,0.699-0.216,0.891-0.077
		c0.191,0.111,0.357,0.209,0.305,0.341C83.778,100.064,83.515,100.481,83.315,100.579 M82.978,97.692
		c-0.09,0.06-0.109,0.123-0.301,0.31c-0.191,0.247-0.379,0.459-0.588,0.562c-0.213,0.073-0.732,0.205-1.35,0.375
		c-0.6,0.131-1.523,0.446-1.865,0.519c-0.318,0.119-0.42,0.205-0.945,0.119c-0.521-0.119-0.686-0.17-0.914-0.216
		c-0.223-0.047-0.238,0-0.365,0.046c-0.115,0.051-0.164,0-0.164,0V99.17c0-0.099,0.01-0.188,0.01-0.188s0.961-0.417,1.643-0.66
		c0.736-0.217,1.992-0.519,2.58-0.655c0.57-0.099,1.006-0.291,1.209-0.201c0.238,0.055,0.52,0.055,0.68,0.055l0.309-0.042
		C82.915,97.48,83.056,97.645,82.978,97.692 M76.968,101.059c0.328,0.136,0.646,0.281,0.682,0.481
		c0.066,0.226-0.043,0.528-0.193,0.685c-0.098,0.197-0.131,0.354-0.16,0.482c-0.053,0.149-0.053,0.425-0.053,0.425
		s-0.188,0.157-0.41,0.195l-0.348,0.094c0,0,0.01-0.238-0.139-0.425c-0.17-0.166-0.602-0.344-0.891-0.256
		c-0.303,0.09-1.439,0.549-1.889,0.737c-0.432,0.188-1.684,0.771-2.09,0.941c-0.436,0.178-0.725,0.327-1.162,0.28
		c-0.432-0.088-0.818-0.11-1.141-0.28c-0.334-0.153-0.779-0.379-0.922-0.427c-0.164-0.029-0.463-0.094-0.463-0.094
		s0.047-0.289,0.205-0.421c0.145-0.132,0.557-0.213,0.77-0.345c0.213-0.09,0.883-0.302,1.551-0.553
		c0.68-0.251,1.969-0.618,2.494-0.762c0.557-0.188,1.715-0.532,2.01-0.668c0.318-0.107,0.68-0.362,0.979-0.336
		C76.099,100.812,76.649,100.961,76.968,101.059 M70.522,106.92l1.486-0.714c0.498-0.243,2.426-1.116,3.039-1.405
		c0.588-0.285,1.549-0.745,1.768-0.817c0.199-0.103,0.428-0.247,0.672-0.294c0.242-0.008,0.801,0.149,1.119,0.191
		c0.32,0.082,0.762,0.137,0.852,0.291c0.123,0.208,0.166,0.63,0.123,0.728c-0.055,0.132-0.174,0.532-0.16,0.681
		c0.016,0.178,0.062,0.575,0.062,0.575l-0.447,0.216c-0.23,0.149-0.52,0.252-0.52,0.252s-0.072-0.252-0.281-0.417
		c-0.191-0.17-0.531-0.264-0.828-0.17c-0.172,0.063-1.32,0.703-1.764,0.984c-0.396,0.268-1.488,0.936-1.639,1.024
		c-0.195,0.111-0.35,0.337-0.881,0.294c-0.52-0.038-0.758-0.111-1.025-0.233c-0.256-0.138-0.789-0.507-0.941-0.618
		c-0.141-0.102-0.686-0.23-0.686-0.387C70.472,106.941,70.522,106.92,70.522,106.92 M75.444,109.177
		c0.643-0.392,2.205-1.251,2.822-1.613c0.607-0.324,1.191-0.787,1.527-0.838c0.303-0.042,1.09-0.021,1.494-0.021
		c0.426,0,0.689,0,0.729,0.2c0.033,0.214-0.039,0.392-0.064,0.583c-0.025,0.157,0,0.668,0,0.668l-3.025,2.375
		c-0.482,0.371-1.652,1.397-1.707,1.418c-0.09,0.017-0.48-0.285-0.938-0.469c-0.465-0.195-0.729-0.22-0.945-0.255
		c-0.174-0.026-0.463-0.184-0.775-0.319c-0.275-0.115-0.383-0.178-0.594-0.226c-0.205-0.035-0.641,0.145-0.641,0.145l-0.045-0.281
		C73.282,110.543,74.774,109.581,75.444,109.177 M78.21,112.084c0.537-0.49,2.125-1.775,2.559-2.125
		c0.418-0.345,1.504-1.175,1.652-1.285c0.154-0.146,0.314-0.159,0.506-0.159c0.195,0,0.668-0.136,0.869-0.136
		c0.213,0,0.6-0.029,0.637,0.26c0.014,0.285,0.164,0.817,0.146,1.034c-0.021,0.208,0,0.447,0.068,0.566
		c0.076,0.145,0.133,0.229,0.133,0.229s-0.172,0.184-0.465,0.477c-0.307,0.277-1.215,1.154-1.602,1.533
		c-0.416,0.391-1.227,1.175-1.527,1.478c-0.303,0.323-0.762,0.773-0.762,0.773s-0.111-0.459-0.393-0.702
		c-0.256-0.23-0.914-0.362-1.285-0.362c-0.408-0.012-0.891-0.404-1.098-0.446c-0.193-0.052-0.406,0.06-0.406,0.06
		s-0.236,0.084-0.318-0.111C76.925,113.187,77.704,112.519,78.21,112.084 M82.815,113.365c0.393-0.404,1.742-1.656,2.07-1.983
		c0.311-0.302,0.562-0.63,0.906-0.8c0.379-0.111,0.801-0.34,0.975-0.264c0.195,0.068,0.332,0.315,0.438,0.587
		c0.074,0.293,0.342,0.668,0.822,0.852c0.498,0.14,0.791,0.191,1.031,0.17c0.229-0.013,0.355-0.03,0.355-0.03
		s-0.521,0.498-0.777,0.766c-0.238,0.264-1.027,1.026-1.469,1.439c-0.463,0.426-1.643,1.617-1.963,1.912
		c-0.344,0.328-0.799,0.728-0.799,0.728s-0.01-0.332-0.252-0.553c-0.357-0.319-0.762-0.281-1.146-0.26
		c-0.387,0.013-0.629-0.09-0.867-0.289c-0.225-0.178-0.404-0.387-0.531-0.4c-0.121-0.021-0.41,0.119-0.457,0.153
		c-0.076,0.055-0.395,0.055-0.395,0.055L82.815,113.365z M90.827,110.68l0.111-0.184c0,0,0.6-0.718,1.098-1.256l1.227-1.306
		c0.234-0.247,0.357-0.435,0.357-0.435s-0.332,0.8-0.404,1.124c-0.078,0.341-0.166,1.017-0.166,1.333
		c0,0.285-0.115,0.587-0.191,0.979c-0.061,0.349-0.061,0.689-0.061,0.689s-0.242,0.174-0.422,0.237
		c-0.178,0.086-0.379,0.243-0.379,0.243s-0.041-0.545-0.258-0.834c-0.201-0.272-0.303-0.335-0.482-0.438
		C91.101,110.727,90.827,110.68,90.827,110.68 M88.892,121.785c0.113,0,0.701-0.05,1.166-0.149c0.459-0.071,1.188-0.242,1.379-0.203
		c0.162,0.073,0.162,0.203,0.191,0.362c0.008,0.144,0.021,1.646,0.035,2.14c0.025,0.503,0.025,1.571-0.074,1.946
		c-0.102,0.408-1.258,2.63-1.531,3.281c-0.252,0.601-1,1.963-1.104,2.222c-0.123,0.285-0.188,0.337-0.268,0.438
		c-0.098,0.094-0.289-0.237-0.57-0.574c-0.379-0.469-0.779-0.4-1.188-0.303c-0.4,0.099-2.678,0.724-3.057,0.793
		c-0.408,0.09-1.094,0.271-1.477,0.222c-0.371-0.078-0.537-0.312-0.711-0.626c-0.197-0.303-0.396-0.486-0.646-0.486
		c-0.281,0-0.482-0.068-0.482-0.068s2.104-2.238,2.566-2.72c0.473-0.481,3.014-3.218,3.572-3.834
		c0.545-0.591,1.459-1.694,1.686-1.984C88.597,121.947,88.776,121.785,88.892,121.785 M91.997,119.521
		c-0.152,0.328-0.279,0.528-0.297,0.664l-0.064,0.396c0,0-0.268,0.195-0.391,0.247l-0.371,0.081v-0.331
		c0-0.115-0.227-0.393-0.357-0.652c-0.137-0.225-0.268-0.515-0.109-0.996c0.135-0.459,0.365-1.017,0.518-1.434
		c0.191-0.367,0.32-0.771,0.602-1.422c0.279-0.664,0.492-1.175,0.838-1.644c0.332-0.51,0.48-0.762,0.621-0.957
		c0.152-0.209,0.34-0.264,0.34-0.264s0.15,0.229,0.273,0.409c0.137,0.165,0.34,0.362,0.303,0.51
		c-0.051,0.145-0.67,1.397-0.826,1.742c-0.129,0.34-0.574,1.801-0.668,2.243C92.274,118.554,92.136,119.197,91.997,119.521
		 M93.368,106.725c-0.422,0.48-1.779,1.95-2.32,2.597c-0.535,0.655-0.975,1.174-1.152,1.332c-0.238,0.251-0.416,0.532-0.416,0.532
		h-0.164c0,0,0.184-0.285,0.15-0.605c-0.053-0.264-0.299-0.754-0.549-0.876c-0.238-0.124-0.32-0.17-0.498-0.124
		c-0.146,0.059-0.303,0.124-0.426,0.158c-0.133,0.039-0.234,0.046-0.234,0.046s0.621-0.693,0.92-0.979
		c0.275-0.302,1.029-0.983,1.297-1.244c0.248-0.268,0.508-0.438,0.605-0.438c0.105,0,0.549,0.17,0.855,0.06
		c0.303-0.157,0.838-0.676,0.891-1.072c0.012-0.404-0.18-0.788-0.436-0.984c-0.256-0.195-0.646-0.348-0.885-0.327
		c-0.252,0.025-0.57,0.077-0.814,0.216c-0.195,0.073-0.355,0.111-0.355,0.111s0.012-0.195,0.037-0.484
		c0.039-0.302-0.105-0.587-0.268-0.805c-0.141-0.272-0.498-0.477-0.877-0.54c-0.371-0.035-0.549,0.063-0.689-0.035
		c-0.154-0.094-0.035-0.323-0.162-0.625c-0.119-0.281-0.311-0.678-0.646-0.808c-0.396-0.132-0.703-0.209-0.895-0.209
		c-0.166,0-0.166-0.12-0.166-0.336c0-0.315-0.086-0.936-0.273-1.085c-0.16-0.157-0.57-0.448-0.809-0.494
		c-0.25-0.042-0.416-0.09-0.416-0.226c0-0.119,0.166-0.434,0.166-0.71c0-0.277-0.059-0.687-0.406-0.911
		c-0.305-0.239-0.676-0.337-0.838-0.593c-0.131-0.212-0.373-0.463-0.438-0.48c-0.072-0.025-0.363-0.025-0.582,0
		c-0.205,0.017-0.717,0.111-1.088,0.17c-0.352,0.065-0.557,0.153-0.748,0.098c-0.184-0.067-0.609-0.208-0.885-0.208
		c-0.273,0-0.959,0.038-1.4,0.09c-0.473,0.046-0.938,0.094-1.309,0.086c-0.369-0.035-0.611-0.138-0.914-0.27
		c-0.307-0.136-0.414-0.186-0.557-0.28c-0.188-0.107-0.27-0.209-0.27-0.209s0.025-0.145,0.051-0.252
		c0.031-0.123,0.111-0.268,0.111-0.268s1.371-0.056,2.379-0.088c0.992-0.017,2.248,0,2.912,0.119
		c0.668,0.073,1.779,0.146,2.188,0.115c0.418-0.009,1.053-0.068,2.082-0.042c1.008,0.042,2.838,0.123,4.039,0.272
		c1.188,0.195,2.291,0.425,3.283,0.779c0.996,0.324,2.799,1.085,3.369,1.78c0.576,0.686,0.988,1.229,0.947,2.111
		c-0.09,0.894-0.447,1.792-0.715,2.345c-0.295,0.549-0.967,1.72-1.096,1.924C94.847,105.286,93.794,106.244,93.368,106.725
		 M75.769,98.544c0.207,0.144,0.408,0.412,0.348,0.54c-0.068,0.157-0.141,0.251-0.26,0.396c-0.098,0.157-0.059,0.226-0.098,0.362
		c-0.025,0.161-0.025,0.414-0.025,0.414s-0.535,0.182-0.621,0.182c-0.107,0-0.23,0.047-0.23,0.047s0.123-0.375,0.035-0.43
		c-0.111-0.067-0.49-0.349-0.873-0.353c-0.389-0.048-1.508,0.25-1.857,0.362c-0.369,0.14-1.754,0.515-2.264,0.689
		c-0.533,0.146-1.006,0.387-1.426,0.353c-0.422-0.05-0.783-0.229-1.172-0.412c-0.336-0.158-0.43-0.247-0.557-0.302
		c-0.115-0.086-0.391-0.229-0.391-0.229s0.307-0.456,0.428-0.524c0.09-0.06,0.877-0.323,1.197-0.412
		c0.32-0.107,1.791-0.456,2.469-0.587c0.654-0.176,1.945-0.388,2.533-0.555c0.592-0.157,1.15-0.366,1.354-0.366
		c0.166,0,0.447,0.086,0.646,0.243C75.198,98.092,75.567,98.386,75.769,98.544 M74.874,96.134c-0.107,0.128-0.246,0.473-0.312,0.677
		c-0.102,0.217-0.037,0.454-0.166,0.472c-0.109,0.051-0.68,0.115-0.68,0.115s0.094-0.251-0.061-0.37
		c-0.17-0.094-0.557-0.243-0.889-0.217c-0.336,0-2.002,0.169-2.533,0.217c-0.51,0.059-2.018,0.255-2.307,0.306
		c-0.311,0.042-0.623,0-0.84-0.102c-0.229-0.086-1.043-0.421-1.271-0.58c-0.213-0.182-0.328-0.255-0.422-0.276l-0.35-0.065
		l0.162-0.435c0.068-0.136,0.188-0.348,0.188-0.348h4.262c0.953,0.021,3.75,0.021,4.018,0.021c0.318,0,0.707,0.136,0.852,0.149
		l0.295,0.031C74.819,95.73,74.966,96.062,74.874,96.134 M20.399,108.381c-0.906-0.217-2.277-0.613-2.508-0.834
		c-0.242-0.238-0.354-0.481-0.42-0.749c-0.061-0.277-0.516-0.876-0.732-0.966c-0.217-0.123-0.768-0.425-0.768-0.425v-0.507
		c0,0,0.84,0,1.26-0.056c0.449-0.089,2.176-0.089,3.33-0.132c1.17-0.056,5.678-0.247,7.092-0.332
		c1.48-0.094,7.914-0.417,9.121-0.511c1.197-0.094,9.707-0.668,10.91-0.783c1.186-0.099,8.211-0.664,9.293-0.758
		c1.107-0.103,4.807-0.452,6.096-0.562c1.332-0.09,1.494-0.272,1.732-0.289c0.209-0.025,0.357-0.149,0.578,0.098
		c0.219,0.256,0.648,0.712,0.904,0.898c0.275,0.18,1.076,0.711,1.105,0.962c0,0.255-0.217,0.605-0.375,0.852
		c-0.098,0.23-0.098,0.731-0.098,0.731l-0.838,0.163c0,0,0.08-0.212,0.09-0.328c0-0.107-0.129-0.473-0.477-0.587
		c-0.342-0.17-0.932-0.226-1.52-0.124c-0.562,0.124-3.186,0.57-4.279,0.75c-1.051,0.178-7.244,1.221-8.756,1.438
		c-1.498,0.25-7.471,1.179-8.887,1.358c-1.41,0.238-6.9,0.923-8.82,1.097c-1.943,0.214-4.262,0.431-5.539,0.503
		c-1.303,0.077-2.627,0.192-3.555,0.098C23.388,109.267,21.312,108.624,20.399,108.381 M29.429,115.312
		c-1.039-0.146-2.201-0.393-2.609-0.465c-0.41-0.042-0.775-0.14-0.98-0.609c-0.16-0.484-0.127-0.838-0.441-1.166
		c-0.289-0.333-0.664-0.677-0.916-0.783c-0.242-0.09-0.613-0.073-0.676-0.188c-0.074-0.239-0.061-0.528-0.061-0.528
		s0.354,0.052,0.736,0c0.379-0.021,0.711-0.199,1.158-0.243c0.457-0.017,1.812-0.071,2.576-0.106
		c0.744-0.026,2.949-0.243,3.732-0.319c0.77-0.06,4.422-0.417,5.627-0.587c1.195-0.153,7.717-1.078,8.816-1.256
		c1.064-0.136,6.529-0.957,8.002-1.221c1.502-0.251,6.486-1.158,7.76-1.388c1.295-0.247,2.848-0.49,3.418-0.614
		c0.574-0.13,0.953-0.377,1.287-0.31c0.318,0.098,0.637,0.336,1.037,0.536c0.389,0.179,1.021,0.388,1.342,0.503
		c0.34,0.115,0.66,0.302,0.699,0.421c0.029,0.128,0,0.634-0.154,0.873c-0.127,0.243-0.225,0.442-0.285,0.698
		c-0.043,0.293-0.072,0.502-0.072,0.502l-0.789,0.302c0,0,0.129-0.366,0-0.545c-0.121-0.144-0.547-0.48-0.773-0.446
		c-0.246,0.008-0.588,0.05-0.949,0.165c-0.375,0.138-5.104,1.567-5.857,1.772l-5.623,1.553c-0.719,0.222-5.164,1.307-6.398,1.558
		c-1.285,0.281-5.941,1.213-7.1,1.426c-1.141,0.222-5.512,0.779-6.648,0.844c-1.121,0.081-1.312,0.115-2.197,0.059
		C32.2,115.719,30.509,115.494,29.429,115.312 M45.716,121.419c-0.637,0.063-3.105-0.157-4.096-0.289
		c-1.018-0.136-3.865-0.584-4.258-0.668c-0.4-0.145-0.637-0.291-0.852-0.566c-0.23-0.277-0.422-0.452-0.801-0.677
		c-0.398-0.165-0.855-0.435-1.174-0.536c-0.301-0.128-0.443-0.178-0.668-0.272c-0.213-0.073-0.426-0.098-0.549-0.197
		c-0.129-0.071-0.166-0.242-0.166-0.242s3.197-0.333,3.898-0.447c0.729-0.094,5.623-0.783,6.803-1.017
		c1.176-0.264,6.232-1.358,7.139-1.596c0.914-0.18,6.439-1.648,7.561-1.933c1.094-0.306,4.797-1.353,5.801-1.665
		c1.014-0.314,3.969-1.191,4.291-1.336c0.332-0.157,0.668-0.387,1.01-0.353c0.318,0.029,1.279,0.335,1.631,0.438
		c0.352,0.109,1.25,0.255,1.422,0.425c0.146,0.146,0.246,0.29,0.191,0.519c-0.045,0.252-0.014,1.575,0,1.673
		c0.023,0.18,0.355,0.438,0.355,0.438l-0.838,0.319c-0.182,0.086-0.561,0.23-0.561,0.23s0.088-0.387,0.027-0.498
		c-0.041-0.084-0.539-0.37-0.65-0.4c-0.178-0.03-0.307,0-0.678,0.124c-0.377,0.098-1.318,0.544-1.791,0.762
		c-0.48,0.208-3.27,1.311-4.09,1.617c-0.869,0.353-4.244,1.673-5.352,2.035c-1.09,0.383-6.016,2.081-6.93,2.362
		c-0.906,0.272-4.139,1.179-4.912,1.396C46.71,121.262,46.353,121.394,45.716,121.419 M55.017,125.821
		c-1.014,0.033-3.049-0.038-3.684-0.064c-0.637-0.021-1.549-0.073-2.021-0.217c-0.498-0.229-0.57-0.469-0.869-0.804
		c-0.289-0.367-0.863-0.708-1.131-0.779c-0.264-0.12-0.682-0.137-0.844-0.086c-0.076,0.013-0.115-0.396-0.115-0.396
		s1.039-0.229,1.332-0.404c0.277-0.107,1.959-0.605,2.469-0.762c0.529-0.157,2.4-0.647,3.203-0.915
		c0.762-0.256,4.447-1.512,5.158-1.776c0.727-0.229,5.117-1.864,5.969-2.213c0.871-0.34,5.721-2.307,6.432-2.584
		c0.689-0.293,1.4-0.583,1.621-0.728c0.26-0.188,1.043-0.57,1.418-0.656c0.371-0.094,1.102-0.216,1.439-0.195
		c0.34,0,0.582-0.021,0.723,0.132c0.129,0.191,0.178,0.379,0.166,0.655c-0.025,0.252,0.072,0.89,0.367,1.137
		c0.305,0.226,0.758,0.459,1.268,0.566c0.498,0.136,0.979,0.195,1.158,0.208c0.178,0.021,0.301,0,0.301,0s-0.982,0.613-1.25,0.728
		l-1.277,0.639c0,0-0.109-0.264-0.213-0.327c-0.123-0.035-0.609-0.035-0.992-0.009c-0.365,0.055-0.762,0.178-1.119,0.366
		c-0.346,0.229-3.717,2.022-4.371,2.363c-0.666,0.349-5.816,3.026-6.51,3.35c-0.719,0.324-4.031,1.937-4.559,2.201
		c-0.531,0.23-0.859,0.417-1.371,0.484C57.22,125.783,56.056,125.808,55.017,125.821 M65.853,129.145
		c-0.979,0.184-3.021,0.521-3.447,0.542c-0.4,0.034-0.975,0.034-1.311-0.345c-0.35-0.358-0.541-0.921-1.014-1.154
		c-0.469-0.226-0.77-0.37-1.076-0.337c-0.631,0.099-0.678-0.132-0.678-0.132s4.018-2.035,4.598-2.264
		c0.629-0.268,6.615-3.333,7.373-3.771c0.779-0.421,5.18-2.806,6.107-3.315c0.953-0.542,2.277-1.24,2.469-1.397
		c0.201-0.115,0.371-0.332,0.623-0.4c0.279-0.094,0.441-0.123,0.441-0.123s0.387,0.498,0.574,0.739
		c0.227,0.252,0.686,0.725,1.223,0.796c0.537,0.072,0.787,0.082,1.119,0.059c0.314-0.021,0.902-0.157,0.902-0.157
		s-1.459,1.379-1.707,1.579c-0.264,0.235-3.457,2.844-4.082,3.405c-0.643,0.554-2.963,2.38-3.482,2.775
		c-0.518,0.426-2.201,1.682-2.557,1.866c-0.375,0.195-1.312,0.548-1.869,0.688C69.476,128.367,66.815,128.938,65.853,129.145
		 M79.97,130.325c-0.176,0.136-0.703,0.042-1.014-0.154c-0.387-0.242-0.758-0.047-1.252,0.061c-0.484,0.136-1.357,0.395-1.945,0.532
		c-0.498,0.136-1.91,0.446-2.273,0.446c-0.361,0-0.777-0.042-1.01-0.265c-0.217-0.275-0.723-0.821-0.99-0.943
		c-0.252-0.12-0.57-0.18-0.721-0.12c-0.148,0.098-0.705,0.438-0.799,0.184c0,0,2.172-1.597,2.639-1.983
		c0.48-0.375,2.443-1.92,2.949-2.347c0.545-0.425,2.852-2.294,3.533-2.865c0.717-0.571,2.811-2.362,3.359-2.843
		c0.561-0.507,1.631-1.537,1.631-1.537s0.076,0.404,0.264,0.596c0.186,0.111,0.439,0.46,0.916,0.677
		c0.441,0.161,1.08,0.195,1.523,0.178c0.467-0.017,0.893-0.06,1.068-0.06c0.191,0,0.48,0.077,0.48,0.392
		c0.016,0.272,0.051,0.502,0.051,0.634c0,0.157,0.039,0.281,0.039,0.281l-3.215,3.568c-0.625,0.697-2.426,2.647-3.008,3.235
		C81.608,128.591,80.13,130.18,79.97,130.325 M104.729,156.436l-0.451,0.762l-0.404-0.191c0,0,0.285-0.243,0.184-0.473
		c-0.111-0.205-0.238-0.435-0.58-0.592c-0.309-0.178-1.756-0.77-2.393-1.085c-0.637-0.289-3.365-1.78-4.357-2.41
		c-0.988-0.664-3.402-2.319-4.566-3.242c-1.113-0.933-3.586-3.338-4.414-4.257c-0.818-0.907-2.543-3.154-3.049-3.981
		c-0.545-0.787-2.021-3.485-2.354-4.213c-0.295-0.716-0.469-1.176-0.775-1.465c-0.295-0.281-0.383-0.35-0.512-0.35
		c-0.127-0.029-0.426-0.034-0.426-0.034s-0.092-0.233-0.25-0.715c-0.123-0.365-0.242-0.728-0.242-0.728s0.668,0.821,1.059,0.812
		c0.436-0.025,0.588-0.136,0.768-0.17c0.16-0.06,0.557-0.085,0.711,0.013c0.156,0.072,0.379,0.362,0.369,0.622
		c-0.012,0.268,0.123,0.838,0.328,1.252c0.221,0.48,1.133,2.341,1.652,3.192c0.527,0.859,2.051,3.034,2.689,3.806
		c0.664,0.77,2.801,3.133,3.363,3.639c0.557,0.465,3.408,2.822,4.424,3.508c1.012,0.689,3.434,2.272,4.906,3.001
		c1.451,0.724,3.27,1.559,3.75,1.775c0.477,0.17,0.779,0.212,0.881,0.354c0.078,0.144,0.24,0.28,0.24,0.28L104.729,156.436z
		 M105.62,154.843c-0.039,0.104-0.184,0.09-0.223,0c-0.066-0.098,0.184-0.379,0.184-0.702c0-0.366-0.184-0.851-0.387-1.042
		c-0.184-0.2-0.758-0.469-1.076-0.618c-0.338-0.145-1.861-0.872-2.641-1.272c-0.779-0.404-2.336-1.302-3.35-1.979
		c-1.008-0.646-2.371-1.571-3.27-2.26c-0.852-0.724-2.104-1.81-2.861-2.554c-0.777-0.758-2.041-2.176-2.859-3.228
		c-0.809-1.047-1.848-2.465-2.393-3.46c-0.574-1.019-1.158-2.244-1.35-2.452c-0.191-0.191-0.469-0.536-0.869-0.689
		c-0.398-0.106-0.629-0.209-0.807-0.218c-0.184,0-0.498,0-0.525-0.157c-0.025-0.124,0-0.217,0-0.217s0.602-0.034,1.057-0.23
		c0.484-0.195,1.797-0.562,2.316-0.707c0.52-0.126,1.131-0.407,1.398-0.467c0.254-0.082,0.445-0.153,0.609-0.132
		c0.154,0.042,0.242,0.132,0.422,0.365c0.17,0.247,0.396,0.783,0.609,0.963c0.252,0.208,0.604,0.519,1.09,0.463
		c0.502-0.06,1.004-0.11,1.416-0.268c0.389-0.175,1.141-0.664,1.334-0.779c0.152-0.076,0.404-0.26,0.492-0.18
		c0.094,0.09,0.201,0.261,0.346,0.295c0.115,0.034,0.281,0.184,0.354,0.323c0.064,0.123,1.158,1.703,1.74,2.422
		c0.588,0.711,1.455,1.703,2.061,2.27c0.602,0.557,2.32,2.069,2.988,2.554c0.703,0.485,2.699,1.822,3.584,2.299
		c0.908,0.459,1.988,1.051,2.848,1.418c0.881,0.356,1.807,0.728,2.043,0.842c0.277,0.137,0.359,0.243,0.516,0.418
		c0.191,0.114,0.295,0.293,0.205,0.48c-0.053,0.166-0.988,1.605-1.385,2.346c-0.408,0.735-1.137,1.92-1.467,2.452
		c-0.27,0.523-1.068,1.792-1.27,2.227C106.259,153.774,105.649,154.733,105.62,154.843 M110.876,156.613
		c-0.164,0.405-0.662,1.614-0.824,1.954c-0.15,0.303-0.273,0.614-0.273,0.614l-0.646,0.207c0,0,0.182-0.279,0.068-0.433
		c-0.115-0.158-0.436-0.49-0.631-0.494c-0.199-0.03-0.451,0.033-0.693,0.105c-0.268,0.107-0.613,0.107-0.719-0.105
		c-0.137-0.247-0.49-0.872-0.512-1.031c-0.037-0.174-0.145-0.403,0.021-0.714c0.17-0.337,1.311-2.452,1.551-2.849
		c0.258-0.379,1.578-2.604,1.881-3.15c0.279-0.54,1.029-1.791,1.162-2.067c0.148-0.277,0.238-0.485,0.141-0.725
		c-0.119-0.209-0.119-0.314-0.23-0.383c-0.133-0.042-0.35-0.077-0.35-0.077l0.678-1.123c0,0,0.383,0.106,0.723,0.106
		c0.375,0,0.762-0.013,1.176,0.098c0.424,0.133,1,0.442,1.064,0.673c0.098,0.246-0.119,0.668-0.359,1.243
		c-0.242,0.515-1.373,3.549-1.662,4.188C112.183,153.29,111.038,156.223,110.876,156.613 M116.3,156.916
		c-0.094,0.477-0.438,2.04-0.559,2.389c-0.092,0.365-0.318,1.005-0.338,1.061c-0.053,0.076-0.539,0.369-0.674,0.403
		c-0.119,0.039-0.289,0.124-0.289,0.124s0.199-0.26,0.119-0.451c-0.074-0.17-0.27-0.361-0.523-0.361
		c-0.268,0-0.58,0.191-0.785,0.126c-0.203-0.054-0.521-0.191-0.773-0.77c-0.256-0.566-0.268-0.668-0.18-1.11
		c0.09-0.461,1.158-3.019,1.402-3.645c0.229-0.612,1.221-3.15,1.451-3.755c0.252-0.604,0.59-1.421,0.557-1.673
		c-0.016-0.229-0.207-0.651-0.318-0.762c-0.129-0.119-0.289-0.209-0.371-0.179c-0.088,0.018-0.154-0.051-0.154-0.051l0.346-0.94
		c0,0,0.531,0.06,0.771,0.06c0.242,0,0.668-0.06,1.123,0.072c0.498,0.085,1.057,0.171,1.115,0.37
		c0.068,0.247,0.158,0.447,0.061,0.897c-0.119,0.447-0.963,3.861-1.082,4.479C117.046,153.771,116.397,156.474,116.3,156.916
		 M121.948,151.441c-0.051,0.521-0.365,4.062-0.365,4.39c0,0.319-0.094,1.869-0.131,2.384c-0.039,0.37-0.176,1.354-0.213,1.706
		c-0.027,0.351-0.232,0.98-0.232,1.061c0,0.076-0.045,0.17-0.045,0.17s-0.635,0.546-0.869,0.656c-0.23,0.098-0.23-0.132-0.365-0.268
		c-0.146-0.12-0.346-0.158-0.689-0.337c-0.316-0.132-0.818-0.63-1.057-0.979c-0.227-0.362-0.303-0.689-0.162-1.268
		c0.15-0.584,0.645-2.576,0.801-3.304c0.148-0.72,0.631-2.72,0.779-3.409c0.16-0.712,0.451-1.814,0.451-2.201
		c0-0.392-0.123-0.75-0.34-0.928c-0.209-0.195-0.26-0.227-0.379-0.281c-0.143-0.052-0.281-0.111-0.281-0.111l0.16-0.753
		c0,0,0.512,0,0.768-0.021c0.242-0.022,0.473-0.061,0.873-0.044c0.4,0,0.727,0,1.008,0.098c0.303,0.116,0.551,0.261,0.498,0.768
		C122.128,149.229,121.983,150.971,121.948,151.441 M92.126,123.402c0-12.769,13.814-24.041,32.088-24.041
		c18.283,0,32.107,11.272,32.107,24.041c0,12.818-13.824,24.077-32.107,24.077C105.94,147.479,92.126,136.221,92.126,123.402
		 M108.446,92.771c-0.307-0.23-0.787-0.545-1.119-0.584c-0.357-0.033-0.455,0.018-0.646-0.046c-0.162-0.06-0.422-0.285-0.422-0.285
		s0.855-0.337,1.217-0.465c0.363-0.157,2.002-0.735,3.121-1.034c1.094-0.337,2.264-0.609,3.652-0.89
		c1.408-0.276,3.469-0.587,5.133-0.762c1.625-0.149,3.777-0.324,5.049-0.285c1.246,0,4.172,0.179,5.367,0.315
		c1.176,0.144,3.496,0.408,4.883,0.731c1.383,0.302,3.973,0.945,5.104,1.332c1.137,0.417,2.508,0.823,2.652,0.967
		c0.137,0.149,0.293,0.315,0.506,0.388c0.188,0.084,0.418,0.229,0.418,0.229s-0.557,0.626-0.949,1.273
		c-1.111,1.924,0.213,4.337,1.975,5.67c2.334,1.715,6.553,4.333,7.279,8.236c0.18,0.903,0.125,2.559,0.125,2.559
		s-0.355-0.396-0.559-0.604c-0.18-0.217-0.27-1.179-0.498-1.694c-0.23-0.536-1.051-1.622-1.531-2.15
		c-0.512-0.494-1.402-1.426-3.258-2.626c-1.732-1.116-3.508-2.078-5.416-2.806c-1.906-0.71-3.246-1.26-5.545-1.78
		c-2.277-0.501-5.262-0.995-8.506-1.127c-3.238-0.102-6.041,0.178-7.934,0.392c-1.881,0.255-4.543,0.735-7.008,1.587
		c-2.451,0.796-3.061,1.106-3.812,1.473c-0.797,0.362-2.645,1.294-3.316,1.762c-0.689,0.438-1.785,1.205-2.439,1.613
		c-0.668,0.426-0.797,0.762-1.199,0.664c-0.559-0.128-0.721-0.664-0.721-0.664s0.49-0.566,0.971-1.043
		c0.459-0.48,1.57-1.421,2.281-2.004c0.711-0.58,2.061-1.753,2.281-1.967c0.234-0.208,0.84-0.932,0.84-0.932
		s0.203,0.422,0.549,0.285c0.357-0.092,0.906-0.506,1.248-1.021c0.344-0.542,0.914-1.759,0.762-2.771
		C108.851,93.665,108.72,92.955,108.446,92.771 M183.284,97.667c-0.166-0.252-0.48-0.545-0.877-0.647
		c-0.404-0.138-2.043-0.27-2.631-0.26c-0.57,0.025-1.988,0.051-2.643,0.025c-0.689-0.025-1.299-0.132-1.566-0.281
		c-0.295-0.105-0.205-0.054-0.324-0.105c-0.213-0.073-0.361,0.073-0.361,0.073s-0.115-0.354-0.115-0.448
		c0-0.056,0.037-0.178,0.037-0.178s0.713,0.033,1.211-0.065c0.492-0.059,1.932-0.285,2.855-0.417
		c0.914-0.157,2.688-0.456,3.258-0.583c0.582-0.103,1.297-0.218,1.541-0.103c0.229,0.086,0.416,0.324,0.441,0.584
		c0.039,0.239,0.227,0.8,0.307,1c0.059,0.23,0.238,0.583,0.213,0.693c-0.051,0.119-0.342,0.494-0.545,0.664
		c-0.23,0.195-0.719,0.695-0.719,0.695S183.438,97.909,183.284,97.667 M174.946,98.02c0.416,0.063,2.281,0.294,3.025,0.4
		c0.725,0.145,2.695,0.4,3.27,0.469c0.562,0.067,1.412,0.029,1.689,0.094c0.484,0.102,0.393,0.549,0.436,0.825
		c0.049,0.289,0.098,0.762,0.059,0.873c-0.051,0.107-0.307,0.375-0.6,0.605c-0.252,0.208-0.541,0.345-0.697,0.446
		c-0.164,0.099,0.049-0.374-0.125-0.548c-0.119-0.125-0.387-0.239-0.838-0.325c-0.426-0.092-1.137-0.263-1.541-0.335
		c-0.418-0.086-2.049-0.427-2.686-0.536c-0.643-0.128-1.371-0.191-1.801-0.384c-0.443-0.217-0.74-0.579-0.984-0.663
		c-0.242-0.12-0.539-0.17-0.539-0.17l-0.031-0.329c0,0,0.404-0.387,0.523-0.387C174.204,98.054,174.499,97.995,174.946,98.02
		 M180.425,105.142c-0.168-0.243-0.877-0.511-1.299-0.643c-0.469-0.119-1.779-0.528-2.504-0.745
		c-0.715-0.218-1.906-0.622-2.299-0.729c-0.412-0.119-0.893-0.23-1.158-0.408c-0.281-0.195-0.586-0.498-0.709-0.562
		c-0.119-0.077-0.439-0.123-0.439-0.123s-0.033-0.827,0.09-0.877c0.105-0.038,0.461,0.084,0.625,0.06
		c0.137-0.009,0.576-0.009,0.992,0.081c0.408,0.111,2.609,0.681,3.494,0.838c0.879,0.191,2.035,0.482,2.799,0.605
		c0.723,0.124,1.225,0.124,1.361,0.404c0.18,0.256,0.141,0.827,0.141,1.108c-0.014,0.293,0.072,0.94,0,1.03
		c-0.027,0.081-0.41,0.243-0.674,0.335c-0.258,0.111-0.375,0.158-0.375,0.158S180.603,105.372,180.425,105.142 M179.126,108.875
		c-0.098,0.103-0.256,0.136-0.559,0.17c-0.303,0.047-0.471,0.098-0.471,0.098s0.268-0.281,0.029-0.502
		c-0.27-0.26-0.338-0.34-0.908-0.597c-0.531-0.182-1.447-0.557-1.855-0.724c-0.408-0.136-2.137-0.949-2.631-1.114
		c-0.48-0.17-1.484-0.553-1.834-0.745c-0.354-0.201-0.494-0.27-0.605-0.405c-0.076-0.157-0.445-0.204-0.445-0.204
		s0.076-0.285,0.127-0.587c0.037-0.302-0.025-0.49,0.076-0.511c0.098-0.051,0.291,0.085,0.508,0.035
		c0.229-0.013,0.459-0.035,0.6,0.071c0.188,0.103,0.949,0.354,1.336,0.494c0.375,0.146,2.389,0.873,3.061,1.112
		c0.652,0.251,1.848,0.72,2.393,0.864c0.506,0.205,0.877,0.25,1.068,0.417c0.191,0.188,0.371,0.452,0.342,0.8
		c-0.01,0.367,0.049,0.421-0.104,0.618c-0.115,0.174-0.137,0.217-0.186,0.302C179.054,108.593,179.206,108.785,179.126,108.875
		 M176.226,111.719c-0.102,0.102-0.402,0.105-0.607,0.178c-0.191,0.068-0.391,0.068-0.391,0.068s0.178-0.111,0.135-0.319
		c-0.037-0.184-0.199-0.448-0.559-0.542c-0.391-0.098-0.816-0.105-1.148-0.199c-0.311-0.073-0.604-0.217-1.123-0.502
		c-0.516-0.281-1.545-0.924-2.104-1.196c-0.531-0.281-1.523-0.826-1.881-1.043c-0.332-0.208-0.465-0.315-0.652-0.375
		c-0.174-0.059-0.391-0.068-0.506-0.038c-0.123,0.038-0.494-0.063-0.494-0.063s0.482-0.034,0.57-0.222
		c0.107-0.209,0.068-0.689,0.107-0.898c0.033-0.212,0.021-0.324,0.094-0.337c0.098-0.025,0.336,0.125,0.561,0.14
		c0.23,0.013,0.5,0,0.869,0.197c0.383,0.178,1.957,1.03,2.758,1.388c0.838,0.349,2.479,1.2,3.002,1.392
		c0.494,0.188,1.332,0.48,1.459,0.758c0.111,0.213,0.191,0.425,0.029,0.686c-0.131,0.208-0.221,0.354-0.168,0.48
		C176.214,111.451,176.345,111.625,176.226,111.719 M170.927,113.919c-0.311-0.166-0.711-0.192-1.08-0.302
		c-0.34-0.12-0.963-0.545-1.32-0.817c-0.369-0.281-1.303-0.993-1.736-1.282c-0.443-0.32-1.078-0.838-1.381-0.988
		c-0.326-0.123-0.904-0.238-1.246-0.259c-0.318-0.013-0.729,0.021-0.779,0c-0.076-0.013-0.17,0.362-0.328,0.259
		c-0.137-0.127-0.203-0.144-0.365-0.259c-0.182-0.099-0.205-0.149-0.205-0.149l0.023-0.336c0,0,0.236-0.081,0.535-0.081
		c0.303,0,0.57,0.034,0.92-0.09c0.34-0.136,0.34-0.098,0.541-0.229c0.229-0.146,0.334-0.179,0.578-0.341
		c0.221-0.119,0.16-0.328,0.289-0.349c0.152,0,0.57-0.056,0.693,0c0.137,0.088,1.027,0.8,1.541,1.124
		c0.523,0.302,2.129,1.285,2.725,1.66c0.588,0.375,1.494,0.844,1.775,1.124c0.297,0.268,0.48,0.388,0.473,0.639
		c-0.012,0.255-0.213,0.425-0.314,0.622c-0.104,0.191-0.09,0.374-0.158,0.553c-0.078,0.123-0.123,0.289-0.123,0.289l-0.736,0.14
		c0,0,0.199-0.161,0.152-0.362C171.374,114.293,171.247,114.102,170.927,113.919 M167.339,116.668
		c-0.162-0.115-0.51-0.327-0.873-0.498c-0.371-0.195-0.92-0.668-1.383-1.026c-0.439-0.341-1.648-1.478-1.887-1.725
		c-0.277-0.251-1.105-0.94-1.324-1.034c-0.203-0.098-0.816-0.188-1.047-0.222c-0.221-0.06-0.557-0.144-0.557-0.144
		s-0.145,0.259-0.213,0.259c-0.162,0-0.123-0.017-0.123-0.017s0.012,0-0.119-0.119c-0.125-0.123-0.24-0.254-0.24-0.254
		s0.053-0.125,0.07-0.316c0.02-0.157,0.045-0.387,0.16-0.375c0.09,0,0.504,0.235,0.801,0.235c0.303,0,0.34-0.06,0.34-0.06
		s0.141-0.27,0.512-0.346c0.365-0.059,0.506-0.081,0.621-0.081c0.129,0,0.307-0.042,0.686,0.132
		c0.383,0.145,1.451,1.043,1.857,1.345c0.406,0.314,2.033,1.604,2.477,1.972c0.477,0.37,0.986,0.718,1.131,0.842
		c0.145,0.132,0.588,0.583,0.5,0.775c-0.111,0.204-0.342,0.435-0.406,0.626c-0.037,0.216-0.055,0.51-0.094,0.621
		c-0.037,0.128-0.293,0.18-0.404,0.17c-0.127-0.025-0.484-0.042-0.484-0.042s0.195-0.145,0.256-0.285
		C167.646,116.971,167.534,116.835,167.339,116.668 M163.435,118.64c-0.221-0.149-0.494-0.281-0.873-0.49
		c-0.355-0.191-0.654-0.459-0.943-0.762c-0.252-0.31-0.855-1.11-1.154-1.46c-0.293-0.323-1.021-1.242-1.318-1.544
		c-0.363-0.328-0.703-0.63-1.111-0.716c-0.422-0.067-0.523-0.102-0.623-0.102c-0.105,0-0.25,0.26-0.217,0.34
		c0.021,0.073-0.178-0.081-0.34-0.306c-0.174-0.256-0.613-0.928-0.613-0.928s0.664,0.234,1.014,0.234
		c0.387,0,0.668,0.021,0.766-0.012c0.047-0.022,0.221-0.302,0.574-0.396c0.381-0.103,0.729-0.03,1.068,0.199
		c0.363,0.281,2.119,2.056,2.381,2.282c0.26,0.239,1.391,1.363,1.732,1.677c0.357,0.325,0.932,0.896,1.047,1.12
		c0.086,0.247,0.141,0.427,0.051,0.562c-0.072,0.107-0.209,0.205-0.254,0.366c-0.066,0.136-0.086,0.494-0.176,0.588
		c-0.09,0.119-0.199,0.229-0.447,0.229c-0.256,0-0.506-0.055-0.506-0.055s0.281-0.123,0.281-0.293
		C163.772,119.023,163.694,118.746,163.435,118.64 M174.376,96.492c-0.119,0.174-0.107,0.404-0.107,0.463v0.167
		c0,0-0.115,0.063-0.242,0.161c-0.115,0.082-0.707,0.409-0.707,0.409s0-0.124-0.094-0.337c-0.102-0.233-0.443-0.421-0.68-0.473
		c-0.24-0.071-1.146-0.123-1.529-0.132c-0.387-0.012-1.295-0.05-1.689-0.084c-0.354-0.013-0.541-0.073-0.703-0.073
		c-0.166,0-0.32,0.013-0.447,0.107c-0.152,0.111-0.199,0.234-0.289,0.238c-0.102,0.017-0.242-0.004-0.314-0.004
		c-0.068,0-0.195,0.094,0.021,0.298c0.314,0.335,0.83,0.387,1.246,0.435c0.443,0.059,1.057,0.178,1.521,0.259
		c0.463,0.076,1.072,0.191,1.463,0.289c0.4,0.099,0.779,0.099,0.938,0.107c0.135,0.051,0.361,0.14,0.361,0.277
		c-0.031,0.132-0.061,0.276-0.098,0.412c-0.053,0.107-0.053,0.324-0.039,0.427c0.025,0.14-0.014,0.226-0.119,0.285
		c-0.105,0.073-0.545,0.216-0.656,0.28c-0.105,0.052-0.297,0.04-0.297,0.04s0.068-0.291,0-0.336
		c-0.061-0.069-0.201-0.247-0.541-0.345c-0.32-0.098-1.227-0.337-1.631-0.421c-0.416-0.072-1.127-0.277-1.613-0.367
		c-0.463-0.098-0.791-0.251-0.914-0.111c-0.137,0.128-0.18,0.226-0.281,0.226c-0.078,0.034-0.199-0.025-0.289,0.043
		c-0.098,0.102-0.221,0.208-0.123,0.301c0.08,0.115,0.383,0.302,0.701,0.405c0.311,0.14,1.361,0.387,1.793,0.549
		c0.477,0.123,1.264,0.45,1.68,0.548c0.418,0.082,0.869,0.218,0.945,0.461c0.086,0.216,0.072,0.446-0.076,0.591
		c-0.166,0.144-0.191,0.335-0.242,0.396c-0.029,0.098-0.105,0.328-0.105,0.328s-0.375,0.268-0.469,0.293l-0.371,0.159
		c0,0,0.127-0.184,0-0.477c-0.137-0.303-0.48-0.456-0.953-0.687c-0.43-0.212-1.357-0.544-1.703-0.68
		c-0.344-0.132-1.484-0.576-1.762-0.686c-0.248-0.072-0.551-0.179-0.797-0.145c-0.254,0.073-0.361,0.216-0.303,0.332
		c0.076,0.115,0.256,0.175,0.256,0.333c0,0.123,0,0.251-0.064,0.302c-0.076,0.004-0.088,0.039-0.088,0.039s0.582,0.408,0.996,0.587
		c0.412,0.208,1.418,0.703,1.686,0.868c0.242,0.124,1.082,0.515,1.26,0.66c0.191,0.136,0.602,0.371,0.512,0.566
		c-0.07,0.195-0.133,0.511-0.154,0.604c-0.037,0.106,0.021,0.188-0.156,0.264c-0.162,0.067-0.822,0.247-0.822,0.247
		s0-0.146-0.039-0.247c-0.029-0.094-0.162-0.264-0.523-0.473c-0.332-0.18-1.559-0.915-1.895-1.085
		c-0.303-0.145-1.102-0.593-1.285-0.737c-0.166-0.157-0.607-0.519-0.77-0.604c-0.158-0.069-0.465-0.243-0.666-0.025
		c-0.174,0.157-0.254,0.494-0.166,0.609c0.115,0.132,0.354,0.332,0.354,0.332s-0.199,0.17-0.174,0.247
		c0.025,0.09,0.6,0.482,1.014,0.783c0.408,0.329,1.52,1.056,1.801,1.244c0.275,0.195,0.877,0.583,1.068,0.741
		c0.174,0.178,0.238,0.335,0.094,0.511c-0.15,0.115-0.191,0.323-0.191,0.323s0.018,0.174,0.018,0.268
		c0,0.119-0.027,0.191-0.027,0.191s-0.084,0.09-0.318,0.132c-0.23,0.025-0.562,0.063-0.562,0.063s-0.072-0.136-0.055-0.268
		c0.012-0.178-0.133-0.277-0.387-0.481c-0.27-0.229-1.107-0.834-1.533-1.146c-0.426-0.301-1.234-0.85-1.439-1.055
		c-0.186-0.174-0.537-0.703-0.736-0.869c-0.195-0.144-0.451-0.319-0.676-0.247c-0.227,0.103-0.486,0.264-0.508,0.482
		c-0.025,0.195-0.076,0.383,0.082,0.477c0.131,0.084,0.311,0.208,0.311,0.285c0,0.038-0.209,0.123-0.166,0.247
		c0.055,0.123,0.773,0.672,1.107,0.94c0.355,0.302,1.477,1.175,1.758,1.405c0.297,0.272,0.812,0.733,0.871,0.992
		c0.082,0.201,0.039,0.604-0.051,0.75c-0.088,0.109-0.311,0.157-0.553,0.186c-0.238,0.064-0.541,0.094-0.541,0.094
		s0.115-0.259,0.047-0.379c-0.047-0.11-0.527-0.412-0.895-0.714c-0.357-0.298-1.463-1.238-1.885-1.583
		c-0.404-0.337-0.834-0.763-0.963-1.064c-0.16-0.291-0.404-0.715-0.74-0.715c-0.369,0-0.715,0.068-0.928,0.344
		c-0.205,0.285-0.205,0.588-0.051,0.707c0.156,0.124,0.445,0.302,0.357,0.354l-0.32,0.195c0,0,0.32,0.18,0.764,0.566
		c0.484,0.4,1.314,1.085,1.633,1.378c0.338,0.308,0.963,0.92,1.086,1.018c0.102,0.115,0.303,0.417,0.289,0.643
		c-0.021,0.255-0.072,0.536-0.131,0.66c-0.082,0.131,0.02,0.195-0.158,0.289c-0.178,0.098-0.52,0.098-0.621,0.098
		c-0.119,0-0.221-0.051-0.221-0.051s0.271-0.205,0.258-0.314c-0.02-0.094-0.365-0.469-0.637-0.698
		c-0.213-0.208-1.422-1.222-1.854-1.631c-0.445-0.404-1.068-1.03-1.225-1.392c-0.133-0.409-0.133-0.869-0.357-1.2
		c-0.227-0.323-0.744-0.711-0.945-1.047c-0.242-0.341-0.992-1.478-1.34-2.193c-0.359-0.702-0.729-1.255-0.811-1.881
		c-0.08-0.592-0.012-0.982-0.143-1.174c-0.086-0.188-0.338-0.494-0.445-0.494c-0.135,0-0.543-0.038-0.543-0.038
		s0.264-0.438,0.988-0.938c0.664-0.417,1.676-0.867,2.303-1.064c0.637-0.187,2.949-0.718,3.992-0.817
		c1.068-0.088,3.891-0.098,4.818-0.119c0.914-0.013,2.697,0.031,3.268,0.021c0.623-0.021,1.457,0,2.084,0
		c0.637,0,1.842-0.021,2.213-0.021c0.395,0,1.137-0.046,1.336,0.021c0.225,0.051,0.609,0.111,0.652,0.268
		C174.413,96.168,174.47,96.312,174.376,96.492 M156.749,108.675c0.268,0.199,0.762,0.532,0.904,0.612
		c0.172,0.077,0.764,0.689,0.916,0.885c0.176,0.193,0.576,0.555,0.531,0.775c-0.008,0.239-0.195,0.86-0.326,0.98
		c-0.15,0.174-0.357,0.353-0.533,0.362c-0.174,0-0.488-0.026-0.488-0.026s0.383-0.119,0.383-0.297c0-0.145-0.068-0.291-0.357-0.583
		c-0.268-0.277-0.379-0.383-0.686-0.8c-0.281-0.375-0.531-0.804-0.531-0.804l-0.201,0.05l-0.217,0.044c0,0-0.09-0.665-0.141-1.053
		c-0.098-0.353-0.221-0.664-0.281-0.852c-0.076-0.229-0.178-0.591-0.178-0.591S156.497,108.466,156.749,108.675 M155.905,113.778
		l0.041-0.281c0,0,0.465,0.597,0.598,0.775c0.148,0.167,0.617,0.549,0.762,0.783c0.205,0.218,0.996,1.248,1.318,1.72
		c0.338,0.446,1.27,1.715,1.471,1.97c0.16,0.239,0.686,0.966,0.668,1.179c-0.061,0.226-0.098,0.486-0.188,0.694
		c-0.111,0.208-0.213,0.446-0.32,0.473c-0.084,0.008-0.611,0.021-0.611,0.021s0.143-0.205,0.143-0.315
		c0-0.132-0.225-0.515-0.543-0.672c-0.307-0.167-0.93-0.524-1.068-0.664c-0.141-0.17-0.588-1.294-0.775-1.698
		c-0.238-0.482-0.664-1.282-0.945-1.656c-0.25-0.375-0.414-0.762-0.52-0.805c-0.102-0.029-0.059,0.055-0.213,0.068
		c-0.162,0.021-0.281-0.068-0.281-0.068s0.244-0.549,0.281-0.783C155.761,114.281,155.876,113.885,155.905,113.778 M165.784,133.126
		c-0.361-0.261-0.896-0.48-1.303-0.644c-0.387-0.149-1.242-0.421-1.799-0.654c-0.549-0.205-0.861-0.385-1.064-0.618
		c-0.295-0.311-0.852-1.375-1.193-1.979c-0.318-0.604-1.279-2.444-1.539-2.925c-0.262-0.498-0.363-0.766-0.404-1.081
		c-0.057-0.302-0.064-1.388-0.168-1.677c-0.102-0.251-0.408-0.779-0.607-0.907c-0.195-0.174-0.256-0.195-0.361-0.242
		c-0.078-0.061-0.375-0.145-0.375-0.145s-0.039-0.392-0.039-0.459c0-0.098-0.025-0.213-0.025-0.213s0.748,0.081,1.18,0.081
		c0.459,0,0.852-0.047,1.061,0c0.178,0.035,0.428,0,0.615,0.238c0.201,0.23,0.295,0.631,0.41,0.869
		c0.059,0.247,1.447,2.218,1.693,2.521c0.227,0.29,1.242,1.668,1.664,2.223c0.443,0.57,1.635,2.115,1.979,2.57
		c0.348,0.43,1.057,1.166,1.229,1.422c0.17,0.269,0.629,0.895,0.691,1.052c0.094,0.144-0.102,0.336-0.203,0.484
		c-0.113,0.128-0.318,0.388-0.527,0.601c-0.205,0.184-0.512,0.435-0.613,0.464c-0.076,0.034,0.039-0.255,0.051-0.396
		C166.173,133.551,166.065,133.352,165.784,133.126 M158.175,133.653c-0.141-0.183-0.41-0.451-0.725-0.597
		c-0.328-0.165-0.953-0.501-1.018-0.692c-0.072-0.209-0.09-0.393,0.064-0.779c0.225-0.532,0.195-1.022,0.102-1.422
		c-0.102-0.4-0.166-0.52-0.238-0.644c-0.066-0.157-0.23-0.255-0.23-0.255s0.256-0.897,0.303-1.12l0.191-0.788
		c0,0,0.48,0.797,0.672,1.078c0.184,0.289,0.635,0.894,0.865,1.354c0.213,0.443,0.932,1.596,1.104,1.984
		c0.191,0.373,0.441,0.728,0.398,1.145c-0.02,0.4-0.371,0.885-0.459,1.064c-0.111,0.195-0.111,0.387-0.367,0.578
		c-0.242,0.214-0.65,0.256-0.65,0.256s0.256-0.242,0.295-0.447C158.481,134.139,158.302,133.807,158.175,133.653 M157.296,135.22
		c0.457,0.068,0.738,0.107,1.227,0.076c0.439-0.021,0.623-0.089,0.859-0.392c0.244-0.28,0.512-0.766,0.623-1.038
		c0.119-0.247,0.264-0.597,0.264-0.597s0.557,0.231,0.92,0.384l1.693,0.579c0.465,0.145,1.133,0.281,1.383,0.473
		c0.27,0.199,0.328,0.337,0.32,0.536c-0.031,0.18-0.209,0.66-0.383,1.029c-0.18,0.337-0.855,1.738-1.096,2.223
		c-0.281,0.447-1.344,2.166-1.881,2.938c-0.545,0.796-2.289,2.95-2.945,3.566c-0.627,0.626-1.416,1.439-1.895,1.683
		c-0.48,0.237-1.227,0.383-1.744,0.685l-2.656,1.66c-0.689,0.435-1.695,1.029-2.414,1.404c-0.721,0.375-2.508,1.26-3.053,1.533
		c-0.527,0.251-1.277,0.57-1.617,0.745c-0.342,0.14-0.639,0.285-0.92,0.247c-0.277-0.014-0.469-0.192-0.578-0.422
		c-0.141-0.218-0.992-1.707-1.311-2.261c-0.309-0.597-1.516-2.646-1.746-3.014c-0.256-0.374-0.361-0.562-0.898-0.774
		c-0.357-0.132-0.465-0.192-0.639-0.192c-0.188,0-0.289,0.034-0.549-0.046c-0.178-0.056-0.277-0.269-0.277-0.269
		s1.197-0.425,1.746-0.716c0.52-0.226,1.588-0.658,2.273-0.991c0.697-0.341,2.58-1.37,3.396-1.864
		c0.801-0.515,1.826-1.23,2.666-1.92c0.838-0.72,2.188-1.958,2.748-2.477c0.531-0.528,1.814-2.027,2.188-2.61
		c0.41-0.562,1.064-1.592,1.064-1.592l1.449,0.735C156.151,134.866,156.854,135.14,157.296,135.22 M126.772,160.394
		c-0.031,0.295-0.031,0.644-0.031,0.644s-0.82,0.826-1.064,1.056c-0.254,0.23-1.213,1.03-1.213,1.03s0.158-0.396,0.295-0.588
		c0.133-0.162,0.242-0.442,0.141-0.621c-0.09-0.157-0.809-0.924-1.047-1.106c-0.24-0.161-0.516-0.55-0.555-0.937
		c-0.037-0.337,0.141-2.764,0.27-3.794c0.084-1.021,0.211-3.315,0.285-4.104c0.08-0.783,0.188-1.732,0.041-2.067
		c-0.152-0.323-0.404-0.737-0.604-0.835c-0.221-0.094-0.523-0.184-0.523-0.184v-0.692c0,0,0.711,0.012,0.846-0.014
		c0.166-0.063,0.852-0.18,1.35-0.162c0.479,0.052,0.996,0.162,1.049,0.443c0.025,0.226,0.051,1.098,0.059,1.613
		c0.021,0.532,0.23,3.252,0.242,3.694c0.025,0.426,0.27,3.453,0.307,4.177C126.665,158.713,126.78,160.101,126.772,160.394
		 M132.288,160.591c-0.037,0.098-0.57,0.783-0.826,1.043c-0.268,0.259-1.199,1.43-1.199,1.43s-0.09-0.337,0.029-0.511
		c0.123-0.142,0.391-0.375,0.357-0.639c-0.037-0.251-0.289-0.745-0.52-0.944c-0.209-0.226-0.719-0.494-0.971-0.746
		c-0.199-0.217-0.332-0.408-0.404-0.992c-0.012-0.604-0.268-3.643-0.344-4.636c-0.068-1.017-0.281-3.784-0.35-4.205
		c-0.051-0.408-0.123-0.808-0.412-1.123c-0.289-0.243-0.559-0.393-0.729-0.435c-0.18-0.063-0.34-0.077-0.34-0.077l-0.031-0.574
		c0,0,0.689-0.09,0.953-0.162c0.258-0.071,0.967-0.217,1.418-0.217c0.396,0,0.801,0.102,0.877,0.379
		c0.061,0.238,0.176,0.987,0.227,1.324c0.055,0.336,0.816,3.57,0.906,4.019c0.072,0.459,0.932,3.962,1.039,4.438
		c0.08,0.532,0.371,1.729,0.357,2.023C132.302,160.258,132.341,160.487,132.288,160.591 M137.265,160.591
		c-0.252,0.379-1.094,1.52-1.094,1.52s-0.053-0.447,0.029-0.593c0.094-0.136,0.172-0.425,0.119-0.596
		c-0.055-0.178-0.238-0.65-0.518-0.873c-0.244-0.216-0.75-0.369-1.01-0.612c-0.256-0.255-0.379-0.327-0.57-1.099
		c-0.209-0.748-0.691-2.821-0.822-3.426c-0.174-0.64-0.818-3.524-0.957-4.108c-0.162-0.57-0.299-1.354-0.541-1.655
		c-0.221-0.273-0.682-0.686-0.889-0.741c-0.172-0.034-0.414-0.021-0.49-0.021c-0.068,0-0.191,0.021-0.191,0.021l-0.143-0.587
		c0,0,0.393,0.004,0.785-0.104c0.348-0.114,1.188-0.48,1.545-0.506c0.354-0.034,0.891-0.034,0.953,0.111
		c0.098,0.144,0.223,0.498,0.379,0.905c0.152,0.448,1.201,3.074,1.426,3.784c0.264,0.712,1.4,3.491,1.627,4.065
		c0.191,0.58,0.748,1.848,0.818,2.125c0.059,0.26,0.326,0.953,0.262,1.171C137.933,159.582,137.513,160.206,137.265,160.591
		 M143.603,157.789c-0.09,0.247-0.66,1.261-0.762,1.541c-0.148,0.26-0.689,1.217-0.689,1.217s-0.059-0.787-0.188-1.158
		c-0.141-0.403-0.299-0.642-0.588-0.821c-0.281-0.216-0.812-0.34-1.029-0.477c-0.213-0.166-0.404-0.313-0.656-0.834
		c-0.281-0.52-0.971-2.431-1.207-3.022c-0.262-0.672-1.15-2.891-1.457-3.601c-0.293-0.737-0.775-2.01-1.006-2.303
		c-0.236-0.312-0.807-0.729-0.998-0.741c-0.209-0.047-0.477-0.089-0.533-0.072c-0.076,0.021-0.307,0.025-0.307,0.025l-0.207-0.45
		c0,0,0.971-0.218,1.451-0.367c0.463-0.179,1.012-0.362,1.324-0.435c0.344-0.067,0.496-0.085,0.65,0.103
		c0.174,0.153,0.34,0.49,0.426,0.72c0.094,0.251,1.072,1.958,1.387,2.503c0.346,0.604,1.277,2.218,1.559,2.72
		c0.277,0.511,1.268,2.116,1.451,2.482c0.246,0.34,0.477,0.8,0.67,1.089c0.16,0.277,0.441,0.92,0.586,1.205
		C143.585,157.381,143.692,157.59,143.603,157.789 M167.774,134.722c-0.107,0.303-0.469,1.29-0.695,1.796
		c-0.268,0.537-1.033,2.069-1.342,2.594c-0.268,0.473-1.535,2.502-2.072,3.226c-0.52,0.711-2.102,2.66-2.609,3.215
		c-0.48,0.548-2.432,2.43-2.895,2.911c-0.498,0.425-3.908,2.686-4.559,3.103c-0.693,0.396-2.869,1.669-3.377,1.938
		c-0.506,0.289-2.072,1.034-2.57,1.29c-0.52,0.275-1.902,0.905-2.234,0.991c-0.34,0.063-0.715,0-1.035-0.042
		c-0.264-0.044-0.412-0.044-0.531-0.044c-0.086,0-0.494,0.048-0.494,0.048l-0.137-0.243c0,0,1.27-0.515,1.934-0.842
		c0.646-0.303,3.426-1.585,4.219-2.056c0.787-0.461,2.414-1.372,3.27-1.938c0.838-0.584,2.846-2.044,3.57-2.687
		c0.754-0.638,2.865-2.689,3.227-3.142c0.361-0.469,2.039-2.03,2.422-2.417c0.379-0.388,1.076-1.052,1.549-1.729
		c0.512-0.741,1.613-2.554,1.844-3.068c0.227-0.559,0.48-0.963,0.434-1.196c-0.037-0.209-0.076-0.438-0.145-0.448
		c-0.062-0.042-0.441-0.157-0.441-0.157l0.152-0.48c0.064-0.137,0.098-0.26,0.098-0.26s0.422,0.013,0.627-0.09
		c0.229-0.09,0.754-0.48,1.072-0.805c0.336-0.302,0.711-0.728,0.834-0.932c0.137-0.218,0.18-0.269,0.18-0.269
		s0.178,0.051,0.178,0.149C168.245,133.283,167.888,134.424,167.774,134.722 M175.308,131.882c-0.145,0.235-0.49,0.796-0.732,1.035
		c-0.242,0.209-0.77,0.584-0.77,0.584s0.182-0.375,0.143-0.559c-0.049-0.191-0.424-0.544-0.723-0.621
		c-0.279-0.12-1.49-0.405-2.021-0.583c-0.508-0.153-1.674-0.613-1.979-0.873c-0.32-0.239-1.691-1.882-2.039-2.291
		c-0.291-0.387-1.496-1.953-1.93-2.502c-0.418-0.52-1.35-1.847-1.844-2.486c-0.518-0.66-1.311-1.686-1.506-1.889
		c-0.227-0.214-0.25-0.316-0.451-0.435c-0.191-0.149-0.268-0.239-0.268-0.239l0.135-0.515c0.053-0.191,0.053-0.311,0.053-0.311
		s0.629,0.029,1.109-0.013c0.486-0.084,0.768-0.205,1.18-0.157c0.43,0.021,0.639,0.123,0.816,0.519
		c0.227,0.448,0.84,1.116,1.283,1.533c0.445,0.438,2.557,2.387,3.209,3.009c0.643,0.58,2.689,2.571,3.414,3.201
		c0.705,0.648,1.693,1.499,1.975,1.751c0.227,0.28,0.865,0.881,1,1.047C175.503,131.262,175.464,131.623,175.308,131.882
		 M185.589,129.929c-0.215,0.456-0.764,1.367-0.922,1.562c-0.131,0.208-0.518,0.574-0.705,0.728
		c-0.188,0.146-0.285,0.157-0.285,0.157s0.297-0.336,0.221-0.548c-0.043-0.205-0.166-0.532-0.523-0.741
		c-0.357-0.166-1.039-0.252-1.562-0.4c-0.516-0.089-2.465-0.575-3.244-0.805c-0.74-0.195-1.361-0.362-1.859-0.72
		c-0.451-0.353-1.678-1.49-2.295-2.073c-0.574-0.52-1.846-1.706-2.57-2.349c-0.729-0.66-2.201-2.04-2.707-2.538
		c-0.52-0.519-1.959-1.774-2.213-2.052c-0.24-0.302-0.84-0.859-1.02-1.021c-0.178-0.159-0.33-0.146-0.42-0.346
		c-0.111-0.144-0.039-0.416-0.014-0.471c0.037-0.099,0.104-0.235,0.104-0.235s0.689,0.064,0.99-0.021
		c0.281-0.072,0.92-0.229,1.104-0.229c0.209,0,0.578-0.073,0.936,0.086c0.342,0.144,1.221,0.647,1.678,1.017
		c0.469,0.362,2.363,1.847,2.963,2.286c0.596,0.421,3.455,2.461,4.064,2.865c0.549,0.409,3.162,2.128,3.857,2.562
		c0.705,0.413,2.01,1.196,2.625,1.558c0.656,0.374,1.338,0.737,1.545,0.944C185.522,129.328,185.767,129.52,185.589,129.929
		 M196.575,127.067c-0.158,0.315-0.486,1.23-0.627,1.523c-0.191,0.303-0.42,0.883-0.652,1.096c-0.236,0.195-0.352,0.315-0.467,0.344
		c-0.152,0.035-0.174,0.01-0.174,0.01s0.268-0.303,0.268-0.413c0-0.107-0.174-0.546-0.375-0.689
		c-0.184-0.159-0.48-0.273-0.711-0.273c-0.221,0-0.967,0-1.623-0.09c-0.705-0.063-1.809-0.207-2.646-0.387
		c-0.801-0.179-1.379-0.247-2.051-0.528c-0.686-0.303-2.182-1.12-2.98-1.566c-0.762-0.451-3.27-1.992-4.078-2.524
		c-0.732-0.498-4.334-3.043-4.883-3.443c-0.545-0.362-1.84-1.342-2.371-1.732c-0.512-0.409-1.273-1.005-1.562-1.15
		c-0.297-0.115-1.195-0.421-1.494-0.575c-0.279-0.098-0.617-0.208-0.723-0.417c-0.078-0.178-0.039-0.446-0.039-0.446
		s1.244-0.302,1.562-0.435c0.307-0.119,1.014-0.256,1.264-0.222c0.252,0.051,1.166,0.49,1.725,0.779
		c0.52,0.316,2.93,1.567,3.709,1.993c0.77,0.417,3.945,2.021,4.646,2.362c0.725,0.35,3.043,1.512,3.883,1.87
		c0.844,0.391,3.762,1.667,4.59,2c0.744,0.337,1.982,0.77,2.664,1.026c0.711,0.226,1.6,0.485,2.025,0.605
		c0.404,0.132,1.15,0.323,1.205,0.506C196.698,126.497,196.698,126.786,196.575,127.067 M208.114,122.445
		c-0.086,0.233-0.281,0.928-0.416,1.319c-0.168,0.41-0.371,0.972-0.598,1.223c-0.242,0.238-0.762,0.362-0.762,0.362
		s0.277-0.184,0.25-0.473c-0.049-0.239-0.135-0.387-0.338-0.507c-0.223-0.157-0.312-0.268-0.637-0.268
		c-0.289-0.035-1.062,0.051-1.65,0.073c-0.604,0.038-2.652,0.038-3.451,0.038c-0.814,0-1.613,0.063-2.215-0.008
		c-0.596-0.082-1.35-0.188-2.244-0.461c-0.943-0.259-3.234-1.082-4.264-1.502c-0.992-0.412-4.031-1.732-4.854-2.102
		c-0.791-0.375-3.818-1.864-4.809-2.375c-0.994-0.52-2.402-1.192-3.182-1.605c-0.762-0.425-2.439-1.336-2.855-1.562
		c-0.447-0.178-0.916-0.358-1.287-0.442c-0.361-0.06-0.893-0.268-1.059-0.328c-0.162-0.099-0.541-0.208-0.541-0.208l0.051-0.499
		c0,0,1.188-0.247,1.775-0.48c0.504-0.178,1.158-0.459,1.717-0.421c0.578,0.073,1.758,0.456,2.459,0.71
		c0.678,0.26,3.1,1.129,3.742,1.397c0.654,0.216,6.227,2.115,7.139,2.366c0.865,0.281,5.699,1.72,6.729,2.013
		c1.016,0.281,5.68,1.468,6.773,1.708c1.098,0.208,2.912,0.524,3.482,0.655c0.557,0.124,1.082,0.222,1.137,0.499
		C208.259,121.829,208.216,122.241,208.114,122.445 M218.948,118.142c-0.188,0.412-0.52,1.149-0.891,1.57
		c-0.367,0.438-0.639,0.775-0.877,0.907c-0.213,0.178-0.318,0.217-0.318,0.217s0.225-0.311,0.166-0.519
		c-0.047-0.217-0.379-0.494-0.686-0.532c-0.328-0.073-1.004-0.021-1.689-0.021c-0.674,0-2.674-0.094-4.416-0.354
		c-1.777-0.28-4.447-0.676-6.244-1.106c-1.812-0.435-4.367-1.06-6.201-1.562c-1.844-0.524-4.883-1.405-6.777-2.035
		c-1.92-0.664-4.371-1.464-5.426-1.835c-1.082-0.391-4.223-1.497-4.705-1.685c-0.484-0.205-0.818-0.281-1.188-0.312
		c-0.361-0.029-0.838,0.061-1.217,0c-0.383-0.042-0.852-0.174-1.057-0.242c-0.205-0.09-0.379-0.103-0.455-0.268
		c-0.102-0.18-0.047-0.302-0.047-0.302s0.627-0.035,0.936-0.103c0.307-0.077,1.051-0.234,1.389-0.335
		c0.328-0.107,0.451-0.18,0.494-0.337c0.008-0.183-0.043-0.647,0-0.855c0.045-0.174,0.152-0.4,0.152-0.4s0.711,0.17,0.992,0.195
		c0.314,0,1.332,0.195,1.742,0.302c0.428,0.111,5.209,1.298,5.988,1.533c0.748,0.178,6.232,1.497,7.143,1.702
		c0.953,0.163,5.42,1.162,6.424,1.354c1.004,0.226,7.641,1.457,8.76,1.648c1.078,0.145,4.879,0.758,5.76,0.838
		c0.898,0.086,2.201,0.233,2.479,0.302c0.229,0.069,0.492,0.178,0.416,0.48C219.54,116.848,219.179,117.72,218.948,118.142
		 M228.019,112.467c-0.105,0.333-0.281,0.97-0.465,1.2c-0.135,0.229-0.264,0.486-0.521,0.656c-0.277,0.115-0.363,0.157-0.363,0.157
		s0.18-0.379,0.086-0.584c-0.115-0.208-0.494-0.578-0.725-0.595c-0.225-0.039-1.094,0.136-1.65,0.222
		c-0.609,0.094-1.668,0.204-2.381,0.259c-0.709,0.043-1.635,0.124-2.098,0.115c-0.473-0.012-1.311-0.115-2.061-0.208
		c-0.744-0.123-3.504-0.501-4.512-0.659c-0.949-0.146-4.18-0.729-5.543-0.928c-1.332-0.277-6.137-1.227-7.057-1.457
		c-0.912-0.174-4.475-0.97-5.365-1.187c-0.893-0.201-4.783-1.12-5.668-1.332c-0.908-0.213-3.391-0.817-4.041-0.963
		c-0.689-0.174-2.039-0.498-2.426-0.583c-0.361-0.046-0.771-0.165-1.082-0.059c-0.311,0.059-0.982,0.256-1.174,0.34
		c-0.205,0.06-0.256,0.081-0.549,0.042c-0.342-0.042-0.516-0.238-0.516-0.238s0.678-0.191,1.047-0.387
		c0.369-0.146,0.939-0.316,1.137-0.618c0.174-0.289,0.213-0.354,0.191-0.57c-0.018-0.191-0.068-0.345-0.068-0.345
		s1.15,0.056,1.6,0.098c0.465,0.035,2.648,0.371,3.334,0.464c0.676,0.078,4.039,0.597,4.947,0.729
		c0.906,0.149,7.07,0.984,8.279,1.149c1.217,0.136,6.512,0.821,7.482,0.941c0.988,0.102,6.947,0.749,7.867,0.838
		c0.924,0.081,4.281,0.4,5.422,0.48c1.158,0.115,3.623,0.243,4.709,0.26c1.068,0.021,1.826-0.017,2.111,0.073
		c0.264,0.094,0.48,0.285,0.426,0.48C228.343,110.471,228.104,112.144,228.019,112.467 M235.272,105.998
		c-0.15,0.523-0.502,1.345-0.801,1.592c-0.25,0.221-0.637,0.416-0.637,0.416s0.143-0.339,0.055-0.519
		c-0.107-0.191-0.482-0.467-0.75-0.467c-0.256,0.008-1.816,0.421-2.584,0.488c-0.775,0.115-2.043,0.23-3.014,0.222
		c-0.963-0.009-3.162-0.107-4.312-0.184c-1.119-0.081-4.158-0.307-5.678-0.481c-1.523-0.162-5.684-0.612-7.604-0.834
		c-1.92-0.233-5.801-0.715-7.197-0.894c-1.346-0.174-5.803-0.77-7.002-0.958c-1.17-0.166-4.352-0.591-5.225-0.715
		c-0.898-0.153-3.639-0.545-4.418-0.668c-0.812-0.09-1.281-0.201-1.639-0.201s-0.621-0.033-1.053,0
		c-0.471,0.035-0.398,0.035-0.611,0.035c-0.188,0-0.238-0.012-0.469-0.035c-0.207-0.033-0.318-0.055-0.318-0.055
		s0.809-0.515,1.158-0.779c0.334-0.28,0.748-0.531,0.834-0.8c0.088-0.242,0.088-0.387,0.088-0.387s2.469,0.084,3.027,0.136
		c0.562,0.051,3.281,0.229,4.006,0.273c0.697,0.054,5.074,0.356,6.436,0.446c1.361,0.102,7.492,0.498,8.73,0.583
		c1.201,0.063,6.105,0.366,7.314,0.438c1.207,0.055,5.879,0.302,7.398,0.374c1.527,0.061,6.84,0.231,7.742,0.239
		c0.924,0.013,3.908,0.035,4.439,0.013c0.512-0.021,1.154-0.077,1.512-0.077c0.34,0,0.74,0.008,0.762,0.395
		C235.489,103.963,235.417,105.482,235.272,105.998 M241.224,99.616c0.012,0.281,0.141,0.639,0.068,0.728
		c-0.08,0.068-0.703,0.43-0.83,0.443c-0.123,0.06-0.281,0.089-0.281,0.089s0.131-0.209,0.029-0.391
		c-0.076-0.157-0.445-0.43-0.66-0.465c-0.246-0.033-0.57,0.035-1.033,0.214c-0.443,0.178-1.775,0.553-2.529,0.728
		c-0.766,0.153-1.094,0.251-2.375,0.303c-1.291,0.021-4.223,0.021-5.508-0.052c-1.256-0.063-4.988-0.157-6.766-0.243
		c-1.762-0.094-6.129-0.324-7.67-0.391c-1.533-0.055-6.211-0.345-7.33-0.417c-1.119-0.098-6.588-0.41-7.76-0.459
		c-1.119-0.099-6.842-0.461-7.781-0.555c-0.902-0.102-2.912-0.225-3.52-0.259c-0.609-0.021-1.461-0.119-1.793-0.201
		c-0.297-0.088-0.297-0.213-0.557-0.268c-0.262-0.034-0.592-0.046-0.592-0.046s0.68-0.754,0.852-0.945
		c0.186-0.216,0.387-0.49,0.477-0.519c0.152-0.026,0.582,0.025,0.873-0.064c0.369-0.144,2.719-0.094,3.369-0.144h5.922
		c0.959,0,7.109-0.094,8.135-0.086c1.025,0.039,5.475,0,6.615-0.021c1.119-0.051,6.627,0,7.936-0.073
		c1.314-0.029,8.158-0.071,9.309-0.105c1.119-0.038,6.418-0.111,7.373-0.153c0.965,0,2.877-0.026,3.49-0.082
		c0.596-0.046,1.131-0.098,1.371-0.063c0.229,0.017,0.254,0.26,0.336,0.387c0.043,0.149,0.379,1.213,0.541,1.711
		C241.087,98.676,241.212,99.314,241.224,99.616 M151.483,89.856c1.088-0.205,4.162-0.754,5.422-0.831
		c1.256-0.102,3.457-0.191,4.482-0.191c1.145,0,3.346,0.102,4.984,0.247c1.711,0.188,4.045,0.519,5.604,0.604
		c1.549,0.084,4.162,0.17,5.35,0.144c1.127-0.06,3.262-0.144,4.41-0.153c1.158,0,5.363-0.17,6.771-0.272
		c1.4-0.063,5.221-0.302,6.629-0.336c1.422-0.081,5.76-0.167,7.002-0.167c1.238,0,6.627,0.231,7.99,0.302
		c1.383,0.073,4.729,0.264,5.959,0.324c1.252,0.072,3.027,0.149,4.057,0.208c1.043,0.034,4.109-0.05,4.768-0.05
		c0.664,0,3.002-0.009,4.283-0.034c1.264-0.081,4.668-0.354,5.928-0.448c1.211-0.109,4.398-0.425,5.441-0.501
		c1.01-0.069,2.021-0.226,2.457-0.146c0.428,0.043,0.953,0.396,1.08,0.538c0.137,0.174,0.732,0.804,1.17,1.298
		c0.461,0.467,0.873,0.983,0.949,1.127c0.07,0.188,0.371,0.583,0.281,0.72c-0.037,0.145-0.09,0.425-0.236,0.519
		c-0.154,0.072-0.883,0.388-0.883,0.388s-0.039-0.324-0.289-0.438c-0.223-0.124-0.672-0.264-0.98-0.167
		c-0.301,0.132-1.332,0.57-1.92,0.821c-0.59,0.268-1.572,0.703-2.021,0.762c-0.473,0.06-2.238,0.142-3.43,0.159
		c-1.201,0.025-4.684,0.038-6.186,0.084c-1.498,0.046-6.602,0.077-7.684,0.098c-1.051,0.013-5.738,0.069-7.215,0.069
		c-1.508,0-5.666,0.088-7.006,0.072c-1.363-0.017-7.322,0.102-8.646,0.071c-1.297-0.008-5.035,0-6.027,0.039
		c-1,0.026-2.35,0.064-3.666,0.149c-1.268,0.107-3.098,0.286-3.617,0.303c-0.535,0.059-1.227-0.042-1.477-0.106
		c-0.252-0.09-0.27-0.124-0.422-0.154c-0.148-0.021-0.592-0.092-0.592-0.092l-0.107-0.226c0,0,0.57-0.111,1.043-0.222
		c0.504-0.084,0.877-0.315,1.729-0.494c0.84-0.157,2.951-0.562,3.994-0.728c1.055-0.18,5.811-1.018,7.186-1.2
		c1.361-0.18,4.902-0.571,6.158-0.669c1.227-0.088,4.771-0.366,6.031-0.417c1.234-0.081,4.01-0.203,4.713-0.178
		c0.719,0.021,3.119,0.056,4.057,0.107c0.945,0.071,1.465,0.071,1.465,0.071l0.178-0.638c0,0-1.016-0.055-1.838-0.098
		c-0.859-0.056-3.018-0.103-3.75-0.103c-0.74,0-3.41,0.03-4.414,0.09c-0.967,0.047-2.389-0.123-3.547-0.146
		c-1.43-0.067-4.592-0.012-5.887,0.056c-1.303,0.103-4.947,0.465-6.104,0.622c-1.172,0.136-5.125,0.698-6.943,1.051
		c-1.83,0.315-4.67,0.886-6.002,1.137c-1.32,0.247-3.018,0.584-4.551,0.741c-1.51,0.157-4.588,0.213-5.707,0.18
		c-1.135-0.022-4.441-0.094-6.123-0.086c-1.65,0.052-4.461,0.052-6.082,0.243c-1.635,0.205-2.998,0.506-3.826,0.8
		c-0.865,0.264-1.721,0.591-2.273,0.991c-0.602,0.417-0.859,0.894-0.844,1.051c0.025,0.145,0.064,0.27,0.064,0.27l0.459,0.126
		c0,0-0.434,0.354-0.689,0.545c-0.246,0.205-0.498,0.703-0.6,1.127c-0.061,0.405-0.217,1.414-0.238,1.847
		c-0.025,0.427-0.062,0.597,0.072,0.932c0.145,0.333,0.818,1.533,1.068,2.031c0.268,0.486,0.967,1.631,1.17,1.95
		c0.188,0.341,0.549,0.804,0.801,1.235c0.281,0.391,0.729,1.349,0.779,1.651c0.061,0.318,0.061,0.791,0.061,1.239v2.282
		c0,0.375-0.021,0.651-0.111,0.723c-0.08,0.094-0.295,0.281-0.303,0.477c0,0.188-0.145,0.639-0.188,0.869
		c-0.059,0.226-0.238,0.71-0.238,0.71s-0.264-0.583-0.264-0.639c-0.029-0.071,0.088-0.527,0.039-1.2
		c-0.039-0.647-1.039-2.775-1.287-4.921c-0.139-1.34-0.953-2.72-1.578-3.626c-0.617-0.903-1.002-1.818-1.715-2.993
		c-0.686-1.2-2.658-2.362-3.889-3.26c-0.969-0.647-2.213-2.159-2.213-3.346c0-0.549-0.297-1.388-0.949-1.03
		c0.111-0.291,0.393-0.545,0.711-0.848c0.643-0.532,1.822-1.281,2.904-1.669C147.774,90.809,150.409,90.111,151.483,89.856
		 M105.36,89.383c0.635-0.251,3.84-1.35,4.844-1.605c1.205-0.332,4.031-0.979,5.721-1.26c1.699-0.281,5.127-0.655,8.404-0.655
		c2.826,0,5.4,0.251,6.771,0.391c1.363,0.184,4.121,0.668,5.24,0.924c1.111,0.306,2.992,0.758,4.062,1.106
		c1.02,0.366,2.664,0.919,3.301,1.2c0.652,0.281,1.031,0.371,1.146,0.48c0.098,0.086,0.123,0.256,0.455,0.427
		c0.336,0.128,0.826,0.323,0.826,0.323s-0.17,0.157-0.443,0.268c-0.268,0.107-0.607,0.251-0.848,0.358
		c-0.271,0.123-0.527,0.272-0.527,0.272s0-0.379-0.141-0.484c-0.148-0.12-0.949-0.545-1.791-0.861
		c-0.789-0.289-1.971-0.71-3.141-1.042c-1.158-0.325-3.203-0.941-4.615-1.171c-1.377-0.239-2.844-0.519-4.211-0.651
		c-1.344-0.149-4.457-0.388-6.049-0.375c-1.6,0.025-4.678,0.183-6.205,0.383c-1.525,0.18-4.059,0.583-5.529,0.957
		c-1.461,0.375-3.432,0.857-4.186,1.099c-0.799,0.281-1.717,0.656-2.025,0.656c-0.289,0.034-0.912-0.056-1.129-0.056
		c-0.213,0-0.404,0-0.562,0.042c-0.094,0.034-0.428,0.201-0.57,0.145c-0.148-0.089-0.428-0.235-0.428-0.235
		S104.729,89.676,105.36,89.383 M4.999,89.698c0.387-0.429,0.867-1.047,1.072-1.098c0.205-0.085,1.047-0.085,1.559-0.034
		c0.514,0.034,3.74,0.335,4.381,0.387c0.629,0.042,3.379,0.128,4.107,0.149c0.748,0.042,4.213,0.063,5.363,0.102
		c1.195,0.035,4.793,0.12,5.869,0.073c1.08-0.05,4.113-0.324,5.041-0.375c0.928-0.042,3.84-0.268,5.209-0.301
		c1.389-0.034,4.172,0,5.062-0.061c0.889-0.063,4.434-0.084,5.66-0.084c1.219,0,4.691,0.145,5.84,0.145
		c1.189,0.05,6.213,0.324,7.523,0.387c1.307,0.059,7.811,0.289,9.266,0.31c1.422,0.043,3.572,0.103,4.691,0.043
		c1.148-0.064,6.629-0.302,8.271-0.354c1.66-0.052,6.041-0.107,7.803-0.063c1.779,0.029,6.01,0.45,7.439,0.634
		c1.451,0.178,2.846,0.519,3.277,0.553c0.406,0.013,1.027,0.047,1.266,0.281c0.23,0.191,0.459,0.672,0.881,0.928
		c0.43,0.242,1.039,0.374,1.248,0.638c0.229,0.281,0.242,0.873,0.369,1.12c0.129,0.234,0.639,1.047,0.691,1.6
		c0.07,0.528,0,1.457-0.352,2.073c-0.34,0.604-0.939,1.303-1.561,1.971c-0.648,0.664-1.652,1.367-2.504,2.125
		c-0.855,0.741-2.314,1.86-3.055,2.907c-0.762,1.026-1.219,1.729-1.402,2.767c-0.148,1.043-0.045,1.644-0.113,1.818
		c-0.049,0.178-0.184,0.617-0.457,0.869c-0.238,0.272-1.318,1.494-1.689,2.018c-0.379,0.515-1.029,1.447-1.18,1.702
		c-0.17,0.243-0.293,0.511-0.293,0.511l-0.252-0.446c0,0,0.533-0.618,0.605-0.775c0.195-0.251,0.064-0.992,0.195-2.239
		c0.281-3.239,4.324-6.858,3.762-10.169c-0.48-2.588-3.707-4.806-6.932-5.295c-1.844-0.298-7.975-0.762-9.293-0.796
		c-1.652-0.06-6.076-0.124-7.463-0.159c-1.383-0.016-5.053-0.025-6.111-0.084c-1.082-0.025-2.445-0.038-4.178-0.327
		c-1.766-0.316-3-0.66-4.725-1.2c-1.74-0.521-3.121-0.938-4.49-1.231c-1.357-0.315-3.117-0.591-4.279-0.694
		c-1.213-0.102-3.527-0.272-5.32-0.323c-1.758-0.021-6.129,0-7.529,0.038c-1.393,0.013-5.734,0.163-6.875,0.163
		c-1.146,0-2.354-0.018-2.93,0.021c-0.531,0.046-0.391,0.285-0.629,0.336c-0.27,0.046-1.58,0-2.346,0
		c-0.736,0-1.324-0.051-1.562-0.072c-0.289-0.017-0.678-0.017-0.678-0.017s-0.045,0.26,0.223,0.331
		c0.268,0.086,0.922,0.124,1.137,0.159c0.246,0.025,2.025,0.123,2.654,0.144c0.627,0.06,1.713,0.06,2.402,0.094
		c0.693,0.082,1.902,0.082,2.721,0.09c0.799,0.013,4.053,0,5.26,0.025c1.172,0.055,3.432,0.055,4.5,0.082
		c1.119,0.012,3.742,0.127,5.773,0.374c2.051,0.229,3.74,0.482,5.801,0.966c1.959,0.473,4.295,1.213,5.439,1.575
		c1.129,0.328,2.709,0.758,3.521,0.953c0.83,0.167,1.584,0.209,1.783,0.404c0.205,0.167,0.205,0.358,0.068,0.604
		c-0.107,0.268-0.213,0.358-0.307,0.597c-0.094,0.247-0.174,0.463-0.174,0.463h-0.732c0,0,0.139-0.146,0.148-0.328
		c0.025-0.158-0.416-0.396-0.859-0.52c-0.477-0.063-2.541-0.263-3.092-0.335c-0.562-0.073-2.596-0.252-3.729-0.247
		c-1.119,0.021-5.494-0.017-6.623,0c-1.104,0.039-5.211-0.047-6.254-0.005c-1.02,0.026-4.623,0-5.605-0.012
		c-0.979-0.03-3.268-0.03-4.189-0.03c-0.91,0-3.961,0-5.053-0.021c-1.08,0-4.814-0.102-5.52-0.084
		c-0.725,0.033-2.76-0.027-3.764-0.027c-1.004-0.033-4.504-0.157-5.457-0.157c-0.957,0-2.125-0.073-2.49-0.191
		c-0.371-0.098-2.367-1.124-3.176-1.528c-0.809-0.396-2.332-1.171-2.74-1.401c-0.414-0.205-0.84-0.498-0.953-0.542
		c-0.129-0.081-0.67,0.494-0.848,0.699c-0.137,0.222-0.436,0-0.436,0S4.62,90.158,4.999,89.698"/>
	<path fill="#666666" d="M155.722,123.484c0-11.484-12.561-23.003-31.053-23.003c-18.471,0-31.031,11.519-31.031,23.003
		c0,11.488,12.561,23.024,31.031,23.024C143.161,146.509,155.722,134.973,155.722,123.484 M105.843,134.739
		c0-1.099,2.209-2.231,2.188-3.21v-16.12c0-0.827-2.303-1.183-2.303-2.737c0-0.081,0.029-0.191,0.049-0.349
		c0.551-1.282,3.955-4.065,9.463-5.776c2.615-0.771,5.691-1.355,9.225-1.405c1.814-0.014,3.52,0.119,5.154,0.34
		c7.043,1.038,11.992,4.389,12.475,8.744c0.051,0.356,0.059,0.693,0.059,1.076c0,2.521-1.166,4.726-5.018,6.9v0.052
		c4.26,1.992,5.996,5.993,5.971,8.978c-0.064,5.478-6.33,10.075-17.281,10.123c-0.771,0-1.533,0-2.256-0.048
		C112.452,140.736,105.843,135.824,105.843,134.739"/>
	<path fill="#666666" d="M132.821,131.418c0-6.019-4.104-7.436-7.961-7.461c-4.053,0.025-8.33,1.247-8.33,7.461
		c0,6.164,4.334,7.233,8.164,7.233h0.295C129.019,138.651,132.821,136.824,132.821,131.418"/>
	<path fill="#666666" d="M124.683,121.505c4.277-0.022,7.389-1.669,7.389-6.774c0-4.912-2.967-6.699-7.389-6.726
		c-4.059,0.026-7.412,2.022-7.412,6.726C117.271,120.028,120.599,121.483,124.683,121.505"/>
</g>
</svg>
