<?xml version="1.0" encoding="utf-8"?>
<!-- Generator: Adobe Illustrator 16.0.0, SVG Export Plug-In . SVG Version: 6.00 Build 0)  -->
<!DOCTYPE svg PUBLIC "-//W3C//DTD SVG 1.1//EN" "http://www.w3.org/Graphics/SVG/1.1/DTD/svg11.dtd">
<svg version="1.1" id="Layer_1" xmlns="http://www.w3.org/2000/svg" xmlns:xlink="http://www.w3.org/1999/xlink" x="0px" y="0px"
	 width="250px" height="250px" viewBox="0 0 250 250" enable-background="new 0 0 250 250" xml:space="preserve">
<g>
	<path fill="#666666" d="M125.012,42.244c-45.64,0-82.772,37.127-82.772,82.75c0,45.641,37.133,82.762,82.772,82.762
		c45.623,0,82.749-37.121,82.749-82.762C207.761,79.371,170.635,42.244,125.012,42.244 M125.012,205.47
		c-44.378,0-80.476-36.091-80.476-80.476c0-44.379,36.098-80.464,80.476-80.464c44.379,0,80.458,36.085,80.458,80.464
		C205.47,169.379,169.391,205.47,125.012,205.47"/>
	<path fill="#666666" d="M77.842,92.508c0.075,0.07,0.151,0.14,0.233,0.198c0.022,0.006,0.063-0.059,0.063-0.069
		c1.622-2.024,3.245-4.036,4.845-6.049c0.587-0.732,1.186-1.466,1.768-2.21c0.604-0.732,0.721-1.698,0.378-2.57
		c-0.448-0.901-1.32-1.5-2.355-1.466c-0.837,0.029-1.501,0.478-2.013,1.117c-0.721,0.896-1.418,1.791-2.14,2.681
		c-1.466,1.82-2.919,3.658-4.373,5.484c0.75,0.616,1.512,1.215,2.269,1.826C76.97,91.799,77.405,92.147,77.842,92.508"/>
	<path fill="#666666" d="M125.012,45.961c-43.657,0-79.039,35.394-79.039,79.033c0,43.651,35.382,79.045,79.039,79.045
		c43.646,0,79.034-35.394,79.034-79.045C204.046,81.354,168.657,45.961,125.012,45.961 M112.241,50.898l7.402-0.82l5.368,15.644
		l5.345-15.644l7.409,0.82l0.825,22.238l-5.769-0.82l-0.559-14.829l-5.198,14.829h-4.124l-5.216-14.829l-0.535,14.829l-5.758,0.82
		L112.241,50.898z M62.337,87.507c-0.581-0.488-1.174-0.977-1.779-1.448c-0.012-0.006-0.209-0.168-0.209-0.174
		c0.11-0.128,0.197-0.256,0.314-0.378c1.547-1.926,3.059-3.839,4.605-5.758c1.797-2.233,3.582-4.489,5.373-6.711
		c0.35-0.413,0.676-0.85,1.024-1.291c0.604-0.745,1.407-1.314,2.303-1.675c1.937-0.704,4.141-0.239,5.606,1.197
		c0.721,0.698,1.232,1.594,1.471,2.565c0.244,1.006,0.157,1.994-0.133,2.972c0.133-0.111,0.268-0.233,0.406-0.338
		c1.739-1.209,4.002-1.559,5.967-0.663c1.954,0.89,3.223,2.664,3.519,4.77c0.075,0.79,0.029,1.587-0.192,2.366
		c-0.453,1.478-1.5,2.6-2.441,3.774c-1.85,2.303-3.688,4.595-5.52,6.886c-1.529,1.919-3.076,3.827-4.6,5.74
		c-0.117,0.157-0.222,0.285-0.35,0.424c-0.012,0.035-0.139-0.099-0.174-0.128c-0.559-0.453-1.141-0.901-1.699-1.36
		c-2.244-1.791-4.466-3.582-6.711-5.362C66.868,91.112,64.605,89.286,62.337,87.507 M125.012,174.397
		c-27.28,0-49.392-22.116-49.392-49.403c0-27.281,22.111-49.386,49.392-49.386s49.397,22.104,49.397,49.386
		C174.409,152.281,152.292,174.397,125.012,174.397 M172.065,99.464l-2.838-4.856l9.77-12.829l-14.66,6.717l-4.123-3.809
		l13.363-17.563l4.135,3.821l-7.723,10.131l12.335-5.659l3.617,4.508l-8.229,10.787l11.557-5.31l2.85,4.862L172.065,99.464z"/>
	<path fill="#666666" d="M77.655,78.405c0.187-0.808,0-1.651-0.563-2.279c-0.692-0.75-1.809-1.006-2.774-0.616
		c-0.686,0.284-1.11,0.89-1.553,1.471c-1.762,2.164-3.483,4.327-5.211,6.49c-0.018,0.029-0.395,0.483-0.365,0.494
		c0.325,0.285,0.686,0.559,1.046,0.85c0.931,0.75,1.861,1.494,2.769,2.239c0.93-1.152,1.826-2.28,2.744-3.432
		c0.932-1.14,1.826-2.268,2.746-3.408C76.94,79.645,77.452,79.121,77.655,78.405"/>
	<path fill="#666666" d="M78.109,124.994h46.902V78.104C99.405,78.783,78.784,99.405,78.109,124.994"/>
	<path fill="#666666" d="M125.012,171.902c25.595-0.681,46.228-21.313,46.897-46.896h-46.897V171.902z"/>
</g>
</svg>
