<?xml version="1.0" encoding="utf-8"?>
<!-- Generator: Adobe Illustrator 16.0.0, SVG Export Plug-In . SVG Version: 6.00 Build 0)  -->
<!DOCTYPE svg PUBLIC "-//W3C//DTD SVG 1.1//EN" "http://www.w3.org/Graphics/SVG/1.1/DTD/svg11.dtd">
<svg version="1.1" id="Layer_1" xmlns="http://www.w3.org/2000/svg" xmlns:xlink="http://www.w3.org/1999/xlink" x="0px" y="0px"
	 width="250px" height="250px" viewBox="0 0 250 250" enable-background="new 0 0 250 250" xml:space="preserve">
<g>
	<path fill-rule="evenodd" clip-rule="evenodd" fill="#666666" d="M123.484,47.61c-33.258,0-60.219,27.216-60.219,60.786
		s26.961,60.785,60.219,60.785s60.219-27.215,60.219-60.785S156.742,47.61,123.484,47.61L123.484,47.61L123.484,47.61L123.484,47.61
		z"/>
	<path fill-rule="evenodd" clip-rule="evenodd" fill="#FFFFFF" d="M123.484,50.714c-31.561,0-57.145,25.825-57.145,57.683
		c0,31.856,25.584,57.682,57.145,57.682s57.146-25.825,57.146-57.682C180.631,76.539,155.045,50.714,123.484,50.714L123.484,50.714
		L123.484,50.714L123.484,50.714z"/>
	<path fill-rule="evenodd" clip-rule="evenodd" fill="#666666" d="M123.484,160.632c-28.578,0-51.748-23.389-51.748-52.235
		c0-28.849,23.17-52.234,51.748-52.234c28.58,0,51.748,23.386,51.748,52.234C175.232,137.243,152.064,160.632,123.484,160.632
		L123.484,160.632L123.484,160.632L123.484,160.632z"/>
	<path fill-rule="evenodd" clip-rule="evenodd" fill="#FFFFFF" d="M159.75,135.242c-0.549-0.551-1.213-0.826-1.992-0.826
		c-0.742,0-1.389,0.255-1.941,0.765c-0.584,0.546-0.879,1.231-0.879,2.055c0,0.793,0.271,1.461,0.814,2.006
		c0.545,0.543,1.213,0.814,2.006,0.814c0.768,0,1.426-0.265,1.975-0.796c0.562-0.55,0.846-1.223,0.846-2.024
		C160.578,136.459,160.303,135.794,159.75,135.242L159.75,135.242L159.75,135.242L159.75,135.242z"/>
	<path fill-rule="evenodd" clip-rule="evenodd" fill="#666666" d="M159.404,135.602c0.451,0.462,0.676,1.007,0.676,1.634
		c0,0.646-0.227,1.198-0.682,1.66c-0.453,0.461-1.002,0.689-1.641,0.689c-0.645,0-1.191-0.229-1.645-0.686
		c-0.457-0.455-0.686-1.01-0.686-1.664c0-0.629,0.225-1.174,0.674-1.634c0.457-0.469,1.01-0.704,1.656-0.704
		C158.396,134.897,158.947,135.133,159.404,135.602L159.404,135.602L159.404,135.602L159.404,135.602z"/>
	<path fill-rule="evenodd" clip-rule="evenodd" fill="#666666" d="M84.312,180.947v1.066l0,0c1.57,0,4.713,0.168,4.713,3.31l0,0
		v10.439l0,0c0,2.918,0.225,6.509,11.449,6.509c5.051,0,7.184-1.346,7.971-2.581l0,0v2.245h10.438v-1.065l0,0
		c-2.133,0-4.715-0.729-4.715-3.873l0,0v-16.05h-10.326v1.066l0,0c1.291,0.055,4.715,0.055,4.715,3.646l0,0v9.036l0,0
		c-0.449,3.479-0.955,6.006-7.689,6.006s-6.229-3.479-6.229-5.165l0,0v-14.59H84.312L84.312,180.947L84.312,180.947z"/>
	<path fill-rule="evenodd" clip-rule="evenodd" fill="#666666" d="M75.668,190.824c-0.672,0-0.645-0.562,0-0.562
		c2.021-0.225,6.174-0.448,6.174-4.939c0-4.489-5.162-4.376-9.541-4.376l0,0H50.863v1.066l0,0c2.58,0,4.715,0.055,4.715,4.096l0,0
		v10.439l0,0c0,1.906-0.113,4.321-4.715,4.321l0,0v1.065h22.785l0,0c5.949,0,9.541-1.684,9.541-6.173
		C83.189,191.272,78.25,190.937,75.668,190.824L75.668,190.824L75.668,190.824L75.668,190.824z"/>
	<path fill-rule="evenodd" clip-rule="evenodd" fill="#666666" d="M121.105,182.014v-1.066h13.02v1.066l0,0
		c-2.133,0-3.705,0.392-3.705,3.423l0,0v12.122l0,0c0,2.471,1.459,3.198,4.715,3.312l0,0v1.065H120.32v-1.065l0,0
		c1.57,0,4.488-0.618,4.488-3.312l0,0v-12.122l0,0C124.809,183.977,124.023,182.014,121.105,182.014L121.105,182.014
		L121.105,182.014L121.105,182.014z"/>
	<path fill-rule="evenodd" clip-rule="evenodd" fill="#666666" d="M159.178,187.231h4.266v-5.948l0,0
		c-2.75-0.562-9.877-1.123-12.684-1.123c-2.805,0-14.367-0.56-14.367,11.112c0,11.675,10.889,11.113,14.256,11.113
		s13.469-0.898,13.469-8.194l0,0h-4.883l0,0c-0.057,3.254-0.674,6.679-8.756,6.679c-8.08,0-8.475-4.996-8.475-9.485
		c0-4.49,0.227-9.653,8.756-9.653C159.291,181.731,159.178,184.818,159.178,187.231L159.178,187.231L159.178,187.231
		L159.178,187.231z"/>
	<path fill-rule="evenodd" clip-rule="evenodd" fill="#666666" d="M166.586,180.947v1.066l0,0c1.797,0,4.154-0.057,4.154,3.423l0,0
		v10.438l0,0c0,3.705-1.236,4.996-4.715,4.996l0,0v1.065h15.041v-1.065l0,0c-1.908,0-4.715-1.517-4.715-3.312l0,0v-3.984l2.357-1.74
		l11.225,10.102h9.203v-1.065l0,0c-1.123,0-2.076-0.168-3.535-1.403c-1.459-1.234-12.852-10.607-12.852-10.607
		c3.871-2.975,7.914-6.846,13.918-6.846l0,0v-1.066h-13.693v1.066l0,0c3.816,0,3.703,1.458,2.244,2.861l0,0l-8.867,6.623v-6.286l0,0
		c0-2.134,0.785-3.198,4.154-3.198l0,0v-1.066H166.586L166.586,180.947L166.586,180.947z"/>
	<path fill-rule="evenodd" clip-rule="evenodd" fill="#FFFFFF" d="M133.588,74.161c0,0,0,3.316,0,7.745l0,0h-22.562l0,0
		c0,0,0,3.316,0,7.745l0,0H88.465l0,0c0,0,0,21.888,0,28.286c0,14.366,5.836,22.225,13.357,34.347
		c5.803-9.354,10.598-16.169,12.488-25.394c2.426,5.772,6.002,11.086,10.072,17.647c5.801-9.353,10.6-16.169,12.488-25.392
		c2.428,5.771,6.002,11.084,10.072,17.647c7.521-12.122,13.357-19.979,13.357-34.347c0-6.398,0-28.286,0-28.286l0,0H133.588
		L133.588,74.161L133.588,74.161z"/>
	<path fill-rule="evenodd" clip-rule="evenodd" fill="#666666" d="M111.025,119.846c0,7.969-4.602,17.51-9.203,24.692
		c-4.604-7.183-9.203-16.724-9.203-24.692c0-3.816,0-26.042,0-26.042l0,0h18.406l0,0
		C111.025,100.037,111.025,118.442,111.025,119.846L111.025,119.846L111.025,119.846L111.025,119.846z"/>
	<path fill-rule="evenodd" clip-rule="evenodd" fill="#666666" d="M133.588,112.101c0,7.969-4.604,17.51-9.205,24.693
		c-4.602-7.184-9.203-16.725-9.203-24.693c0-2.854,0-26.041,0-26.041l0,0h18.408l0,0
		C133.588,92.293,133.588,110.697,133.588,112.101L133.588,112.101L133.588,112.101L133.588,112.101z"/>
	<path fill-rule="evenodd" clip-rule="evenodd" fill="#666666" d="M156.146,104.355c0,7.969-4.602,17.51-9.203,24.693
		c-4.602-7.184-9.203-16.725-9.203-24.693c0-2.854,0-26.042,0-26.042l0,0h18.406l0,0
		C156.146,78.313,156.146,100.539,156.146,104.355L156.146,104.355L156.146,104.355L156.146,104.355z"/>
	<path fill-rule="evenodd" clip-rule="evenodd" fill="#FFFFFF" d="M93.629,107.554v11.842l0,0c0,7.296,4.209,17.062,8.193,23.123
		c2.004-3.051,4.066-7.037,5.621-11.177l0,0L93.629,107.554L93.629,107.554L93.629,107.554z"/>
	<path fill-rule="evenodd" clip-rule="evenodd" fill="#FFFFFF" d="M138.75,92.064v11.842l0,0c0,7.296,4.209,17.061,8.193,23.122
		c2.006-3.05,4.068-7.037,5.621-11.176l0,0L138.75,92.064L138.75,92.064L138.75,92.064z"/>
	<path fill-rule="evenodd" clip-rule="evenodd" fill="#FFFFFF" d="M116.189,99.81v11.842l0,0c0,7.296,4.209,17.062,8.193,23.122
		c2.004-3.05,4.066-7.038,5.621-11.177l0,0L116.189,99.81L116.189,99.81L116.189,99.81z"/>
	<path fill-rule="evenodd" clip-rule="evenodd" fill="#FFFFFF" d="M109.688,123.157l-16.059-27.67v-0.673h16.387v24.581l0,0
		C110.016,120.593,109.895,121.855,109.688,123.157L109.688,123.157z"/>
	<path fill-rule="evenodd" clip-rule="evenodd" fill="#FFFFFF" d="M154.811,107.667L138.75,79.998v-0.673h16.387v24.581l0,0
		C155.137,105.104,155.018,106.365,154.811,107.667L154.811,107.667z"/>
	<path fill-rule="evenodd" clip-rule="evenodd" fill="#FFFFFF" d="M132.25,115.412l-16.061-27.669v-0.674h16.387v24.582l0,0
		C132.576,112.849,132.457,114.11,132.25,115.412L132.25,115.412z"/>
	<path fill-rule="evenodd" clip-rule="evenodd" fill="#FFFFFF" d="M157.342,137.699h0.17l0.182,0.012l0,0
		c0.125,0.007,0.217,0.023,0.277,0.05c0.113,0.043,0.189,0.118,0.23,0.229c0.025,0.066,0.043,0.194,0.051,0.383
		s0.023,0.333,0.049,0.433l0,0h0.781l-0.027-0.089l0,0c-0.01-0.029-0.018-0.061-0.02-0.091c-0.006-0.031-0.008-0.062-0.008-0.092
		l0,0v-0.279l0,0c0-0.32-0.092-0.554-0.275-0.701c-0.1-0.079-0.246-0.139-0.443-0.179c0.215-0.024,0.395-0.095,0.541-0.211
		c0.146-0.117,0.221-0.308,0.221-0.57c0-0.344-0.139-0.593-0.418-0.745c-0.162-0.09-0.369-0.143-0.615-0.162
		c-0.043-0.002-0.258-0.003-0.645-0.005s-0.678-0.002-0.871-0.002l0,0v3.126h0.82V137.699L157.342,137.699L157.342,137.699z"/>
	<path fill-rule="evenodd" clip-rule="evenodd" fill="#FFFFFF" d="M61.189,185.212c0.111-1.684,0.672-2.807,3.592-2.807l0,0h4.713
		l0,0c4.604,0,6.174,0.898,6.174,3.368c0,3.029-2.02,4.376-5.611,4.376l0,0h-8.867V185.212L61.189,185.212L61.189,185.212z"/>
	<path fill-rule="evenodd" clip-rule="evenodd" fill="#FFFFFF" d="M69.494,200.478h-4.713l0,0c-2.92,0-3.48-1.124-3.592-2.807l0,0
		v-6.062h8.867l0,0c3.592,0,7.07,0.562,7.07,4.604C77.127,198.681,74.098,200.478,69.494,200.478L69.494,200.478L69.494,200.478
		L69.494,200.478z"/>
	<path fill-rule="evenodd" clip-rule="evenodd" fill="#666666" d="M158.105,137.022c-0.107,0.075-0.256,0.114-0.447,0.114l0,0
		h-0.316v-0.906h0.199l0,0c0.203,0,0.361,0.021,0.473,0.063c0.168,0.066,0.254,0.186,0.254,0.357
		C158.268,136.821,158.213,136.944,158.105,137.022L158.105,137.022L158.105,137.022L158.105,137.022z"/>
</g>
</svg>
