<?xml version="1.0" encoding="utf-8"?>
<!-- Generator: Adobe Illustrator 16.0.0, SVG Export Plug-In . SVG Version: 6.00 Build 0)  -->
<!DOCTYPE svg PUBLIC "-//W3C//DTD SVG 1.1//EN" "http://www.w3.org/Graphics/SVG/1.1/DTD/svg11.dtd">
<svg version="1.1" id="Layer_1" xmlns="http://www.w3.org/2000/svg" xmlns:xlink="http://www.w3.org/1999/xlink" x="0px" y="0px"
	 width="250px" height="250px" viewBox="0 0 250 250" enable-background="new 0 0 250 250" xml:space="preserve">
<g>
	<path fill="#666666" d="M86.784,193.673c12.484,6.103,26.078,9.851,41.037,9.739c32.043-1.946,63.855-22.105,76.844-52.584
		c8.506-18.152,7.563-44.126-0.668-62.111c-8.979-21.346-31.604-36.259-52.471-42.117c-3.52,0.479-7.085,1.67-8.98,5.007
		c14.486,5.083,28.422,12.417,39.27,25.518c14.594,16.451,18.561,43.146,9.606,63.496c-11.149,26.292-38.698,42.468-65.948,44.831
		c-17.552-1.487-33.111-7.599-46.746-18.468c-21.321-17.338-30.367-45.013-21.189-70.994c7.035-21.397,29.506-38.226,50.099-44.383
		c-1.899-3.372-5.648-4.487-9.208-5.007C90.31,49.28,82.404,52.504,75.06,56.925c-21.988,13.044-34.599,35.516-35.5,59.974
		C37.358,149.769,57.966,179.279,86.784,193.673 M125.474,187.082c27.707-2.403,55.782-18.529,67.258-45.412
		c10.201-22.724,4.869-51.75-12.968-69.271c-10.284-10.895-22.528-17.358-35.495-21.932c0.352-0.708,1.391-1.151,2.154-1.635
		l8.531,2.852c-2.201-0.321-4.411-0.851-6.672-0.667c6.672,3.524,13.537,6.458,21.137,7.945c4.574,2.924,8.965,6.295,13.141,10.253
		c-2.287-1.507-5.394-2.037-8.047-3.208c3.941,5.195,9.453,9.102,15.086,11.506l0.917,0.672c3.81,5.104,6.657,10.609,8.847,16.441
		c-2.053-3.127-5.145-5.618-7.94-8.032c1.742,6.515,5.562,12.372,10.36,17.75c1.334,3.051,1.283,6.586,1.65,9.983
		c0.143,4.212,0.143,8.613-0.408,12.647c-0.473-4.421-2.271-8.476-4.044-12.255c-1.849,7.711-0.52,16.245,1.854,23.233
		c-1.722,6.57-4.777,12.58-8.241,18.407c1.335-3.973,1.019-9.504,0.651-14.037c-2.037,3.443-3.855,6.938-4.936,10.757l-1.654,11.104
		c-3.994,5.043-9.158,9.779-14.262,13.416c3.927-4.126,5.389-9.219,6.672-14.394c-4.014,3.188-8.2,7.426-10.156,12l-3.402,6.927
		c-6.458,3.932-13.339,6.866-20.572,9.015c5.1-2.913,10.05-7.762,13.207-12.732c-5.47,2.465-11.47,4.655-15.738,10.013
		c-1.711,1.498-2.414,4.278-4.91,4.636c-3.859,0.805-7.95,1.191-12.02,1.568V187.082z M164.173,56.843
		c-3.749-0.922-8.027-2.613-11.725-4.543C156.513,53.293,160.302,55.157,164.173,56.843 M169.867,56.538
		c3.556,2.746,7.467,5.735,10.31,9.469C176.702,62.823,172.831,60.251,169.867,56.538 M188.31,75.954
		c-4.028-1.594-7.705-4.243-10.869-7.63C181.134,70.697,184.893,72.877,188.31,75.954 M201.125,102.164
		c-3.469-3.591-6.224-8.027-7.981-12.581C196.093,93.663,199.072,97.687,201.125,102.164 M201.304,135.66
		c0.081-6.211-0.795-11.982-1.682-17.865C202.083,122.99,203.433,129.917,201.304,135.66 M188.01,162.654
		c2.19-5.429,3.448-11.144,4.722-16.939C193.164,152.183,192.278,158.132,188.01,162.654 M167.58,180.797
		c3.886-4.676,6.784-9.748,9.952-14.771C176.32,171.771,172.897,177.323,167.58,180.797 M140.433,192.328
		c5.303-3.585,10.35-7.925,15.479-12.01C151.948,185.728,146.489,190.475,140.433,192.328 M125.474,195.385
		c7.451,4.34,18.443,4.961,26.566,1.752c-5.266-1.191-9.941-3.646-15.911-3.107c4.563-0.835,8.938-2.078,13.313-3.392
		c8.252,1.956,17.414,0.743,23.908-4.36c-5.307,0.082-11.307-0.702-16.299,1.08c5.466-2.425,11.41-6.102,16.803-9.851
		c8.287-0.397,16.335-3.779,20.558-11.48c-4.446,1.905-9.591,2.639-13.69,5.583c4.675-4.351,8.887-9.494,12.223-14.669
		c8.043-2.985,14.114-11.501,14.455-19.783c-2.744,3.556-7.248,6.561-9.428,10.615c3.388-7.447,5.328-15.443,6.193-23.87
		c4.401-6.255,5.776-15.851,2.553-23.088c-1.254,3.331-2.287,6.774-2.802,10.406c-0.724-6.901-2.531-13.92-5.261-20.271
		c0.723-6.708-0.856-12.764-5.807-17.307c-0.836-0.851-1.758-1.716-2.527-2.516c0.469,3.158,1.355,6.346,2.623,9.321
		c-3.264-6.163-11.199-11.063-13.573-17.822c-2.872-4.38-7.665-6.01-11.725-8.485v0.402c1.161,1.752,2.394,3.561,4.06,5.088
		c-7.615-4.925-15.713-8.669-24.311-11.292c3.605-2.353,7.201,0.168,10.64,1.167c17.308,6.081,35.476,19.166,43.925,36.616
		c10.503,19.67,10.834,49.113,0.098,68.773c-14.955,29.134-45.076,46.481-76.584,48.04V195.385z M128.306,195.863
		c6.692,0.927,13.64,1.396,20.729,1.457C142.389,199.052,134.265,198.889,128.306,195.863 M151.948,190.291
		c6.087-0.927,12.602-1.242,18.479-2.934C165.253,190.679,158.392,191.381,151.948,190.291 M176.657,176.438
		c5.353-2.394,10.639-4.951,15.508-8.506C188.585,173.076,182.743,175.796,176.657,176.438 M195.451,154.688
		c4.06-4.258,8.042-9.361,10.763-14.557C205.108,146,201.181,151.908,195.451,154.688 M204.165,122.257
		c0.052-6.524-0.015-13.11,2.354-18.662C206.346,110.059,205.541,116.283,204.165,122.257 M197.601,88.229
		c-2.384-4.793-5.23-9.387-6.102-14.796C194.218,78.087,196.302,83.033,197.601,88.229 M105.997,50.344
		c-20.669,6.499-43.08,23.684-50.139,45.239c-8.751,24.622-1.146,51.425,17.755,69.109c14.526,13.527,31.823,20.444,51.229,22.39
		v7.437c-4.554-0.143-9.097-0.733-13.313-1.731c-3.107-3.229-5.735-7.172-9.606-9.545c-3.147-1.844-6.489-3.402-9.794-4.951v0.367
		c3.162,4.899,8.072,9.483,12.992,12.488c-6.947-2.098-14.016-5.083-20.444-9.015c-2.776-5.124-4.441-10.768-9.208-15.066
		l-4.279-3.962c0.836,4.003,2.084,8.067,4.35,11.612l2.257,2.883c-5.108-3.586-10.06-8.343-14.276-13.202
		c-0.795-4.981-0.983-10.187-2.816-14.74c-1.024-2.516-2.369-4.94-3.76-7.334c-0.366,4.533-0.718,10.064,0.657,14.037
		c-3.504-5.766-6.347-11.837-8.221-18.265c2.364-7.09,3.692-15.665,1.834-23.376c-1.818,3.779-3.505,7.793-4.105,12.173
		c-0.886-6.82-0.453-14.877,0.835-21.677c2.721-4.105,6.52-7.742,8.374-12.234c0.896-2.099,1.854-4.136,2.506-6.29
		c-2.812,2.104-5.929,4.864-8.007,7.935c2.189-5.873,5.083-11.363,8.903-16.538c4.37-2.531,8.974-4.406,12.743-8.383l3.28-3.616
		c-2.648,0.912-5.694,1.563-8.159,3.214c4.223-4.207,8.857-7.63,13.69-10.538c7.386-1.289,14.017-4.432,20.648-7.747
		c-2.271-0.184-4.532,0.346-6.673,0.667l8.379-2.852C104.489,49.142,105.233,49.779,105.997,50.344 M109.755,192.328
		c-6.051-1.854-11.525-6.601-15.493-12.01C99.386,184.403,104.438,188.712,109.755,192.328 M82.485,180.716
		c-5.031-3.158-8.643-8.944-9.891-14.689C75.742,171.018,78.636,176.091,82.485,180.716 M62.169,162.654
		c-4.269-4.522-5.16-10.472-4.763-16.939C58.72,151.511,59.979,157.226,62.169,162.654 M48.87,135.66
		c-2.099-5.743-0.785-12.67,1.66-17.865C49.675,123.678,48.819,129.449,48.87,135.66 M49.094,102.24
		c1.925-4.498,5.002-8.577,7.915-12.657C55.277,94.193,52.537,98.369,49.094,102.24 M61.97,75.867
		c3.092-2.735,7.064-5.226,10.768-7.543C69.538,71.604,66.004,74.471,61.97,75.867 M70.018,66.006
		c2.786-3.733,6.672-6.626,10.177-9.469C77.556,60.164,73.42,62.823,70.018,66.006 M86.005,56.843
		c3.51-1.513,7.574-3.631,11.74-4.543C93.951,54.083,90.156,55.85,86.005,56.843 M60.523,69.093
		c11.19-10.991,24.214-17.516,38.194-21.83c1.412,0.184,2.715,0.52,3.969,1.075c-8.262,2.623-16.682,6.367-24.225,11.287
		c1.732-1.65,3.107-3.453,4.136-5.394c-5.017,2.46-11.694,5.694-13.665,11.776l-0.84,1.844c-4.178,3.861-7.926,8.058-10.758,12.596
		c0.998-2.664,2.175-6.143,2.485-9.336c-6.376,5.078-9.347,11.827-8.353,19.915c-2.74,6.336-4.441,13.121-5.195,20.302
		c-0.397-3.738-1.666-7.13-2.822-10.513c-3.33,7.401-1.64,17.154,2.699,23.572c0.846,8.258,2.695,16.051,6.021,23.304
		c-2.053-3.738-6.647-6.988-9.413-10.533c0.428,7.273,4.604,14.445,11.46,18.143c3.953,0.774,4.722,5.308,7.334,7.804
		c2.557,2.893,4.961,5.928,7.986,8.506c-4.176-2.914-9.168-3.617-13.67-5.715v0.407c4.451,7.752,12.458,10.768,20.75,11.297
		c5.241,3.871,10.758,7.202,16.594,9.759c-4.777-1.823-10.939-0.906-16.318-1.141c1.396,1.396,3.539,2.353,5.43,3.28
		c5.459,2.454,12.586,2.373,18.626,1.141c4.284,1.313,8.612,2.557,13.101,3.392c-5.975-0.539-10.682,1.916-15.938,3.107
		c8.18,3.209,19.166,2.588,26.566-1.752l0.163,7.456c-33.259-1.15-66.31-21.85-79.263-53.449
		C35.046,122.894,39.886,89.375,60.523,69.093 M52.562,88.229c1.339-5.195,3.356-10.141,6.157-14.796
		C57.823,78.867,54.9,83.42,52.562,88.229 M45.956,122.257c-1.35-5.974-2.139-12.198-2.291-18.662
		C45.987,109.147,45.905,115.732,45.956,122.257 M54.809,154.821c-5.745-2.821-9.779-8.771-10.899-14.689
		C46.72,145.368,50.448,150.217,54.809,154.821 M73.542,176.438c-6.111-0.713-11.807-3.199-15.642-8.506
		C62.866,171.405,68.133,174.044,73.542,176.438 M98.229,190.169c-6.291,1.263-13.391,0.55-18.504-2.812
		C85.618,188.926,91.938,189.497,98.229,190.169 M121.872,195.863c-5.984,2.954-14.042,3.229-20.633,1.457
		C107.983,197.259,115.165,196.79,121.872,195.863"/>
	<path fill="#666666" d="M65.571,89.369l10.171,17.496l0.397,7.864l1.533,20.564l1.156,8.211c0.784,5.165,6,8.832,10.472,10.635
		c11.582,4.523,23.735,7.772,35.842,11.012c11.71-3.127,23.312-6.387,34.573-10.533c4.609-1.752,10.324-5.144,11.395-10.543
		c2.088-11.888,2.744-24.389,3.234-36.99l10.252-17.715l-2.587-0.361l-35.495-4.355l-22.02-2.19l-17.113,1.813L65.571,89.369z
		 M125.474,84.148l37.589,4.177l18.753,2.445l-9.137,15.626c-0.529,11.149-1.213,22.293-2.395,33.145
		c-0.641,3.8-1.258,7.701-4.879,10.115c-3.611,2.639-7.812,3.871-11.924,5.369c-9.152,3.198-18.626,5.643-28.008,8.292l-0.097-7.355
		c12.005-3.025,24.942-3.819,36.076-8.954c3.214-1.456,4.319-4.768,4.543-7.955l0.86-34.174c1.951-3.305,3.979-6.646,5.822-9.983
		l-47.205-0.076V84.148z M126.044,141.854h38.648c-1.064,4.584-6.112,5.287-9.668,6.846l-9.585,2.424l-19.299,3.77L126.044,141.854z
		 M124.842,95.593h0.535v12.947l20.165,0.077l0.193-0.285V95.593h25.578l-2.404,4.258h-22.486c-0.372,1.197-0.123,2.623-0.189,3.952
		l0.266,0.194h19.874c-0.733,1.467-0.377,3.397-0.448,5.104l-19.625,0.132l-0.066,13.319l0.266,0.194h19.069v0.474h-39.993
		l-0.198,0.295v9.283l39.957,0.092c0.153,0.071,0.071,0.306,0.071,0.468l-39.932,0.082l-0.097,7.049l0.26,0.225h39.382l-0.193,0.479
		h-39.352l-0.097,13.701c-0.081,0.143-0.331,0.102-0.483,0.133l-0.052-17.603l-20.2-0.123l-0.203,0.326v13.406
		c-5.318-1.213-10.686-2.282-15.412-4.839h14.729c0.357-1.223,0.123-2.699,0.225-4.055l-0.352-0.163H85.419
		c-0.314-1.69-0.523-3.382-0.58-5.175l18.916-0.051l0.225-0.285v-13.042l-0.352-0.204h-19.09v-0.474h40.07l0.233-0.321v-9.24
		l-40.481-0.137v-0.479l40.318-0.066l0.163-7.08l-40.553-0.061c-0.214-0.153-0.117-0.413-0.117-0.611h40.507L124.842,95.593z
		 M165.507,123.983l-0.102,8.132h-39.361v-8.132H165.507z M84.36,113.843h39.743v8.104H84.538L84.36,113.843z M83.79,104.084
		l-4.961-8.491h45.274v8.404L83.79,104.084z M124.608,84.148v10.671H77.597l0.076,0.57l5.699,9.637l0.693,32.864
		c0.295,2.74,0.355,5.562,2.525,7.549c4.289,3.188,9.408,4.329,14.439,5.684l23.465,4.747h0.113c0.178,2.425,0.029,4.981,0.07,7.457
		c-12.02-3.443-24.26-6.52-35.766-11.226c-4.624-1.691-8.617-6.173-8.811-11.195c-1.335-11.249-2.18-22.704-2.608-34.321
		c-2.923-5.328-6.249-10.492-9.127-15.81l39.065-4.767L124.608,84.148z"/>
	<path fill="#666666" d="M145.439,113.914h-19.864v4.08l20.058-0.087C145.542,116.558,145.831,115.131,145.439,113.914"/>
	<line fill="none" stroke="#CFD8DC" stroke-miterlimit="10" x1="104.642" y1="130.029" x2="124.694" y2="130.029"/>
</g>
</svg>
