<?xml version="1.0" encoding="utf-8"?>
<!-- Generator: Adobe Illustrator 16.0.0, SVG Export Plug-In . SVG Version: 6.00 Build 0)  -->
<!DOCTYPE svg PUBLIC "-//W3C//DTD SVG 1.1//EN" "http://www.w3.org/Graphics/SVG/1.1/DTD/svg11.dtd">
<svg version="1.1" id="Layer_1" xmlns="http://www.w3.org/2000/svg" xmlns:xlink="http://www.w3.org/1999/xlink" x="0px" y="0px"
	 width="250px" height="250px" viewBox="0 0 250 250" enable-background="new 0 0 250 250" xml:space="preserve">
<g>
	<path fill-rule="evenodd" clip-rule="evenodd" fill="#666666" d="M212.13,96.008c-2.722-17.146-10.948-30.514-27.031-38.096
		c-4.816-2.271-9.947-4.04-15.104-5.393c-15.002-3.937-30.385-4.532-47.285-4.515c-13.376-0.055-28.178,0.627-42.716,4.007
		C69.669,54.413,59.91,58.14,51.817,65.285c-11.691,10.321-15.771,24.041-16.593,38.912c-0.432,7.819-0.062,15.713,0.423,23.544
		c0.712,11.45,2.647,22.729,6.242,33.666c5.236,15.931,14.721,28.137,30.604,34.69c8.816,3.639,18.07,5.659,27.506,6.284
		c11.191,0.741,22.436,1.025,33.655,0.97c9.853-0.045,19.653-1.18,29.33-3.251c22.589-4.834,37.465-18.116,43.776-40.39
		c2.214-7.819,3.688-15.89,4.907-23.936C213.668,122.575,214.236,109.283,212.13,96.008z M204.522,134.95
		c-1.118,7.39-2.473,14.798-4.505,21.979c-5.797,20.453-19.455,32.65-40.198,37.089c-8.885,1.902-17.886,2.943-26.936,2.986
		c-10.3,0.049-20.627-0.212-30.901-0.892c-8.666-0.574-17.163-2.43-25.261-5.771c-14.583-6.018-23.292-17.228-28.101-31.854
		c-3.301-10.043-5.08-20.401-5.732-30.915c-0.444-7.191-0.784-14.44-0.388-21.619c0.754-13.656,4.501-26.255,15.236-35.732
		c7.433-6.561,16.395-9.984,25.873-12.188c13.349-3.104,26.943-3.729,39.225-3.681c15.519-0.014,29.646,0.531,43.42,4.148
		c4.736,1.241,9.447,2.867,13.872,4.95c14.766,6.965,22.32,19.238,24.821,34.982C206.882,110.623,206.361,122.83,204.522,134.95z"/>
	<path fill-rule="evenodd" clip-rule="evenodd" fill="#666666" d="M188.268,101.448c-2.471-16.612-12.067-27.539-28.3-32.485
		c-7.807-2.377-15.805-3.51-23.911-3.884c-14.372-0.664-28.713-0.617-42.846,2.683c-18.055,4.213-29.764,14.888-32.562,33.562
		c-3.052,20.366-1.253,40.52,5.457,60.041c4.956,14.419,15.275,23.124,30.095,26.665c9.281,2.219,18.713,2.628,31.905,2.941
		c4.376-0.435,12.486-0.847,20.463-2.11c16.684-2.646,28.846-11.452,34.358-27.821C189.455,141.658,191.275,121.664,188.268,101.448
		z M177.691,158.068c-5.019,14.901-16.091,22.92-31.282,25.33c-7.263,1.15-14.646,1.525-18.63,1.921
		c-12.013-0.286-20.601-0.658-29.05-2.679c-13.492-3.224-22.888-11.148-27.4-24.276c-6.11-17.774-7.748-36.122-4.968-54.666
		c2.546-17.002,13.208-26.72,29.644-30.556c12.871-3.006,25.927-3.047,39.011-2.443c7.382,0.341,14.664,1.372,21.772,3.535
		c14.777,4.506,23.516,14.454,25.765,29.577C185.291,122.219,183.635,140.424,177.691,158.068z"/>
	<path fill-rule="evenodd" clip-rule="evenodd" fill="#666666" d="M156,115.904V73.909l-8.396-2.273l-21.123,57.669
		c-0.533,0.854-1.075,1.172-1.541,1.207c-0.467-0.035-0.999-0.353-1.531-1.207l-21.086-57.669L94,73.909v41.995
		c0,0-0.885,12.191,4.24,22.787L122.831,187h2.091h2.091l24.669-48.309C156.807,128.096,156,115.904,156,115.904z"/>
</g>
</svg>
