<?xml version="1.0" encoding="utf-8"?>
<!-- Generator: Adobe Illustrator 16.0.0, SVG Export Plug-In . SVG Version: 6.00 Build 0)  -->
<!DOCTYPE svg PUBLIC "-//W3C//DTD SVG 1.1//EN" "http://www.w3.org/Graphics/SVG/1.1/DTD/svg11.dtd">
<svg version="1.1" id="Layer_1" xmlns="http://www.w3.org/2000/svg" xmlns:xlink="http://www.w3.org/1999/xlink" x="0px" y="0px"
	 width="250px" height="250px" viewBox="0 0 250 250" enable-background="new 0 0 250 250" xml:space="preserve">
<g>
	<path fill="#666666" d="M69.033,176.095c-1.314,0.368-2.705,0.54-4.197,0.54c-1.828,0-3.471-0.371-4.941-1.128
		c-1.443-0.757-2.58-1.764-3.406-3.039c-0.812-1.275-1.215-2.688-1.215-4.224c0-1.733,0.471-3.26,1.387-4.539
		c0.951-1.307,2.172-2.309,3.727-2.996c1.531-0.718,3.188-1.064,4.941-1.064c2.012,0,3.723,0.312,5.201,0.943
		c1.461,0.609,2.971,1.383,4.463,2.326v-8.067c-4.375-1.544-8.283-2.331-11.742-2.331c-2.301,0-4.506,0.316-6.59,0.938
		c-2.088,0.636-3.941,1.591-5.584,2.896c-1.613,1.293-2.896,2.936-3.793,4.911c-0.908,1.959-1.375,4.254-1.375,6.87
		c0,2.278,0.402,4.388,1.164,6.277c0.77,1.915,1.924,3.579,3.475,5.006c1.531,1.453,3.355,2.508,5.447,3.247
		c2.129,0.722,4.492,1.094,7.131,1.094c1.426,0,2.818-0.091,4.148-0.251c1.359-0.177,2.668-0.449,3.992-0.852
		c1.305-0.411,2.598-0.934,3.863-1.582v-7.739c-0.941,0.597-1.893,1.138-2.775,1.565C71.445,175.325,70.33,175.749,69.033,176.095"
		/>
	<polygon fill="#666666" points="102.465,164.106 88.662,164.106 88.662,152.975 79.488,152.975 79.488,183.362 88.662,183.362 
		88.662,171.517 102.465,171.517 102.465,183.362 111.678,183.362 111.678,152.975 102.465,152.975 	"/>
	<polygon fill="#666666" points="126.672,170.781 139.441,170.781 139.441,164.608 126.672,164.608 126.672,159.148 
		140.057,159.148 140.057,152.975 117.471,152.975 117.471,183.375 140.432,183.375 140.432,177.232 126.672,177.232 	"/>
	<path fill="#666666" d="M168.623,172.022c-0.631-0.774-1.43-1.461-2.438-2.049c0.826-0.424,1.574-0.874,2.23-1.371
		c0.666-0.471,1.297-1.253,1.877-2.312c0.588-1.046,0.891-2.365,0.891-3.878c0-1.318-0.363-2.711-1.072-4.193
		c-0.727-1.439-1.869-2.698-3.484-3.727c-1.609-0.994-3.684-1.518-6.209-1.518h-15.633v30.388h9.191v-11.846h1.029
		c1.062,0,1.91,0.121,2.584,0.381c0.676,0.272,1.367,0.855,2.059,1.751c0.723,0.912,1.514,2.364,2.387,4.332l2.404,5.382h9.855
		l-3.078-6.589C170.133,174.392,169.254,172.805,168.623,172.022 M160.592,165.369c-0.83,0.476-2.383,0.727-4.635,0.727h-1.98
		v-7.264h1.945c2.07,0,3.605,0.281,4.514,0.822c0.93,0.566,1.4,1.529,1.4,2.9C161.836,163.96,161.422,164.881,160.592,165.369"/>
	<polygon fill="#666666" points="188.311,162.533 181.324,152.975 171.789,152.975 183.924,169.61 183.924,183.362 193.137,183.362 
		193.137,169.455 205.068,152.975 195.314,152.975 	"/>
	<path fill="#666666" d="M124.76,111.074c-4.08,0-8.037-0.117-11.924-0.312l13.783-39.143l28.02,60.78h18.611l-9.145-14.846
		l1.137,1.707c23.389-4.993,39.064-14.146,39.064-24.638c0-13.1-24.572-24.176-58.1-27.53l0.074,0.108
		c-2.814-0.29-5.707-0.52-8.664-0.688l0.242,0.272h-0.018l4.021,5.36c0,0,8.447,0.735,15.42,1.643
		c18.984,3.135,32.303,8.937,34.211,15.702c0.129,0.458,0.168,0.917,0.168,1.384c0,5.884-8.408,11.188-21.828,14.837l0.096,0.147
		c-3.494,0.946-7.338,1.776-11.453,2.498l-25.551-41.662h-12.41l-22.434,42.73c-5.094-0.666-9.879-1.509-14.207-2.508l0.1-0.091
		c-15.787-3.645-26.008-9.342-26.193-15.758c0.164-7.734,15.1-14.4,36.838-17.656c7.695-0.994,17.838-1.828,17.838-1.828l4.297-5.34
		c-1.504-0.018-2.975,0.1-4.41,0.217c-2.662,0.143-5.33,0.346-7.902,0.574l0.035-0.056c-9.08,0.852-17.514,2.282-25.033,4.154
		c-0.133,0.039-0.285,0.087-0.432,0.091c-0.602,0.173-1.184,0.312-1.777,0.472c-0.514,0.146-1.006,0.298-1.543,0.432
		c-0.068,0.03-0.146,0.069-0.232,0.074C56.881,77.418,44.932,85.55,44.932,94.68c0,9.166,11.998,17.28,30.66,22.537l0.057-0.095
		c5.031,1.422,10.584,2.642,16.498,3.584l-6.166,11.785h19.191l3.48-9.857c5.184,0.381,10.574,0.605,16.107,0.605
		c5.906,0,11.699-0.246,17.264-0.688l-4.549-11.703C134.322,110.979,128.062,111.074,124.76,111.074"/>
</g>
</svg>
