<?xml version="1.0" encoding="utf-8"?>
<!-- Generator: Adobe Illustrator 16.0.0, SVG Export Plug-In . SVG Version: 6.00 Build 0)  -->
<!DOCTYPE svg PUBLIC "-//W3C//DTD SVG 1.1//EN" "http://www.w3.org/Graphics/SVG/1.1/DTD/svg11.dtd">
<svg version="1.1" id="Layer_1" xmlns="http://www.w3.org/2000/svg" xmlns:xlink="http://www.w3.org/1999/xlink" x="0px" y="0px"
	 width="250px" height="250px" viewBox="0 0 250 250" enable-background="new 0 0 250 250" xml:space="preserve">
<g>
	<path fill="#666666" d="M61.65,111.212h37.143c1.145,0,1.543,0.53,1.543,1.539v5.447c0,1.63,0.953,2.382,2.379,2.382h20.963h20.949
		c1.428,0,2.387-0.715,2.387-2.382v-5.425c0-1.099,0.463-1.562,1.547-1.562h23.303c1.59,0,2.752-0.433,3.568-1.935l11.545-22.573
		c0.252-0.474,0.434-0.771,0.434-1.325c0-1.551-1.326-2.089-2.236-2.089h-36.613c-0.951,0-1.547-0.259-1.547-1.539v-5.443
		c0-1.562-0.861-2.394-2.387-2.394h-41.912c-1.566,0-2.379,0.862-2.379,2.394v5.42c0,1.167-0.541,1.551-1.543,1.551l-23.992,0.011
		c-1.84,0-2.92,0.885-3.459,2.037l-11.691,22.84c-0.15,0.271-0.252,0.625-0.252,0.979C59.398,110.049,59.996,111.212,61.65,111.212
		 M70.859,102.122l5.578-10.908c0.211-0.414,0.566-0.655,1.404-0.655h28.178c0.971,0,1.586-0.388,1.586-1.588V82.73
		c0-1.129,0.484-1.573,1.547-1.573h29.035c1.043,0,1.547,0.478,1.547,1.588v6.267c0,1.058,0.508,1.547,1.6,1.547h33.342
		c1.059,0,1.416,0.696,1.416,1.242c0,0.218-0.049,0.429-0.154,0.58l-5.561,10.923c-0.361,0.617-0.959,0.625-1.396,0.625h-27.646
		c-1.156,0-1.584,0.52-1.584,1.589v6.274c0,1.028-0.449,1.518-1.562,1.518h-14.51h-14.525c-0.969,0-1.559-0.331-1.559-1.536v-6.271
		c0-1.148-0.523-1.574-1.574-1.574H72.113c-0.832,0-1.385-0.504-1.385-1.238C70.729,102.487,70.777,102.288,70.859,102.122"/>
	<path fill="#666666" d="M150.955,79.301h0.504l0.738,1.133h0.395l-0.756-1.167c0.451-0.008,0.805-0.211,0.805-0.727
		c0-0.538-0.475-0.689-0.91-0.689h-1.133v2.583h0.357V79.301z M150.955,78.172h0.689c0.27,0,0.621,0.041,0.621,0.369
		c0,0.245-0.117,0.463-0.621,0.463h-0.689V78.172z"/>
	<path fill="#666666" d="M151.451,81.435c1.273,0,2.301-1.001,2.301-2.277c0-1.283-1.027-2.285-2.301-2.285
		c-1.279,0-2.307,1.001-2.307,2.285C149.145,80.419,150.164,81.435,151.451,81.435 M151.451,77.219c1.076,0,1.908,0.87,1.908,1.92
		c0,1.08-0.832,1.942-1.908,1.942c-1.084,0-1.941-0.862-1.941-1.942C149.51,78.089,150.379,77.219,151.451,77.219"/>
	<polygon fill="#666666" points="40.285,161.326 50.15,161.326 50.15,176.066 57.02,176.066 57.02,143.127 50.15,143.127 
		50.15,156.32 40.285,156.32 40.285,143.127 33.404,143.127 33.404,176.066 40.285,176.066 	"/>
	<polygon fill="#666666" points="223.521,176.066 230.398,176.066 230.398,148.16 239.74,148.16 239.74,143.127 214.191,143.127 
		214.191,148.16 223.521,148.16 	"/>
	<polygon fill="#666666" points="177.887,143.127 171.006,143.127 171.006,176.066 190.674,176.066 190.674,171.041 
		177.887,171.041 	"/>
	<path fill="#666666" d="M94.42,176.086h6.354c1.859,0,3.053-0.965,3.52-2.846l8.121-30.098h-6.062l-7.133,27.459
		c-0.102,0.334-0.357,0.439-0.719,0.439c-0.354,0-0.607-0.143-0.727-0.459l-7.246-27.455h-8.002l8.303,30.049
		C91.223,175.174,92.566,176.086,94.42,176.086"/>
	<path fill="#666666" d="M15.393,176.086l15.385-0.02v-5.025H19.65c-1.9,0-2.51-0.475-2.51-2.525v-17.85
		c0-1.982,0.467-2.506,2.51-2.506h11.127v-5.018H15.412c-3.516,0-5.152,1.807-5.152,5.115v22.67
		C10.26,174.596,12.129,176.086,15.393,176.086"/>
	<path fill="#666666" d="M70.533,148.16h11.291v-5.018H66.283c-3.549,0-5.139,1.758-5.139,5.115v22.67
		c0,3.465,1.697,5.158,5.139,5.158h16.969v-5.045H70.533c-1.908,0-2.504-0.428-2.504-2.514v-7.201h13.652v-5.006H68.029v-5.654
		C68.029,148.762,68.439,148.16,70.533,148.16"/>
	<path fill="#666666" d="M137.615,156.998v-8.74c0-3.436-1.631-5.115-5.139-5.115h-19.162v32.943h6.873V148.16h8.018
		c2.139,0,2.525,0.602,2.525,2.506l0.008,4.006c0,1.941-0.535,2.525-2.514,2.525h-3.754c-1.463,0-2.287,0.9-2.287,2.314
		c0,0.717,0.361,1.229,0.646,1.736l8.688,14.818h8.514l-9.098-13.92h1.543C135.65,162.146,137.615,160.709,137.615,156.998"/>
	<path fill="#666666" d="M154.166,176.086h7.539c3.285,0,5.139-1.574,5.139-5.158l-0.008-22.67c0-3.357-1.582-5.115-5.131-5.115
		h-15.154c-3.629,0-5.148,1.83-5.148,5.115v22.67c0,3.727,2.006,5.158,5.148,5.158H154.166z M148.279,150.666
		c0-1.727,0.229-2.506,2.514-2.506h6.662c1.795,0,2.516,0.305,2.516,2.506l0.006,17.861c0,2.104-0.646,2.518-2.521,2.518h-3.289
		h-3.373c-1.973,0-2.514-0.549-2.514-2.518V150.666z"/>
	<path fill="#666666" d="M197.15,176.086l16.969-0.02v-5.025h-12.703c-1.924,0-2.525-0.428-2.525-2.525v-7.189h13.658v-5.006H198.9
		v-5.654c0-1.904,0.404-2.506,2.516-2.506h11.27v-5.033l-15.535,0.016c-3.549,0-5.131,1.758-5.131,5.115l-0.01,22.67
		C192.01,174.393,193.695,176.086,197.15,176.086"/>
</g>
</svg>
