<?xml version="1.0" encoding="utf-8"?>
<!-- Generator: Adobe Illustrator 16.0.0, SVG Export Plug-In . SVG Version: 6.00 Build 0)  -->
<!DOCTYPE svg PUBLIC "-//W3C//DTD SVG 1.1//EN" "http://www.w3.org/Graphics/SVG/1.1/DTD/svg11.dtd">
<svg version="1.1" id="Layer_1" xmlns="http://www.w3.org/2000/svg" xmlns:xlink="http://www.w3.org/1999/xlink" x="0px" y="0px"
	 width="250px" height="250px" viewBox="0 0 250 250" enable-background="new 0 0 250 250" xml:space="preserve">
<g>
	<g>
		<g>
			<polyline fill="#666666" points="154.232,112.847 172.277,112.847 172.277,110.795 159.747,110.795 159.758,101.865 
				154.232,101.865 154.232,112.847 			"/>
			<path fill="#666666" d="M50.143,101.865v10.982h5.522c0,0,0-4.349,0-4.478c0.123,0,9.466,0,9.59,0c0,0.129,0,4.478,0,4.478h5.513
				v-10.982h-5.513c0,0,0,4.341,0,4.47c-0.124,0-9.467,0-9.59,0c0-0.128,0-4.47,0-4.47H50.143"/>
			<path fill="#666666" d="M119.25,101.865l-5.134,4.638l-5.314-4.638h-6.413c0,0,7.778,6.471,7.831,6.511c0,0.064,0,4.471,0,4.471
				h5.519c0,0,0-4.502,0-4.57c0.045-0.03,7.246-6.412,7.246-6.412H119.25"/>
			<polyline fill="#666666" points="178.421,112.847 196.822,112.847 196.822,110.998 183.941,110.998 183.941,108.198 
				196.337,108.198 196.337,106.356 183.941,106.356 183.941,103.709 196.585,103.709 196.596,101.865 178.421,101.865 
				178.421,112.847 			"/>
			<path fill="#666666" d="M127.535,104.723c0,2.54,2.945,3.152,6.941,3.646c4.082,0.508,5.988,0.644,5.988,1.605
				c0,0.854-1.212,1.309-4.726,1.309c-4.007,0-7.366-0.988-7.817-1.11c-0.026,0.105-0.521,2.299-0.521,2.295
				c0.575,0.123,3.725,0.853,8.565,0.853c5.317,0,10.451-0.926,10.451-3.809c0-1.975-2.085-2.991-8.015-3.679
				c-2.451-0.286-5.038-0.469-5.038-1.417c0-0.707,0.711-1.029,4.211-1.029c3.502,0,6.381,0.749,6.852,0.854l0.447-2.126
				c-0.611-0.105-4.074-0.737-8.625-0.737C132.469,101.377,127.535,101.899,127.535,104.723"/>
			<path fill="#666666" d="M23.713,107.36c0,3.547,3.74,5.961,11.494,5.961c2.999,0,6.171-0.438,6.69-0.512l0.48-2.296
				c-0.67,0.069-3.24,0.459-6.011,0.459c-4.304,0-7.208-1.037-7.208-3.612c0-2.532,2.765-3.617,7.286-3.617
				c2.577,0,5.277,0.358,5.933,0.461l-0.48-2.305c-0.789-0.089-3.522-0.499-6.524-0.499C27.507,101.4,23.713,103.732,23.713,107.36"
				/>
			<path fill="#666666" d="M79.316,112.847h5.518v-9.03c0.758-0.047,1.6-0.137,2.895-0.137c1.333,0,2.299,0.024,3.103,0.141
				c1.681,0.261,2.229,0.802,2.216,1.521c-0.013,0.744-0.746,1.425-2.447,1.675c-1.107,0.15-1.862,0.172-2.846,0.172
				c-0.568,0-1.003-0.005-1.68-0.041l6.272,5.698h7.019l-6.357-4.57c1.262-0.079,1.708-0.141,2.957-0.542
				c1.688-0.545,2.512-1.417,2.516-2.392c0.019-1.279-0.808-2.388-3.9-3.083c-1.713-0.39-3.879-0.557-6.803-0.563
				c-3.963-0.005-8.058,0.154-8.461,0.169C79.316,101.886,79.316,112.847,79.316,112.847"/>
			<path fill="#666666" d="M204.104,112.847h5.521v-9.03c0.755-0.047,1.593-0.137,2.888-0.137c1.338,0,2.298,0.024,3.115,0.141
				c1.669,0.261,2.218,0.802,2.202,1.521c-0.018,0.744-0.742,1.425-2.451,1.675c-1.08,0.15-1.857,0.172-2.839,0.172
				c-0.579,0-1.003-0.005-1.676-0.041l6.272,5.698h7.015l-6.356-4.57c1.266-0.079,1.708-0.141,2.962-0.542
				c1.678-0.545,2.507-1.417,2.522-2.392c0.006-1.279-0.816-2.388-3.91-3.083c-1.715-0.39-3.873-0.557-6.801-0.563
				c-3.973-0.005-8.065,0.154-8.465,0.169C204.104,101.886,204.104,112.847,204.104,112.847"/>
		</g>
	</g>
	<path fill="#666666" d="M23.984,128.894l52.407,0.856c0,0,1.651,0.079,2.774,0.391s2.307,1.185,2.307,1.185h13.281
		c0,0-4.552,0.125-4.926,0.312s-0.125,0.312-0.125,0.312h-9.539l0.373,0.373l2.869,0.374l2.183,1.809h11.225
		c0,0-2.745,0.374-3.119,0.686c-0.374,0.312-0.374,0.312-0.374,0.312h-7.856c0,0,0.249,0.437,1.372,0.499
		c1.121,0.062,1.247,0.312,1.746,0.436c0.498,0.125,2.742,2.059,7.295,3.368c4.551,1.309,12.657,2.681,12.657,2.681
		s-11.723-0.25-16.835-2.433c-5.113-2.182-12.034-7.231-13.593-7.855c-1.56-0.624-3.181-0.437-3.181-0.437
		s-35.603-1.435-39.656-1.746C31.217,129.704,23.984,128.894,23.984,128.894z"/>
	<path fill="#666666" d="M238.43,125.004l-84.376-0.527c-0.144-0.006-3.536-0.143-4.717,0.152c-0.508,0.127-1.691,0.606-3.062,1.161
		c-1.825,0.738-3.815,1.575-4.705,1.746c-3.225,0.621-13.07,0.492-16.07,0.445v-0.013c0,0.001-0.291,0.003-0.497,0.007
		c-0.21-0.004-0.503-0.006-0.503-0.007v0.013c-2,0.047-12.843,0.176-16.067-0.445c-0.891-0.171-2.919-1.008-4.743-1.746
		c-1.371-0.555-2.534-1.034-3.041-1.161c-1.182-0.294-4.564-0.158-4.7-0.152l-84.41,0.53c-0.08,0.013-1.983,0.316-1.983,1.634
		c0,1.539,2.521,3.384,4.636,4.66c3.255,1.966,5.662,3.186,7.571,3.839c2.068,0.708,75.479,11.917,78.605,12.395
		c0.072,0.01,7.259,0.984,10.887,0.984c3.269,0,4.041-0.317,5.209-0.799c0.153-0.063,0.231-0.129,0.407-0.199
		c1.162-0.458,5.63-0.85,7.63-0.818v0.016c0-0.005,0.307-0.007,0.419-0.01c0.113,0.003,0.271,0.005,0.378,0.01l0.022-0.016
		c2.732-0.032,6.56,0.36,7.722,0.818c0.176,0.07,0.343,0.136,0.496,0.199c1.168,0.481,1.943,0.799,5.211,0.799
		c3.629,0,10.816-0.975,10.892-0.985c3.124-0.477,76.534-11.686,78.602-12.394c1.91-0.653,4.317-1.873,7.573-3.839
		c2.113-1.276,4.633-3.121,4.633-4.66C240.447,125.322,238.542,125.019,238.43,125.004z M235.588,130.928
		c-3.229,1.948-5.607,3.156-7.487,3.799c-2.03,0.695-77.761,12.259-78.522,12.375c-0.071,0.01-7.229,0.98-10.827,0.98
		c-3.183,0-3.883-0.288-5.043-0.766c-0.155-0.064-0.318-0.132-0.496-0.201c-1.274-0.502-5.38-0.915-8.21-0.844
		c-2.834-0.07-6.936,0.342-8.209,0.844c-0.178,0.069-0.341,0.137-0.496,0.201c-1.16,0.478-1.86,0.766-5.043,0.766
		c-3.599,0-10.756-0.971-10.824-0.979c-0.765-0.117-76.494-11.681-78.525-12.376c-1.88-0.643-4.26-1.851-7.487-3.799
		c-2.811-1.697-4.423-3.26-4.423-4.287c0-0.944,1.599-1.2,1.584-1.2l84.391-0.528c0.035-0.001,3.473-0.141,4.594,0.14
		c0.478,0.119,1.705,0.616,3.003,1.141c1.845,0.746,3.934,1.592,4.864,1.771c3.467,0.667,14.441,0.489,16.572,0.447
		c2.132,0.042,13.107,0.22,16.572-0.447c0.932-0.179,3.021-1.024,4.865-1.771c1.299-0.525,2.525-1.022,3.003-1.141
		c1.12-0.281,4.559-0.141,4.602-0.14l84.352,0.525c0.017,0.003,1.615,0.259,1.615,1.203
		C240.011,127.668,238.398,129.23,235.588,130.928z"/>
	<path fill="#666666" d="M226.021,128.894l-52.407,0.856c0,0-1.652,0.079-2.774,0.391c-1.123,0.312-2.308,1.185-2.308,1.185H155.25
		c0,0,4.553,0.125,4.927,0.312s0.124,0.312,0.124,0.312h9.54l-0.374,0.373l-2.868,0.374l-2.183,1.809h-11.109
		c0,0,2.63,0.374,3.004,0.686c0.374,0.312,0.374,0.312,0.374,0.312h7.856c0,0-0.249,0.437-1.372,0.499
		c-1.122,0.062-1.247,0.312-1.745,0.436c-0.499,0.125-2.744,2.059-7.296,3.368c-4.552,1.309-12.657,2.681-12.657,2.681
		s11.723-0.25,16.835-2.433c5.113-2.182,12.034-7.231,13.593-7.855s3.18-0.437,3.18-0.437s35.604-1.435,39.656-1.746
		S226.021,128.894,226.021,128.894z"/>
	<path fill="#666666" d="M153.271,131.132h-27.924h-1.901h-27.05c0,0-0.389,1.2,2.981,4.146c2.278,1.991,3.892,3.092,10.075,3.056
		c4.969-0.029,12.209-0.011,14.865-0.004l0.001,0.004c0,0,0.187-0.001,0.515-0.002c0.328,0.001,0.514,0.002,0.514,0.002v-0.004
		c2.656-0.007,9.898-0.025,14.866,0.004c6.184,0.036,7.798-1.064,10.075-3.056C153.659,132.332,153.271,131.132,153.271,131.132z"/>
	<path fill="#666666" d="M94.754,131.325c0,0-3.205-0.009-4.205,0.089c-0.923,0.091-1.209,0.556-1.209,0.556s2.328,0.69,3.364,0.672
		c0.709,0.036,3.183,0.2,3.183,0.2L94.754,131.325z"/>
	<path fill="#666666" d="M96.832,134.505c-0.991,0.036-1.341,0.21-1.673,0.237c-1.31,0.109-2.019,0.764-2.019,0.764
		s1.072,0.392,2.236,0.609c1.164,0.219,3.056,0.363,3.056,0.363L96.832,134.505z"/>
	<path fill="#666666" d="M155.287,131.325c0,0,3.032,0.001,4.032,0.099c0.924,0.09,1.383,0.546,1.383,0.546s-2.328,0.69-3.364,0.672
		c-0.71,0.036-3.183,0.2-3.183,0.2L155.287,131.325z"/>
	<path fill="#666666" d="M154.979,134.578c-0.332-0.027-0.682-0.037-1.673-0.073l-1.601,1.811c0,0,1.892-0.146,3.056-0.364
		c1.164-0.218,2.418-0.609,2.418-0.609S156.289,134.688,154.979,134.578z"/>
	<path fill="#666666" d="M237.556,128.986c-7.747,4.992-8.43,4.747-9.93,5.311c-4.311,1.619-71.362,11.275-71.362,11.275
		s-15.167,2.728-17.676,1.746c-2.51-0.982-3.94-1.908-5.129-2.183c-2.459-0.567-5.371-0.69-7.394-0.693
		c-1.673-0.049-6.13-0.089-9.52,0.693c-1.188,0.274-2.619,1.2-5.128,2.183c-2.51,0.981-17.678-1.746-17.678-1.746
		s-67.051-9.656-71.361-11.275c-1.5-0.563-2.183-0.318-9.93-5.311c-1.526-0.983-2.619-1.527-2.619-1.527s1.583,2.714,7.693,5.783
		c4.552,2.286,4.31,2.128,10.147,3.055c4.04,0.643,76.327,11.676,76.327,11.676s8.238,1.037,10.42,0.491
		c2.183-0.546,1.582-0.955,5.729-1.555c1.816-0.264,4.084-0.297,4.855-0.301c0.771,0.004,3.04,0.037,4.855,0.301
		c4.146,0.6,3.547,1.009,5.729,1.555s10.421-0.491,10.421-0.491s72.287-11.033,76.326-11.676c5.838-0.927,5.553-0.856,10.147-3.055
		c6.329-3.028,7.692-5.783,7.692-5.783S239.082,128.003,237.556,128.986z"/>
	<path fill="#666666" d="M238.082,125.022c-0.764-0.109-86.02-0.618-86.02-0.618s-2.618,0.164-3.818,0.545
		c-1.2,0.382-4.979,2.242-6.22,2.619c-1.537,0.465-13.604,0.533-17.104,0.544c-3.499-0.011-15.566-0.079-17.104-0.544
		c-1.241-0.377-5.02-2.237-6.22-2.619c-1.2-0.382-3.818-0.545-3.818-0.545s-85.256,0.509-86.021,0.618
		c-0.764,0.109-1.545,0.637-1.545,0.637s5.312,0.884,7.765,1.073c25.497,1.964,80.728,1,82.747,1.273
		c2.018,0.272,3.437,1.745,6.109,1.745c2.033,0,12.13,0,16.859,0c1.491,0,2.455,0,2.455,0c4.729,0,14.826,0,16.857,0
		c2.674,0,4.093-1.473,6.111-1.745c2.019-0.273,57.25,0.69,82.746-1.273c2.453-0.188,7.766-1.073,7.766-1.073
		S238.847,125.131,238.082,125.022z"/>
	<path fill="#FFFFFF" d="M105.556,135.075c0.595,0,1.146-0.083,1.289-0.099l-0.103,0.492c-0.111,0.017-0.793,0.11-1.436,0.11
		c-1.663,0-2.465-0.518-2.465-1.278c0-0.778,0.814-1.278,2.5-1.278c0.645,0,1.23,0.088,1.4,0.107l0.103,0.494
		c-0.141-0.022-0.72-0.099-1.272-0.099c-0.97,0-1.562,0.232-1.562,0.775C104.01,134.854,104.633,135.075,105.556,135.075z"/>
	<path fill="#FFFFFF" d="M112.934,135.478h-1.183c0,0,0-0.933,0-0.96c-0.026,0-2.03,0-2.057,0c0,0.027,0,0.96,0,0.96h-1.185v-2.355
		h1.185c0,0,0,0.931,0,0.959c0.026,0,2.03,0,2.057,0c0-0.028,0-0.959,0-0.959h1.183V135.478z"/>
	<path fill="#FFFFFF" d="M117.561,135.478l-1.345-1.223c0.146,0.009,0.238,0.009,0.36,0.009c0.211,0,0.373-0.004,0.609-0.036
		c0.365-0.054,0.523-0.2,0.525-0.359c0.003-0.154-0.115-0.271-0.475-0.326c-0.173-0.025-0.38-0.03-0.666-0.03
		c-0.277,0-0.458,0.019-0.621,0.029v1.937h-1.183c0,0,0-2.351,0-2.355c0.086-0.003,0.964-0.037,1.814-0.036
		c0.627,0.001,1.091,0.037,1.459,0.121c0.663,0.148,0.841,0.387,0.837,0.661c-0.001,0.209-0.178,0.396-0.54,0.513
		c-0.269,0.086-0.363,0.1-0.634,0.116l1.363,0.98H117.561z"/>
	<path fill="#FFFFFF" d="M122.577,134.497c0,0.016,0,0.98,0,0.98h-1.184c0,0,0-0.945,0-0.959c-0.011-0.009-1.679-1.396-1.679-1.396
		h1.375l1.14,0.994l1.101-0.994h0.801C124.131,133.122,122.588,134.491,122.577,134.497z"/>
	<path fill="#FFFFFF" d="M126.915,135.579c-1.038,0-1.713-0.156-1.837-0.183c0,0.001,0.106-0.47,0.112-0.493
		c0.097,0.026,0.817,0.239,1.677,0.239c0.753,0,1.014-0.098,1.014-0.281c0-0.206-0.409-0.235-1.285-0.344
		c-0.857-0.106-1.488-0.238-1.488-0.782c0-0.605,1.059-0.718,1.868-0.718c0.977,0,1.72,0.136,1.851,0.158l-0.096,0.456
		c-0.101-0.022-0.719-0.184-1.47-0.184s-0.903,0.069-0.903,0.221c0,0.204,0.555,0.243,1.081,0.305
		c1.271,0.147,1.719,0.364,1.719,0.788C129.157,135.381,128.056,135.579,126.915,135.579z"/>
	<polygon fill="#FFFFFF" points="134.703,135.478 130.832,135.478 130.832,133.122 132.018,133.122 132.016,135.037 
		134.703,135.037 	"/>
	<polygon fill="#FFFFFF" points="139.967,135.478 136.02,135.478 136.02,133.122 139.918,133.122 139.916,133.518 137.205,133.518 
		137.205,134.085 139.862,134.085 139.862,134.48 137.205,134.48 137.205,135.081 139.967,135.081 	"/>
	<path fill="#FFFFFF" d="M144.322,135.478l-1.345-1.223c0.145,0.009,0.236,0.009,0.359,0.009c0.21,0,0.378-0.004,0.608-0.036
		c0.367-0.054,0.522-0.2,0.526-0.359c0.004-0.154-0.114-0.271-0.472-0.326c-0.176-0.025-0.381-0.03-0.668-0.03
		c-0.278,0-0.458,0.019-0.619,0.029v1.937h-1.184c0,0,0-2.351,0-2.355c0.084-0.003,0.962-0.037,1.814-0.036
		c0.628,0.001,1.091,0.037,1.459,0.121c0.663,0.148,0.838,0.387,0.838,0.661c-0.003,0.209-0.182,0.396-0.542,0.513
		c-0.269,0.086-0.362,0.1-0.634,0.116l1.363,0.98H144.322z"/>
</g>
</svg>
