<?xml version="1.0" encoding="utf-8"?>
<!-- Generator: Adobe Illustrator 16.0.0, SVG Export Plug-In . SVG Version: 6.00 Build 0)  -->
<!DOCTYPE svg PUBLIC "-//W3C//DTD SVG 1.1//EN" "http://www.w3.org/Graphics/SVG/1.1/DTD/svg11.dtd">
<svg version="1.1" id="Layer_1" xmlns="http://www.w3.org/2000/svg" xmlns:xlink="http://www.w3.org/1999/xlink" x="0px" y="0px"
	 width="250px" height="250px" viewBox="0 0 250 250" enable-background="new 0 0 250 250" xml:space="preserve">
<g>
	<path fill="#666666" d="M177.723,156.634c0.282,0.276,0.695,0.588,1.43,0.51c1.082-0.136,1.104-1.773,1.104-1.773
		s0.251-3.727,0.251-7.495c0-4.716-3.682-8.869-3.682-8.869S138.431,96.73,124.995,96.73c-13.434,0-51.804,42.275-51.804,42.275
		s-3.703,4.153-3.703,8.869c0,3.761,0.246,7.495,0.246,7.495s0.044,1.638,1.113,1.773c0.734,0.078,1.147-0.233,1.438-0.51
		c4.284-3.727,38.527-33.117,52.709-33.117C139.192,123.517,173.43,152.907,177.723,156.634"/>
	<path fill="#666666" d="M70.848,118.229c0.734,0.097,1.147-0.225,1.438-0.479c4.293-3.718,38.527-33.13,52.709-33.13
		c14.197,0,48.435,29.412,52.719,33.13c0.3,0.255,0.704,0.576,1.438,0.479c1.082-0.097,1.104-1.747,1.104-1.747
		s0.251-3.734,0.251-7.5c0-4.743-3.7-8.877-3.7-8.877s-38.377-42.28-51.812-42.28c-13.434,0-51.804,42.28-51.804,42.28
		s-3.703,4.134-3.703,8.877c0,3.766,0.246,7.5,0.246,7.5S69.778,118.133,70.848,118.229"/>
	<path fill="#666666" d="M153.462,174.194c-4.668-0.119-9.392-0.022-9.44,0c-5.705,0-10.354,3.933-10.354,8.798
		c0,4.932,4.649,8.938,10.354,8.938c0.049,0,4.772,0.094,9.44,0c5.729,0,10.378-4.007,10.378-8.938
		C163.83,178.176,159.282,174.295,153.462,174.194 M150.269,189.485c0,0-1.711,0.058-3.005,0c-3.264,0-6.818-2.459-6.818-6.466
		c0-3.964,3.475-6.335,6.818-6.335c0.018-0.014,1.654-0.089,3.005,0c3.349,0,6.827,2.371,6.827,6.335
		C157.096,187.026,153.555,189.485,150.269,189.485"/>
	<path fill="#666666" d="M209.906,174.428H195.18c-0.238,0-0.793,0.058-0.793,0.646v15.973c0,0.436,0.312,0.656,0.616,0.656h6.141
		v-13.365c0-0.589,0.462-0.88,0.89-0.88h6.782c1.874,0,4.638,1.686,4.638,5.362v8.204c0,0,0.013,0.679,0.703,0.679h5.815v-8.46
		C219.972,178.307,215.542,174.428,209.906,174.428"/>
	<path fill="#666666" d="M99.859,174.428H74.565c-0.41,0-0.669,0.321-0.669,0.668v2.745h6.062c2.271,0,3.792,1.954,3.792,3.766v9.44
		c0,0.308,0.272,0.665,0.669,0.665h6.132V178.73c0-0.48,0.387-0.89,0.898-0.89h9.07v-2.745
		C100.52,174.718,100.238,174.428,99.859,174.428"/>
	<path fill="#666666" d="M69.611,174.428h-5.468c-0.356,0-0.656,0.299-0.656,0.646v15.973c0,0.388,0.344,0.665,0.656,0.665h6.128
		v-16.638C70.271,174.727,69.963,174.428,69.611,174.428"/>
	<path fill="#666666" d="M125.844,185.394l0.014-0.009c3.036-0.707,4.989-2.863,4.989-5.379c0-2.688-2.604-5.578-6.858-5.578h-16.32
		c-1.971,0-3.511,1.53-3.511,3.523v13.096c0,0.374,0.26,0.665,0.629,0.665h6.128v-6.137h5.794c5.134,0,7.245,3.717,7.399,6.137
		h6.748C130.675,187.225,125.844,185.394,125.844,185.394 M121.547,182.521h-10.633v-3.453c0-0.941,0.664-1.61,1.632-1.61h9.027
		c1.368,0,2.525,1.145,2.525,2.512C124.099,181.382,122.954,182.521,121.547,182.521"/>
	<path fill="#666666" d="M43.657,176.596c0.378-0.013,1.725-0.074,2.97,0c2.449,0,4.78,1.289,5.986,3.305
		c0.035,0.087,0.211,0.316,0.555,0.316h6.598c-1.416-3.604-5.561-6.177-9.941-6.177c-2.389,0-6.651-0.145-9.458,0
		c-3.237,0.168-5.278,0.901-7.29,2.666c-1.961,1.703-3.048,3.946-3.048,6.339c0,4.94,4.403,8.812,10.228,9.027
		c3.99,0.127,4.431,0.149,9.674-0.014c4.865-0.153,8.332-2.336,9.828-6.189h-6.599c-0.238,0-0.431,0.114-0.555,0.334
		c-1.201,2.06-3.449,3.296-5.913,3.34c-0.861,0.014-2.005,0.014-3.057,0.014c-3.436-0.05-6.827-2.442-6.827-6.521
		C36.808,179.056,40.292,176.596,43.657,176.596"/>
	<path fill="#666666" d="M173.852,187.722v-3.282h13.84v-3.048h-13.856v-2.982c0-0.014,0-0.88,1.028-0.88h15.881v-2.434
		c0-0.717-0.762-0.668-0.783-0.668h-22.233c-0.069,0-0.668,0.009-0.668,0.668v13.092c0,1.742,1.329,3.516,3.551,3.516h19.475
		c0.501,0,0.659-0.493,0.659-0.651v-2.442h-15.986C174.212,188.609,173.852,188.254,173.852,187.722"/>
	<path fill="#666666" d="M177.379,168.167c-0.672-0.382-1.442-0.606-2.361-0.606c-0.911,0-1.703,0.216-2.35,0.606
		c-0.654,0.383-0.973,0.867-0.973,1.431c0,0.558,0.318,1.042,0.973,1.438c0.646,0.387,1.438,0.603,2.35,0.603
		c0.91,0,1.712-0.202,2.301-0.555c0.59-0.347,1.228-0.963,1.892-0.963c0.673,0,1.276,0.541,1.853,0.915
		c0.594,0.369,1.438,0.603,2.344,0.603c0.955,0,1.746-0.216,2.385-0.603c0.647-0.396,0.95-0.881,0.95-1.438
		c0-0.563-0.303-1.048-0.977-1.431c-0.634-0.391-1.425-0.606-2.349-0.606c-0.916,0-1.734,0.225-2.354,0.606
		c-0.626,0.383-1.113,0.915-1.853,0.915C178.479,169.082,178.044,168.55,177.379,168.167"/>
</g>
</svg>
