<?xml version="1.0" encoding="utf-8"?>
<!-- Generator: Adobe Illustrator 16.0.0, SVG Export Plug-In . SVG Version: 6.00 Build 0)  -->
<!DOCTYPE svg PUBLIC "-//W3C//DTD SVG 1.1//EN" "http://www.w3.org/Graphics/SVG/1.1/DTD/svg11.dtd">
<svg version="1.1" id="Layer_1" xmlns="http://www.w3.org/2000/svg" xmlns:xlink="http://www.w3.org/1999/xlink" x="0px" y="0px"
	 width="250px" height="250px" viewBox="0 0 250 250" enable-background="new 0 0 250 250" xml:space="preserve">
<path fill-rule="evenodd" clip-rule="evenodd" fill="#666666" d="M201.638,106.096c0,0-15.664-10.068-38.707-15.439
	c0,0-2.458-0.668-4.248-0.225c-2.016,0.225-4.252,1.123-6.938,3.805c-5.929,5.93-15.032,16.799-21.517,38.811
	c-0.064,0.194-0.125,0.371-0.186,0.564c-0.012,0.049-0.024,0.104-0.036,0.152c-0.808,2.791-1.557,5.82-2.267,8.976
	c0.033-0.298,0.066-0.601,0.1-0.892c0.128-0.85,0.252-1.706,0.386-2.531c0.085-0.485,0.148-0.971,0.252-1.45
	c0.03-0.31,0.091-0.583,0.13-0.88c6.075-34.496,18.665-47.896,18.665-47.896s-0.315-0.262-0.898-0.687
	c-0.248-0.182-0.549-0.395-0.892-0.631c-0.273-0.188-0.57-0.389-0.898-0.601c-0.209-0.134-0.434-0.279-0.667-0.425
	c-0.286-0.176-0.583-0.353-0.898-0.54c-0.285-0.164-0.583-0.334-0.893-0.504c-0.291-0.158-0.589-0.321-0.895-0.479
	c-0.289-0.152-0.589-0.304-0.896-0.449c-0.291-0.146-0.589-0.285-0.896-0.419c-0.222-0.103-0.445-0.2-0.67-0.297
	c-0.292-0.128-0.595-0.249-0.896-0.37c-0.294-0.115-0.592-0.23-0.896-0.34c-0.294-0.109-0.595-0.213-0.895-0.31
	c-0.295-0.098-0.592-0.188-0.896-0.279c-0.294-0.085-0.595-0.17-0.896-0.249c-0.221-0.055-0.445-0.109-0.67-0.164
	c-0.295-0.066-0.595-0.133-0.896-0.194c-0.301-0.061-0.598-0.115-0.896-0.163c-0.303-0.055-0.601-0.109-0.892-0.152
	c-0.304-0.049-0.604-0.097-0.898-0.14c-0.304-0.042-0.604-0.085-0.892-0.121c-0.231-0.024-0.455-0.049-0.674-0.073
	c-0.31-0.036-0.61-0.072-0.893-0.097c-0.321-0.03-0.619-0.055-0.898-0.073c-0.333-0.023-0.634-0.042-0.892-0.055
	c-0.267-0.012-0.498-0.018-0.674-0.018l0,0h-0.003h-0.003h-0.006h-0.007h-0.006h-0.012h-0.006h-0.013h-0.012h-0.013h-0.012h-0.019
	H125h-0.019h-0.012h-0.019h-0.019h-0.018h-0.019h-0.018h-0.019h-0.019h-0.018H124.8h-0.019h-0.021h-0.021h-0.021h-0.021h-0.021
	c-0.157,0-0.385,0.006-0.67,0.024c-0.197,0.012-0.425,0.024-0.674,0.042c-0.268,0.019-0.57,0.043-0.893,0.073
	c-0.279,0.03-0.582,0.061-0.897,0.091c-0.286,0.036-0.583,0.066-0.893,0.109c-0.291,0.036-0.589,0.072-0.896,0.115
	c-0.291,0.042-0.592,0.091-0.895,0.134c-0.219,0.036-0.443,0.072-0.671,0.108c-0.294,0.049-0.592,0.104-0.896,0.158
	c-0.072,0.012-0.151,0.024-0.225,0.036c-0.224,0.049-0.448,0.098-0.67,0.146c-0.301,0.073-0.598,0.146-0.896,0.225
	c-0.301,0.079-0.601,0.164-0.896,0.256c-0.3,0.091-0.598,0.188-0.895,0.291c-0.225,0.072-0.449,0.151-0.671,0.236
	c-0.301,0.109-0.601,0.225-0.896,0.34c-0.303,0.121-0.601,0.249-0.895,0.376c-0.304,0.134-0.604,0.268-0.896,0.401
	c-0.304,0.146-0.601,0.285-0.892,0.431c-0.31,0.157-0.607,0.31-0.898,0.461c-0.228,0.128-0.449,0.249-0.668,0.37
	c-0.31,0.17-0.609,0.34-0.897,0.51c-0.31,0.183-0.61,0.37-0.893,0.547c-0.318,0.193-0.619,0.388-0.898,0.576
	c-0.327,0.212-0.625,0.419-0.892,0.606c-0.358,0.249-0.655,0.468-0.896,0.649c-0.434,0.322-0.671,0.517-0.671,0.517
	s13.773,14.929,19.245,53.133c-0.374-1.682-0.759-3.313-1.166-4.886c-0.066-0.273-0.139-0.534-0.209-0.807
	c-0.477-1.815-0.968-3.562-1.48-5.238c-0.033-0.103-0.061-0.206-0.095-0.309c-6.336-20.616-15.081-31.007-20.992-36.748
	c-2.464-2.682-4.7-3.58-6.937-3.805c-1.79-0.443-4.029,0.225-4.029,0.225c-23.044,5.371-38.926,15.439-38.926,15.439
	c-2.24,1.341-4.922,2.906-3.581,8.502c0,0,4.476,19.688,6.712,24.609c2.907,8.278,12.976,23.269,46.761,27.517
	c0,0,11.191,1.535,26.396,1.996v0.019c0.225,0,0.225,0,0.446,0c0.225,0,0.225,0,0.449,0v-0.019
	c15.209-0.461,26.399-1.996,26.399-1.996c33.782-4.248,44.072-19.238,46.982-27.517c2.236-4.922,6.709-24.609,6.709-24.609
	C206.781,109.002,203.871,107.437,201.638,106.096z M99.171,157.771c-15.439-2.906-29.531-12.301-33.112-19.238
	c-2.683-4.697-5.592-18.57-5.592-18.57c-0.896-3.356-0.222-5.59,1.344-6.712c0,0,7.155-5.141,17.673-2.009
	c9.395,2.682,34.229,12.975,37.584,48.545c0,0-2.682-0.225-6.712-0.443C103.644,158.67,99.171,157.771,99.171,157.771z
	 M183.962,138.533c-3.802,6.938-17.9,16.332-33.111,19.238c0,0-4.477,0.898-11.188,1.572c-4.023,0.219-6.709,0.443-6.709,0.443
	c3.132-35.57,28.187-45.863,37.585-48.545c10.514-3.132,17.45,2.009,17.45,2.009c1.791,1.122,2.237,3.355,1.566,6.712
	C189.555,119.963,186.423,133.836,183.962,138.533z M146.823,89.091h-0.006c0.049,0,0.109,0,0.155,0H146.823z"/>
</svg>
