<?xml version="1.0" encoding="utf-8"?>
<!-- Generator: Adobe Illustrator 16.0.0, SVG Export Plug-In . SVG Version: 6.00 Build 0)  -->
<!DOCTYPE svg PUBLIC "-//W3C//DTD SVG 1.1//EN" "http://www.w3.org/Graphics/SVG/1.1/DTD/svg11.dtd">
<svg version="1.1" id="Layer_1" xmlns="http://www.w3.org/2000/svg" xmlns:xlink="http://www.w3.org/1999/xlink" x="0px" y="0px"
	 width="250px" height="250px" viewBox="0 0 250 250" enable-background="new 0 0 250 250" xml:space="preserve">
<g>
	<path fill="#666666" d="M85.874,183.011c-0.426-1.203-1.852-5.309-2.718-7.71c-0.9-2.406-2.326-6.829-2.567-7.592
		s-0.271-1.094-1.099-1.198c-0.819-0.076-2.945-0.223-4.016-0.128c-0.176,0.015-0.517,0.033-0.683,0.563
		c-0.156,0.53-1.785,5.504-2.468,7.554c-0.705,2.042-2.732,7.956-2.988,8.757c-0.27,0.801-2.064,6.176-2.382,7.09
		c-0.279,0.928-0.327,1.188,0.256,1.188c0.61,0,1.028,0.043,1.614,0.043c0.583,0,0.854,0.028,1.047-0.44
		c0.242-0.555,2.113-6.181,2.113-6.181h4.295c1.856,0,4.409-0.023,4.409-0.023s0.331,0.577,1.085,2.983
		c0.771,2.406,0.998,3.709,2.121,3.709h3.945c0.545,0,0.72-0.214,0.72-0.64c0-0.437-0.44-1.431-0.44-1.431
		S86.286,184.232,85.874,183.011 M76.379,182.3c-2.122,0-3.538-0.07-3.538-0.07s0.312-1.085,1.657-5.186
		c1.346-4.116,1.781-5.352,1.781-5.352s0.549,1.401,1.956,5.692c1.364,4.271,1.539,4.892,1.539,4.892S78.529,182.3,76.379,182.3"/>
	<path fill="#666666" d="M147.92,183.011c-0.407-1.203-1.833-5.309-2.723-7.71c-0.872-2.406-2.312-6.829-2.539-7.592
		c-0.256-0.763-0.27-1.094-1.123-1.198c-0.833-0.076-2.931-0.223-4.016-0.128c-0.175,0.015-0.492,0.033-0.672,0.563
		c-0.171,0.53-1.781,5.504-2.482,7.554c-0.677,2.042-2.746,7.956-2.974,8.757c-0.271,0.801-2.075,6.176-2.368,7.09
		c-0.303,0.928-0.341,1.188,0.256,1.188c0.588,0,1.014,0.043,1.601,0.043s0.866,0.028,1.047-0.44
		c0.241-0.555,2.112-6.181,2.112-6.181h4.281c1.871,0,4.424-0.023,4.424-0.023s0.331,0.577,1.084,2.983
		c0.771,2.406,0.99,3.709,2.121,3.709h3.945c0.545,0,0.711-0.214,0.711-0.64c0-0.437-0.432-1.431-0.432-1.431
		S148.332,184.232,147.92,183.011 M138.434,182.3c-2.136,0-3.537-0.07-3.537-0.07s0.312-1.085,1.657-5.186
		c1.345-4.116,1.78-5.352,1.78-5.352s0.559,1.401,1.941,5.692c1.379,4.271,1.555,4.892,1.555,4.892S140.57,182.3,138.434,182.3"/>
	<path fill="#666666" d="M98.363,167.126c0-0.71-1.208-0.682-1.895-0.682c-0.682,0-1.639-0.014-2.566-0.014
		c-0.953,0-1.218,0.431-1.218,1.473s0.062,5.721,0.062,7.738s0.076,13.374,0.076,14.662c0,1.284,0.582,1.379,1.501,1.388
		c0.914,0.015,2.264-0.052,3.183-0.052c0.9,0,1.027-0.507,1.027-1.662c0-1.16-0.076-9.581-0.076-11.409
		S98.363,167.827,98.363,167.126"/>
	<path fill="#666666" d="M123.938,166.426c-0.91,0-1.818,0.019-2.453,0.019c-0.649,0-1.819-0.023-1.819,0.682
		c0,0.583-0.065,6.867-0.065,10.012c0,0-1.768,0.033-4.396,0.033c-2.647,0-3.917-0.033-3.917-0.033
		c-0.037-3.145-0.1-9.429-0.1-10.012c0-0.705-1.174-0.682-1.818-0.682c-0.63,0-1.562-0.019-2.463-0.019
		c-0.909,0-1.15,0.436-1.15,1.473c0,1.047,0.062,5.726,0.062,7.743c0,2.013,0.052,13.374,0.052,14.653
		c0,1.288,0.598,1.383,1.449,1.401c0.877,0.005,2.188-0.057,3.041-0.057c0.852,0,0.976-0.507,0.976-1.667
		c0-0.966-0.038-7.057-0.048-10.068c0,0,2.709-0.015,3.879-0.015c1.16,0,4.395,0.015,4.395,0.015c0,3.012-0.033,9.103-0.033,10.068
		c0,1.16,0.1,1.667,0.962,1.667c0.857,0,2.165,0.062,3.04,0.057c0.867-0.019,1.44-0.104,1.44-1.401
		c0-1.279,0.038-12.636,0.038-14.653s0.085-6.696,0.085-7.743C125.093,166.861,124.832,166.426,123.938,166.426"/>
	<path fill="#666666" d="M167.508,166.785c-0.729-0.047-5.546-0.142-6.592-0.151c-1.014-0.023-4.992-0.023-5.76-0.01
		c-0.758,0.01-5.593,0.076-5.972,0.076c-0.351,0-0.526,0.426-0.526,1.307c0,0.905,0.076,1.449,0.564,1.449
		c0.479,0,4.233,0.01,5.247,0.033c0.517,0.005,0.725,0,0.866,0c0.138,0,0.342-0.019,0.342,0.128c0,0.161,0.09,3.689,0.09,5.039
		c0,1.345-0.062,4.954-0.062,6.39c0,1.443,0.099,6.18,0.099,6.786c0,0.587,0.01,2.036,0.066,2.827c0.039,0.781,0,0.952,0.355,1.023
		c0.379,0.085,1.8,0.227,2.799,0.274c1.027,0.048,2.326,0.241,2.326-1.188c0-1.436-0.01-6.28-0.01-6.734
		c0-0.465-0.033-5.385-0.033-5.812v-5.83v-2.576c0-0.241,0.07-0.304,0.346-0.304c0.279,0,3.05,0.058,4.12,0.058h1.733
		c0.261,0,0.559,0.075,0.597-0.341c0.062-0.417,0.114-1.265,0.138-1.687C168.256,167.126,168.219,166.823,167.508,166.785"/>
	<path fill="#666666" d="M173.646,171.768c0-1.449,1.056-2.681,3.538-2.681c3.789,0,4.803,1.719,5.508,1.719
		c0.209,0,0.365-0.189,0.365-0.459v-1.856c0-0.369-0.105-0.602-0.777-0.923c-0.696-0.327-2.676-0.962-5.361-0.962
		c-3.334,0-7.482,1.004-7.482,6.563c0,7.559,10.5,8.667,10.5,14.033c0,0.985-0.418,2.524-3.098,2.524
		c-4.703,0-5.811-1.597-6.839-1.597c-0.317,0-0.379,0.593-0.379,1.108v1.014c0,0.327,0.009,0.734,0.644,0.933
		c0.625,0.199,3.775,1.062,6.157,1.062c3.533,0,8.099-1.388,8.099-6.706C184.52,177.991,173.646,176.072,173.646,171.768"/>
	<path fill="#666666" d="M205.77,167.112c-0.545,0-1.411-0.028-1.767-0.028c-0.351,0-0.436,0.228-0.436,0.715
		c0,0.502,0.048,2.993,0.048,4.618c0.027,3.059,0.117,10.509,0.117,12.479c0,5.059-3.779,5.054-4.783,5.054
		c-5.237,0-4.807-4.751-4.807-7.312c0-1.397-0.01-4.542-0.01-5.489c0-0.971,0.033-6.123,0.033-8.099
		c0-1.998-0.516-2.074-1.027-2.074c-0.521-0.019-1.07-0.028-1.729-0.028c-0.663,0-1.16,0.062-1.918,0.062
		c-0.748,0-0.814,0.364-0.814,0.862c0,0.479,0.08,12.072,0.08,16.249c0,4.167,2.662,8.273,10.438,8.273
		c7.753,0,7.601-5.745,7.601-7.308v-7.53c0-7.075-0.09-9.666-0.09-10.05C206.707,167.117,206.352,167.112,205.77,167.112"/>
	<path fill="#666666" d="M52.76,166.265H44.32c-0.7,0-1.117,0.033-1.117,0.819c0,0.791,0.023,8.174,0.023,12.432
		c0,4.248,0.104,10.4,0.104,10.987c0,0.597,0.015,0.871,1.474,0.967c1.473,0.065,7.122,0.019,8.809,0.019
		c6.886,0,10.395-4.935,10.395-12.029C64.008,167.742,57.444,166.265,52.76,166.265 M51.951,188.902
		c-1.426,0-3.127-0.095-3.127-0.095v-19.181c0-0.625,0.531-0.568,0.863-0.568h1.984c3.063,0,6.715,0.076,6.715,9.694
		C58.387,188.391,55.105,188.902,51.951,188.902"/>
	<path fill="#666666" d="M43.203,154.435h163.594V57.607H43.203V154.435z M63.037,81.112l37.324,37.205
		c0,0,91.631-8.064,91.631-17.703c0-5.806-40.914-10.911-60.946-12.545c-17.916-1.469-37.703-1.379-37.703-1.379l27.72,27.645
		l-19.758,2.013l-35.35-35.235c0,0,23.092-1.421,65.091,2.349c42.017,3.779,65.309,10.192,65.309,16.936
		c0,17.921-113.753,35.454-113.753,35.454l10.168-15.838L53.798,81.548L63.037,81.112z"/>
</g>
</svg>
