<?xml version="1.0" encoding="utf-8"?>
<!-- Generator: Adobe Illustrator 16.0.0, SVG Export Plug-In . SVG Version: 6.00 Build 0)  -->
<!DOCTYPE svg PUBLIC "-//W3C//DTD SVG 1.1//EN" "http://www.w3.org/Graphics/SVG/1.1/DTD/svg11.dtd">
<svg version="1.1" id="Layer_1" xmlns="http://www.w3.org/2000/svg" xmlns:xlink="http://www.w3.org/1999/xlink" x="0px" y="0px"
	 width="250px" height="250px" viewBox="0 0 250 250" enable-background="new 0 0 250 250" xml:space="preserve">
<g>
	<path fill="#666666" d="M106.696,108.436l-20.998,0.022c-4.543,0-8.333,2.967-9.155,7.154l-3.398,17.164
		c-0.935,4.715,2.929,8.416,7.468,8.416l18.884,0.037c5.032,0,9.21-3.271,10.109-7.921l3.473-17.667
		C113.873,111.593,110.579,108.436,106.696,108.436 M101.397,118.375l-2.211,11.086c-0.656,2.891-1.575,4.051-5.416,4.051h-5.229
		c-1.761-0.014-4.353-0.16-3.802-2.978l1.99-10.116c0.8-3.982,2.25-4.73,5.428-4.76h7.071
		C100.33,115.659,101.727,116.655,101.397,118.375"/>
	<path fill="#666666" d="M144.988,93.909l-7.797,39.589l-10.695-0.022c-1.874,0-2.762-1.212-2.425-2.941l1.99-10.123
		c0.792-3.986,2.32-4.708,5.489-4.708l6.851-0.015l1.42-7.219h-14.718c-4.551,0-8.349,2.956-9.179,7.143l-3.379,17.164
		c-0.966,4.868,2.568,8.416,7.448,8.416l26.239,0.037l9.334-47.327L144.988,93.909z"/>
	<path fill="#666666" d="M163.745,108.49c-4.555,0-8.313,2.946-9.136,7.139l-3.379,17.167c-0.997,5.044,2.518,8.395,7.39,8.417
		h12.717l1.521-7.716h-6.323c-1.75-0.022-4.469-0.146-3.906-2.935l2.001-10.145c0.769-3.982,2.375-4.716,5.556-4.716h8.476
		l-5.834,29.467c-0.353,1.723-1.893,3.445-4.415,3.445h-19.179l-1.474,7.482l22.856-0.021l-0.008-0.022h0.407
		c4.868,0.022,10.229-0.365,11.874-8.745l7.697-38.84L163.745,108.49z"/>
	<path fill="#666666" d="M221.487,108.436l-20.141,0.022c-4.376,0-8.007,2.967-8.794,7.154l-3.271,17.164
		c-0.861,4.715,2.82,8.416,7.157,8.416l25.886,0.037l1.529-7.73l-19.812-0.022c-1.664,0-4.155-0.124-3.623-2.941l1.908-10.116
		c0.749-3.982,2.161-4.771,5.214-4.771h6.754c1.082,0,2.424,1.007,2.11,2.705l-0.83,3.511h-10.827l-1.172,5.949h21.759l2.289-12.172
		C228.373,111.593,225.216,108.436,221.487,108.436"/>
	<path fill="#666666" d="M64.937,98.125H30.764l-1.552,7.814h28.466c3.146-0.025,4.667,1.723,4.321,3.625l-3.763,18.986
		c-0.954,3.546-3.778,4.327-5.318,4.327H35.822l4.535-23.051H28.439l-6.176,31.365l28.8,0.022
		c13.729-0.022,16.979-2.308,19.09-10.388l4.411-22.427C75.732,100.808,71.445,98.125,64.937,98.125"/>
</g>
</svg>
