<?xml version="1.0" encoding="utf-8"?>
<!-- Generator: Adobe Illustrator 16.0.0, SVG Export Plug-In . SVG Version: 6.00 Build 0)  -->
<!DOCTYPE svg PUBLIC "-//W3C//DTD SVG 1.1//EN" "http://www.w3.org/Graphics/SVG/1.1/DTD/svg11.dtd">
<svg version="1.1" id="Layer_1" xmlns="http://www.w3.org/2000/svg" xmlns:xlink="http://www.w3.org/1999/xlink" x="0px" y="0px"
	 width="250px" height="250px" viewBox="0 0 250 250" enable-background="new 0 0 250 250" xml:space="preserve">
<g>
	<polygon fill="#666666" points="67.479,57.347 67.479,60.371 125,50.231 182.521,60.371 182.521,57.347 125,47.198 	"/>
	<path fill="#666666" d="M67.479,63.339v10.233v30.616c0,16.37,3.85,32.659,11.436,48.39c17.801,36.98,45.387,49.926,45.675,50.047
		l0.411,0.177l0.419-0.177c0.271-0.121,27.848-13.066,45.649-50.047c7.585-15.731,11.426-32.02,11.426-48.39V73.572l0.027-10.233
		L125,53.256L67.479,63.339z M180.546,104.188c0,16.062-3.793,32.071-11.258,47.561c-16.302,33.858-40.858,47.148-44.288,48.863
		c-3.412-1.715-28.015-15.005-44.297-48.863c-7.465-15.49-11.258-31.499-11.258-47.561V74.747
		c3.168-1.621,22.674-10.908,55.656-10.908c32.983,0,52.304,9.278,55.444,10.908V104.188z"/>
	<path fill="#666666" d="M145.158,164.069c-1.863-0.446-3.923-0.773-5.992-0.336c-2.088,0.393-3.206,1.586-3.467,3.234
		c-0.205,1.269,1.276,2.051,2.525,1.734c1.38-0.335,1.752-1.967,1.752-1.967s-0.876,0.68-1.761,0.856
		c-0.915,0.16-1.389-0.466-1.138-1.108c0.504-1.183,1.248-1.501,2.022-1.621c0.773-0.094,1.724-0.149,3.457,0
		c1.716,0.157,2.592,0.457,2.135,1.268c-0.56,0.996-1.154,1.09-2.013,3.271c-0.373,0.913-0.279,1.38-0.895,1.38
		c-0.308,0-1.146-0.142-1.771,0.41c-0.745,0.652-0.633,1.528-0.633,1.528s0.447-0.904,1.975-0.904c0.336,0,0.122,0.858-0.204,1.528
		c-0.327,0.671-2.022,5.145-5.5,5.145c-3.727,0-4.276-3.645-4.081-4.118c0.363-0.905,0.979-0.104,1.725-0.271
		c0.717-0.205,1.416-1.351,0.465-2.014c-2.227-1.518-4.343,2.229-2.031,5.509c2.189,3.169,5.658,1.967,7.484,1.034
		c1.789-0.959,2.786-2.898,3.42-4.129c0.625-1.239,1.146-2.609,1.146-2.609s1.23,0,1.91-0.288c1.035-0.429,1.453-1.37,1.453-1.37
		s-0.773,0.476-2.944,0.39c-0.223,0,0.345-1.285,0.933-2.422c0.643-1.212,1.397-2.273,1.93-2.498c0.67-0.261,2.729,0,5.031-0.633
		c2.293-0.614,3.961-1.967,3.961-1.967s-2.283,0.857-5.954,1.053C148.374,164.266,146.995,164.536,145.158,164.069"/>
	<path fill="#666666" d="M110.937,168.915c-2.702-1.062-4.269-1.648-4.306-2.935c-0.01-2.162,2.74-1.631,3.346-1.426
		c3.551,1.155,4.828,3.802,4.828,3.802s-0.588-3.485-0.7-4.129c-0.148-0.66-0.53-0.566-0.726-0.548
		c-0.43,0.026-0.43,0.743-0.43,0.743s-8.771-3.671-8.771,2.08c0,2.702,2.871,3.149,4.147,3.811c2.61,1.38,5.862,2.209,6.16,4.251
		c0.252,1.862-1.406,3.923-4.957,3.923c-3.57,0-5.098-3.393-4.978-4.055c0.141-0.651,0.802-0.251,1.343-0.251
		c0.521,0,1.436-0.567,1.016-1.659c-0.335-0.837-3.094-0.903-3.094,1.873c0,3.971,3.941,5.164,5.656,5.164
		c1.697,0,5.247-0.588,6.03-4.195C116.36,171.619,114.524,170.313,110.937,168.915"/>
	<path fill="#666666" d="M125.643,150.844l1.444,0.682c0.839,0.327,1.37,0.177,1.548,0.103c0.215-0.103,0.95-0.904,1.128-1.603
		c0.074-0.29,0.036-0.521-0.131-0.698c-0.54-0.663-1.537-3.73-1.901-5.37c-0.149-0.615,0.01-2.31,0.158-3.671
		c0.104-1.165,0.178-1.874,0.122-2.069c-0.112-0.288-0.531-0.559-1.016-0.885l-0.812-0.532c-0.392-0.345-0.419-0.812-0.429-1.304
		l-0.112-0.793c-0.168-0.719-3.857-4.483-4.436-4.511c-0.811-0.075-1.035,0.856-1.09,1.397c-0.038,0.308,0.344,1.744,0.661,3.01
		l0.382,1.512c0.373,2.414,2.926,6.645,4.008,8.442l0.521,0.866c0.225,0.504,0.121,0.915-0.271,1.138
		c-0.382,0.225-3.69-0.131-5.266-0.484c-0.68-0.158-1.547-0.484-2.348-0.83c-0.951-0.372-1.817-0.735-2.34-0.764
		c-0.605-0.02-0.876,0.085-1.108,0.187l-0.373,0.112l-0.355-0.12c-0.428-0.179-1.238-0.552-3.466-0.738
		c-3.263-0.309-3.532,0.336-3.681,0.7c-0.141,0.446,1.844,2.553,2.208,2.851c0.456,0.383,1.919,0.933,2.824,0.783
		c1.024-0.158,2.674-0.382,2.917-0.327l0.307,0.196l0.327,0.225c0.279,0.121,2.124,0.206,2.655,0.241
		c0.644,0.048,2.312,0.363,3.523,0.645l1.352,0.271C123.165,149.605,124.525,150.277,125.643,150.844 M126.967,146.959
		c0.261,0,0.484,0.214,0.484,0.484s-0.224,0.476-0.484,0.476c-0.279,0-0.541-0.205-0.541-0.476S126.688,146.959,126.967,146.959
		 M109.492,146.073c-0.43,0-0.773-0.205-0.773-0.521c0-0.289,0.344-0.532,0.773-0.532c0.419,0,0.745,0.243,0.745,0.532
		C110.237,145.868,109.911,146.073,109.492,146.073 M115.717,146.175c-0.315,0-0.559-0.147-0.559-0.354
		c0-0.205,0.243-0.372,0.559-0.372c0.271,0,0.514,0.167,0.514,0.372C116.23,146.027,115.988,146.175,115.717,146.175
		 M120.461,147.657c-0.951-0.252-2.758-0.801-2.655-1.155l0.027-0.075l0.019-0.019c0.308-0.177,1.679,0.066,2.824,0.355
		c0.96,0.232,2.759,0.792,2.665,1.163l-0.038,0.057l-0.036,0.028C122.969,148.179,121.626,147.957,120.461,147.657"/>
	<path fill="#666666" d="M124.552,69.006l-0.362,0.811c0-0.005-0.363,0.568-0.363,0.568v0.019c0,0.107,0.064,0.653,0.064,0.653
		c0,0.042,0.365,0.41,0.383,0.429c-0.038,0-0.158,0.554-0.158,0.568c0-0.037-1.5,0.023-1.5,0.023l-1.213-0.573l-0.941-0.321
		c-0.019-0.004-2.199,0.069-2.199,0.069c-0.037,0.028-0.429,0.597-0.429,0.597l-0.027,0.074l0.941,0.149c0,0,0.148,0.075,0.232,0.13
		c-0.084,0.057-0.251,0.196-0.251,0.196c0-0.009-1.324-0.075-1.324-0.075c-0.018,0.019-0.96,0.392-0.96,0.392l-0.112,0.046
		l0.476,0.308c0.038,0,2.013,0.07,2.013,0.07s1.482,0.382,1.492,0.382c0,0.014,0.261,0.424,0.261,0.424s0.205,0.284,0.279,0.396
		c-0.084,0.051-0.615,0.34-0.615,0.34l-1.826,0.765l-3.719,2.092l-2.452,0.368c-0.037,0.01-0.959,0.531-0.959,0.531
		c-0.037,0.014-0.792,1.058-0.792,1.058c-0.009,0.023-0.438,1.329-0.438,1.329c-0.019,2.213,0.066,2.274,0.103,2.274
		c0.038,0.046,0.708,0.424,1.202,0.153c0.531-0.303,1.752-0.601,2.414-0.746c0.261-0.06,0.41,0.056,0.447,0.168
		c0.027,0.135-0.064,0.289-0.289,0.363l-0.14,0.033c-1.08,0.303-2.189,0.652-2.153,1.063l0.197,0.33
		c0.465,0.345,1.77,0.173,2.412,0.024l0.689-0.191c0.626-0.182,1.297-0.382,1.874-0.312c0.345,0.037,0.624,0.181,0.998,0.335
		c0.456,0.237,1.015,0.503,1.826,0.559c1.36,0.093,2.292,0.363,2.367,0.438c0.177,0.368,0.038,0.913-0.027,1.361l-0.085,0.396
		c-0.371,3.434-4.23,7.32-6.058,9.194c-0.513,0.489-0.849,0.83-0.914,0.964l-0.195,0.494c-0.177,0.452-0.326,0.853-0.932,1.076
		c-0.325,0.131-1.108,0.746-2.042,1.417c-1.322,0.997-2.953,2.213-3.42,2.157c-0.745-0.079-4.286-2.512-4.435-2.665
		c-3.439-3.327-4.903-2.633-5.742-2.242L98,97.534c-1.023,0.461-2.078,3.378-2.189,4.003l-0.438,1.789l-0.308,1.319
		c-0.103,0.452-0.512,1.538-0.922,2.6l-0.821,2.302c-0.14,0.531-0.465,1.291-0.763,1.901l-0.355,0.891
		c-0.261,1.062-0.261,6.817,0.177,7.311l0.029,0.028l0.084,0.033c0.465-0.061,1.407-1.035,1.882-1.505l0.084-0.112
		c0.4-0.392,0.812-1.445,0.812-1.892c0-0.424-0.206-1.319-0.262-1.557c-0.634-1.906-0.401-3.714-0.278-4.604l0.055-0.382
		c0.029-0.41,0.429-0.848,0.82-1.286l0.504-0.559c0.271-0.363,0.549-0.494,0.829-0.606l0.419-0.251l0.112-0.07
		c0.278-0.294,0.782-0.788,0.997-1.449l0.41-1.827l0.093-0.494c0.01-0.098,0.056-0.149,0.14-0.158
		c0.168-0.047,0.438,0.084,0.541,0.233l3.057,3.537c0.765,0.676,1.584,1.459,1.584,1.636v0.009c0-0.009-0.027,0-0.027,0
		c-0.429,0.051-2.572-0.411-2.936-0.513c-2.928-0.848-4.241-0.708-5.275,0.583c-1.164,1.467-0.792,5.974-0.568,6.477
		c0.232,0.447,1.285,5.932,1.342,6.668c0.047,0.722,0.316,2.008,0.624,2.292l0.075,0.083c0.354,0.364,1.305,1.324,1.463,2.256
		c0.187,1.011,2.358,3.758,3.188,3.999c0.13,0.029,0.232,0.011,0.354-0.074c0.644-0.449,0.933-2.641,0.97-3.542
		c0.038-1.167-0.363-1.726-0.811-2.322l-0.177-0.233c-0.316-0.438-0.885-0.592-1.269-0.708c-0.158-0.038-0.371-0.084-0.371-0.14
		c0-0.028-0.057-1.71-0.578-2.041c-0.411-0.261-0.839-1.883-0.905-2.493c-0.046-0.629-0.289-2.106-0.596-2.759
		c-0.326-0.661-0.615-1.869-0.484-2.8c0.074-0.391,0.354-0.521,0.587-0.559c0.382-0.065,0.867,0.116,0.941,0.237
		c0.14,0.345,3.242,2.177,4.286,2.586c0.625,0.243,1.501,0.969,2.274,1.631c0.532,0.466,1.026,0.872,1.306,0.997
		c0.381,0.205,1.519,0.228,2.432,0.233c0.475,0.01,0.979,0.019,1.035,0.065c-0.346,0.139-0.346,0.788-0.336,0.997
		c0.391,2.666,10.057,9.954,10.802,10.369c0.866,0.462,3.979,3.707,4.231,4.144c0.308,0.447,0.559,0.915,0.512,1.287
		c-0.065,0.54,0.141,1.155,0.588,1.641c0.419,0.476,0.932,0.773,1.436,0.773c0.447,0,0.727-0.392,0.94-0.672l0.047-0.064
		c0.569-0.766,1.427-1.893,1.537-3.626c0.104-1.789,0.952-2.516,1.222-2.544c0.103-0.038,0.214,0,0.223,0.075
		c0.047,0.074,0,0.224-0.158,0.335c-0.354,0.242-0.577,1.026-0.819,1.882c0,0.01-0.084,0.849-0.084,0.849
		c-0.019,0.653-0.056,1.389-0.69,2.099c-0.959,1.023-2.077,3.427-2.339,6.456c-0.186,1.818,0.644,4.447,2.441,7.811l0.095,0.214
		l0.502,0.83c0.513,0.773,1.305,2.079,1.277,2.386c-0.074,0.438-0.093,0.784-0.849,1.705c-0.829,1.026-3.812,4.521-4.11,4.586
		c-0.596,0-0.679,0.057-1.164,0.428l-0.504,0.375c-0.55,0.409-0.66,0.698-0.745,0.959c-0.075,0.187-0.148,0.363-0.383,0.55
		l-0.195,0.14c-0.046,0.019-0.158,0.169-1.343,1.381c-1.379,1.37-2.003,2.916-1.787,4.436c0.072,0.474,0.483,0.651,1.685,0.698
		c1.231,0.057,4.027-1.901,4.167-2.525l0.028-0.252c0.111-0.569,0.307-1.538,0.615-1.678c0.382-0.187,1.043-0.931,1.537-1.472
		l0.075-0.112c0.232-0.307,0.307-0.606,0.373-0.858c0.047-0.241,0.092-0.455,0.261-0.66c0.102-0.15,0.279-0.233,0.465-0.316
		c0.364-0.188,0.849-0.412,1.175-1.261c0.327-0.828,2.339-2.273,3.803-3.307c0.727-0.532,1.332-0.961,1.473-1.147
		c0.215-0.241,0.316-0.727,0.316-1.248c0-0.588-0.158-1.249-0.551-1.622c-0.558-0.502-1.071-2.04-1.238-2.525l0,0
		c0-0.187-0.027-0.568-0.048-1.249v-0.083c0-1.8,2.666-3.57,3.841-4.324l0.503-0.354c4.194-3.701,5.015-6.486,5.154-7.252
		l0.083-0.939c0.038-0.626,0.084-1.25,0.439-1.325c0.148-0.019,0.391,0.103,0.568,0.271c0.083,0.111,0.204,0.307,0.129,0.559
		c-0.186,0.503-0.288,5.704-0.298,5.928c0.048,0.019,0.476,0.55,0.476,0.55l0.094,0.092l0.009-0.12c0-0.075,0.233-1.482,0.233-1.994
		c0-0.551,0.932-2.955,1.117-2.991c0,0.019,0.029,0.026,0.029,0.026c0.111,0.327,0.232,1.148,0.232,2.015
		c0,0.849-0.121,1.742-0.512,2.254c-0.652,0.775-1.129,1.996-1.473,2.806l-0.298,0.699c-0.048,0.056-0.048,0.177-0.048,0.289
		c0,0.671,0.346,2.061,0.578,2.32c0.065,0.074,0.111,0.074,0.131,0.074c0.084-0.037,0.14-0.131,0.14-0.68
		c0-2.106,1.743-3.625,1.789-3.645c1.557-1.221,1.893-3.522,1.893-5.274c0-1.313-0.178-2.311-0.196-2.349
		c-0.02-0.019-0.727-1.072-0.764-1.1c0.037,0.027,0.252-0.14,0.308-0.206c0.065,0.104,0.764,1.044,0.764,1.044
		c0.14,0.16,0.466,0.645,0.466,0.84c0,1.081,0.149,1.827,0.252,2.376l0.037,0.112c0.111,0.586,0.914,2.433,0.941,2.496l0.084,0.196
		l0.036-0.215c0-0.008,0.094-0.968,0-1.787c-0.083-0.458,0.01-1.026,0.085-1.641l0.141-1.399c0-1.146-0.15-1.872-0.578-2.525
		l-0.196-0.307c-0.046-0.122-0.149-0.242-0.149-0.29l0.149-0.063c3.299-1.11,4.838-3.521,5.462-4.883
		c0.643-1.412,0.68-3.601,0.68-4.016c0-0.545-0.037-3.397-0.503-4.851c-0.298-0.867-0.177-1.78-0.103-2.787l0.103-1.701
		c0-1.174,0.605-2.041,1.202-2.884l0.727-1.104c0.438-0.909,0.224-1.71,0.02-1.934c-0.066-0.099-0.132-0.099-0.159-0.094
		c-0.036,0.015-0.083,0.052-0.083,0.149c-0.065,0.476-0.663,1.631-1.101,1.799c-0.923,0.364-1.389,1.445-1.733,2.228
		c-0.195,0.391-0.373,0.783-0.503,0.783c-0.019,0-0.094-0.046-0.178-0.182c-0.567-0.979-0.271-2.465,0.019-3.677l0.037-0.289
		c0.205-1.016,1.398-2.433,2.116-3.295l0.29-0.363c0.502-0.605,0.623-2.643,0.54-2.8c-0.038-0.01-0.046,0.009-0.075,0.027
		c-0.009,0.009-0.009,0.019-0.037,0.038v-0.019v0.028c-0.038,0.023-0.065,0.023-0.065,0.126c-0.14,0.638-1.313,1.943-3.29,3.658
		c-0.4,0.354-0.877,0.998-1.249,1.501c-0.241,0.354-0.531,0.731-0.624,0.736c-0.494-2.628,0.41-4.119,0.848-4.851l0.168-0.368
		c0.857-2.297,3.029-4.026,3.048-4.045c0.028-0.074,0.028-0.135-0.019-0.195c-0.074-0.057-0.242-0.033-0.485,0.093l-0.111,0.075
		c-0.765,0.354-3.058,1.473-4.436,4.152c-1.017,1.929-1.397,4.077-1.397,5.708c0,0.829,0.111,1.505,0.279,1.966
		c0.465,1.31,1.332,4.558,1.584,5.843c0.176,0.783,0.205,3.504,0.205,5.21v1.454l-0.438,1.37c0,0.014-0.215,1.091-1.976,2.898
		c-1.78,1.81-3.756,2.396-3.765,2.415c-0.812,0.066-1.521,0.038-1.557-0.083c0-2.066-3.562-6.899-5.368-8.497
		c-1.865-1.636-3.337-2.782-5.872-4.325c-2.572-1.561-5.405-8.113-5.442-8.178l-0.242-0.872c0,0-0.141-1.765-0.187-2.246
		c0.111,0.057,0.224,0.145,0.224,0.145l0.875,0.503c0.01,0,0.989,0.392,0.989,0.392c0.009,0.009,1.323,0.251,1.323,0.251
		c0,0.01,0.745,0.387,0.745,0.387l0.681,0.438l1.034,0.76c0.019,0,1.108,0.568,1.108,0.568c0.02,0.009,1.277,0.07,1.277,0.07
		l0.028-0.103c0,0-1.463-0.694-1.481-0.694c0-0.027-0.521-0.941-0.521-0.941l-0.625-0.885c-0.037-0.028-0.774-0.466-0.774-0.466
		c-0.018,0-0.941-0.149-0.941-0.149s-0.214-0.149-0.279-0.238c0.065-0.051,0.224-0.145,0.224-0.145c0,0.005,1.018,0.126,1.025,0.126
		c0,0.014,0.922,0.629,0.922,0.629l0.989,0.764c0,0.005,0.931,0.364,0.931,0.364l0.122,0.047l-0.41-1.058
		c-0.019-0.004-0.774-0.723-0.774-0.723l-1.1-0.95c-0.037-0.009-0.903-0.457-0.903-0.457l-0.932-0.317l-0.979-0.624v-0.126
		c0.14,0.042,1.389,0.545,1.389,0.545l1.184,0.317c-0.011,0,0.969,0.391,0.969,0.391c0-0.009,1.454,0.69,1.454,0.69
		c0.019,0,1.184,0.261,1.184,0.261c0.01,0,1.454-0.261,1.454-0.261c0.037-0.009,1.397-0.955,1.397-0.955
		c0-0.033,0.252-0.592,0.252-0.592l0.064-0.144l-0.428,0.191c-0.028,0-1.249,0.625-1.249,0.625l-0.856,0.205
		c0-0.01-0.971-0.205-0.971-0.205c0-0.009-0.802-0.745-0.802-0.745l-1.128-1.077c0-0.014-0.986-0.521-0.986-0.521
		c-0.038-0.005-1.203-0.187-1.203-0.187s-0.736-0.377-0.736-0.387v-0.027c0-0.094-0.009-0.28-0.037-0.373
		c0.141,0.018,1.5,0.14,1.5,0.14c0.02,0,1.631-0.14,1.631-0.14l0.933,0.196l0.923,0.382c0,0.005,0.912,0.116,0.912,0.116
		l0.197,0.038l-1.055-1.021c-0.018,0-1.071-0.764-1.071-0.764c-0.019,0-0.894-0.317-0.894-0.317c0-0.009-1.465-0.149-1.511-0.149
		c0.019,0,0.019-0.019,0.019-0.046c0-0.094-0.019-0.215-0.019-0.28c0.112-0.009,0.69-0.122,0.69-0.122l1.109,0.257
		c0,0.01,1.053,0.629,1.053,0.629l1.127,0.382c0.02,0,1.641-0.251,1.641-0.251l0.084-0.014l-0.494-0.647
		c-0.037-0.019-0.82-0.271-0.82-0.271c0-0.014-0.68-0.503-0.68-0.503l-0.998-0.699c-0.01,0-0.773-0.261-0.773-0.261l-1.165-0.191
		c0-0.019-0.578-0.545-0.604-0.555c0.026,0,0.064-0.195,0.064-0.289c0.094,0.037,0.634,0.187,0.634,0.187l0.801,0.382
		c0.019,0,1.147,0.358,1.147,0.358l-0.271-0.503c-0.019-0.014-0.428-0.461-0.428-0.461s-0.29-0.345-0.392-0.503
		c0.075-0.009,0.149-0.047,0.149-0.047c0,0.028,1.211,0.644,1.211,0.644s0.941,0.316,0.95,0.316c0,0.009,0.719,0.689,0.719,0.689
		c0.009,0.009,1.389,0.792,1.389,0.792l0.139,0.07l-0.251-0.666c0-0.028-0.755-0.97-0.755-0.97l-0.624-1.066
		c-0.01-0.015-1.11-1.161-1.11-1.161c-0.027-0.014-1.443-0.773-1.443-0.773l-0.568-0.629l-0.979-1.011
		c0-0.009-0.111-0.374-0.177-0.541c0.187,0.046,0.988,0.307,0.988,0.307l1.137,0.327l0.782,0.503c0,0.009,0.663,0.815,0.663,0.815
		c0.036,0.015,1.08,0.457,1.08,0.457l2.693,0.358l0.159,0.01l-0.718-0.783c-0.038-0.004-1.491-0.647-1.491-0.647l-0.839-0.629
		l-0.495-0.867l-0.494-0.895c0-0.009-0.81-0.783-0.81-0.783c-0.019,0-1.016-0.578-1.016-0.578l-0.988-0.811
		c0,0-0.242-0.504-0.362-0.839c0.242,0.247,0.67,0.662,0.67,0.662l1.305,1.146c0.028,0.019,1.016,0.466,1.016,0.466l0.857,0.69
		l0.988,0.997c0.037,0.019,1.603,0.251,1.603,0.251l0.178,0.019l-1.575-1.351c0-0.033-0.345-1.127-0.345-1.127
		c-0.027-0.028-0.829-0.788-0.829-0.788l-0.43-0.499c0-0.009-0.428-1.314-0.428-1.314c-0.02-0.028-0.887-0.913-0.887-0.913
		c0-0.01-1.425-1.329-1.425-1.333v-0.014c0,0-0.066-0.219-0.084-0.35c0.103,0.061,0.252,0.13,0.252,0.13l1.323,0.765
		c0,0.009,1.556,0.447,1.556,0.447l1.622,0.392l1.863,0.303l-0.447-0.899c-0.019-0.028-0.941-0.41-0.941-0.41l-0.885-0.504
		l-1.053-0.447l-0.914-0.387c0-0.014-0.624-0.778-0.951-1.216c0.309,0.219,0.812,0.559,0.812,0.559
		c0.027,0.009,0.819,0.066,0.819,0.066h2.573l1.044,0.573l0.839,0.965l0.168,0.112l-0.131-1.077
		c-0.037-0.023-0.569-0.722-0.569-0.722c-0.018-0.019-1.518-0.849-1.518-0.849l-1.176-0.438c-0.027-0.009-1.799-0.316-1.826-0.316
		v-0.023c0-0.014-0.316-0.415-0.316-0.415c-0.018-0.009-1.323-1.221-1.323-1.221l-0.634-0.308c0-0.009-0.215-0.205-0.336-0.354
		h0.672c0,0.014,1.034,0.634,1.034,0.634c0.019,0.019,1.37,0.456,1.37,0.456l1.751,0.262c0,0.019,0.653,0.736,0.653,0.736
		c0.019,0.004,0.96,0.587,0.96,0.587c0.01,0,1.081,0.196,1.081,0.196l0.131,0.009l-2.201-2.708
		c-0.027-0.019-1.062-0.583-1.062-0.583c-0.019,0-1.268-0.382-1.268-0.382c0-0.014-1.108-1.258-1.108-1.258
		c0-0.019-1.352-0.839-1.352-0.839c-0.037-0.009-0.82-0.204-1.017-0.251c0.048-0.102,0.252-0.438,0.252-0.438l1.109-0.494
		c0.019,0.009,1.603-0.308,1.603-0.308c0.065-0.028,0.188-0.419,0.188-0.419c-0.02-0.06-0.7-0.503-0.7-0.503
		c-0.027-0.014-0.839-0.265-0.839-0.265c-0.046,0.014-0.475,0.265-0.475,0.265c0-0.014-1.352,0.047-1.352,0.047l-1.604-0.382
		c0-0.005-1.668-1.379-1.668-1.379c0-0.019-0.736-0.401-0.736-0.401c-0.018,0-2.776-0.312-2.776-0.312
		c0-0.038-0.644-0.993-0.644-0.993c0-0.005-0.877-0.955-0.877-0.955c0-0.014-1.109-1.021-1.109-1.021L124.552,69.006z
		 M112.203,81.411c0,0-0.213,0.177-0.224,0.186c-0.315,0.299-0.465,0.429-0.755,0.243c-0.158-0.084-0.223-0.377-0.223-0.532
		c-0.027-0.382,0.037-0.885,0.279-1.09l0.14-0.159c0.121-0.158,0.252-0.326,0.569-0.326c0.25,0,0.596,0.042,0.763,0.242
		c0.112,0.112,0.159,0.251,0.141,0.448C112.857,80.87,112.501,81.154,112.203,81.411 M114.18,80.446l-0.038,0.14
		c-0.073,0.172-0.111,0.2-0.325,0.186c-0.121,0-0.215-0.019-0.242-0.083c-0.074-0.051-0.047-0.126,0-0.182V80.45v-0.102
		c-0.047-0.159-0.093-0.354,0.018-0.447c0.01-0.01,0.037-0.056,0.178-0.028c0.131,0.028,0.317,0.083,0.41,0.242
		C114.236,80.218,114.217,80.315,114.18,80.446 M115.41,82.594c-0.205,0-0.393-0.187-0.393-0.41c0-0.233,0.188-0.42,0.393-0.42
		c0.252,0,0.429,0.187,0.429,0.42C115.839,82.408,115.662,82.594,115.41,82.594 M118.961,77.245l-1.529,0.993l-1.053,0.415
		l-0.12,0.027c-0.579,0.187-0.979,0.159-1.082-0.056c-0.14-0.354,0.652-0.704,1.565-1.1l0.29-0.099l0.597-0.302
		c0.438-0.205,0.857-0.401,1.267-0.485c0.167-0.019,0.373-0.038,0.42,0.084C119.37,76.918,118.988,77.212,118.961,77.245
		 M93.388,117.581c-0.252,0-0.468-0.206-0.468-0.443c0-0.256,0.216-0.452,0.468-0.452c0.29,0,0.513,0.196,0.513,0.452
		C93.9,117.375,93.678,117.581,93.388,117.581 M97.348,103.177c-0.289,0.862-0.67,1.542-0.922,1.664l-0.141,0.009
		c-0.289-0.103-0.12-1.071,0.179-1.98c0.287-0.862,0.66-1.547,0.894-1.672l0.178-0.009
		C97.814,101.285,97.664,102.278,97.348,103.177 M99.259,99.659c-0.466,0-0.858-0.219-0.858-0.494c0-0.275,0.393-0.508,0.858-0.508
		c0.485,0,0.839,0.233,0.839,0.508C100.098,99.44,99.744,99.659,99.259,99.659 M103.352,104.952l-0.123,0.061
		c-0.213,0.005-0.643-0.247-1.053-0.638c-0.401-0.364-0.746-0.792-0.746-1.035c0-0.051,0.029-0.093,0.065-0.116l0.121-0.061
		c0.215-0.014,0.644,0.238,1.072,0.643C103.173,104.226,103.537,104.766,103.352,104.952 M101.691,127.272
		c0.297,0,0.568,0.248,0.568,0.56c0,0.288-0.271,0.545-0.568,0.545c-0.326,0-0.586-0.257-0.586-0.545
		C101.105,127.521,101.365,127.272,101.691,127.272 M96.426,109.071c0.149-0.233,0.363-0.382,0.521-0.4l0.215,0.056
		c0.186,0.135,0.158,0.513-0.104,0.839c-0.168,0.228-0.381,0.363-0.54,0.4l-0.205-0.056
		C96.128,109.775,96.174,109.417,96.426,109.071 M97.664,119.113l-0.102-0.014l-0.027-0.014c-0.215-0.145-0.559-1.002-0.784-2.083
		c-0.176-0.765-0.428-2.213-0.093-2.298l0.093,0.015l0.019,0.004c0.244,0.145,0.569,0.998,0.803,2.079
		C97.748,117.567,97.981,119.039,97.664,119.113 M104.953,114.258c-0.447,0.331-1.799-0.502-2.115-0.755l-1.846-1.398l0.037-0.116
		c0.01,0.019,1.688,0.359,2.646,0.959c0.867,0.536,1.324,0.867,1.37,1.119C105.046,114.109,105.019,114.193,104.953,114.258
		 M107.823,107.068c-0.475,1.156-1.034,2.074-1.389,2.232l-0.204,0.005c-0.113-0.056-0.158-0.224-0.158-0.475
		c0-0.522,0.232-1.426,0.549-2.265c0.467-1.165,1.025-2.074,1.398-2.223l0.205-0.014c0.102,0.047,0.139,0.233,0.139,0.466
		C108.363,105.344,108.121,106.239,107.823,107.068 M129.93,142.038l-0.074,0.064h-0.019c-0.074,0.028-0.13-0.064-0.149-0.094
		c-0.121-0.203-0.242-0.763-0.242-1.313c0-0.392,0.057-0.755,0.242-1.033c0,0,0.932-1.575,0.94-1.595
		c0.066-0.009,0.384-0.139,0.579,0.01c0.084,0.103,0.084,0.279,0,0.56l-0.363,0.782l-0.401,1.043L129.93,142.038z M132.055,149.681
		l-0.018,0.149l-0.104-0.142c-0.055-0.092-1.64-2.628-1.221-3.28c0.037-0.13,0.195-0.186,0.392-0.158
		c0.233,0.01,0.429,0.12,0.568,0.308C132.362,147.387,132.055,149.578,132.055,149.681 M123.984,166.503
		c-0.253,0.27-0.568,0.446-0.802,0.446l-0.187-0.074c-0.047-0.038-0.065-0.103-0.065-0.186c0-0.225,0.159-0.531,0.447-0.821
		c0.261-0.278,0.569-0.457,0.812-0.457l0.158,0.085C124.552,165.682,124.394,166.102,123.984,166.503 M126.789,162.299
		c-0.242,0.252-0.521,0.42-0.698,0.42l-0.177-0.057c-0.122-0.176,0.074-0.588,0.354-0.885c0.252-0.252,0.521-0.41,0.728-0.41
		l0.139,0.057C127.302,161.591,127.087,161.991,126.789,162.299 M151.412,129.603l0.95-1.415c0.802-1.152,1.827-2.615,2.042-3.366
		c0.279-0.941,0.316-3.029,0.316-4.585c0-1.081-0.037-1.916-0.037-1.934l0.121-0.014c0.009,0.032,1.584,4.436,0.811,6.845
		c-0.728,2.212-1.696,3.206-2.516,4.016l-0.625,0.632c-0.466,0.579-0.811,0.41-0.886,0.335c-0.149-0.064-0.214-0.205-0.214-0.359
		C151.394,129.716,151.394,129.659,151.412,129.603 M142.185,133.789c0.066-0.316,0.448-0.484,0.448-0.493h0.01h0.01
		c0.046,0.009,0.754,0.233,0.754,0.782c0,0.597-0.064,1.035-0.131,1.37c-0.056,0.252-0.251,0.382-0.409,0.382
		c-0.132,0.012-0.233-0.083-0.298-0.222l-0.076-0.607l-0.046-0.42l-0.102-0.223C142.232,134.21,142.111,134.014,142.185,133.789
		 M135.774,153.967c0.325,0,0.597,0.262,0.597,0.569c0,0.335-0.271,0.568-0.597,0.568c-0.317,0-0.588-0.233-0.588-0.568
		C135.187,154.229,135.457,153.967,135.774,153.967 M133.332,155.44l0.064,0.009l0.02,0.019c0.279,0.297-1.846,2.459-1.948,2.572
		c-0.969,0.997-2.125,2.004-2.441,2.004l-0.057-0.009l-0.036-0.01c-0.28-0.309,1.863-2.479,1.975-2.582
		C131.879,156.446,133.034,155.44,133.332,155.44 M123.238,75.669c0.232-0.112,0.484-0.13,0.652-0.079l0.149,0.154
		c0.084,0.196-0.103,0.48-0.476,0.653c-0.214,0.102-0.456,0.13-0.634,0.069l-0.158-0.148c-0.01-0.038-0.01-0.075-0.01-0.108
		C122.763,76.024,122.949,75.8,123.238,75.669 M120.079,77.645c0.093-0.284,0.447-0.554,0.83-0.642l0.727-0.075l0.084,0.023
		c0.39,0.005,0.782,0.294,1.007,0.737c0.223,0.452,0.204,0.965-0.038,1.314c-0.093,0.117-0.205,0.191-0.372,0.209
		c-0.578,0.042-1.586-0.587-2.145-1.211C120.061,77.906,120.052,77.781,120.079,77.645 M121.516,83.372l-0.365,0.047l-0.26,0.103
		l-0.168,0.023l-0.084-0.122c-0.065-0.14-0.02-0.186,0.074-0.27l0.046-0.056l0.644-0.448c0.494-0.345,1.184-0.816,1.295-0.946
		c0.075-0.107,0.197-0.144,0.299-0.116c0.112,0.009,0.169,0.061,0.177,0.125c0.027,0.079,0.01,0.2-0.14,0.392l-0.354,0.573
		l-0.242,0.401C122.25,83.266,121.85,83.321,121.516,83.372 M114.59,100.936c0.271-0.429,1.491-1.463,3.01-1.435
		c2.34,0.065,3.039,1.216,3.179,1.575c0.056,0.065,0.093,0.172,0.036,0.247c-0.102,0.116-0.372,0.038-0.922-0.145
		c-0.577-0.196-1.406-0.461-2.172-0.438c-1.034,0.028-1.882,0.205-2.413,0.34l-0.663,0.117l-0.092-0.019l-0.01-0.037
		C114.524,101.099,114.543,101.02,114.59,100.936 M122.335,128.34c-0.019-0.024-4.344-3.341-5.807-4.743
		c-1.044-0.998-2.236-2.377-2.171-2.941c0.018-0.084,0.074-0.158,0.139-0.209c0.521-0.28,1.025-0.173,2.068,1.216
		c1.045,1.36,5.807,6.542,5.872,6.599L122.335,128.34z M123.229,105.558c-0.279,0.182-0.764,0.033-0.969-0.083
		c-0.373-0.187-0.568-0.415-0.568-0.681c0-0.27,0.382-0.788,0.904-0.788c0.549,0,0.782,0.107,0.839,1.048
		C123.435,105.288,123.378,105.456,123.229,105.558 M124.198,90.875l-0.112,0.247c-0.279,0.773-0.783,1.426-1.239,2.003
		l-0.671,0.932c-0.54,0.867-1.649,1.966-1.938,2.181c-0.186,0.117-0.345,0.06-0.429-0.014c-0.103-0.099-0.121-0.243-0.065-0.35
		l0.606-1.091l1.808-3.43l0.103-0.195c0.615-1.1,1.472-2.6,1.976-2.735l0.206,0.023C125,88.787,124.888,89.067,124.198,90.875
		 M130.816,124.706c-0.28,0.349-0.486,0.755-0.522,1.067c-0.037,0.229-0.206,0.387-0.354,0.448c-0.121,0.037-0.252,0-0.316-0.057
		c-0.168-0.176-0.131-0.685-0.075-0.792c0,0,0.346-1.892,0.382-1.916c0-0.005,0.195-0.228,0.447-0.237l0.392,0.158
		C131.207,123.788,131.133,124.365,130.816,124.706 M129.585,98.754c-0.252,0-0.493-0.214-0.493-0.456
		c0-0.266,0.241-0.476,0.493-0.476c0.271,0,0.503,0.21,0.503,0.476C130.088,98.54,129.855,98.754,129.585,98.754 M129.959,97.394
		c-0.271,0-0.504-0.205-0.504-0.466c0-0.261,0.232-0.466,0.504-0.466c0.298,0,0.54,0.205,0.54,0.466
		C130.499,97.189,130.257,97.394,129.959,97.394 M130.377,95.954c-0.363,0-0.633-0.237-0.633-0.536c0-0.289,0.27-0.522,0.633-0.522
		c0.355,0,0.635,0.233,0.635,0.522C131.012,95.717,130.732,95.954,130.377,95.954 M130.713,94.347c-0.336,0-0.625-0.215-0.625-0.476
		c0-0.27,0.289-0.462,0.625-0.462c0.308,0,0.597,0.192,0.597,0.462C131.31,94.132,131.021,94.347,130.713,94.347 M131.002,93.097
		c-0.457,0-0.848-0.186-0.848-0.456c0-0.261,0.391-0.471,0.848-0.471c0.466,0,0.839,0.21,0.839,0.471
		C131.841,92.911,131.468,93.097,131.002,93.097 M131.17,89.668c0.252-0.037,0.493,0.004,0.661,0.112l0.103,0.182
		c0,0.247-0.261,0.452-0.672,0.527c-0.25,0.037-0.512-0.009-0.643-0.112l-0.12-0.195C130.442,89.938,130.75,89.719,131.17,89.668
		 M130.619,88.68c0-0.224,0.234-0.401,0.597-0.429c0.216-0.028,0.447,0.032,0.569,0.13l0.111,0.209
		c0.028,0.229-0.251,0.419-0.605,0.457c-0.261,0.023-0.438-0.037-0.569-0.145l-0.103-0.205V88.68z M131.291,91.616
		c-0.383,0-0.689-0.196-0.689-0.442c0-0.248,0.307-0.453,0.689-0.453c0.382,0,0.681,0.205,0.681,0.453
		C131.972,91.42,131.673,91.616,131.291,91.616 M131.495,87.627c-0.325,0-0.587-0.191-0.587-0.438c0-0.224,0.262-0.424,0.587-0.424
		c0.336,0,0.56,0.2,0.56,0.424C132.055,87.436,131.831,87.627,131.495,87.627 M131.468,86.219c-0.271,0-0.521-0.186-0.521-0.4
		c0-0.233,0.251-0.419,0.521-0.419c0.279,0,0.504,0.186,0.504,0.419C131.972,86.033,131.747,86.219,131.468,86.219 M131.495,85.064
		c-0.261,0-0.483-0.158-0.483-0.363c0-0.201,0.223-0.373,0.483-0.373c0.252,0,0.438,0.172,0.438,0.373
		C131.934,84.906,131.747,85.064,131.495,85.064 M131.896,83.47c0,0.21-0.149,0.392-0.363,0.392c-0.242,0-0.41-0.182-0.41-0.392
		c0-0.219,0.168-0.382,0.41-0.382C131.747,83.088,131.896,83.251,131.896,83.47 M131.318,82.641c-0.232,0-0.41-0.186-0.41-0.392
		c0-0.223,0.178-0.382,0.41-0.382c0.225,0,0.4,0.159,0.4,0.382C131.719,82.455,131.543,82.641,131.318,82.641 M130.854,78.866
		c0.213-0.065,0.408-0.125,0.568-0.037c0.148,0.084,0.307,0.205,0.279,0.373c-0.028,0.112-0.131,0.2-0.345,0.271L131.17,79.5
		c-0.457,0.135-1.137,0.317-1.24,0.504c-0.111,0.186-0.559,0.419-0.838,0.331c-0.084-0.032-0.215-0.116-0.168-0.368l0.01-0.168
		c0.093-0.563,0.232-1.342,0.96-1.612c0.231-0.066,0.363-0.075,0.429-0.009c0.074,0.093,0.036,0.232-0.028,0.382
		c-0.075,0.182-0.103,0.322-0.028,0.368C130.404,78.982,130.628,78.927,130.854,78.866 M130.33,74.989
		c0.206,0.135,0.169,0.279,0.112,0.345c-0.084,0.232-0.531,0.41-0.819,0.34l-0.196-0.038c-0.149-0.023-0.149-0.051-0.187-0.19
		l-0.027-0.112c-0.037-0.122,0.018-0.261,0.158-0.354C129.585,74.812,129.996,74.761,130.33,74.989 M129.371,73.396
		c0.252,0,0.484,0.266,0.588,0.503c0.055,0.14,0.037,0.27-0.065,0.321c-0.095,0.079-0.206,0.117-0.336,0.084
		c-0.103-0.033-0.187-0.098-0.243-0.201l-0.288-0.158c-0.158-0.061-0.336-0.099-0.336-0.243
		C128.69,73.447,129.008,73.396,129.371,73.396 M129.166,99.267c0.289,0,0.521,0.173,0.521,0.401c0,0.229-0.232,0.401-0.521,0.401
		s-0.513-0.172-0.513-0.401C128.653,99.44,128.877,99.267,129.166,99.267 M128.681,100.376c0.253,0,0.485,0.158,0.485,0.34
		c0,0.196-0.232,0.345-0.485,0.345c-0.251,0-0.475-0.149-0.475-0.345C128.206,100.534,128.42,100.376,128.681,100.376
		 M128.215,101.322c0.261,0,0.466,0.163,0.466,0.345c0,0.2-0.205,0.35-0.466,0.35c-0.252,0-0.475-0.149-0.475-0.35
		C127.74,101.485,127.963,101.322,128.215,101.322 M127.386,109.78c0.625,2.806,3.626,7.05,4.128,7.689
		c0.02,0,0.057,0.013,0.057,0.013s0,0.028-0.027,0.038c0.027,0.009,0.037,0.047,0.055,0.061c-0.018,0.009-0.027,0.023-0.064,0
		l-0.02,0.009l-0.019-0.009c-0.102-0.038-0.372-0.154-1.118-0.522c-0.047-0.004-0.987-0.522-2.926-3.644
		c-0.317-0.563-1.389-3.318-1.389-4.324c0-0.094,0-0.187,0.028-0.252c0.037-0.056,0.084-0.112,0.111-0.13h0.019
		c0.27-0.083,0.485-0.079,0.635,0.019C127.171,108.899,127.293,109.323,127.386,109.78 M126.416,83.536
		c0.112-0.061,0.29-0.009,0.373,0.14c0.103,0.149,0.141,0.429-0.158,0.699c-0.494,0.448-0.876,0.718-1.482,0.941
		c-0.409,0.154-0.959,0.27-1.201,0.084c-0.057-0.042-0.084-0.112-0.084-0.224v-0.047c0.027-0.419,0.876-0.689,1.445-0.857
		c0.27-0.066,0.54-0.289,0.782-0.495L126.416,83.536z M125.168,82.277c0.093-0.093,0.438-0.056,0.587,0.102
		c0.075,0.066,0.177,0.261-0.038,0.56c-0.25,0.308-0.54,0.518-0.801,0.699l-0.466,0.41c-0.122,0.187-0.354,0.266-0.513,0.168
		c-0.047-0.028-0.168-0.103-0.168-0.303c0-0.098,0.019-0.191,0.057-0.312c0.186-0.564,0.913-1.035,1.211-1.226L125.168,82.277z"/>
	<path fill="#666666" d="M122.615,71.872c0.073,0,0.763-0.327,0.763-0.327c0.038-0.069-0.111-0.732-0.111-0.732
		c-0.028-0.018-1.538-1.78-1.538-1.78l-0.093-0.079v0.098l-0.178,0.708l-0.466,1.151l-0.027,0.046l1.034,0.527L122.615,71.872z"/>
</g>
</svg>
