<?xml version="1.0" encoding="utf-8"?>
<!-- Generator: Adobe Illustrator 16.0.0, SVG Export Plug-In . SVG Version: 6.00 Build 0)  -->
<!DOCTYPE svg PUBLIC "-//W3C//DTD SVG 1.1//EN" "http://www.w3.org/Graphics/SVG/1.1/DTD/svg11.dtd">
<svg version="1.1" id="Layer_1" xmlns="http://www.w3.org/2000/svg" xmlns:xlink="http://www.w3.org/1999/xlink" x="0px" y="0px"
	 width="250px" height="250px" viewBox="0 0 250 250" enable-background="new 0 0 250 250" xml:space="preserve">
<path fill-rule="evenodd" clip-rule="evenodd" fill="#666666" d="M167.149,177.371c-16.898,17.13-73.025,13.46-83.339,0
	c-12.587-27.697-17.124-56.067-15.572-84.934c-0.453-9.603,2.694-16.074,9.44-19.415c23.439-10.523,70.298-11.682,92.046-0.42
	c8.978,3.465,12.265,12.108,11.897,24.706C182.334,128.901,175.867,155.02,167.149,177.371 M56.609,92.243
	c1.843-11.434,9.149-19.851,20.886-26.641c25.617-16.903,66.257-17.157,95.517,0.593c10.562,5.513,16.65,13.924,19.506,24.83
	c5.896,31.016,0.755,58.109-12.307,81.539c-14.247,32.638-89.708,33.192-107.436,3.81C57.784,156.027,50.456,122.096,56.609,92.243z
	 M124.989,206.334c-45.198,0-81.851-36.421-81.851-81.334c0-44.908,36.652-81.334,81.851-81.334
	c45.221,0,81.873,36.426,81.873,81.334C206.862,169.913,170.21,206.334,124.989,206.334z M145.186,93.989h20.757l-0.065,7.382
	l-6.811-0.021l-0.064,58.19h-6.779l-0.302-58.147l-6.746-0.043L145.186,93.989z M136.909,119.444h-9.354v-18.396l5.798-0.005
	l3.557,8.616V119.444z M143.677,159.54h-6.768l-0.044-31.345h-9.343l-0.151,31.355l-6.11-0.011V93.79h15.982l6.434,13.013V159.54z
	 M106.421,93.79h6.757v65.949h-6.757V93.79z M83.671,93.989h19.679v7.264l-12.89,0.016l0.021,19.625l10.12,0.011l0.032,7.366
	l-10.152-0.016l-0.032,31.484h-6.778V93.989z"/>
</svg>
