<?xml version="1.0" encoding="utf-8"?>
<!-- Generator: Adobe Illustrator 16.0.0, SVG Export Plug-In . SVG Version: 6.00 Build 0)  -->
<!DOCTYPE svg PUBLIC "-//W3C//DTD SVG 1.1//EN" "http://www.w3.org/Graphics/SVG/1.1/DTD/svg11.dtd">
<svg version="1.1" id="Layer_1" xmlns="http://www.w3.org/2000/svg" xmlns:xlink="http://www.w3.org/1999/xlink" x="0px" y="0px"
	 width="250px" height="250px" viewBox="0 0 250 250" enable-background="new 0 0 250 250" xml:space="preserve">
<path fill-rule="evenodd" clip-rule="evenodd" fill="#666666" d="M125.036,81.087c-64.159,0-116.123,19.692-116.123,43.949
	c0,24.258,51.964,43.877,116.123,43.877c64.091,0,116.051-19.619,116.051-43.877C241.087,100.779,189.127,81.087,125.036,81.087z
	 M125.036,164.418c-61.544,0-111.556-17.521-111.556-39.382c0-21.789,50.012-39.529,111.556-39.529
	c61.699,0,111.635,17.74,111.635,39.529C236.671,146.897,186.735,164.418,125.036,164.418z M171.399,122.985
	c-2.623-0.304-5.916,1.944-8.618,5.238c-1.344,1.646-2.771,4.792-2.993,6.662c-0.297,1.872,0.223,3.75,0.9,4.269
	c0.675,0.526,3.668,2.097,8.307-2.619c2.627-2.617,5.17-6.888,5.17-6.888l-0.823-0.223
	C174.917,126.502,174.62,123.359,171.399,122.985z M125.036,88.801c-59.746,0-108.035,16.243-108.035,36.235
	c0,20.066,48.289,36.317,108.035,36.317c59.674,0,108.117-16.251,108.117-36.317C233.153,105.044,184.71,88.801,125.036,88.801z
	 M74.581,144.249c-6.514,0-12.273-4.268-12.422-11.904c-0.074-4.643,3.668-10.333,10.625-12.057c0.827,0,1.129,0.3,1.129,0.752
	c0,0.297-0.302,0.668-0.973,0.972c-2.02,0.751-5.543,4.72-5.543,8.381c0,2.774,1.727,5.846,4.65,6.521
	c0.811,0.223,1.563,0.148,2.311,0.148c7.268,0,15.43-8.163,24.266-20.589c-1.424,0.073-7.494,0.744-8.984,2.468
	c-0.679,0.529-1.124,0.221-1.277-0.371c0-0.152,0.228-0.679,0.455-0.975c2.387-2.693,9.577-3.298,11.299-3.52
	c6.451-9.893,14.676-16.205,16.938-16.657c-0.051-0.01-0.11-0.031-0.167-0.042c-5.767-1.349-11.007-2.468-15.121-2.468
	c-14.454,0-20.889,6.21-20.588,11.904c0.151,2.323,2.022,3.816,4.782,3.294c3.001-0.525,7.192-3.368,8.248-5.843
	c0.223-0.522,0.821-0.597,1.044-0.448c0.445,0.37,0.297,0.9,0.297,0.9c-0.371,2.919-4.864,11.008-12.653,11.008
	c-4.342,0-7.264-4.042-7.18-8.015c0.07-7.41,7.633-14.901,26.276-14.901c3.517,0,7.485,0.304,11.827,1.052
	c5.014,0.896,17.521,2.994,27.699,3.143c3.742,0,8.543,0.151,12.436-0.445c4.111-0.678,3.211-0.826,4.859-0.826
	c1.501,0,1.501,0.601,1.501,1.2c0,2.394-8.39,6.963-15.499,6.963c-10.477,0-21.354-4.752-27-6.284
	c0.219,0.208,0.371,0.536,0.198,0.967c-0.074,0.148-0.819,0.975-1.127,1.193c-1.497,1.349-6.588,4.649-12.131,14.009
	c4.499-0.223,9.734-1.123,9.734-1.123s-0.29-0.974-0.29-1.804c0.223-3.217,2.093-5.165,4.484-4.791
	c1.348,0.223,2.252,1.349,2.252,2.55c0,1.267-0.979,3.146-1.944,4.045c-0.677,0.519-1.427,1.045-2.328,1.494
	c0,0.825,1.122,1.496,2.097,1.574c-0.225,0.822-0.15,1.193-0.521,1.122c-2.248,0-3.15-2.178-3.15-2.178
	c-2.992,0.529-5.908,0.903-11.822,1.501C88.362,140.276,83.718,144.249,74.581,144.249z M177.235,140.276
	c3.223-0.148,9.133-6.284,10.561-7.784c0.296-0.377,0.825-1.045,1.115-1.045c0.304,0,0.902,0.297,0.902,0.742
	c0,0.303-0.673,1.425-1.192,2.1c-3.001,3.742-7.94,9.508-13.558,9.656c-2.768,0-3.814-1.119-4.193-3.291
	c-1.271,1.12-5.613,3.068-10.037,3.068c-3.668-0.073-5.167-2.245-5.909-3.964c-0.679-1.427-0.97-3.521-0.448-5.618
	c-2.022,1.049-3.898,1.197-6.592,1.123c-3.143-0.074-5.087-1.501-6.059-5.161c-3.598,6.581-3.748,6.811-7.414,13.694h-6.369
	l8.162-13.853c1.053-1.867,1.576-3.365,1.947-4.94c0.225-0.896-0.445-1.719-1.424-1.793c-1.042,0-2.764,1.046-4.417,2.62
	c0,0-4.196,4.494-7.261,9.055c-2.92,4.343-7.938,9.292-13.398,9.292c-3.976,0-7.568-2.174-8.311-6.367c0,0-0.381,0.974-3.898,2.992
	c-0.299,0.148-1.048,0.597-1.274,0.448c-0.673-0.597-1.044-1.348-1.118-1.874c0.223,0.074,0.67-0.297,2.094-1.42
	c2.771-2.1,3.371-3.742,3.371-3.742c0.678-1.426,1.875-3.667,2.697-5.242c2.242-4.49,6.131-9.059,12.496-9.28
	c1.053,0,1.35,0.447,1.572,0.821c0.605,0.452,0.383,1.345,0.383,1.345c-4.496,0.675-7.566,3.299-9.438,5.844
	c-1.122,1.648-2.315,4.339-2.549,6.29c-0.444,3.368,1.134,5.618,3.444,6.136c4.344,0.675,7.938-2.466,10.791-7.339
	c0.742-1.271,1.271-4.565,1.271-6.365c0-1.793-0.974-3.661-1.724-4.412c0-1.275,0.82-2.098,1.794-2.098c0.3,0,0.597,0,0.901,0.3
	c1.492,1.494,2.32,4.343,2.32,6.518c0,0.741,0,1.492-0.148,2.241c3.144-3.815,7.109-8.759,10.18-9.737
	c0.602-0.295,1.201-0.295,1.801-0.295c5.613-0.148,4.861,4.938,4.861,4.938c2.998-3.439,5.095-4.718,7.855-4.569
	c3.006,0.16,4.053,2.25,4.053,3.901c-0.077,1.946-1.504,4.188-3.969,4.262c-2.172,0-3.445-1.049-4.123-2.99
	c-1.415,0.521-2.094,1.496-2.391,3.442c-0.448,2.468,1.424,4.42,3.817,4.42c4.117,0,5.913-1.797,7.409-3.146
	c5.092-4.793,7.944-9.814,15.281-9.729c4.408,0.069,5.537,3.593,6.283,5.087l9.662-16.321h5.914l-16.025,28.374
	c-0.297,0.601-1.044,1.723-0.973,2.619C176.113,140.654,177.911,140.276,177.235,140.276z M118.165,111.304
	c0.445-0.452,1.197-1.797,1.049-2.693c-0.074-0.449-0.296-0.976-0.826-0.901c-1.127,0.223-1.798,0.753-2.095,1.872
	c-0.38,1.196-0.226,2.022,0,2.919C116.293,112.5,117.035,112.574,118.165,111.304z"/>
</svg>
