<?xml version="1.0" encoding="utf-8"?>
<!-- Generator: Adobe Illustrator 16.0.0, SVG Export Plug-In . SVG Version: 6.00 Build 0)  -->
<!DOCTYPE svg PUBLIC "-//W3C//DTD SVG 1.1//EN" "http://www.w3.org/Graphics/SVG/1.1/DTD/svg11.dtd">
<svg version="1.1" id="Layer_1" xmlns="http://www.w3.org/2000/svg" xmlns:xlink="http://www.w3.org/1999/xlink" x="0px" y="0px"
	 width="250px" height="250px" viewBox="0 0 250 250" enable-background="new 0 0 250 250" xml:space="preserve">
<g>
	<path fill="#666666" d="M113.684,160.069c-24.33-6.234-55.992-17.257-55.992-17.257c-3.982-1.428-7.721-2.565-9.836-5.299
		c-2.07-2.669-2.475-5.905-2.475-10.577v-23.891c0-7.99,4.031-12.127,12.33-12.657c0,0,45.744-2.902,61.799-3.922
		c3.397-0.21,7.454-0.22,10.672-0.019c15.77,1.007,62.105,3.94,62.105,3.94c8.301,0.53,12.335,4.667,12.335,12.657v23.891
		c0,4.672-0.403,7.908-2.478,10.577c-2.118,2.733-5.855,3.871-9.835,5.299c0,0-31.765,11.29-55.997,17.257
		c-4.956,1.217-8.229,1.828-11.455,1.828C121.639,161.897,118.459,161.291,113.684,160.069 M119.516,79.808
		c-16.121,1.026-62.225,3.95-62.225,3.95c-11.785,0.752-18.559,7.783-18.559,19.288v23.891c0,4.668,0.302,10.037,3.865,14.645
		c3.213,4.148,7.781,6.033,12.582,7.749c0,0,32.514,10.658,49.154,16.127c10.83,3.566,15.738,4.952,20.65,4.952h0.021
		c4.92,0,9.836-1.386,20.658-4.952c16.64-5.469,49.149-16.127,49.149-16.127c4.8-1.716,9.377-3.601,12.585-7.749
		c3.566-4.607,3.861-9.977,3.861-14.645v-23.891c0-11.505-6.76-18.536-18.551-19.288c0,0-46.598-2.953-62.479-3.958
		c-1.601-0.103-3.388-0.156-5.19-0.156C123.159,79.644,121.256,79.7,119.516,79.808"/>
	<g>
		<defs>
			<path id="SVGID_1_" d="M89.146,147.063c-4.186-1.253-30.025-8.909-30.025-8.909c-7.881-2.808-8.693-3.873-8.693-11.379v-8.463
				c0-0.552,0.238-0.7,0.754-0.629c23.023,3.329,38.135,5.486,38.162,5.486c0.25,0.046,0.377,0.172,0.377,0.487v22.969
				c0,0.345-0.032,0.504-0.252,0.504C89.393,147.13,89.289,147.106,89.146,147.063 M49.58,116.572
				c-0.311,0.26-0.48,0.646-0.48,1.081v9.122c0,8.094,1.162,9.635,9.57,12.635l30.773,9.14c0.408,0.146,0.812,0.109,1.129-0.107
				c0.301-0.22,0.476-0.583,0.476-1.026v-23.688c0-0.861-0.687-1.664-1.534-1.805l-38.795-5.643
				c-0.084-0.018-0.174-0.027-0.258-0.027C50.131,116.253,49.826,116.365,49.58,116.572"/>
		</defs>
		<use xlink:href="#SVGID_1_"  overflow="visible" fill="#666666"/>
		<clipPath id="SVGID_2_">
			<use xlink:href="#SVGID_1_"  overflow="visible"/>
		</clipPath>
		<rect x="49.1" y="116.257" clip-path="url(#SVGID_2_)" fill="#666666" width="41.948" height="32.438"/>
	</g>
	<g>
		<defs>
			<path id="SVGID_3_" d="M89.434,91.943l-31.49,2.003C51.5,94.355,49.1,96.777,49.1,102.89v8.751c0,0.862,0.688,1.66,1.539,1.782
				l38.791,5.628c0.422,0.062,0.832-0.052,1.143-0.316c0.305-0.266,0.476-0.65,0.476-1.09V93.463c0-0.434-0.165-0.828-0.476-1.113
				c-0.282-0.271-0.648-0.406-1.045-0.406C89.5,91.943,89.469,91.943,89.434,91.943"/>
		</defs>
		<use xlink:href="#SVGID_3_"  overflow="visible" fill="#666666"/>
		<clipPath id="SVGID_4_">
			<use xlink:href="#SVGID_3_"  overflow="visible"/>
		</clipPath>
		<rect x="49.1" y="91.943" clip-path="url(#SVGID_4_)" fill="#666666" width="41.948" height="27.166"/>
	</g>
	<g>
		<defs>
			<path id="SVGID_5_" d="M160.277,146.537V123.85c0-0.365,0.201-0.549,0.504-0.605c0.019,0,8.414-1.24,38.057-5.561
				c0.472-0.066,0.732,0.068,0.732,0.508v8.584c0,7.506-0.812,8.571-8.693,11.379c0,0-25.334,7.505-29.9,8.867
				c-0.162,0.052-0.291,0.075-0.395,0.075C160.338,147.097,160.277,146.928,160.277,146.537 M199.279,116.28l-38.801,5.643
				c-0.839,0.141-1.525,0.943-1.525,1.805v23.688c0,0.443,0.168,0.807,0.483,1.026c0.306,0.217,0.705,0.253,1.122,0.107l30.766-9.14
				c8.41-3,9.568-4.541,9.568-12.635v-9.122c0-0.436-0.164-0.821-0.471-1.081c-0.248-0.207-0.555-0.319-0.885-0.319
				C199.453,116.253,199.367,116.263,199.279,116.28"/>
		</defs>
		<use xlink:href="#SVGID_5_"  overflow="visible" fill="#666666"/>
		<clipPath id="SVGID_6_">
			<use xlink:href="#SVGID_5_"  overflow="visible"/>
		</clipPath>
		<rect x="158.953" y="116.253" clip-path="url(#SVGID_6_)" fill="#666666" width="41.939" height="32.442"/>
	</g>
	<g>
		<defs>
			<path id="SVGID_7_" d="M160.465,91.943c-0.392,0-0.755,0.136-1.043,0.406c-0.301,0.285-0.469,0.68-0.469,1.113v24.182
				c0,0.439,0.168,0.824,0.479,1.09c0.307,0.265,0.715,0.378,1.135,0.316l38.787-5.628c0.852-0.122,1.539-0.92,1.539-1.782v-8.751
				c0-6.112-2.389-8.534-8.84-8.943l-31.494-2.003C160.527,91.943,160.5,91.943,160.465,91.943"/>
		</defs>
		<use xlink:href="#SVGID_7_"  overflow="visible" fill="#666666"/>
		<clipPath id="SVGID_8_">
			<use xlink:href="#SVGID_7_"  overflow="visible"/>
		</clipPath>
		<rect x="158.953" y="91.943" clip-path="url(#SVGID_8_)" fill="#666666" width="41.939" height="27.166"/>
	</g>
	<g>
		<defs>
			<path id="SVGID_9_" d="M119.492,121.709c-8.178-1.051-22.275-2.879-22.275-2.879c-0.326-0.061-0.683-0.383-0.683-0.822V93.156
				c0-0.161,0.159-0.332,0.329-0.347c0,0,14.279-0.902,22.494-1.416c3.334-0.21,7.795-0.22,10.863-0.026
				c7.219,0.456,19.656,1.237,22.38,1.409c0.731,0.048,0.864,0.196,0.864,0.96v24.317c0,0.433-0.283,0.721-0.668,0.776
				c0,0-14.447,1.869-22.564,2.914c-1.496,0.193-3.301,0.459-5.193,0.459h-0.045C123.086,122.191,121.076,121.91,119.492,121.709
				 M119.357,90.064c-8.344,0.526-22.579,1.419-22.579,1.419c-0.87,0.053-1.575,0.803-1.575,1.673v25.171
				c0,0.861,0.695,1.659,1.543,1.781c0,0,14.475,2.083,22.711,3.238c1.57,0.219,3.629,0.508,5.537,0.521
				c1.92,0.013,3.68-0.256,5.145-0.462c8.154-1.148,23.111-3.297,23.111-3.297c0.85-0.122,1.539-0.92,1.539-1.781V93.156
				c0-0.87-0.699-1.62-1.57-1.673c0,0-14.658-0.926-22.943-1.439c-1.246-0.086-3.16-0.127-5.121-0.127
				C123.014,89.917,120.818,89.97,119.357,90.064"/>
		</defs>
		<use xlink:href="#SVGID_9_"  overflow="visible" fill="#666666"/>
		<clipPath id="SVGID_10_">
			<use xlink:href="#SVGID_9_"  overflow="visible"/>
		</clipPath>
		<rect x="95.203" y="89.922" clip-path="url(#SVGID_10_)" fill="#666666" width="59.586" height="33.958"/>
	</g>
	<g>
		<defs>
			<path id="SVGID_11_" d="M153.174,122.92c0,0-12.16,1.829-20.52,3.037c-3.164,0.456-5.416,0.716-7.66,0.701
				c-2.566-0.014-5.102-0.361-8.436-0.813c-8.326-1.146-19.736-2.925-19.736-2.925c-0.43-0.071-0.834,0.037-1.139,0.296
				c-0.307,0.269-0.48,0.645-0.48,1.081v24.386c0,0.851,0.625,1.738,1.426,2.024c0,0,10.513,3.193,19.828,5.228
				c2.795,0.688,5.383,1.299,8.367,1.286c2.736-0.005,5.773-0.656,8.232-1.261c8.398-1.799,20.318-5.253,20.318-5.253
				c0.795-0.286,1.414-1.174,1.414-2.024v-24.386c0-0.437-0.162-0.812-0.475-1.081c-0.248-0.205-0.557-0.319-0.893-0.319
				C153.34,122.896,153.259,122.906,153.174,122.92"/>
		</defs>
		<use xlink:href="#SVGID_11_"  overflow="visible" fill="#666666"/>
		<clipPath id="SVGID_12_">
			<use xlink:href="#SVGID_11_"  overflow="visible"/>
		</clipPath>
		<rect x="95.203" y="122.851" clip-path="url(#SVGID_12_)" fill="#666666" width="59.586" height="34.381"/>
	</g>
</g>
</svg>
