<?xml version="1.0" encoding="utf-8"?>
<!-- Generator: Adobe Illustrator 16.0.0, SVG Export Plug-In . SVG Version: 6.00 Build 0)  -->
<!DOCTYPE svg PUBLIC "-//W3C//DTD SVG 1.1//EN" "http://www.w3.org/Graphics/SVG/1.1/DTD/svg11.dtd">
<svg version="1.1" id="Layer_1" xmlns="http://www.w3.org/2000/svg" xmlns:xlink="http://www.w3.org/1999/xlink" x="0px" y="0px"
	 width="250px" height="250px" viewBox="0 0 250 250" enable-background="new 0 0 250 250" xml:space="preserve">
<g>
	<path fill="#666666" d="M48.068,113.409c2.196,1.155,2.834,2.658,2.834,4.02l-0.001,19.408h32.826l-1.32-3.681H59.119v-6.783
		l21.177,0.001v-3.845H59.028l0.002-5.521h23.181v-3.845H48.146L48.068,113.409z"/>
	<path fill="#666666" d="M124.313,113.41c2.199,1.155,2.834,2.658,2.834,4.02v19.408h32.831l-1.319-3.681H135.37v-6.783h21.166
		v-3.845h-21.26v-5.521l23.183,0v-3.845H124.39L124.313,113.41z"/>
	<path fill="#666666" d="M114.761,130.641l-19.021-17.478H84.79l-0.084,0.248c2.209,1.155,2.841,2.658,2.841,4.019l-0.001,19.408
		h6.513l0.001-15.365l16.687,15.366h10.506l0.001-23.675h-9.25l-0.076,0.247c2.199,1.155,2.834,2.658,2.834,4.02V130.641z"/>
	<path fill="#666666" d="M197.864,136.838h7.184v-23.675h-9.938l-0.081,0.247c2.198,1.155,2.837,2.658,2.837,4.02L197.864,136.838z"
		/>
	<path fill="#666666" d="M238.199,126.993c-1.617-1.041-4.433-2.104-8.458-3.193l-1.574-0.412c-3.45-0.932-5.752-1.692-6.898-2.295
		c-1.154-0.601-1.73-1.313-1.73-2.12c0-3.045,6.034-3.31,8.595-3.31c4.742,0,8.558,1.265,10.86,2.608v-4.835
		c-1.676-0.264-6.891-0.926-11.203-0.926c-5.664,0-18.555,0.374-18.555,6.858c-0.002,1.388,0.803,2.591,2.412,3.64
		c1.607,1.04,4.434,2.104,8.453,3.185l1.576,0.422c3.453,0.924,5.746,1.691,6.898,2.294c1.152,0.594,1.729,1.303,1.729,2.121
		c0,3.044-6.463,3.176-9.028,3.176c-3.549,0-7.524-0.801-10.41-1.773l-1.728,4.125c1.675,0.274,8.607,0.934,12.913,0.934
		c5.67,0,18.565-0.371,18.565-6.859C240.616,129.247,239.806,128.041,238.199,126.993z"/>
	<path fill="#666666" d="M191.597,126.993c-1.613-1.041-4.432-2.105-8.454-3.193l-1.579-0.413c-3.447-0.932-5.75-1.692-6.893-2.294
		c-1.154-0.602-1.732-1.314-1.732-2.121c0-3.045,6.033-3.31,8.596-3.31c4.74,0,8.558,1.264,10.864,2.608v-4.835
		c-1.681-0.264-6.897-0.925-11.208-0.925c-5.664,0-18.559,0.373-18.559,6.858c0,1.387,0.805,2.591,2.418,3.639
		c1.609,1.039,4.428,2.104,8.453,3.185l1.576,0.423c3.451,0.923,5.747,1.69,6.897,2.293c1.152,0.594,1.731,1.303,1.731,2.12
		c0,3.045-6.465,3.177-9.032,3.177c-3.548,0-7.526-0.801-10.411-1.773l-1.727,4.126c1.674,0.273,8.606,0.933,12.912,0.933
		c5.672,0,18.559-0.372,18.559-6.858C194.009,129.246,193.208,128.041,191.597,126.993z"/>
	<path fill="#666666" d="M30.136,111.786c-10.762,0-20.75,4.255-20.752,13.211c0,8.952,9.912,13.218,20.359,13.218
		c5.042,0,11.477-1.047,15.18-2.781v-7.774v-3.01H33.984l-0.098,0.438c2.38,1.204,2.776,2.771,2.776,3.829c0,0.782,0,3.556,0,4.917
		c-1.578,0.479-3.303,0.752-5.122,0.752c-7.354,0-13.31-3.566-13.309-9.588c0-6.017,5.956-9.499,13.31-9.499
		c3.255,0,6.16,0.71,8.768,1.996l4.031-3.276C40.437,112.815,34.519,111.786,30.136,111.786z"/>
</g>
</svg>
