<?xml version="1.0" encoding="utf-8"?>
<!-- Generator: Adobe Illustrator 16.0.0, SVG Export Plug-In . SVG Version: 6.00 Build 0)  -->
<!DOCTYPE svg PUBLIC "-//W3C//DTD SVG 1.1//EN" "http://www.w3.org/Graphics/SVG/1.1/DTD/svg11.dtd">
<svg version="1.1" id="Layer_1" xmlns="http://www.w3.org/2000/svg" xmlns:xlink="http://www.w3.org/1999/xlink" x="0px" y="0px"
	 width="250px" height="250px" viewBox="0 0 250 250" enable-background="new 0 0 250 250" xml:space="preserve">
<g>
	<path fill="#666666" d="M27.376,148.967h41.945c8.802,0,14.381-4.469,14.381-12.647v-17.125H49.349v10.655h22.572v4.354
		c0,2.831-1.564,3.603-3.603,3.603H29.757c-2.807,0-3.689-1.453-3.689-3.723v-18.589c0-2.472,1.366-3.289,2.88-3.289h54.755v-11.17
		H27.256c-8.687,0-13.274,5.311-13.274,13.188v21.664C13.981,144.068,18.851,148.967,27.376,148.967"/>
	<polygon fill="#666666" points="103.199,112.608 122.507,148.967 133.674,148.967 152.948,112.608 152.948,148.967 
		165.076,148.967 165.076,101.033 146.449,101.033 128.078,135.461 109.698,101.033 91.108,101.033 91.108,148.967 103.199,148.967 
			"/>
	<path fill="#666666" d="M172.07,114.222v21.664c0,8.183,4.869,13.081,13.374,13.081h50.574v-12.062h-48.16
		c-2.807,0-3.71-1.433-3.71-3.702V116.38c0-2.439,1.391-3.31,2.905-3.31h48.965v-12.037h-50.682
		C176.663,101.033,172.07,106.344,172.07,114.222"/>
</g>
</svg>
