<?xml version="1.0" encoding="utf-8"?>
<!-- Generator: Adobe Illustrator 16.0.0, SVG Export Plug-In . SVG Version: 6.00 Build 0)  -->
<!DOCTYPE svg PUBLIC "-//W3C//DTD SVG 1.1//EN" "http://www.w3.org/Graphics/SVG/1.1/DTD/svg11.dtd">
<svg version="1.1" id="Layer_1" xmlns="http://www.w3.org/2000/svg" xmlns:xlink="http://www.w3.org/1999/xlink" x="0px" y="0px"
	 width="250px" height="250px" viewBox="0 0 250 250" enable-background="new 0 0 250 250" xml:space="preserve">
<ellipse fill-rule="evenodd" clip-rule="evenodd" fill="#666666" cx="125" cy="107.82" rx="63.419" ry="42.97"/>
<ellipse fill-rule="evenodd" clip-rule="evenodd" fill="#FFFFFF" cx="125" cy="107.82" rx="56.171" ry="39.604"/>
<path fill-rule="evenodd" clip-rule="evenodd" fill="#666666" d="M159.945,112.35c-2.33-8.801-5.178-17.084-10.354-25.108
	c-5.077-7.496-15.802-4.828-24.155-6.132v51.474c0,15.522,27.406,11.729,43.04-2.796C163.128,125.935,161.65,118.685,159.945,112.35
	z"/>
<path fill-rule="evenodd" clip-rule="evenodd" fill="#666666" d="M179.076,107.82c0-21.159-24.326-38.311-54.336-38.311h-0.043
	v8.887h0.738v2.713c8.354,1.304,19.078-1.364,24.155,6.132c5.177,8.024,8.024,16.308,10.354,25.108
	c1.705,6.335,3.183,13.585,8.53,17.438C174.713,123.991,179.076,116.488,179.076,107.82z"/>
<path fill-rule="evenodd" clip-rule="evenodd" fill="#666666" d="M90.055,112.35c2.33-8.801,5.178-17.084,10.354-25.108
	c5.078-7.496,15.802-4.828,24.155-6.132v51.474c0,15.522-27.406,11.729-43.039-2.796C86.872,125.935,88.35,118.685,90.055,112.35z"
	/>
<path fill-rule="evenodd" clip-rule="evenodd" fill="#666666" d="M70.924,107.82c0-21.159,24.326-38.311,54.336-38.311h0.043v8.887
	h-0.738v2.713c-8.354,1.304-19.077-1.364-24.155,6.132c-5.177,8.024-8.024,16.308-10.354,25.108
	c-1.705,6.335-3.183,13.585-8.529,17.438C75.288,123.991,70.924,116.488,70.924,107.82z"/>
<g>
	<path fill="#666666" d="M207.44,155.703c-0.476-0.698-2.785-0.582-3.604-0.498c-0.566,0.06-1.105,0.254-1.553,0.56
		c-0.225,7.681-0.124,16.904-0.124,25.099c0,0.835-0.203,3.004,0.124,3.479c0.366,0.53,1.871,0.436,2.609,0.436
		c1.09,0,2.1,0.059,2.548-0.497c0.224-7.4,0.124-17.007,0.124-25.099C207.564,158.36,207.77,156.188,207.44,155.703z"/>
	<path fill="#666666" d="M212.845,155.827c-0.112,7.52-0.062,16.788-0.062,24.912c0,1.017-0.24,3.075,0.124,3.603
		c0.391,0.567,2.817,0.552,3.913,0.436c0.543-0.058,1.143-0.235,1.367-0.621c0-9.423,0-18.845,0-28.268
		C217.266,154.858,213.881,154.99,212.845,155.827z"/>
	<path fill="#666666" d="M44.362,161.48c3.16-0.592,6.064,0.337,8.138,1.305c0.482,0.225,1.656,1.062,2.175,0.869
		c0.876-0.324,0.651-3.463,0.311-4.225c-0.421-0.938-1.941-1.531-3.044-1.863c-1.161-0.35-2.809-0.656-4.162-0.745
		c-3.391-0.224-6.201,0.375-8.325,1.304c-4.231,1.853-7.339,6.088-7.642,11.99c0,0.809,0,1.616,0,2.423
		c0.781,8.264,5.828,13.218,15.656,12.487c1.389-0.103,2.699-0.255,4.1-0.621c1.153-0.302,3.027-0.705,3.417-1.615
		c0.308-0.719,0.187-2.08,0.187-3.168c0-2.402,0-4.162,0-6.71c0-1.742,0.268-3.348-0.932-3.789
		c-1.209-0.445-3.359-0.125-5.095-0.125c-0.759,0-1.624,0-2.61,0c-0.803,0-2.009-0.113-2.422,0.125c-0.859,0.494-0.604,3.437,0,4.1
		c1.699,0.145,3.665,0.021,5.467,0.062c0,2.133,0,4.266,0,6.398c-3.604,1.732-7.705,0.404-9.629-1.615
		c-2.026-2.126-3.038-6.314-2.051-10.188C38.75,164.55,40.949,162.119,44.362,161.48z"/>
	<path fill="#666666" d="M173.645,157.566c-0.393,0.412-0.537,1.985-0.684,2.609c-1.477,6.299-3.008,13.092-4.412,19.01
		c-1.588-6.286-3.134-12.68-4.721-19.072c-0.191-0.77-0.422-2.269-0.809-2.609c-0.507-0.447-1.827-0.372-2.856-0.372
		c-1.007,0-2.322-0.001-2.796,0.435c-0.371,0.342-0.618,1.736-0.808,2.547c-1.487,6.374-3.051,12.907-4.535,19.011
		c-1.409-6.168-3.02-12.752-4.411-19.011c-0.2-0.902-0.281-2.282-0.684-2.671c-0.627-0.606-5.062-0.475-5.467,0.187
		c-0.412,0.674,0.336,2.535,0.56,3.417c1.753,6.933,3.46,13.36,5.218,20.128c0.259,0.992,0.534,2.737,1.057,3.168
		c0.917,0.758,6.128,0.696,6.958,0c0.4-0.335,0.55-1.307,0.745-2.111c1.375-5.644,2.513-10.88,3.977-16.215
		c1.232,5.357,2.694,10.693,4.037,16.028c0.205,0.808,0.291,1.859,0.685,2.236c0.924,0.885,6.345,0.759,7.144-0.062
		c0.508-0.521,0.729-2.212,0.994-3.23c1.736-6.653,3.666-13.561,5.281-19.941c0.285-1.131,0.818-2.323,0.497-3.542
		C177.698,157.066,174.39,156.782,173.645,157.566z"/>
	<path fill="#666666" d="M125.373,180.304c-0.537-0.374-0.807-1.391-0.871-2.236c-0.207-2.741,0.111-6.892,0.063-9.381
		c1.454-0.037,3.06,0.078,4.411-0.062c0.67-0.85,0.68-3.244,0.062-4.163c-1.28-0.272-3.053-0.053-4.536-0.124
		c-0.038-1.514,0.082-3.187-0.061-4.597c-1.045-0.741-4.252-0.759-5.219,0.062c-0.143,1.411-0.023,3.084-0.062,4.598
		c-0.717-0.111-1.826-0.092-2.547,0c-0.771,0.812-0.736,3.34-0.062,4.225c0.74,0.171,1.872-0.05,2.609,0.124
		c0.438,4.554-0.992,11.059,1.057,14.227c0.739,1.143,2.272,1.981,4.225,2.112c1.615,0.108,4.055-0.104,4.659-0.932
		c0.606-0.83,0.492-3.138-0.062-3.977C128.008,180.369,126.342,180.98,125.373,180.304z"/>
	<path fill="#666666" d="M70.641,163.841c-3.245-0.236-4.162,2.144-5.529,3.417c-0.035-0.854,0.076-1.856-0.062-2.609
		c-0.924-0.644-3.705-0.675-4.473,0.124c-0.104,6.358-0.104,13.15,0,19.508c1.039,0.742,4.242,0.742,5.281,0
		c0.145-3.915,0.021-8.097,0.061-12.114c0.932-1.294,1.771-2.91,3.418-3.293c0.979-0.228,2.213,0.659,2.857,0.373
		c0.564-0.25,0.488-1.396,0.498-2.236C72.717,164.612,72.659,163.988,70.641,163.841z"/>
	<path fill="#666666" d="M88.657,164.772c-1.761-0.863-4.083-1.175-6.461-0.807c-4.192,0.648-6.666,3.506-7.518,7.517
		c-0.452,2.128-0.39,4.813,0.062,6.834c0.94,4.21,3.507,6.347,8.263,6.834c0.994,0,1.988,0,2.981,0
		c0.937-0.135,2.112-0.279,3.23-0.56c0.876-0.22,2.249-0.49,2.609-1.118c0.434-0.755,0.228-2.637-0.062-3.541
		c-1.185-0.013-2.384,0.564-3.666,0.869c-4.223,1.005-8.627-0.016-8.262-4.907c2.873,0,6.026,0,9.07,0
		c1.483,0,3.154,0.234,3.727-0.621c0.527-0.788,0.336-2.447,0.248-3.417C92.556,168.245,90.92,165.884,88.657,164.772z
		 M79.836,172.414c0.043-2.792,1.641-4.994,4.473-4.783c2.295,0.171,3.496,2.016,3.416,4.783
		C85.379,172.416,82.182,172.414,79.836,172.414z"/>
	<path fill="#666666" d="M113.383,174.713c0-3.188,0.215-6.465-1.367-8.449c-2.182-2.738-7.592-2.915-11.555-1.677
		c-1.201,0.374-2.65,0.847-3.106,1.739c-0.459,0.898-0.22,3.3,0.56,3.479c0.645,0.148,1.547-0.576,2.05-0.808
		c1.625-0.748,4.821-1.887,6.896-0.621c1.158,0.707,1.326,2.017,1.242,4.162c-4.828-0.087-9.398,0.263-11.244,3.355
		c-1.105,1.853-0.948,4.688,0,6.337c0.941,1.636,2.752,2.614,4.971,2.92c0.744,0,1.49,0,2.236,0
		c1.085-0.155,1.984-0.542,2.795-0.994c0.826-0.462,1.465-1.03,2.112-1.491c0.023,0.494-0.083,1.288,0.062,1.802
		c0.905,0.324,3.681,0.711,4.225-0.062c0.263-0.374,0.124-1.657,0.124-2.36C113.383,179.559,113.383,177.152,113.383,174.713z
		 M108.102,179.062c-0.15,0.55-1.279,1.492-2.111,1.926c-1.326,0.692-3.349,0.392-4.101-0.497c-0.706-0.834-0.724-2.354-0.124-3.23
		c1.02-1.488,3.77-1.387,6.336-1.366C107.896,177.018,108.377,178.061,108.102,179.062z"/>
	<path fill="#666666" d="M195.698,166.388c-1.942-2.718-7.349-3.107-11.368-1.926c-1.176,0.347-3.013,0.913-3.48,1.926
		c-0.419,0.912-0.205,3.304,0.622,3.417c0.63,0.087,1.588-0.565,2.237-0.869c1.883-0.884,6.565-2.093,7.641,0.435
		c0.389,0.913,0.238,1.581,0.311,3.106c-5.164,0.023-9.652,0.341-11.431,3.789c-0.997,1.933-0.687,4.635,0.249,6.15
		c0.929,1.506,2.839,2.466,4.906,2.734c0.726,0,1.451,0,2.176,0c1.877-0.227,3.279-1.126,4.473-2.175
		c0.108-0.096,0.272-0.359,0.435-0.249c0.113,0.796-0.235,1.374,0.187,1.802c0.707,0.72,3.384,0.157,4.101-0.062
		c0.229-3.374,0.124-6.373,0.124-9.567C196.879,171.7,197.154,168.425,195.698,166.388z M191.66,179
		c-0.238,0.982-2.389,2.266-3.604,2.36c-1.299,0.102-2.375-0.385-2.857-1.181c-0.746-1.231-0.187-2.963,0.808-3.604
		c1.324-0.853,3.323-0.633,5.653-0.683C191.479,177.009,191.902,178.002,191.66,179z"/>
</g>
<g>
	<g>
		<path fill-rule="evenodd" clip-rule="evenodd" fill="#FFFFFF" d="M125,72.486c27.234,0,49.24,15.819,49.312,35.334
			c0.064,17.473-11.648,21.614-18.12,20.578c0,0-9.578-1.553-9.319-12.942V96.948L125,84.976l-21.873,11.973v18.508
			c0.258,11.39-9.318,12.942-9.318,12.942c-6.473,1.036-18.185-3.105-18.12-20.578C75.761,88.306,97.766,72.486,125,72.486z"/>
	</g>
	
		<rect x="96.182" y="89.562" transform="matrix(0.876 -0.4823 0.4823 0.876 -29.767 65.7921)" fill="#FFFFFF" width="33.809" height="2.466"/>
	
		<rect x="120.008" y="89.562" transform="matrix(-0.876 -0.4822 0.4822 -0.876 213.0693 236.3598)" fill="#FFFFFF" width="33.81" height="2.465"/>
</g>
</svg>
