<?xml version="1.0" encoding="utf-8"?>
<!-- Generator: Adobe Illustrator 16.0.0, SVG Export Plug-In . SVG Version: 6.00 Build 0)  -->
<!DOCTYPE svg PUBLIC "-//W3C//DTD SVG 1.1//EN" "http://www.w3.org/Graphics/SVG/1.1/DTD/svg11.dtd">
<svg version="1.1" id="Layer_1" xmlns="http://www.w3.org/2000/svg" xmlns:xlink="http://www.w3.org/1999/xlink" x="0px" y="0px"
	 width="250px" height="250px" viewBox="0 0 250 250" enable-background="new 0 0 250 250" xml:space="preserve">
<g>
	<path fill="#666666" d="M176.968,173.097h-14.356c-4.154,0-8.096,2.06-8.096,7.27v4.075c0,4.409,1.867,6.195,6.371,6.939
		c2.643,0.434,6.473,0.648,8.904,0.648c2.428,0,6.258-0.215,8.896-0.648c4.521-0.744,6.406-2.53,6.406-6.939v-4.075
		C185.094,175.156,181.146,173.097,176.968,173.097 M176.537,184.02c0,1.491-1.208,2.687-2.703,2.687h-8.209
		c-0.975,0-1.617-0.483-1.914-0.778c-0.299-0.305-0.795-0.94-0.795-1.908v-3.684c0-0.981,0.496-1.626,0.795-1.912
		c0.297-0.3,0.939-0.797,1.914-0.797h8.209c0.98,0,1.616,0.497,1.943,0.797c0.271,0.3,0.76,0.931,0.76,1.912V184.02z"/>
	<path fill="#666666" d="M85.025,176.566c0,1.558-1.037,2.332-2.141,2.332h-7.229c-1.07,0-2.131-0.774-2.131-2.332v-2.79h-7.791
		v16.762h7.791v-3.304c0-1.518,1.061-2.306,2.131-2.306h7.229c1.104,0,2.141,0.788,2.141,2.306v3.304h8.834v-16.762h-8.834V176.566z
		"/>
	<path fill="#666666" d="M138.562,57.982c-8.785,0.345-7.401,4.643-1.689,6.541c5.717,1.894,31.809,10.242,33.777,26.172
		c0.762,5.904-10.152,6.76-45.655,6.765c-35.661,0-46.415-0.86-45.681-6.765c1.982-15.93,28.061-24.278,33.791-26.172
		c5.727-1.898,7.086-6.196-1.691-6.541c-10.602-0.431-58.576,10.297-58.576,46.232c-0.021,35.806,47.975,46.667,58.576,46.233
		c8.777-0.336,7.418-4.647,1.691-6.542c-5.73-1.897-31.809-10.256-33.791-26.18c-0.734-5.914,10.251-6.828,45.681-6.756
		c35.503,0.067,46.417,0.842,45.655,6.756c-1.969,15.924-28.061,24.273-33.777,26.18c-5.712,1.895-7.096,6.206,1.689,6.542
		c10.587,0.434,58.602-10.454,58.602-46.233C197.164,68.279,149.149,57.552,138.562,57.982 M125.184,99.402
		c45.965,0,43.232-0.774,47.93-2.861c1.012-0.442,1.664-0.541,2.033-0.3c0.376,0.246,0.859,0.547,1.727,1.035
		c0.833,0.496,1.281,1.101,0.051,1.526c-5.748,2.001-43.221,1.947-51.74,1.947c-8.505,0-45.995,0.054-51.734-1.947
		c-1.234-0.426-0.785-1.03,0.076-1.526c0.842-0.488,1.334-0.789,1.705-1.035c0.357-0.241,1.008-0.143,2.01,0.3
		C81.953,98.628,79.224,99.402,125.184,99.402 M194.4,105.285c-0.117,2.789-0.922,0.904-1.02-0.152
		c-0.045-1.083-0.973-11.998-9.604-21.148c-0.999-1.035-1.6-0.735-0.854,0.555c0.716,1.28,7.216,9.813,6.656,21.287
		c-0.54,11.457-9.429,33.081-48.778,41.336c-1.125,0.246-3.902,0-0.051-1.089c3.868-1.11,29.809-6.89,40.883-25.562
		c10.391-17.559-6.058-15.615-14.309-15.786c-7.494-0.173-30.258-0.03-40.686-0.013v0.013h-1.455h-1.436v-0.013
		c-10.449-0.018-33.217-0.16-40.691,0.013c-8.262,0.171-24.707-1.772-14.309,15.786c11.041,18.673,37.029,24.452,40.859,25.562
		c3.873,1.089,1.125,1.33-0.053,1.089c-39.311-8.255-48.225-29.879-48.789-41.336c-0.536-11.474,5.964-20.007,6.684-21.287
		c0.734-1.29,0.121-1.59-0.871-0.555c-8.638,9.15-9.547,20.065-9.627,21.148c-0.055,1.057-0.857,2.941-0.971,0.152
		c-0.176-3.847,1.369-18.834,17.123-30.402c15.746-11.546,30.734-13.463,34.253-14.071c3.528-0.622,7.154-0.318,0.461,1.45
		c-27.165,7.159-35.935,18.754-40.999,29.239c-5.1,10.498,4.902,10.498,11.505,10.722c6.421,0.225,29.894,0.291,46.86,0.305
		c16.967-0.014,40.441-0.08,46.877-0.305c6.576-0.224,16.574-0.224,11.502-10.722c-5.062-10.485-13.852-22.08-41.04-29.239
		c-6.655-1.769-3.044-2.072,0.479-1.45c3.535,0.608,18.521,2.525,34.256,14.071C193.017,86.451,194.566,101.438,194.4,105.285"/>
	<g>
		<rect x="102.594" y="173.776" fill="#666666" width="6.748" height="16.762"/>
	</g>
	<path fill="#666666" d="M139.254,178.63c0,0.851-0.346,1.106-1.02,1.106c-1.004,0-10.621-5.96-11.584-5.96h-8.616v16.776h8.616
		v-6.967c0-0.637,0.41-1.119,1.096-1.119c1.148,0,3.316,0.783,10.062,5.569c1.521,1.078,1.445,1.92,1.445,2.488v0.028h8.586v-16.776
		h-8.586V178.63z"/>
</g>
</svg>
