<?xml version="1.0" encoding="utf-8"?>
<!-- Generator: Adobe Illustrator 16.0.0, SVG Export Plug-In . SVG Version: 6.00 Build 0)  -->
<!DOCTYPE svg PUBLIC "-//W3C//DTD SVG 1.1//EN" "http://www.w3.org/Graphics/SVG/1.1/DTD/svg11.dtd">
<svg version="1.1" id="Layer_1" xmlns="http://www.w3.org/2000/svg" xmlns:xlink="http://www.w3.org/1999/xlink" x="0px" y="0px"
	 width="250px" height="250px" viewBox="0 0 250 250" enable-background="new 0 0 250 250" xml:space="preserve">
<g>
	<path fill="#666666" d="M71.82,127.385c0.584,2.942,1.283,5.852,2.408,8.647c0.676,1.591,1.389,3.162,2.391,4.593
		c1.889,2.713,4.395,4.703,7.434,6.012c1.24,0.539,2.496,1.002,3.787,1.386c3.59,1.084,7.295,1.635,11.02,1.939
		c3.566,0.303,7.158,0.551,10.743,0.688c5.181,0.193,10.343,0.258,14.388,0.35c4.336-0.063,7.521-0.102,10.702-0.156
		c4.473-0.106,8.964-0.276,13.456-0.607c3.341-0.233,6.664-0.556,9.975-1.177c2.703-0.506,5.369-1.196,7.889-2.307
		c4.207-1.849,7.383-4.767,9.291-8.974c0.804-1.775,1.507-3.572,2.027-5.448c0.998-3.58,1.66-7.221,2.17-10.89
		c0.482-3.631,0.887-7.281,1.254-10.927c0.364-3.631,0.594-7.281,0.672-10.922c0.133-5.856,0.191-11.709-0.308-17.556
		c-0.189-2.252-0.566-4.459-1.274-6.605c-1.167-3.646-3.157-6.735-6.233-9.062c-1.995-1.489-4.197-2.509-6.527-3.272
		c-3.136-1.021-6.353-1.568-9.612-1.968c-3.967-0.478-7.975-0.818-11.966-1.001c-4.147-0.212-8.293-0.359-12.427-0.451
		c-5.542-0.138-11.096-0.106-16.663,0.009c-6.263,0.129-12.509,0.386-18.751,0.947c-3.107,0.285-6.22,0.606-9.291,1.177
		c-2.592,0.487-5.153,1.14-7.571,2.197c-4.146,1.793-7.317,4.634-9.296,8.734c-1.107,2.326-1.77,4.79-2.104,7.327
		c-0.373,2.69-0.521,5.397-0.557,8.1c-0.041,3.484-0.064,6.956,0,10.435c0.097,6.225,0.688,12.421,1.387,18.609
		C70.625,120.623,71.162,124.016,71.82,127.385 M74.498,93.602c0.075-2.979,0.18-5.958,0.369-8.923
		c0.156-2.634,0.445-5.226,1.231-7.773c1.007-3.227,2.728-5.958,5.509-7.953c1.576-1.131,3.332-1.931,5.172-2.537
		c2.035-0.682,4.132-1.104,6.241-1.37c2.938-0.373,5.89-0.713,8.849-0.998c2.066-0.198,4.148-0.309,6.234-0.41
		c3.449-0.156,6.89-0.353,10.338-0.386c5.062-0.046,10.132-0.046,15.204,0.051c3.829,0.079,7.652,0.28,11.515,0.501
		c4.086,0.23,8.201,0.635,12.26,1.26c2.648,0.386,5.256,0.929,7.713,1.954c3.025,1.236,5.525,3.103,7.281,5.898
		c1.014,1.609,1.666,3.37,2.121,5.208c0.446,1.853,0.684,3.737,0.826,5.631c0.475,5.654,0.535,11.318,0.414,16.981
		c-0.078,3.364-0.307,6.716-0.643,10.058c-0.259,2.744-0.506,5.475-0.837,8.196c-0.547,4.441-1.265,8.845-2.667,13.129
		c-0.46,1.466-1.029,2.896-1.74,4.262c-1.768,3.43-4.455,5.828-8.015,7.308c-2.188,0.903-4.472,1.435-6.786,1.804
		c-3.979,0.652-8.002,0.96-12.039,1.188c-5.492,0.296-11.041,0.447-16.576,0.447h-1.318v0.078
		c-4.777-0.109-9.554-0.173-14.344-0.362c-3.479-0.139-6.963-0.392-10.421-0.681c-2.896-0.248-5.745-0.647-8.556-1.347
		c-1.401-0.354-2.748-0.818-4.031-1.401c-3.47-1.591-6.004-4.129-7.626-7.535c-1.103-2.267-1.861-4.653-2.454-7.076
		c-0.805-3.322-1.376-6.692-1.756-10.085c-0.396-3.797-0.792-7.604-1.086-11.4C74.473,102.74,74.42,98.167,74.498,93.602"/>
	<path fill="#666666" d="M45.244,169.343c0.277,0.045,0.516,0.092,0.764,0.11c0.744,0.1,1.527,0.173,2.299,0.261
		c0.922,0.115,1.406,0.574,1.553,1.495c0.039,0.114,0.064,0.225,0.064,0.339c0,1.278-0.02,2.538-0.02,3.807
		c0,0.028-0.045,0.064-0.059,0.098c-0.689,0.113-13.97,0.077-14.407-0.048v-2.117c0.024-0.672,0-1.348,0.042-2.005
		c0.102-0.919,0.607-1.425,1.508-1.555c0.414-0.073,0.856-0.092,1.269-0.146c0.63-0.068,1.245-0.146,1.885-0.238
		c0-0.579,0.013-1.095,0-1.624c-0.022-0.511,0.063-1.025-0.045-1.522H21.312v3.146c0.286,0.045,0.523,0.092,0.773,0.11
		c0.754,0.1,1.517,0.173,2.297,0.261c0.924,0.115,1.407,0.566,1.59,1.486c0.038,0.265,0.038,0.536,0.038,0.804v11.753
		c0,0.3,0,0.579-0.051,0.865c-0.18,0.902-0.667,1.333-1.567,1.439c-0.777,0.097-1.526,0.17-2.293,0.257
		c-0.271,0.038-0.529,0.088-0.777,0.123v3.082c0.635,0.128,18.369,0.104,18.797-0.023v-3.08c-0.971-0.115-1.937-0.243-2.892-0.34
		c-1.167-0.125-1.711-0.612-1.751-1.799c-0.038-1.276-0.014-2.564-0.014-3.853c0-0.035,0.045-0.054,0.054-0.087
		c0.792-0.123,13.948-0.083,14.407,0.052c0,1.241,0,2.473,0,3.723c0,0.156-0.025,0.314-0.064,0.466
		c-0.146,0.886-0.606,1.356-1.508,1.475c-0.428,0.054-0.836,0.087-1.269,0.137c-0.593,0.076-1.222,0.158-1.825,0.227v3.139h18.771
		v-3.134c-0.324-0.047-0.617-0.082-0.912-0.12c-0.74-0.083-1.48-0.156-2.232-0.248c-0.852-0.118-1.297-0.561-1.472-1.416
		c-0.052-0.308-0.065-0.636-0.065-0.957c-0.01-3.874-0.01-7.727,0-11.593c0-0.303,0.014-0.612,0.055-0.919
		c0.186-0.915,0.682-1.343,1.614-1.463c0.428-0.055,0.888-0.09,1.311-0.138c0.565-0.068,1.122-0.146,1.702-0.22v-3.155H45.244
		V169.343z"/>
	<path fill="#666666" d="M130.758,166.253v3.08c0.115,0.021,0.211,0.045,0.317,0.055c0.892,0.115,1.792,0.222,2.702,0.321
		c1.002,0.12,1.508,0.616,1.623,1.614c0.031,0.151,0.031,0.307,0.031,0.461v11.174c0,0.12-0.031,0.234-0.059,0.433
		c-0.211-0.258-0.354-0.442-0.471-0.617c-3.934-5.143-7.846-10.278-11.734-15.436c-0.578-0.763-1.251-1.172-2.188-1.172
		c-0.158,0-0.323-0.005-0.469-0.005H105.01c-0.155,0-0.32,0.019-0.52,0.035v3.146c0.235,0.035,0.445,0.082,0.639,0.105
		c0.791,0.093,1.56,0.171,2.373,0.261c0.966,0.102,1.469,0.571,1.641,1.55c0.051,0.272,0.027,0.541,0.027,0.804
		c0.023,3.891,0.023,7.762,0.023,11.645c0,0.208,0,0.418-0.037,0.629c-0.088,1.087-0.616,1.619-1.719,1.739
		c-0.428,0.04-0.865,0.083-1.316,0.142c-0.545,0.068-1.088,0.146-1.631,0.218v3.089c0.617,0.123,14.545,0.104,14.973-0.01
		c0.097-0.689,0.072-2.675-0.035-3.098c-0.287-0.038-0.568-0.073-0.852-0.106c-0.746-0.088-1.473-0.151-2.184-0.263
		c-0.934-0.108-1.444-0.662-1.535-1.596c-0.014-0.215-0.014-0.418-0.014-0.628c-0.01-3.595,0-7.188,0-10.777v-0.551
		c0.035,0,0.068-0.019,0.129-0.026c0.117,0.166,0.248,0.331,0.381,0.497c3.898,5.147,7.829,10.283,11.713,15.449
		c0.629,0.822,1.393,1.196,2.418,1.191c3.7-0.02,7.396-0.015,11.105-0.015c0.139,0,0.318-0.028,0.496-0.047v-0.757v-16.584
		c0-0.278,0-0.541,0.024-0.804c0.074-1.021,0.628-1.571,1.632-1.691c0.455-0.045,0.891-0.09,1.318-0.146
		c0.58-0.06,1.136-0.146,1.692-0.22v-3.137C144.879,166.095,131.18,166.138,130.758,166.253"/>
	<path fill="#666666" d="M186.097,176.558c-0.286-2.973-1.541-5.44-3.931-7.284c-1.059-0.815-2.257-1.403-3.493-1.871
		c-2.507-0.915-5.122-1.236-7.788-1.241c-7.596-0.019-15.201,0-22.773,0c-0.174,0-0.345,0.01-0.52,0.033v3.177
		c0.827,0.077,1.631,0.165,2.441,0.248c1.488,0.155,1.939,0.652,1.939,2.15v11.987c0,0.267-0.009,0.539-0.047,0.806
		c-0.174,0.95-0.666,1.393-1.631,1.513c-0.441,0.035-0.877,0.083-1.319,0.137c-0.557,0.064-1.136,0.151-1.705,0.223v3.172h0.78
		c7.328,0,14.646,0.005,21.979-0.02c1.338,0,2.693-0.057,4.041-0.184c2.074-0.199,4.086-0.714,5.971-1.619
		c2.681-1.295,4.621-3.245,5.559-6.101C186.142,180.006,186.262,178.288,186.097,176.558 M174.981,181.119
		c-0.149,0.603-0.378,1.215-0.686,1.756c-0.686,1.201-1.821,1.804-3.153,2.042c-0.652,0.113-1.335,0.166-2.001,0.17
		c-2.454,0.031-4.909,0.013-7.354,0.013c-0.17,0-0.336-0.017-0.521-0.026V170.72c0.14-0.012,0.272-0.044,0.411-0.044
		c2.551,0,5.097-0.01,7.652,0c0.865,0.004,1.752,0.11,2.594,0.375c1.318,0.447,2.22,1.298,2.74,2.567
		c0.506,1.184,0.602,2.453,0.661,3.722C175.361,178.619,175.325,179.883,174.981,181.119"/>
	<path fill="#666666" d="M98.933,168.934c-1.732-1.274-3.7-2.028-5.774-2.571c-2.914-0.766-5.911-0.974-8.85-0.998
		c-2.781,0.015-5.457,0.199-8.099,0.778c-2.032,0.446-3.981,1.094-5.747,2.169c-3.567,2.16-5.441,5.315-5.461,9.48
		c-0.037,4.062,1.682,7.22,5.089,9.446c0.938,0.612,1.936,1.089,3.013,1.488c2.367,0.885,4.834,1.329,7.367,1.532
		c3.766,0.288,7.503,0.205,11.222-0.501c2.132-0.414,4.183-1.068,6.063-2.156c3.424-1.978,5.43-4.892,5.677-8.862
		C103.689,174.684,102.257,171.36,98.933,168.934 M92.317,180.783c-0.542,2.569-2.118,4.17-4.651,4.772
		c-2.346,0.548-4.717,0.543-7.044-0.05c-2.519-0.636-4.003-2.281-4.495-4.8c-0.197-0.91-0.248-1.849-0.359-2.787
		c0.062-1.113,0.152-2.195,0.442-3.254c0.593-2.288,2.037-3.761,4.311-4.368c2.354-0.633,4.772-0.633,7.159-0.073
		c2.505,0.607,4.086,2.184,4.629,4.728C92.736,176.891,92.736,178.843,92.317,180.783"/>
	<path fill="#666666" d="M223.524,184.596c-1.733-2.699-3.513-5.369-5.263-8.06c-1.941-2.956-3.895-5.903-5.815-8.867
		c-0.632-0.979-1.435-1.526-2.657-1.526c-5.709,0.028-11.405,0.009-17.12,0.009c-0.161,0-0.331,0.028-0.505,0.043v3.148
		c0.234,0.045,0.445,0.073,0.68,0.105c1.121,0.128,2.207,0.249,3.347,0.381c0.97,0.106,1.444,0.948,1.007,1.834
		c-0.073,0.142-0.142,0.263-0.234,0.399c-2.606,4.221-5.217,8.436-7.811,12.656c-0.109,0.189-0.225,0.364-0.357,0.529
		c-0.363,0.487-0.838,0.764-1.467,0.827c-0.4,0.035-0.84,0.083-1.25,0.123c-0.584,0.073-1.188,0.153-1.766,0.231v3.101
		c0.836,0.135,14.568,0.098,14.986-0.045v-3.061c-0.358-0.047-0.717-0.082-1.062-0.13c-0.603-0.063-1.22-0.097-1.825-0.22
		c-0.98-0.208-1.274-0.919-0.768-1.766c0.27-0.491,0.606-0.938,0.863-1.435c0.207-0.38,0.455-0.468,0.879-0.468
		c4.432,0.017,8.862,0.007,13.294,0.007c0.104,0,0.215-0.021,0.293,0.01c0.12,0.033,0.3,0.09,0.383,0.193
		c0.381,0.575,0.782,1.14,1.099,1.752c0.373,0.666,0.16,1.265-0.557,1.541c-0.414,0.151-0.85,0.215-1.305,0.276
		c-0.718,0.09-1.43,0.156-2.189,0.233v3.11c0.111,0.033,0.152,0.062,0.203,0.062c6.574,0.005,13.144,0.005,19.726,0.005
		c0.083,0,0.194-0.019,0.284-0.033c0.01,0,0.023-0.019,0.033-0.033c0.027,0,0.027-0.025,0.037-0.045v-3.056
		c-0.911-0.111-1.826-0.253-2.703-0.319C224.885,186.025,224.131,185.496,223.524,184.596 M199.4,178.187
		c1.479-2.363,2.899-4.671,4.324-7.006c0.341,0.279,4.239,6.141,4.658,6.986C207.979,178.288,200.264,178.316,199.4,178.187"/>
	<path fill="#666666" d="M91.717,73.196c0.137,2.013,0.26,4.031,0.389,6.036c0.203,3.301,0.428,6.601,0.631,9.892
		c0.174,2.704,0.342,5.412,0.52,8.109c0.202,3.135,0.436,6.289,0.652,9.415c0.152,2.519,0.318,5.03,0.51,7.54
		c0.233,3.429,0.497,6.854,0.73,10.279c0.23,2.795,0.419,5.598,0.64,8.394c0.263,3.236,0.534,6.46,0.805,9.7
		c0.013,0.275,0.061,0.555,0.096,0.822c2.028,0.446,9.479,0.814,11.235,0.787c0.068-0.25,0.143-0.496,0.221-0.754
		c0.961-3.531,1.914-7.076,2.91-10.593c0.543-1.93,1.237-3.797,2.176-5.59c1.148-2.239,2.973-3.494,5.464-3.88
		c2.151-0.34,4.323-0.501,6.492-0.501c2.202,0,4.386,0.161,6.559,0.52c2.363,0.405,4.147,1.609,5.255,3.742
		c0.235,0.46,0.475,0.918,0.686,1.402c0.759,1.752,1.401,3.562,1.898,5.42c0.887,3.162,1.714,6.329,2.579,9.505
		c0.073,0.248,0.155,0.497,0.225,0.729c2.193,0.118,10.205-0.48,11.267-0.848c2.096-25.081,3.664-50.221,5.255-75.417
		c-2.61-0.386-5.194-0.524-7.801-0.594c-0.06,0.221-0.097,0.382-0.134,0.547c-1.048,4.744-2.096,9.479-3.147,14.224
		c-1.554,6.932-3.246,13.827-5.085,20.686c-0.615,2.229-1.334,4.423-2.345,6.5c-1.918,4.019-5.147,6.233-9.553,6.849
		c-1.632,0.23-3.288,0.304-4.937,0.313c-2.424,0.013-4.832,0-7.214-0.451c-2.987-0.542-5.451-1.922-7.336-4.331
		c-0.948-1.2-1.586-2.575-2.157-3.986c-0.97-2.432-1.668-4.951-2.344-7.47c-2.598-10.021-4.858-20.106-7.039-30.211
		c-0.201-0.883-0.402-1.751-0.615-2.671c-2.619,0.061-5.189,0.221-7.781,0.574c0,0.212-0.014,0.354,0,0.483
		C91.504,69.983,91.633,71.582,91.717,73.196"/>
</g>
</svg>
