<?xml version="1.0" encoding="utf-8"?>
<!-- Generator: Adobe Illustrator 16.0.0, SVG Export Plug-In . SVG Version: 6.00 Build 0)  -->
<!DOCTYPE svg PUBLIC "-//W3C//DTD SVG 1.1//EN" "http://www.w3.org/Graphics/SVG/1.1/DTD/svg11.dtd">
<svg version="1.1" id="Layer_1" xmlns="http://www.w3.org/2000/svg" xmlns:xlink="http://www.w3.org/1999/xlink" x="0px" y="0px"
	 width="250px" height="250px" viewBox="0 0 250 250" enable-background="new 0 0 250 250" xml:space="preserve">
<g>
	<polygon fill="#666666" points="29.889,127.713 36.237,127.713 36.237,136.611 49.351,136.611 49.351,113.649 36.237,113.649 
		36.237,122.431 29.889,122.431 29.889,113.649 16.763,113.649 16.763,136.611 29.889,136.611 	"/>
	<path fill="#666666" d="M60.799,136.611h13.744c7.5,0,9.529-5.062,9.529-7.416v-15.559H70.946v15.351
		c0,1.601-0.956,3.389-3.292,3.389c-2.328,0-3.271-1.788-3.271-3.389v-15.351H51.257v15.559
		C51.257,131.55,53.267,136.611,60.799,136.611"/>
	<polygon fill="#666666" points="97.816,126.782 103.216,136.611 108.719,136.611 114.117,126.782 114.117,136.611 126.184,136.611 
		126.184,113.637 111.158,113.637 105.954,122.951 100.783,113.637 85.744,113.637 85.744,136.611 97.816,136.611 	"/>
	<polygon fill="#666666" points="139.935,126.782 145.333,136.611 150.836,136.611 156.229,126.782 156.229,136.611 
		168.281,136.611 168.281,113.637 153.256,113.637 148.085,122.951 142.9,113.637 127.875,113.637 127.875,136.611 139.935,136.611 
			"/>
	<polygon fill="#666666" points="195.393,130.275 183.313,130.275 183.313,127.713 195.393,127.713 195.393,122.431 
		183.313,122.431 183.313,120.005 195.393,120.005 195.393,113.637 169.777,113.637 169.777,136.611 195.393,136.611 	"/>
	<path fill="#666666" d="M230.102,121.247c0-2.85-1.808-7.61-6.895-7.61h-26.129v22.975h13.126v-6.661l5.594,6.661h16.19
		l-6.869-8.145C227.857,128.584,230.102,124.109,230.102,121.247 M213.795,124.239h-3.591v-5.197h4.02
		C217.509,119.042,217.184,124.239,213.795,124.239"/>
	<path fill="#666666" d="M231.299,113.39c-1.041,0-1.938,0.8-1.938,1.893c0,1.125,0.897,1.912,1.938,1.912
		c1.054,0,1.938-0.787,1.938-1.912C233.237,114.189,232.353,113.39,231.299,113.39 M231.299,116.882c-0.872,0-1.555-0.676-1.555-1.6
		c0-0.917,0.683-1.574,1.555-1.574c0.871,0,1.555,0.657,1.555,1.574C232.854,116.206,232.17,116.882,231.299,116.882"/>
	<g>
		<path fill="#666666" d="M230.74,114.319c0.132-0.027,0.321-0.042,0.502-0.042c0.279,0,0.46,0.051,0.586,0.165
			c0.103,0.091,0.159,0.229,0.159,0.385c0,0.268-0.168,0.445-0.382,0.518v0.009c0.156,0.054,0.25,0.198,0.298,0.409
			c0.066,0.282,0.114,0.478,0.156,0.556h-0.271c-0.033-0.057-0.078-0.231-0.135-0.484c-0.061-0.279-0.169-0.385-0.406-0.394h-0.246
			v0.878h-0.262V114.319z M231.002,115.242h0.268c0.279,0,0.457-0.153,0.457-0.385c0-0.262-0.189-0.376-0.467-0.379
			c-0.126,0-0.216,0.013-0.258,0.024V115.242z"/>
	</g>
</g>
</svg>
