<?xml version="1.0" encoding="utf-8"?>
<!-- Generator: Adobe Illustrator 16.0.0, SVG Export Plug-In . SVG Version: 6.00 Build 0)  -->
<!DOCTYPE svg PUBLIC "-//W3C//DTD SVG 1.1//EN" "http://www.w3.org/Graphics/SVG/1.1/DTD/svg11.dtd">
<svg version="1.1" id="Layer_1" xmlns="http://www.w3.org/2000/svg" xmlns:xlink="http://www.w3.org/1999/xlink" x="0px" y="0px"
	 width="250px" height="250px" viewBox="0 0 250 250" enable-background="new 0 0 250 250" xml:space="preserve">
<g>
	<path fill="#666666" d="M51.429,91.49c-3.948,6.005-5.245,12.473-3.065,19.47c1.766,5.616,5.363,9.999,9.738,13.769
		c5.846,5.079,12.584,8.627,19.724,11.425c13.902,5.45,28.401,7.765,43.213,8.273c7.211,0.237,14.424-0.021,21.581-0.796
		c7.435-0.822,14.77-2.11,21.941-4.12c9.35-2.61,18.285-6.155,26.338-11.658c4.967-3.404,9.382-7.361,12.484-12.603
		c3.053-5.096,4.25-10.563,2.969-16.463c-1.042-4.854-3.578-8.882-6.888-12.481c-5.03-5.409-11.155-9.245-17.782-12.381
		c-7.898-3.765-16.203-6.209-24.756-7.902c-5.959-1.18-11.973-2.001-18.061-2.377c-1.385-0.075-2.74-0.229-4.111-0.35h-13.286
		c-0.216,0.05-0.45,0.138-0.667,0.159c-2.277,0.142-4.52,0.237-6.781,0.454c-7.154,0.655-14.244,1.772-21.184,3.54
		c-9.598,2.406-18.831,5.751-27.262,10.951C60.027,81.854,55.049,85.948,51.429,91.49 M143.953,119.471
		c-1.076,6.56-4.246,12.005-9.207,16.396c-1.857,1.626-4.133,2.26-6.497,2.448c-1.677,0.137-3.378,0.187-4.388,0.233
		c-6.133-0.097-11.542-0.681-16.964-1.419c-5.604-0.759-11.183-1.722-16.63-3.248c-1.876-0.525-3.727-1.138-5.512-1.802
		c-1.493-0.607-1.535-1.513-0.305-2.497c11.771-9.382,25.133-15.379,39.727-18.732c3.796-0.884,7.632-1.58,11.577-1.293
		c2.943,0.196,5.629,1.051,7.251,3.829C144.152,115.267,144.307,117.39,143.953,119.471 M181.008,88.863
		c0.637-1.247,1.268-2.514,1.926-3.761c0.838-1.593,1.693-1.981,3.29-1.164c7.573,3.728,12.239,9.666,13.606,18.098
		c0.092,0.583,0,1.238,0,1.839c0.059,4.316-1.518,7.998-4.087,11.33c-3.448,4.528-7.951,7.776-12.885,10.508
		c-8.415,4.667-17.423,7.714-26.913,9.353c-0.4,0.05-1.168-0.062-1.213-0.246c-0.164-0.455-0.104-1.113,0.146-1.484
		c1.21-1.734,2.519-3.424,3.82-5.134c4.62-6.108,8.54-12.664,12.177-19.39C174.423,102.253,177.646,95.539,181.008,88.863
		 M117.557,73.613c2.911-3.056,6.531-4.361,10.705-4.491c10.512-0.363,20.849,0.951,31.028,3.482
		c2.752,0.663,5.491,1.539,8.206,2.401c0.859,0.288,1.676,0.717,2.443,1.201c0.936,0.655,0.998,1.501,0.225,2.344
		c-0.508,0.55-1.104,1.055-1.775,1.438c-10.667,6.601-21.941,12.084-33.864,16.08c-4.532,1.468-9.128,2.635-13.919,2.873
		c-2.061,0.104-4.092-0.133-6.026-0.971c-3.085-1.409-4.04-3.966-3.978-7.811C111.118,84.397,112.971,78.45,117.557,73.613
		 M94.559,73.155c1.59-0.409,3.316-0.438,4.996-0.458c1.422-0.005,1.738,0.679,0.893,1.813c-2.323,3.082-4.732,6.042-7.01,9.132
		c-8.201,11.155-15.312,22.885-20.033,35.945c-0.416,1.217-1.008,2.365-1.697,3.407c-0.925,1.501-1.98,1.76-3.637,1.218
		c-1.996-0.742-3.598-2.031-5.107-3.453c-3.361-3.248-6.367-6.776-7.914-11.267c-0.605-1.756-0.826-3.641-1.256-5.472
		c0.097-0.042,0.172-0.058,0.238-0.066c0.05-4.574,2.002-8.415,4.887-11.851c3.295-3.966,7.447-6.943,11.885-9.503
		C78.242,78.267,86.277,75.423,94.559,73.155"/>
	<path fill="#666666" d="M178.905,156.296c-0.56-0.084-1.167-0.116-1.76-0.116h-22.146c-0.313,0-0.638,0.05-1.03,0.066v1.142v28.185
		c0,0.363-0.041,0.764-0.054,1.131h25.169c0.321-0.121,0.656-0.241,0.977-0.367c1.914-0.642,3.031-2.014,3.379-3.953
		c0.179-0.759,0.211-1.521,0.211-2.272c0.025-3.728,0-7.401,0-11.101c0-2.197,0.066-4.387-0.032-6.563
		C183.504,158.66,182.096,156.908,178.905,156.296 M174.682,176.513c-0.1,2.205-0.705,2.772-2.865,2.797h-8.812v-15.846
		c3.174,0,6.302-0.033,9.429,0.021c1.335,0.034,1.859,0.681,2.094,1.99c0.1,0.425,0.154,0.866,0.154,1.301
		c0.017,3.093,0,6.208,0,9.315C174.682,176.257,174.698,176.369,174.682,176.513"/>
	<path fill="#666666" d="M217.018,157.201v-1.06c-0.402-0.017-0.661-0.059-0.916-0.059c-7.021,0.042-14.062,0.059-21.1,0.097
		c-0.301,0-0.58,0.05-0.867,0.066c-3.688,0.22-6.293,2.701-6.311,6.363c-0.086,8.047-0.032,16.074-0.032,24.094h8.669v-6.676h11.701
		v6.676h8.869c-0.014-0.346-0.028-0.704-0.028-1.055C217.003,176.175,217.018,166.671,217.018,157.201 M208.146,172.3h-11.685
		c0-2.218-0.059-4.428,0.045-6.634c0.014-1.151,0.818-1.951,1.982-2.011c2.293-0.154,4.645-0.112,6.963-0.154
		c0.877-0.017,1.781,0,2.694,0V172.3z"/>
	<path fill="#666666" d="M115.255,156.083c-2.411,0-4.845,0.042-7.247-0.025c-0.843-0.008-1.051,0.276-1.039,1.064
		c0.029,6.63,0.029,13.31,0,19.953c0,1.726-0.518,2.197-2.197,2.218H96.34h-0.976v-23.135h-9.032v1.229
		c0,5.877-0.021,11.744,0,17.619c0,3.915,0,7.802,0.025,11.696h25.365c0.092-0.017,0.158-0.134,0.271-0.154
		c2.485-0.43,3.715-2.006,4.053-4.375c0.125-0.725,0.2-1.479,0.2-2.218c0.034-7.577,0.034-15.199,0.038-22.755v-1.06
		C115.901,156.125,115.563,156.083,115.255,156.083"/>
	<path fill="#666666" d="M149.975,168.572c0-2.386-0.034-4.758-0.184-7.085c-0.189-2.522-1.543-4.253-3.762-4.846
		c-1.197-0.296-2.432-0.517-3.637-0.517c-7.18-0.075-14.369-0.067-21.546-0.067c-0.241,0-0.446,0.025-0.78,0.055v1.01v7.701
		c0,7.302,0,14.574-0.021,21.88h9.044c0-7.635,0-15.241-0.032-22.881c0-0.07,0.042-0.142,0.075-0.279
		c0.158-0.042,0.316-0.079,0.484-0.079c2.998-0.013,6.037-0.025,9.035-0.013c1.41,0,2.022,0.604,2.022,2.023
		c0.017,6.926,0,13.873,0,20.799c0,0.154-0.032,0.309-0.075,0.43h9.425c-0.042-0.154-0.084-0.346-0.084-0.496
		C149.975,180.299,149.982,174.419,149.975,168.572"/>
	<path fill="#666666" d="M41.195,156.083c-0.6,0-0.517,0.43-0.517,0.825v8.365v1.723H29.037v-10.913h-1.119
		c-2.51-0.025-5.004-0.033-7.53-0.062v30.683h8.694v-12.005h11.705v12.005h9.049c0.016-0.062,0.016-0.154,0.016-0.241v-29.636
		c0-0.209-0.057-0.442-0.091-0.714C46.859,156.083,44.031,156.112,41.195,156.083"/>
	<path fill="#666666" d="M76.545,156.125c-0.28,0-0.672,0.316-0.851,0.587c-2.261,3.107-4.45,6.268-6.692,9.37
		c-0.143,0.259-0.352,0.472-0.584,0.785c-0.234-0.338-0.375-0.547-0.518-0.785c-2.018-3.068-4.054-6.163-6.072-9.256
		c-0.273-0.413-0.545-0.668-1.117-0.668c-2.773,0-5.541-0.033-8.327-0.075h-1.13c0.324,0.475,0.476,0.743,0.659,0.997
		c3.277,4.929,6.472,9.924,9.899,14.774c1.435,2.026,2.113,4.044,1.942,6.555c-0.194,2.756-0.075,5.534-0.1,8.294h9.049
		c0-3.729,0-7.493,0.046-11.242c0-0.454,0.171-0.996,0.422-1.393c3.932-5.692,7.885-11.405,11.826-17.098
		c0.166-0.225,0.303-0.471,0.467-0.741c-0.15-0.071-0.229-0.117-0.321-0.117C82.295,156.112,79.409,156.058,76.545,156.125"/>
	<path fill="#666666" d="M221.16,157.234c0.045,9.437,0.033,18.902,0.033,28.338c0,0.363-0.078,0.764-0.078,1.131h8.497v-30.474
		c-2.431-0.071-4.896-0.05-7.343-0.172C221.355,156.021,221.16,156.362,221.16,157.234"/>
</g>
</svg>
