<?xml version="1.0" encoding="utf-8"?>
<!-- Generator: Adobe Illustrator 16.0.0, SVG Export Plug-In . SVG Version: 6.00 Build 0)  -->
<!DOCTYPE svg PUBLIC "-//W3C//DTD SVG 1.1//EN" "http://www.w3.org/Graphics/SVG/1.1/DTD/svg11.dtd">
<svg version="1.1" id="Layer_1" xmlns="http://www.w3.org/2000/svg" xmlns:xlink="http://www.w3.org/1999/xlink" x="0px" y="0px"
	 width="250px" height="250px" viewBox="0 0 250 250" enable-background="new 0 0 250 250" xml:space="preserve">
<g>
	<g>
		<polygon fill="#666666" points="79.18,177.889 81.244,177.889 81.244,172.86 84.834,172.86 84.834,171.236 81.244,171.236 
			81.244,168.427 85.061,168.427 85.061,166.803 79.18,166.803 		"/>
	</g>
	<g>
		<rect x="170.992" y="166.889" fill="#666666" width="1.678" height="11.081"/>
	</g>
	<g>
		<polygon fill="#666666" points="197.773,168.454 200.209,168.454 200.209,177.92 202.283,177.92 202.283,168.454 204.719,168.454 
			204.719,166.835 197.773,166.835 		"/>
	</g>
	<g>
		<rect x="19.025" y="166.889" fill="#666666" width="1.695" height="11.081"/>
	</g>
	<g>
		<polygon fill="#666666" points="143.203,175.146 143.238,175.236 143.203,175.236 143.203,175.146 140.389,166.789 
			137.943,166.789 137.943,177.875 139.703,177.875 139.703,169.527 142.59,177.875 144.988,177.875 144.988,166.789 
			143.211,166.789 		"/>
	</g>
	<g>
		<rect x="229.279" y="166.889" fill="#666666" width="1.697" height="11.081"/>
	</g>
	<g>
		<rect x="110.154" y="166.889" fill="#666666" width="1.686" height="11.081"/>
	</g>
	<g>
		<polygon fill="#666666" points="51.74,175.146 51.775,175.236 51.74,175.236 51.74,175.146 48.926,166.789 46.482,166.789 
			46.482,177.875 48.213,177.875 48.213,169.527 51.117,177.875 53.535,177.875 53.535,166.789 51.75,166.789 		"/>
	</g>
	<g>
		<path fill="#666666" d="M124.973,72.03c-44.783,0-81.107,18.252-81.107,40.757c0,18.221,23.822,33.645,56.654,38.857
			l24.453-58.214l24.463,58.214c32.859-5.213,56.654-20.637,56.654-38.857C206.09,90.282,169.785,72.03,124.973,72.03
			 M162.227,133.235l-37.254-43.098l-37.09,42.98c-18.283-5.088-30.324-13.986-30.324-24.922c0-17.336,29.955-33.608,67.361-33.608
			c37.387,0,68.064,16.272,68.064,33.608C192.984,119.218,180.734,128.175,162.227,133.235"/>
	</g>
</g>
</svg>
