<?xml version="1.0" encoding="utf-8"?>
<!-- Generator: Adobe Illustrator 16.0.0, SVG Export Plug-In . SVG Version: 6.00 Build 0)  -->
<!DOCTYPE svg PUBLIC "-//W3C//DTD SVG 1.1//EN" "http://www.w3.org/Graphics/SVG/1.1/DTD/svg11.dtd">
<svg version="1.1" id="Layer_1" xmlns="http://www.w3.org/2000/svg" xmlns:xlink="http://www.w3.org/1999/xlink" x="0px" y="0px"
	 width="250px" height="250px" viewBox="0 0 250 250" enable-background="new 0 0 250 250" xml:space="preserve">
<g>
	<path fill="#666666" d="M28.811,107.554h-6.838c-1.268,0-1.854,0.604-1.854,1.832v31.181c0,1.233,0.621,1.815,1.854,1.815
		l6.859,0.013c1.263,0,1.818-0.638,1.818-1.845v-31.164C30.65,108.136,30.039,107.554,28.811,107.554"/>
	<path fill="#666666" d="M75.183,124.634c-3.626-1.164-23.176-7.333-24.077-7.613c-0.719-0.216-0.732-0.707-0.629-1.043
		c0.073-0.337,0.375-0.483,0.961-0.483c0.646,0,26.775,0.005,26.775,0.005c1.237,0,1.803-0.565,1.803-1.833v-4.28
		c0-1.229-0.543-1.832-1.811-1.832H51.08c-7.51,0-10.742,4.112-10.742,8.897c0,3.789,1.84,6.885,6.711,8.519
		c1,0.337,24.357,7.733,25.064,7.958c0.668,0.225,0.759,0.764,0.646,1.073c-0.111,0.366-0.379,0.565-0.936,0.565H42.117
		c-1.258,0-1.857,0.586-1.857,1.827v4.147c0,1.354,0.557,1.854,1.871,1.854c0,0,27.297,0.034,29.875-0.013
		c6.832-0.082,10.812-2.807,10.812-8.57C82.817,128.996,80.727,126.427,75.183,124.634"/>
	<path fill="#666666" d="M129.069,107.554l-6.919-0.013c-1.314,0-1.85,0.595-1.85,1.823v19.766c0,3.285-0.5,5.221-5,5.362
		c-1.044,0.03-2.953,0.048-4.342,0.048s-2.987-0.018-4.043-0.048c-4.502-0.142-5.299-2.077-5.299-5.362v-19.766
		c0-1.25-0.612-1.811-1.832-1.811h-6.906c-1.264,0-1.807,0.586-1.807,1.811c0,0,0.01,17.468,0.01,21.421
		c0,5.505,1.232,11.454,11.6,11.575c3.785,0.043,8.277,0.099,8.277,0.099s4.212-0.039,8.01-0.099
		c10.976-0.182,11.933-5.82,11.933-11.575v-21.399C130.901,108.148,130.346,107.554,129.069,107.554"/>
	<path fill="#666666" d="M228.065,107.554l-6.944-0.013c-1.298,0-1.842,0.595-1.842,1.823v19.766c0,3.285-0.5,5.221-4.991,5.362
		c-1.044,0.03-2.966,0.048-4.341,0.048c-1.389,0-2.992-0.018-4.049-0.048c-4.5-0.142-5.303-2.077-5.303-5.362v-19.766
		c0-1.25-0.604-1.811-1.827-1.811h-6.901c-1.276,0-1.82,0.586-1.82,1.811v21.421c0,5.505,1.255,11.454,11.623,11.575
		c3.785,0.043,8.277,0.099,8.277,0.099s4.207-0.039,7.988-0.099c10.996-0.182,11.945-5.82,11.945-11.575v-21.399
		C229.902,108.148,229.324,107.554,228.065,107.554"/>
	<path fill="#666666" d="M179.856,134.566h-29.741c-0.535,0-0.797-0.199-0.914-0.561c-0.111-0.314-0.034-0.854,0.66-1.082
		c0.686-0.221,24.055-7.609,25.051-7.954c4.875-1.646,6.712-4.729,6.712-8.519c0-4.785-3.233-8.897-10.743-8.897h-27.12
		c-1.28,0-1.837,0.604-1.837,1.832v4.28c0,1.268,0.578,1.833,1.824,1.833c0,0,26.12-0.005,26.788-0.005
		c0.577,0,0.866,0.146,0.962,0.483c0.082,0.336,0.068,0.827-0.63,1.043c-0.901,0.28-20.485,6.444-24.099,7.613
		c-5.543,1.793-7.625,4.362-7.625,9.178c0,5.764,3.97,8.488,10.799,8.57c2.568,0.047,29.887,0.004,29.887,0.004
		c1.307,0,1.871-0.491,1.871-1.845v-4.147C181.701,135.152,181.115,134.566,179.856,134.566"/>
</g>
</svg>
