<?xml version="1.0" encoding="utf-8"?>
<!-- Generator: Adobe Illustrator 16.0.0, SVG Export Plug-In . SVG Version: 6.00 Build 0)  -->
<!DOCTYPE svg PUBLIC "-//W3C//DTD SVG 1.1//EN" "http://www.w3.org/Graphics/SVG/1.1/DTD/svg11.dtd">
<svg version="1.1" id="Layer_1" xmlns="http://www.w3.org/2000/svg" xmlns:xlink="http://www.w3.org/1999/xlink" x="0px" y="0px"
	 width="250px" height="250px" viewBox="0 0 250 250" enable-background="new 0 0 250 250" xml:space="preserve">
<g>
	<path fill="#666666" d="M61.576,81.836c0.938,0.019,2.012-0.362,2.725-0.705c0.498-0.241,0.832-0.428,0.785-0.428
		c-0.646-0.016-1.713-0.023-2.102-0.023c-1.705,0-2.6,0.973-2.6,1.043c-0.023,0.051,0.217,0.082,0.592,0.094
		C61.135,81.836,61.334,81.836,61.576,81.836"/>
	<path fill="#666666" d="M43.205,96.638c0.334,0.572,0.641,1.362,1.055,1.845c0.596,0.724,1.805,1.942,3.518,1.65
		c0.74-0.121,0.752-0.35,0.752-0.35c0.871,0.848,2.23,0.817,2.23,0.817c-0.156-0.541-0.764-1.588-0.85-2.242
		c-0.086-0.712,0.117-1.377,0.117-1.377c0.254-0.802,0.725-1.802,1.25-2.312c0.455-0.467,1.654-0.977,2.596-0.335
		c0.762,0.545,1.658,2.296,0.914,4.792c-0.047,0.175-0.875,1.958-1.76,2.218c0,0-0.084,0.031-0.252,0.031
		c-0.596,0-1.717-0.634-1.717-0.634s-0.031,0.163,0.121,0.821c0.098,0.354,0.252,0.759,0.35,1.082c0,0-0.232,0.381-0.35,0.603
		c-0.203,0.249-0.42,1.109,0.051,1.467c0,0,1.988,1.343,3.9,1.444c1.322,0.074,1.82-0.81,1.82-0.81
		c0.969-1.332,1.713-2.464,2.729-3.398c2.811-2.569,6.742-3.246,6.742-3.246c0.26-0.027,4.561-1.238,11.898,4.604
		c-2.104,0.148-4.598,0.666-6.492,0.996c-5.414,0.973-8.898,6.041-9.891,8.119c-2.639,5.414,2.736,7.271,2.736,7.271
		c0.039-0.05,5.125-0.443,7.578-5.811c0,0,0.902-2.409,3.273-1.635c1.58,0.514,15.354,5.313,18.457,6.123
		c0,0,9.232,2.39,12.723-1.833c5.531,1.821,10.742,2.693,24.389,0.942c2.391-0.323,4.242-0.234,4.242-0.234
		c3.195,0.234,6.111,2.375,6.971,3.787c3.605,5.71,8.15,17.083,23.977,15.713l7.162-0.646c4.357-0.257,7.896-0.451,11.52,1.456
		c1.561,0.817,2.441,1.112,5.088,3.643c3.643,3.464,7.002,7.2,11.467,5.173c1.584-0.731,3.361-3.546,3.361-3.546
		c-0.186-1.272-0.73-2.534-2.168-3.581c4.045,0.946,13.176,1.564,16.717-4.593c0.912-1.439,1.01-2.709,0.658-3.487
		c-0.973-2.145-3.65-1.451-3.65-1.451c-1.27,0.276-2.697,1.716-4.842,2.366c-4.602,1.343-8.307-0.226-8.307-0.226
		c-7.096-3.079-29.934-16.079-41.549-21.781c0,0-13.479-6.235-33.053-13.958c0,0-38.465-16.339-64.139-15.016
		c0,0-13.686,0.374-17.99,6.375c0,0-0.707,0.825-0.318,1.74c0,0,0.102,0.253-0.082,0.42c0,0-2.289,2.059-3.479,3.912
		c-0.41,0.634-0.799,1.72-0.012,2.538C42.668,96.085,43.037,96.393,43.205,96.638 M44.48,94.594
		c1.371-3.106,3.955-3.546,4.297-3.608c0.367-0.031,1.549-0.21,1.549-0.21c3.293-0.56,4.865-3.985,4.865-3.985
		c-2.221-0.031-3.311,0.128-3.311,0.128c-2.176,0.385-2.932,2.954-2.932,2.931c-1.838,0.444-1.807-1.164-1.475-1.635
		c0.287-0.451,1.373-2.347,8.496-3.993c0,0,3.502-1.051,11.012-0.716l-0.32,0.557c-0.658,1.265-3.289,3.846-7.66,2.892
		c0,0,0.055,1.93,4.77,2.6c0,0,4.281,0.767,11.5,6.551c0,0-3.455-6.846-9.322-8.617c0,0-0.734-0.132-0.381-0.611
		c0,0,3.627-3.339,8.295-3.483c0,0,15.803-1.526,24.57,10.517c0,0-2.643-5.11-4.646-7.333c0,0,9.17,2.588,23.299,7.481
		c0,0,9.621,3.378,15.768,5.807c8.328,3.254,29.121,11.33,42.412,18.554c2.355,1.276,26.354,13.736,26.354,13.736
		c6.641,2.981,11.25,1.194,11.25,1.194c1.494-0.58,4.188-2.674,5.391-1.486c0.602,0.614,0.691,1.428,0.408,2.233
		c-0.361,1.18-2.07,2.771-4.137,3.714c-2.215,0.957-6.754,1.214-9.381,0.79c-0.008,0-5.111-0.521-9.559-5.165
		c-1.426-1.46-3.154-3.126-4.75-4.775c-0.703-0.736-2.443-2.456-5.32-2.842c-2.988-0.412-10.33-0.604-13.066-1.51
		c-1.848-0.623-4.07-1.861-7.014-6.212c-1.428-2.098-2.439-2.662-4.379-3.892c0,0,1.488,1.187,2.332,2.654
		c1.203,2.164,1.846,3.737,2.5,4.873c0.648,1.164,1.396,2.172,2.529,3.079c1.385,1.137,2.27,1.331,3.779,1.584
		c1.455,0.237,6.359,0.198,10.559,0.132c4.139-0.073,5.986,1.27,7.346,2.409c1.256,1.056,3.408,4.087,4.744,5.395
		c1.568,1.558,2.729,3.181,5.869,4.753c1.074,0.541,2.854,1.876,2.764,3.18c-1.408,1.386-3.148,1.771-7.324,0.658
		c0.275,0.3,2.482,2.58,6.223,1.498c-1.141,0.938-2.254,1.331-3.406,1.269c-3.914-0.21-7.756-5.028-9.9-6.791
		c-1.65-1.354-1.838-1.689-4.613-3.62c-4.219-2.899-13.682-2.082-13.682-2.082l-6.971,0.369
		c-13.541,1.009-19.227-10.948-20.732-13.451c-0.51-0.86-0.973-1.545-1.426-2.129c-0.695-0.915-4.412-5.683-8.143-7.274
		c0,0,3.68,3.176,3.477,5.247c0,0-1.537-0.685-5.686-0.101c-17.814,2.518-23.883-1.919-23.883-1.919
		c0.812-3.588-1.682-7.224-1.682-7.224c1.381,0.42,10.146,3.394,18.484,1.693c0,0-13.553,0.089-23.055-7.458
		c0,0,5.904,7.376,4.5,12.21c0,0-0.969,5.138-11.287,3.079c-1.094-0.218-2.387-0.588-17.811-4.861
		c-3.635-1.07-4.877,0.654-5.539,1.685c-0.035,1.51-1.834,3.297-2.74,3.854c-4.768-0.856-2.869-5.266-2.869-5.266
		c-3,4.27,0.117,6.173,1.121,6.293c-0.58,0.315-1.135,0.502-1.619,0.677c0,0-3.918-2.312-1.723-6.107
		c3.043-5.297,6.145-6.998,11.824-7.504c2.479-0.241,4.537-0.409,6.113-0.198c4.127,0.552,6.723,2.88,12.869,3.495
		c-13.07-3.865-13.109-11.408-13.148-11.552c0-0.02-0.012-0.02-0.012-0.02c-0.721,2.487-0.33,4.574,0.318,6.368
		c-0.186-0.074-3.055-1.935-4.152-2.611c-4.693-2.857-8.414-3.344-8.414-3.344c-1.543-0.21-2.289-2.082-2.289-2.082
		c-0.027-0.102-0.109-0.195-0.148-0.276c-2.16-3.717-4.336-3.756-4.336-3.756c1.234,1.611,1.262,3.95,1.262,3.95
		c0.635,4.581-4.578,5.998-4.578,5.998c-3.191,4.036-3.035,4.122-3.729,4.235c-0.713,0.097-2.281-0.697-2.281-0.697
		c-0.248-0.374,0.113-0.763,0.113-0.763c0.607-0.475,1.086-0.942,1.086-0.942c3.379-3.448,3.783-5.122,3.359-7.34
		c-0.84-4.484-4.064-3.947-4.064-3.947c-1.51,0.078-2.186,1.409-2.186,1.409c-0.525,0.829-1.662,3.367-1.662,3.367
		c-0.697,1.506-1.426,1.833-1.783,1.899c-0.164,0.031-0.439,0.016-0.549,0.016c-1.098-0.039-1.904-1.023-1.904-1.023
		c-0.053-0.051-0.111-0.101-0.131-0.148C43.781,95.992,44.48,94.594,44.48,94.594 M49.67,89.811c0,0,0.127-0.42,0.162-0.522
		c0.066-0.082,0.449-1.167,1.422-1.269c0,0,0.561-0.043,1.436-0.043c0,0-0.428,1.362-2.113,1.662
		C50.576,89.64,49.93,89.811,49.67,89.811"/>
	<path fill="#666666" d="M46.482,165.813c1.217-1.245,1.816-2.811,1.816-5.348v-7.956h-6.096v7.454c0,2.156-0.482,3.635-1.553,4.686
		c-1.4,1.386-3.732,1.958-7.18,1.958H22.209v2.184h12.23C40.238,168.791,44.326,168.009,46.482,165.813"/>
	<path fill="#666666" d="M181.977,165.327l2.996,3.464h6.832l-14.184-16.281h-5.994l-14.184,16.281h3.527l3-3.464H181.977z
		 M172.949,154.884l7.209,8.326H165.77L172.949,154.884z"/>
	<path fill="#666666" d="M78.6,168.791h6.822L71.236,152.51h-6.002l-14.168,16.281h3.527l2.973-3.452h18.049L78.6,168.791z
		 M59.4,163.226l7.176-8.342l7.205,8.342H59.4z"/>
	<path fill="#666666" d="M223.957,161.816c1.545-0.829,2.262-2.405,2.262-4.04c0-2.176-0.969-3.565-2.732-4.332
		c-1.592-0.697-3.547-0.935-7.426-0.935h-18.846v16.281h6.062v-5.644h7.98l9.127,5.644h7.406l-9.547-5.769
		C220.496,162.972,222.432,162.614,223.957,161.816 M203.277,161.1v-6.546h11.984c2.277,0,3.285,0.198,3.986,0.728
		c0.666,0.502,0.887,1.241,0.887,2.425v0.312c0,1.043-0.232,1.903-1.031,2.448c-0.768,0.521-1.826,0.634-3.768,0.634H203.277z"/>
	<path fill="#666666" d="M124.66,152.51v8.119c0,2.094,0.217,3.756,1.279,5.122c1.74,2.277,4.912,3.569,13.701,3.569h0.109
		c8.828,0,12-1.292,13.717-3.569c1.066-1.366,1.303-3.028,1.303-5.142v-8.1h-6.08v7.882c0,2.047-0.275,3.348-1.062,4.445
		c-1.303,1.849-3.385,2.518-7.662,2.518h-0.523c-4.07,0-6.336-0.669-7.67-2.518c-0.779-1.098-1.039-2.336-1.039-4.445v-7.882H124.66
		z"/>
	<path fill="#666666" d="M102.141,154.666h15.174v-2.156h-17.078c-4.137,0-6.609,0.471-8.82,1.701
		c-2.078,1.156-3.713,3.305-3.713,6.398c0,3.289,1.494,5.702,4.783,7.002c1.959,0.79,4.566,1.18,7.855,1.18h17.611v-7.48h-6.064
		v5.305h-9.695c-3.152,0-4.977-0.459-6.324-1.487c-1.291-0.969-1.961-2.467-1.961-4.491c0-1.942,0.646-3.386,1.828-4.371
		C97.107,155.176,98.879,154.666,102.141,154.666"/>
</g>
</svg>
