<?xml version="1.0" encoding="utf-8"?>
<!-- Generator: Adobe Illustrator 16.0.0, SVG Export Plug-In . SVG Version: 6.00 Build 0)  -->
<!DOCTYPE svg PUBLIC "-//W3C//DTD SVG 1.1//EN" "http://www.w3.org/Graphics/SVG/1.1/DTD/svg11.dtd">
<svg version="1.1" id="Layer_1" xmlns="http://www.w3.org/2000/svg" xmlns:xlink="http://www.w3.org/1999/xlink" x="0px" y="0px"
	 width="250px" height="250px" viewBox="0 0 250 250" enable-background="new 0 0 250 250" xml:space="preserve">
<g>
	<path fill="#666666" d="M138.391,145.792c2.744,1.654,6.473,2.484,11.217,2.484c5.49,0,9.701-0.976,12.623-2.89
		c2.92-1.953,5.428-5.173,7.492-9.637l-13.537-1.565c-0.861,1.355-1.674,2.285-2.42,2.813c-1.199,0.843-2.484,1.275-3.852,1.275
		c-2.129,0-3.875-0.957-5.211-2.922c-0.945-1.332-1.535-3.361-1.791-6.121h27.598v-1.914c0-5.881-0.787-10.651-2.338-14.307
		c-1.551-3.645-3.828-6.466-6.799-8.376c-2.979-1.945-7.008-2.902-12.156-2.902c-6.336,0-11.297,2.167-14.908,6.466
		c-3.594,4.288-5.398,9.946-5.398,16.906c0,4.873,0.908,9.127,2.703,12.744C133.398,141.489,135.656,144.127,138.391,145.792
		 M144.527,115.073c1.324-2.159,3.062-3.243,5.271-3.243c1.883,0,3.414,0.705,4.578,2.144c1.152,1.413,1.857,3.771,2.137,7.09
		h-13.541C143.191,118.407,143.682,116.42,144.527,115.073"/>
	<path fill="#666666" d="M205.969,101.731c-2.445,0-4.654,0.643-6.68,1.976c-1.471,0.964-3.098,2.836-4.885,5.608v-6.562h-12.883
		v64.788h13.9v-24.582c1.375,1.758,2.939,3.082,4.678,3.993c1.738,0.885,3.668,1.324,5.816,1.324c4.359,0,7.99-1.933,10.85-5.826
		c2.863-3.932,4.283-9.579,4.283-16.964c0-6.727-1.324-12.362-3.928-16.929C214.469,104.001,210.777,101.731,205.969,101.731
		 M205.662,133.086c-1.082,1.642-2.414,2.454-4.031,2.454c-1.807,0-3.35-0.854-4.514-2.554c-1.201-1.723-1.803-4.342-1.803-7.864
		c0-3.821,0.59-6.593,1.758-8.296c1.164-1.7,2.633-2.569,4.402-2.569c1.627,0,2.99,0.861,4.123,2.569
		c1.133,1.662,1.697,4.33,1.697,7.937C207.295,128.656,206.75,131.447,205.662,133.086"/>
	<path fill="#666666" d="M60.145,144.544c3.041-2.526,5.055-5.643,6.061-9.314c0.988-3.664,1.516-9.001,1.516-16.014V82.458H52.369
		v41.248c0,3.748-0.402,6.401-1.221,8.001c-0.781,1.57-2.045,2.347-3.771,2.347c-1.086,0-1.895-0.264-2.496-0.792
		c-0.838-0.789-1.463-1.86-1.834-3.182c-0.336-1.312-0.543-3.327-0.562-6.037l-15-0.547c0.287,4.747,1.52,11.772,3.021,15
		c1.5,3.216,3.609,5.689,6.363,7.354c2.764,1.677,6.623,2.516,11.635,2.516C53.238,148.365,57.113,147.109,60.145,144.544"/>
	<path fill="#666666" d="M87.6,145.792c2.721,1.654,6.438,2.484,11.217,2.484c5.486,0,9.682-0.976,12.621-2.89
		c2.91-1.953,5.395-5.173,7.496-9.637l-13.578-1.565c-0.846,1.355-1.646,2.285-2.385,2.813c-1.227,0.843-2.508,1.275-3.859,1.275
		c-2.156,0-3.875-0.957-5.219-2.922c-0.938-1.332-1.543-3.361-1.787-6.121h27.598v-1.914c0-5.881-0.77-10.651-2.334-14.307
		c-1.551-3.645-3.832-6.466-6.814-8.376c-2.961-1.945-7.021-2.902-12.145-2.902c-6.336,0-11.305,2.167-14.92,6.466
		c-3.572,4.288-5.398,9.946-5.398,16.906c0,4.873,0.924,9.127,2.695,12.744C82.604,141.489,84.842,144.127,87.6,145.792
		 M93.748,115.073c1.305-2.159,3.023-3.243,5.221-3.243c1.898,0,3.426,0.705,4.594,2.144c1.152,1.413,1.873,3.771,2.141,7.09H92.143
		C92.361,118.407,92.893,116.42,93.748,115.073"/>
</g>
</svg>
