<?xml version="1.0" encoding="utf-8"?>
<!-- Generator: Adobe Illustrator 16.0.0, SVG Export Plug-In . SVG Version: 6.00 Build 0)  -->
<!DOCTYPE svg PUBLIC "-//W3C//DTD SVG 1.1//EN" "http://www.w3.org/Graphics/SVG/1.1/DTD/svg11.dtd">
<svg version="1.1" id="Layer_1" xmlns="http://www.w3.org/2000/svg" xmlns:xlink="http://www.w3.org/1999/xlink" x="0px" y="0px"
	 width="250px" height="250px" viewBox="0 0 250 250" enable-background="new 0 0 250 250" xml:space="preserve">
<g>
	<path fill="#666666" d="M125,174.805c53.535,0,97.23-22.382,97.23-49.823c0-27.44-43.695-49.787-97.23-49.787
		c-53.555,0-97.23,22.346-97.23,49.787C27.77,152.423,71.445,174.805,125,174.805 M125,86.986c49.388,0,89.635,17.083,89.635,37.996
		c0,20.941-40.247,37.992-89.635,37.992c-49.37,0-89.651-17.051-89.651-37.992C35.349,104.068,75.63,86.986,125,86.986"/>
	<polygon fill="#666666" points="159.361,148.633 168.858,115.452 178.361,148.633 191.443,148.633 177.931,101.121 
		172.457,101.121 164.863,101.121 157.846,101.121 157.834,103.281 159.764,103.281 146.283,148.633 	"/>
	<path fill="#666666" d="M66.159,148.633h13.067v-20.708l14.748,19.563h15.193l-17.541-23.275l15.146-22.017H91.566l-12.34,17.911
		v-17.934H66.159v0.051h-2.358v1.958c0.824-0.022,1.621,0.105,2.358,0.375V148.633z"/>
	<path fill="#666666" d="M120.129,148.633h13.072v-46.46h-13.072v0.051h-2.353v1.958c0.843-0.022,1.616,0.105,2.353,0.375V148.633z"
		/>
</g>
</svg>
