<?xml version="1.0" encoding="utf-8"?>
<!-- Generator: Adobe Illustrator 16.0.0, SVG Export Plug-In . SVG Version: 6.00 Build 0)  -->
<!DOCTYPE svg PUBLIC "-//W3C//DTD SVG 1.1//EN" "http://www.w3.org/Graphics/SVG/1.1/DTD/svg11.dtd">
<svg version="1.1" id="Layer_1" xmlns="http://www.w3.org/2000/svg" xmlns:xlink="http://www.w3.org/1999/xlink" x="0px" y="0px"
	 width="250px" height="250px" viewBox="0 0 250 250" enable-background="new 0 0 250 250" xml:space="preserve">
<g>
	<path fill-rule="evenodd" clip-rule="evenodd" fill="#666666" d="M126.773,206.059l43.889-9.326
		c0.777-0.188,1.543-0.389,2.312-0.611c1.604-0.514,3.027-1.1,4.459-2c0.543-0.387,1.021-0.775,1.512-1.23
		c0.455-0.486,0.832-0.957,1.213-1.506c0.338-0.578,0.605-1.125,0.859-1.746c0.213-0.648,0.371-1.264,0.502-1.934
		c0.207-1.486,0.209-2.871,0.105-4.367c-0.082-0.82-0.186-1.629-0.309-2.443L166.291,60.438l-0.186-1.073
		c-0.4-1.825-0.963-3.354-2.123-4.839c-0.309-0.352-0.617-0.667-0.963-0.981c-1.383-1.125-2.834-1.738-4.529-2.232
		c-0.645-0.172-1.285-0.322-1.936-0.457l-29.426-6.913l-29.51,7.2c-0.725,0.193-1.436,0.402-2.145,0.647
		c-1.74,0.646-3.139,1.431-4.426,2.791l-0.58,0.718c-1.111,1.621-1.656,3.292-2.049,5.205L68.658,180.846
		c-0.209,1.41-0.336,2.766-0.352,4.191c0.021,0.766,0.074,1.504,0.164,2.266c0.203,1.197,0.484,2.242,0.947,3.365
		c0.299,0.617,0.609,1.172,0.982,1.744c0.404,0.541,0.811,1.018,1.277,1.502c0.844,0.77,1.668,1.355,2.662,1.914
		c0.611,0.307,1.215,0.572,1.85,0.82c1.137,0.393,2.246,0.678,3.424,0.908L126.773,206.059L126.773,206.059z M126.738,203.824
		l42.641-9.053c8.627-1.828,11.197-4.762,9.768-13.576L164.191,61.27c-0.693-5.585-2.885-7.225-8.111-8.275l-28.941-6.8
		l-28.535,6.957c-4.641,1.162-7.172,2.508-8.125,8.291L70.824,181.184c-1.463,8.928,2.064,12.932,9.193,14.219L126.738,203.824
		L126.738,203.824z M81.473,190.91c-6.672-1.162-7.082-4.209-6.193-9.953L94.541,62.169c0.693-3.574,2.297-4.346,5.096-5.029
		l27.506-6.71l29.152,6.806c2.279,0.608,3.494,2.127,3.814,4.697l14.996,119.466c1.262,7.646-1.725,7.799-6.447,8.85l-42.004,9.336
		C111.592,196.695,96.533,193.789,81.473,190.91L81.473,190.91z M152.129,172.178l4.342-10.254c0.979-2.49,0.289-2.473-1.082-4.061
		l-10.229-11.367c-3.805-3.922,2.27-7.449,4.898-3.096l6.154,6.678h4.729l-7.055-14.031l-13.455-1.037
		c9.568-17.901,12.584-38.979,11.711-58.795h-47.869c-3.154,0.106-2.361,1.789-1.088,3.476c0.615,0.817,2.221,1.574,3.092,2.244
		L95.816,165.52c-2.029,0.117-3.951-0.088-5.82-0.557l1.041,6.641C106.244,175.191,125.738,178.846,152.129,172.178L152.129,172.178
		z M105.578,166.209c10.176-4.998,20.762-13.234,28.158-20.605c6.959,3.287,10.1,10.471,3.027,15.613
		C126.941,167.336,115.188,167.26,105.578,166.209L105.578,166.209z M103.863,160.324c-1.281,1.211-1.18-0.4-1.043-1.58l8.436-74.65
		c5.662,2.644,11.525,9.486,12.969,14.595C130.244,121.337,120.01,144.99,103.863,160.324L103.863,160.324z"/>
</g>
</svg>
