<?xml version="1.0" encoding="utf-8"?>
<!-- Generator: Adobe Illustrator 16.0.0, SVG Export Plug-In . SVG Version: 6.00 Build 0)  -->
<!DOCTYPE svg PUBLIC "-//W3C//DTD SVG 1.1//EN" "http://www.w3.org/Graphics/SVG/1.1/DTD/svg11.dtd">
<svg version="1.1" id="Layer_1" xmlns="http://www.w3.org/2000/svg" xmlns:xlink="http://www.w3.org/1999/xlink" x="0px" y="0px"
	 width="250px" height="250px" viewBox="0 0 250 250" enable-background="new 0 0 250 250" xml:space="preserve">
<g>
	<path fill="#666666" d="M125,208.374c-2.533,0-5.218-1.05-8.202-3.209c-21.578-15.413-37.394-33.239-48.333-54.482
		c-12.036-23.379-17.891-50.262-17.898-82.184c-0.014-7.164,3.521-12.807,9.705-15.476C77.576,45.462,99.357,41.626,125,41.626
		c25.635,0,47.422,3.831,64.754,11.39c6.151,2.688,9.679,8.329,9.679,15.481c-0.007,31.927-5.858,58.809-17.892,82.184
		c-10.937,21.247-26.749,39.071-48.342,54.496C130.164,207.356,127.557,208.374,125,208.374z M125,48.233
		c-24.726,0-45.619,3.651-62.096,10.853c-3.816,1.646-5.739,4.809-5.729,9.404c0.007,30.853,5.622,56.746,17.167,79.166
		c10.445,20.287,25.594,37.342,46.312,52.144c2.25,1.628,3.604,1.967,4.346,1.967c1.074,0,2.539-0.661,4.35-1.962
		c20.727-14.805,35.873-31.859,46.316-52.148c11.539-22.418,17.152-48.311,17.159-79.159c0-4.597-1.923-7.77-5.716-9.424
		C170.618,51.88,149.721,48.233,125,48.233z"/>
</g>
<g>
	<g>
		<path fill="#666666" d="M67.305,70.749c0-0.397,0-0.821,0-1.232c0-2.463,0-4.822,0-7.271c-0.822,0.276-1.604,0.555-2.371,0.847
			c0,2.544,0,5.101,0,7.657c0,0.278,0,0.543,0,0.821c0,2.809,0,5.631,0,8.466c2.569-0.979,5.207-1.934,7.804-2.835
			c0-0.729,0-1.498,0-2.238c-1.829,0.569-3.63,1.178-5.433,1.881C67.305,74.803,67.305,72.763,67.305,70.749z"/>
	</g>
	<g>
		<path fill="#666666" d="M94.928,59.013c-0.372,1.217-0.742,2.411-1.061,3.63c-0.344,1.02-0.9,3.232-1.112,3.895
			c-0.12-0.583-0.743-2.557-1.021-3.524c-0.357-1.072-0.741-2.173-1.112-3.272c-0.372-1.113-0.729-2.212-1.1-3.312
			c-0.821,0.159-1.644,0.317-2.505,0.477c0,2.795,0,5.578,0,8.346c0,1.829,0,3.657,0,5.498c0,0.954,0,1.908,0,2.849
			c0.783-0.105,1.537-0.278,2.266-0.411c0-0.781,0-1.616,0-2.438c0-0.304,0-0.608,0-0.9c0-1.151,0-2.252,0-3.365
			c0-1.06-0.053-3.471-0.053-4.119c0.159,0.648,0.914,2.94,1.324,4.079c0.357,1.06,0.676,2.173,1.061,3.313
			c0.094,0.33,0.213,0.662,0.332,0.992c0.251,0.781,0.516,1.551,0.768,2.332c0.225-0.781,0.465-1.551,0.689-2.332
			c0.145-0.436,0.277-0.9,0.41-1.364c0.33-1.231,0.741-2.398,1.113-3.59c0.357-1.271,1.099-3.854,1.312-4.544
			c-0.04,0.648-0.04,3.113-0.04,4.173c0,1.113,0,2.212,0,3.325c0,0.662,0,1.338,0,2c0,0.465,0,0.915,0,1.378
			c0.742-0.078,1.51-0.197,2.332-0.278c0-0.37,0-0.728,0-1.1c0-2.438,0-4.835,0-7.287c0-2.781,0-5.576,0-8.385
			c-0.863,0.119-1.684,0.198-2.505,0.331C95.668,56.627,95.285,57.807,94.928,59.013z"/>
	</g>
	<g>
		<path fill="#666666" d="M82.687,66.205c-0.688-2.662-1.392-5.286-2.081-7.895c-0.822,0.159-1.656,0.37-2.464,0.608
			c-0.688,2.98-1.39,5.976-2.079,8.916c-0.225,0.98-0.451,1.946-0.689,2.914c-0.464,2.014-0.927,4.054-1.404,6.095
			c0.861-0.252,1.682-0.489,2.543-0.741c0.159-0.77,0.318-1.551,0.451-2.372c0.159-0.781,0.318-1.55,0.529-2.371
			c0.769-0.213,1.576-0.411,2.385-0.61c0.424-0.092,0.861-0.198,1.299-0.292c0.027,0.094,0.041,0.187,0.065,0.292
			c0.146,0.597,0.278,1.205,0.425,1.789c0.159,0.702,0.332,1.43,0.502,2.133c0.85-0.198,1.711-0.411,2.611-0.57
			c-0.318-1.111-0.608-2.238-0.9-3.352C83.468,69.213,83.058,67.689,82.687,66.205z M77.984,69.014c0.197-0.968,0.41-2,0.621-2.94
			c0.238-1.179,0.609-3.192,0.741-3.828c0.107,0.555,0.478,2.397,0.676,3.471c0.212,0.9,0.465,1.749,0.662,2.608
			C79.783,68.576,78.884,68.775,77.984,69.014z"/>
	</g>
	<g>
		<path fill="#666666" d="M108.877,62.019c1.352-0.714,1.973-2.238,1.973-3.63c0-1.562-0.502-2.662-1.363-3.312
			c-0.809-0.662-2.014-0.901-3.352-0.821c-1.431,0.159-2.822,0.292-4.252,0.397c0,2.822,0,5.657,0,8.438c0,2.584,0,5.101,0,7.657
			c0,0.252,0,0.491,0,0.729c1.497-0.119,2.994-0.292,4.502-0.411c0.571-0.04,1.128-0.146,1.617-0.318
			c0.703-0.251,1.326-0.662,1.816-1.192c0.808-0.9,1.311-2.173,1.311-3.841C111.129,63.873,110.308,62.443,108.877,62.019z
			 M104.254,59.038c0-0.769,0-1.562,0-2.331c0.662-0.04,1.312-0.119,1.961-0.159c1.258-0.119,2.212,0.397,2.212,2.079
			c0,1.603-0.979,2.411-2.252,2.505c-0.649,0.079-1.298,0.119-1.921,0.198C104.254,60.549,104.254,59.78,104.254,59.038z
			 M106.385,68.829c-0.74,0.025-1.429,0.105-2.131,0.158c0-0.914,0-1.801,0-2.663c0-0.94,0-1.841,0-2.729
			c0.623-0.092,1.219-0.133,1.881-0.225c1.471-0.065,2.57,0.61,2.57,2.505C108.705,67.875,107.818,68.697,106.385,68.829z"/>
	</g>
	<g>
		<path fill="#666666" d="M157.896,59.329c0,1.101,0,2.252,0,3.352c-1.591-0.237-3.194-0.489-4.783-0.702c0-1.098,0-2.238,0-3.352
			c0-1.151,0-2.238,0-3.352c-0.795-0.119-1.616-0.252-2.371-0.316c0,2.821,0,5.59,0,8.411c0,2.465,0,4.902,0,7.379
			c0,0.346,0,0.676,0,1.008c0.755,0.092,1.576,0.173,2.371,0.292c0-0.438,0-0.862,0-1.3c0-0.86,0-1.749,0-2.636
			c0-1.219,0-2.517,0-3.829c1.589,0.199,3.192,0.451,4.783,0.688c0,1.312,0,2.53,0,3.856c0,0.649,0,1.284,0,1.92
			c0,0.662,0,1.3,0,1.962c0.769,0.119,1.562,0.238,2.37,0.41c0-0.794,0-1.591,0-2.372c0-2,0-4.014,0-5.974c0-2.835,0-5.605,0-8.387
			c-0.808-0.173-1.602-0.292-2.37-0.424C157.896,57.078,157.896,58.229,157.896,59.329z"/>
	</g>
	<g>
		<path fill="#666666" d="M176.84,63.98c0,1.23,0,2.463,0,3.655c0,0.716,0.027,2.318,0.027,3.113c0,0.119,0,0.199,0,0.278
			c0-0.065-0.041-0.159-0.094-0.278c-0.266-0.714-0.809-2.119-1.074-2.835c-0.621-1.471-1.231-3.02-1.854-4.49
			c-0.596-1.524-1.219-2.994-1.828-4.505c-0.783-0.212-1.591-0.411-2.372-0.57c0,2.783,0,5.552,0,8.347c0,1.351,0,2.702,0,4.054
			c0,1.432,0,2.862,0,4.292c0.781,0.2,1.564,0.397,2.332,0.61c0-1.392,0-2.77,0-4.213c0-0.238,0-0.449,0-0.689
			c0-1.165,0-2.317,0-3.484c0-0.781-0.026-2.702-0.026-3.324c0.186,0.543,0.848,2.265,1.164,3.046
			c0.532,1.246,1.009,2.492,1.525,3.763c0.172,0.438,0.345,0.862,0.529,1.3c0.703,1.722,1.379,3.39,2.067,5.127
			c0.636,0.197,1.284,0.397,1.933,0.648c0-2.358,0-4.716,0-7.075c0-0.436,0-0.9,0-1.364c0-2.729,0-5.563,0-8.386
			c-0.768-0.237-1.549-0.478-2.33-0.688C176.84,61.543,176.84,62.762,176.84,63.98z"/>
	</g>
	<g>
		<path fill="#666666" d="M163.737,65.424c0,1.763,0,3.55,0,5.325c0,0.994,0,1.988,0,2.981c0.835,0.159,1.603,0.318,2.424,0.478
			c0-1.141,0-2.292,0-3.459c0-1.616,0-3.232,0-4.835c0-2.822,0-5.604,0-8.386c-0.821-0.159-1.589-0.331-2.424-0.504
			C163.737,59.82,163.737,62.603,163.737,65.424z"/>
	</g>
	<g>
		<path fill="#666666" d="M118.376,53.315c-1.801,0.079-3.114,1.06-3.934,2.689c-0.821,1.603-1.181,3.815-1.181,6.266
			c0,2.465,0.359,4.624,1.181,6.107c0.819,1.511,2.079,2.411,3.895,2.371c1.787-0.038,3.06-1.02,3.92-2.596
			c0.821-1.537,1.232-3.75,1.232-6.213c0-2.452-0.411-4.611-1.232-6.174C121.451,54.216,120.124,53.275,118.376,53.315z
			 M120.496,66.405c-0.41,1.138-1.061,1.973-2.08,2.014c-1.033,0-1.735-0.783-2.173-1.936c-0.411-1.179-0.57-2.768-0.57-4.384
			c0-1.551,0.121-3.141,0.53-4.373c0.398-1.179,1.061-2.04,2.134-2.04c0.979-0.039,1.722,0.781,2.119,1.961
			c0.451,1.192,0.608,2.782,0.608,4.371C121.064,63.595,120.907,65.173,120.496,66.405z"/>
	</g>
	<g>
		<path fill="#666666" d="M182.695,62.245c0,2.809,0,5.59,0,8.371c0,0.054,0,0.095,0,0.133c0,2.797,0,5.564,0,8.347
			c0.781,0.318,1.577,0.61,2.371,0.94c0-2.835,0-5.657,0-8.466c0-0.278,0-0.543,0-0.821c0-2.57,0-5.101,0-7.657
			C184.272,62.8,183.477,62.521,182.695,62.245z"/>
	</g>
	<g>
		<path fill="#666666" d="M133.095,62.762c0.781-0.278,1.483-0.783,1.935-1.457c0.436-0.703,0.729-1.644,0.729-2.876
			c0-1.683-0.57-2.901-1.431-3.696c-0.849-0.769-2.04-1.139-3.325-1.166c-1.591-0.053-3.193-0.053-4.77-0.078
			c0,2.809,0,5.682,0,8.49c0,2.835,0,5.618,0,8.44c0.809,0,1.576,0,2.371,0c0-1.219,0-2.451,0-3.644c0-1.219,0-2.451,0-3.722
			c0.662,0.038,1.312,0.038,2,0.038c0.398,1.272,0.861,2.505,1.259,3.724c0.425,1.23,0.876,2.45,1.325,3.723
			c0.848,0,1.748,0.04,2.61,0.078c-0.438-1.311-0.889-2.608-1.338-3.881C134.009,65.384,133.56,64.072,133.095,62.762z
			 M130.803,60.84c-0.729,0-1.471,0-2.199-0.04c0-0.821,0-1.682,0-2.489c0-0.862,0-1.684,0-2.544
			c0.729,0.038,1.47,0.038,2.199,0.079c1.484,0.04,2.516,0.781,2.516,2.543C133.318,60.178,132.365,60.881,130.803,60.84z"/>
	</g>
	<g>
		<path fill="#666666" d="M143.336,64.735c0.608,0.04,1.258,0.078,1.867,0.159c0,0.41,0,0.781,0,1.179
			c0,2.04-0.557,2.94-2.159,2.835c-1.113-0.079-1.854-0.994-2.278-2.213c-0.424-1.22-0.584-2.822-0.584-4.252
			c0-1.803,0.199-3.352,0.649-4.465c0.411-1.101,1.1-1.723,2.054-1.682c1.179,0.132,1.841,0.781,2.199,2.57
			c0.822-0.16,1.617-0.266,2.425-0.397c-0.491-2.584-1.802-4.294-4.584-4.546c-1.775-0.119-3.073,0.703-3.935,2.173
			c-0.86,1.511-1.271,3.684-1.271,6.214c0,2.425,0.371,4.584,1.244,6.187c0.491,0.981,1.192,1.775,2.067,2.252
			c0.543,0.292,1.151,0.478,1.854,0.53c1.127,0.08,2.066-0.119,2.783-0.53c0.33-0.185,0.622-0.436,0.86-0.701
			c0.768-0.901,1.14-2.173,1.14-3.511c0-1.232,0-2.518,0-3.737c-1.459-0.119-2.902-0.237-4.332-0.356
			C143.336,63.211,143.336,63.94,143.336,64.735z"/>
	</g>
</g>
<g>
	<path fill="#666666" d="M80.408,58.627c-0.676,0.159-1.352,0.318-2.027,0.519l-0.478-0.451l0.159-0.054
		c0.821-0.238,1.644-0.449,2.49-0.622l0.253-0.04L80.408,58.627L80.408,58.627z"/>
</g>
<g>
	<g>
		<path fill-rule="evenodd" clip-rule="evenodd" fill="#666666" d="M133.094,105.358c-0.408,0.115-0.635-0.163-0.275-0.391
			c0.197-0.117,0.398-0.446,0.587-0.591c0.304-0.223,0.723,0.187,0.459,0.491C133.662,105.117,133.422,105.258,133.094,105.358
			L133.094,105.358z"/>
	</g>
	<g>
		<path fill-rule="evenodd" clip-rule="evenodd" fill="#666666" d="M143.433,122.205c0,0,0.837,0.618,0.825,1.104
			c-0.012,0.482-0.025,1.292-0.763,1.118c-0.736-0.176-2.733-0.229-3.492,0.079c-0.773,0.305-1.353,0.02-1.583-0.312
			c-0.231-0.33-0.716-0.526-1.106-0.446c-0.393,0.095-1.53,0.586-1.693,0.329c-0.147-0.269-0.39-0.731,0.495-0.892
			c0.887-0.146,0.259-0.477-0.333-0.554c-0.578-0.075-0.578-0.075-0.578-0.075s-0.696,0.105-0.982,0.304
			c-0.302,0.209-0.879,0.291-1.146-0.149c-0.271-0.443-0.166-1.45,0.846-1.267c0.996,0.184,1.93-0.337,1.773-0.632
			c-0.147-0.293,0.236-0.506,0.444-0.099c0.222,0.409,0.276,0.377,1.237,0.751c0.945,0.372,0.647-0.243,1.086,0.299
			c0.438,0.557,0.778,0.456,1.014-0.023c0.218-0.483-0.16-1.501-0.82-1.248c-0.65,0.269-1.045-0.019-1.088-0.298
			c-0.055-0.283-0.404-0.617-0.657-0.572c-0.257,0.046-0.327-0.605,0.197-0.707c0.521-0.089,0.755-0.765,0.591-1.023
			c-0.148-0.268-0.479-0.639-1.183-0.271c-0.688,0.367-1.469-0.075-1.864-0.152c-0.394-0.091-2.388-0.181-2.874,0.134
			c-0.499,0.315-1.315-0.249-0.186-0.782c1.106-0.537,3.885-1.758,3.976-2.271c0.094-0.498-0.021-2.217-0.598-2.423
			c-0.562-0.204-2.133-0.711-2.506-0.956c-0.378-0.232-1.873-0.611-2.406,0.366c-0.523,0.992-0.587-0.233-0.587-0.233
			s-1.284-1.492-2.772-0.533c-1.475,0.973-0.506-0.63-0.17-0.887c0.32-0.246,1.074-0.803,1.984-0.762
			c0.911,0.041,0.705-0.878,2.417-0.653c1.7,0.223,1.338-0.61,1.419-0.928c0.068-0.318-0.191-1.242,0.637-1.567
			c0.803-0.327,1.007-0.379,0.877,0.416c-0.131,0.795-0.195,1.482,0.154,1.527c0.332,0.044,0.197,0.891,0.266,1.068
			c0.058,0.166,0.705,0.119,1.139-0.1c0.433-0.204,0.781-0.159,0.973,0.272c0.181,0.429,0.008,0.747-0.077,0.983
			c-0.083,0.227-0.224,0.614,0.032,0.949c0.258,0.334,0.32,1.075,0.096,1.387c-0.238,0.322-0.488,0.826-0.158,1.197
			c0.332,0.37,0.215,1.272,0.959,1.476c0.76,0.216,1.021,0.513,1.474,1.148c0.456,0.622,0.904,0.302,0.545-0.257
			c-0.358-0.559-1.319-1.417-0.599-2.03c0.732-0.597,0.738,0.372,1.063,0.978C140.055,115.605,142.63,121.34,143.433,122.205
			L143.433,122.205z"/>
	</g>
	<g>
		<path fill-rule="evenodd" clip-rule="evenodd" fill="#666666" d="M129.018,152.603c0,0-0.28,1.246-0.657,0.424
			c-0.379-0.81-1.427-1.811-1.161-2.942c0.268-1.13-0.256-1.343-0.256-1.343s1.261,0.479,1.202,2.017c0,0,0.813-0.102,0.676,0.939
			C128.688,152.729,129.018,152.603,129.018,152.603L129.018,152.603z"/>
	</g>
	<g>
		<path fill-rule="evenodd" clip-rule="evenodd" fill="#666666" d="M137.078,126.14c0,0,1.648-0.491,2.535,0.332
			c0.889,0.823,0.039,1.812,0.039,1.812s-2.245,0.755-1.964,1.995c0.271,1.241,2.698,2.5,6.244,3.122
			c3.544,0.634,0.173,1.176-0.805,1.048c-0.966-0.127-6.646,0.451-8.677-2.944C132.421,128.11,136.437,126.448,137.078,126.14
			L137.078,126.14z"/>
	</g>
	<g>
		<path fill-rule="evenodd" clip-rule="evenodd" fill="#666666" d="M106.289,126.328c0,0-2.346,5.312-2.451,6.121
			c-0.105,0.813-0.43,2.787-0.43,2.787s-0.599-2.331,0.002-3.523c0.613-1.19,1.345-5.665,1.45-6.477
			c0.104-0.812,1.13-4.631,2.344-5.9c1.214-1.269,0.729-3.873,1.268-4.483c0.523-0.6,0.938-3.165,1.396-3.851
			c0.471-0.699,0.347-2.654,1.658-4.066c1.309-1.399,2.419-2.971,2.506-3.64c0.086-0.657,3.498-5.005,6.135-6.244
			c2.635-1.227,3.732-2.196,3.732-2.196s5.865-4.183,8.366-3.777c2.49,0.391,4.937,2.219,5.966,2.353
			c1.031,0.134,4.035,1.274,6.371,1.135c2.337-0.152,2.852-0.085,3.438-1.056c0.572-0.973,1.389-4.913-2.108-6.195
			c-3.512-1.284-7.458-2.549-15.379-2.682c-7.918-0.146-8.986,0.016-11.257-0.948c-2.269-0.978-2.563-4.527,1.183-5.622
			c3.742-1.081,5.342-0.793,6.385-1.259c1.03-0.468,2.652-0.255,3.215-0.549c0.563-0.307,0.725,0.763,1.605,0.354
			c0.878-0.409,0.514,0.669,1.438,0.41c0.938-0.245,0.947,0.282,1.307,0.931c0.362,0.637,1.555,0.728,3.482,0.823
			c1.925,0.107,2.652-0.257,3.651,0.109c0,0-1.985,0.854-3.169,0.699c-1.172-0.153-4.968-0.271-5.111,0.234
			c-0.133,0.506,0.714,0.84,2.126,0.961c1.415,0.105,1.062,0.504,0.087,0.534c-0.984,0.016-6.605,0.027-7.777-0.127
			c-1.186-0.154-6.213-1.259-6.814-0.067c-0.602,1.192-0.061,1.564,1.4,1.913c1.45,0.334,8.521,0.133,9.963,0.032
			c1.43-0.114,12.078-0.227,15.898,3.193c3.823,3.423,3.186,5.369,2.193,7.858c-1.006,2.487-1.312,2.525-0.302,4.008
			c1.011,1.48,6.006,10.752,5.269,15.895c-0.754,5.152-1.33,7.251-0.348,8.951c0.969,1.698,0.412,4.247,0.096,4.965
			c-0.313,0.704-0.621,1.843,0.914,2.726c1.537,0.869,4.529,2.611,5.781,2.172c1.26-0.426,2.576-0.776,2.786-0.081
			c0.21,0.708-3.354,2.703-4.404,2.722c-1.048,0.008-4.656,0.061-6.581-0.638c-1.927-0.697-0.316,0.705-0.194,0.877
			c0.136,0.163,0.887,2.435,1.504,2.818c0.63,0.383,0.735,1.89,0.533,3.435c-0.203,1.546-0.325,5.288-0.325,5.288
			s0.239,1.668,0.715,2.032c0.479,0.363,0.367,1.698,0.227,2.281c-0.155,0.582,0.561,1.424,1.019,1.929
			c0.456,0.518,0.894,2.369,0.585,2.931c-0.295,0.552-1.048,0.61-1.003,1.363c0.059,0.754-1.011,0.915-1.516,0.771
			c-0.508-0.134-1.155-0.978-0.409-0.88c0.732,0.096,0.641-1.487,0.029-1.41c-0.612,0.063-0.822,0.56-1.231,0.283
			c-0.421-0.276-0.26,1.394-0.814,0.419c-0.54-0.976-0.012-2.7,0.356-2.73c0,0-0.405-1.992-0.861-2.511
			c-0.458-0.504-0.188-2.564,0.176-3.643c0.362-1.08-0.365-4.619-1.195-5.173c-0.83-0.566-1.811-2.188-1.811-2.188
			s1.033-0.991,1.041-1.658c0.012-0.681-0.369-1.174-0.641-0.308c-0.255,0.858-2.491,3.642-5.442,4.972c0,0-4.872,5.808-3.122,8.432
			c0,0,0.332,1.473-0.405,1.898c-0.725,0.431-0.945,1.527-1.135,1.883c-0.203,0.34-1.243,0.883-2.491,0.721
			c-1.264-0.166-4.41-0.131-5.096,0.002c-0.699,0.131-1.883-0.023-2.367-2.025c0,0,1.754,1.5,1.309-0.208
			c-0.455-1.71-0.674-2.343,0.84-1.908c1.518,0.421,1.604,0.354,1.157-0.229c-0.447-0.583-1.632-0.658-1.632-0.658
			s-0.602-0.603,0.469-0.763c1.069-0.163-0.227-1.078-0.227-1.078s-0.419-0.29,0.146-1.108c0.556-0.83,0.51-2.185,0.51-2.185
			s-0.017-1.575,0.594-2.844c0.612-1.27,0.5-1.506,0.5-1.506s0.047-1.565-1.444,0.112c-1.488,1.677-1.434,2.354-2.064,2.572
			c-0.617,0.22-1.305,0.875-1.136,1.277c0.173,0.391-0.942,0.4-0.865-0.191s-1.398-3.024,0.298-2.28c0,0,0.23-1.764,0.973-1.221
			c0,0,0.366-0.999-0.09-1.517c-0.458-0.507-0.235-1.604,0.6-2.385c0.863-0.791,4.182-6.131,3.37-7.431
			c-0.798-1.308-1.048-1.104-1.058-0.439c-0.021,0.68-0.746,0.505-1.057,0.084c-0.326-0.409-1.943-1.668-1.855-2.337
			c0.086-0.657-0.662-0.755-0.783-0.325c-0.135,0.428-0.869-0.86-0.869-0.86s-0.37-1.176,0.586-0.971
			c0.943,0.189,1.316-0.353,2.453-0.426c1.123-0.075,3.152,0.924,3.812,1.689c0,0,2.109-3.011,5-2.188
			c2.889,0.838,1.745,2.168,1.542,2.52c-0.189,0.343-1.761,2.547,1.679,2.696c3.425,0.146,1.297-0.813,0.857-0.87
			c-0.45-0.059-2.548-0.032-2.05-0.936c0.486-0.919,0.581-1.64,1.668-1.341c1.089,0.274,2.302-0.379,2.694,1.23
			c0,0,0.598-1.179,1.719-0.521c1.105,0.667,1.754,0.309,2.552,1.015c0.813,0.695,1.948,0.621,1.948,0.621s0.849,0.413,0.647,1.356
			c-0.203,0.954-0.726,1.553-1.442,1.316c-0.729-0.251-1.46,0.856,0.006,1.048c1.469,0.193,1.662-0.686,3.782,0.339
			c2.104,1.034,5.033,1.562,6.017,0.944c0.984-0.617,2.779-1.208,2.779-1.208s0.67-1.116-0.525-0.593
			c-1.181,0.515-2.929,0.665-5.408-0.406c-2.479-1.083-3.414-2.032-3.776-2.079c-0.372-0.049-0.651-0.228-0.563-0.887
			c0.088-0.669-0.875-1.829-1.219-2.096c-0.346-0.269-1.518-1.024-2.25-1.12c-0.734-0.098-4.062-2.183-4.559-2.994
			c-0.483-0.811-1.781-2.408-1.95-5.127c-0.166-2.72-1.167-3.676-1.673-4.41c-0.493-0.746-1.639-1.799-1.291-4.451
			c0.345-2.64-0.73-4.13-1.176-4.712c-0.447-0.595-2.225-5.319-2.376-5.864c-0.15-0.543-0.127-2.413,0.999-0.839
			c1.146,1.564,1.597,2.227,1.335,3.019c0,0,0.61,0.538,0.218,1.232c0,0,1.048,1.106,0.732,1.812c0,0,1.063,1.565,1.086,2.014
			c0.016,0.461,0.81,0.709,1.096,0.223c0.285-0.486,1.908-0.275,1.384-0.867c-0.525-0.592-0.218-1.233,0.153-0.582
			c0.361,0.649,0.78,2.053,1.503,1.623c0.737-0.427,1.14-1.198,0.548-1.275c-0.592-0.079-0.677-0.535-0.617-0.984
			c0.058-0.439-0.667-1.216,0.086-1.862c0.767-0.647-0.129-1.812-0.11-2.556c0.021-0.744-0.304-1.088-0.657-1.291
			c-0.354-0.191-0.188-0.85,0.766-1.249c0.958-0.397,1.155-0.818,2.061-0.332c0.918,0.5,1.623,0.213,1.3-0.119
			c-0.335-0.345-0.229-0.553,0.136-1.043c0.351-0.478,2.639-4.748,0.601-7.478c-2.039-2.743-8.058-4.277-11.549-4.51
			c-3.479-0.233-11.238,0.101-11.972,0.005c-0.734-0.098-4.183-0.168-4.867-0.638c-0.686-0.469-1.356,0.044-0.506,0.458
			c0.85,0.412,5.543,0.58,6.594,0.561c1.048-0.006,12.582-0.069,15.92,1.338c3.338,1.406,6.341,2.479,6.35,5.323
			c-0.009,2.854-2.28,4.797-2.28,4.797s-0.592,0.524-1.611,0.312c-1.022-0.199-7.276-1.62-8.831-2.348
			c-1.543-0.726-5.33-2.728-8.135-0.697c-2.82,2.027-7.701,4.388-8.424,4.817c-0.737,0.428-3.277,2.728-4.08,4.259
			c-0.806,1.546-1.438,1.764-1.641,2.721c-0.189,0.944-2.442,1.553-2.969,3.88c-0.529,2.327-1.006,3.68-1.38,4.233
			s-1.15,1.88-0.565,2.021c0.582,0.156,0.475,0.968-0.04,0.898c-0.515-0.067-0.936,0.259-0.585,1.574
			c0.352,1.316-1.576,2.336-1.828,3.652C106.076,122.855,106.973,124.609,106.289,126.328L106.289,126.328z"/>
	</g>
	<g>
		<path fill-rule="evenodd" clip-rule="evenodd" fill="#666666" d="M116.352,115.792c0,0-0.994,2.384-0.573,3.67
			c0.433,1.301,0.402,3.131,1.102,3.693c0.699,0.563,0.678,0.731,1.141,0.399c0.474-0.318,0.501,0.065,0.798,0.406
			c0.297,0.34,0.845,0.45,0.842,0.777c-0.005,0.339-0.111,0.549-0.575,0.488c-0.463-0.061-0.976,0.251-1.104-0.067
			c-0.129-0.316-0.594-0.968-1.122-0.526c-0.53,0.442-0.746,1.487-1.573,0.907c-0.814-0.579-2.121-0.709-0.763-1.384
			c0,0-0.922-1.049-1.158-1.252c-0.224-0.198-0.652-0.215-0.421-1.284c0.22-1.085-0.29-2.095,1.232-2.918
			c1.509-0.823,0.65-0.766,0.699-1.138C114.925,117.177,115.874,114.826,116.352,115.792L116.352,115.792z"/>
	</g>
	<g>
		<path fill-rule="evenodd" clip-rule="evenodd" fill="#666666" d="M111.825,141.865c0,0-0.733-1.799-1.648-1.618
			c-0.912,0.17-0.664,0.582-1.009,0.902c-0.329,0.325-2.408,3.692-2.494,4.35c-0.087,0.657-1.277,5.254-1.26,6.227
			s-1.192,2.816-2.219,3.35c-1.039,0.533-2.954,2.652-3.516,4.74c-0.572,2.072-0.498,2.607-0.604,4.007
			c-0.104,1.4-0.484,4.311-1.314,4.949c-0.83,0.638-2.344,0.886-3.875,0.685c-1.532-0.201-4.02-1.115-1.796-3.288
			c2.208-2.159,4.638-4.813,4.245-6.423c-0.379-1.609,1.332-1.674,1.695-2.149c0.364-0.477,0.364-0.477,0.364-0.477l0.801-2.709
			c0,0,0.163-1.251,1.038-1.136c0.875,0.114,2.283-1.037,2.398-1.913c0.115-0.877,0.296-1.663-0.064-1.71
			c-0.374-0.049-0.486-0.889-0.486-0.889s-0.273-0.706-0.903,0.103c-0.617,0.812-0.788,0.421-0.324-0.33
			c0.466-0.763,0.533-1.266,0.533-1.266s0.423-0.324,0.821-0.574c0.398-0.236,0.305-2.33,0.275-2.701
			c-0.017-0.382-0.692-0.917-0.714,0.353c-0.009,1.256,0.048,1.932,0.048,1.932s-0.856,0.334-0.688-0.456
			c0.184-0.802,0.308-2.344,0.45-2.837c0.146-0.505-0.427-1.85,0.117-2.591c0.542-0.74,0.647-2.143,0.647-2.143
			s0.858-0.854,0.592,0.079c-0.28,0.932-0.966,2.768-0.795,3.17c0.171,0.39,0.667,0.598,0.867,0.18
			c0.211-0.419-0.437-1.172,0.211-1.611c0.657-0.424,0.402-1.872,0.402-1.872s0.473-1.417,0.903-1.807
			c0.419-0.403,0.829-3.532,0.745-3.988c-0.098-0.458-0.088-0.535,0.58-1.038c0.658-0.517,0.451-1.735,1.257-2.299
			c0.82-0.56,0.582-0.434,0.411,0.277c-0.161,0.726-0.533,3.572,1.045,2.821c1.592-0.76,2.895-0.51,3.17-2.11
			c0.289-1.602,0.881-3.828,1.682-4.838c0,0,0.091,2.095,0.656,2.392c0.549,0.295,1.935,0.019,2.76,1.029
			c0.812,0.996,2.925,0.161,2.779-0.227c-0.158-0.398-0.456-2.22,0.59-1.113c1.035,1.105,1.492,1.609,1.93,1.667
			c0.438,0.057,1.075-0.304,0.594-0.525c-0.496-0.209-0.193-0.836-0.047-1.341c0.133-0.507,0.874-0.475,1.447-0.846
			c0.559-0.372,1.064-0.241,1.199-0.669c0.134-0.414,1.076-1.403,1-0.234c-0.09,1.181,0.084,2.158,0.473,2.589
			c0.391,0.417,0.64,0.83,0.135,1.274c-0.505,0.458,0.349,1.237,0.216,2.255c-0.136,1.031,0.083,1.06-0.694,0.8
			c-0.779-0.246-1.428,0.114-0.934,0.926c0.484,0.81,0.32,1.457-0.295,1.665c-0.619,0.219-0.84,0.714-1.275,1.835
			c-0.449,1.134-1.166,2.598-1.023,3.22c0.143,0.608,0.666,1.71,1.183,1.779c0.515,0.066,0.578,0.677,0.615,1.493
			c0.05,0.818,1.16,1.345,1.2,2.24c0.027,0.896,1.207,2.082,0.418,1.915c-0.802-0.184-1.029,0.456-1.134,1.254
			c-0.106,0.81,0.063,2.312,0.063,2.312s0.161,1.07-0.381,1.812c-0.543,0.741-1.096,2.161-1.067,3.057
			c0.026,0.892-1.761,2.139-2.353,2.061c-0.58-0.076-0.8-0.693,0.323-0.769c1.124-0.077,1.255-1.093,0.327-1.294
			c-0.943-0.201-1.727-0.526-1.851,0.426c-0.124,0.954-0.212,1.611-1.276,1.247c-1.066-0.362-0.885-0.744-0.777-1.371
			c0.094-0.617,0.868-1.93,1.113-2.304c0.26-0.372,0.763-1.314,1.184-1.627c0.407-0.313,1.876-2.426,1.876-2.426
			s1.42-2.342,0.286-1.6c-1.145,0.739-3.247,2.103-3.506,2.881c-0.248,0.793-1.628,3.429-1.754,4.381
			c-0.123,0.954-1.133,1.266-1.342,2.862c-0.212,1.611-1.213,5.265-0.746,6.294c0.455,1.029-0.641,1.998-1.098,2.082
			c-0.457,0.098-2.629,1.372-3.57,1.171c-0.931-0.201-1.332-0.54-1.104-1.179s-0.304-1.089-0.607-0.46
			c-0.307,0.627-1.336,0.493-0.955-0.714c0.382-1.221,1.861-4.51,3.527-5.931c1.678-1.416,0.543-1.854,1.848-1.618
			c0,0,1.008-1.49,0.315-1.806c-0.706-0.313-0.56-0.819-0.475-1.475c0.085-0.657-0.533-1.63,0.136-2.735
			c0.654-1.104,2.322-3.034,2.047-4.341c-0.277-1.294-1.551-1.762-1.551-1.762c-0.798-0.104-1.675-0.809-1.551-1.761
			C112.415,143.067,111.194,142.686,111.825,141.865L111.825,141.865z"/>
	</g>
	<g>
		<path fill-rule="evenodd" clip-rule="evenodd" fill="#666666" d="M120.438,154.425c0,0-0.833-0.646,0.105-1.322
			c0.939-0.663,2.223-2.564,2.322-2.825c0.1-0.262,0.865-0.805,0.75,0.071c-0.112,0.862-0.484,3.002-0.456,3.489
			c0,0-0.737,0.035-1.071,0.477C121.77,154.757,120.805,154.906,120.438,154.425L120.438,154.425z"/>
	</g>
	<g>
		<path fill-rule="evenodd" clip-rule="evenodd" fill="#666666" d="M118.936,155.484c0.045-0.138,0.24-0.229,0.379-0.197
			c0.127,0.03,0.248,0.216,0.206,0.326c-0.079,0.201-0.28,0.448-0.482,0.396C118.872,155.975,118.861,155.647,118.936,155.484
			L118.936,155.484z"/>
	</g>
	<g>
		<path fill-rule="evenodd" clip-rule="evenodd" fill="#666666" d="M111.691,166.011c0.23,0.03,0.398,0.248,0.368,0.481
			c-0.03,0.23-0.248,0.398-0.479,0.368s-0.387-0.248-0.357-0.479C111.253,166.149,111.459,165.98,111.691,166.011L111.691,166.011z"
			/>
	</g>
	<g>
		<path fill-rule="evenodd" clip-rule="evenodd" fill="#666666" d="M109.62,163.918c0.259,0.035,0.449,0.178,0.429,0.332
			c-0.018,0.143-0.24,0.229-0.497,0.196c-0.271-0.035-0.462-0.178-0.442-0.32C109.129,163.974,109.35,163.883,109.62,163.918
			L109.62,163.918z"/>
	</g>
	<g>
		<path fill-rule="evenodd" clip-rule="evenodd" fill="#666666" d="M114.297,151.905c0,0,1.586-1.508,1.752,0.02
			c0.181,1.518-0.916,3.404-1.268,3.58c-0.336,0.166-1.008,0.393-0.884-0.547C114.021,154.004,114.047,152.516,114.297,151.905
			L114.297,151.905z"/>
	</g>
	<g>
		<path fill-rule="evenodd" clip-rule="evenodd" fill="#666666" d="M112.122,159.911c0,0,0.995-1.101,1.38,0.075
			c0.382,1.177,0.87,1.556,0.777,2.25c-0.089,0.683,0.172,1.896-0.672,1.838s-1.861,0.712-2.428,0.534
			c-0.565-0.179-0.947-1.355-0.947-1.355s-0.592-0.392,0.434-1.227C111.681,161.19,110.881,160.391,112.122,159.911L112.122,159.911
			z"/>
	</g>
	<g>
		<path fill-rule="evenodd" clip-rule="evenodd" fill="#666666" d="M100.496,150.178c0,0-0.374,1.457-0.258,1.971
			c0.113,0.526-0.988,1.036-0.961,0.136C99.306,151.37,99.805,150.65,100.496,150.178L100.496,150.178z"/>
	</g>
	<g>
		<path fill-rule="evenodd" clip-rule="evenodd" fill="#666666" d="M94.242,168.232c0.232,0.031,0.395,0.195,0.372,0.363
			c-0.021,0.154-0.218,0.273-0.451,0.241c-0.218-0.028-0.392-0.195-0.372-0.35C93.812,168.321,94.024,168.203,94.242,168.232
			L94.242,168.232z"/>
	</g>
	<g>
		<path fill-rule="evenodd" clip-rule="evenodd" fill="#666666" d="M92.986,167.531c0,0-0.625,0.678-0.914,0.377
			c-0.29-0.286-0.543-0.856,0.123-1.24c0.665-0.384,3.341-3.518,3.559-3.777c0.219-0.26,1.779-0.383,1.764,0.833
			c-0.016,1.229-0.596,2.058-1.738,1.974C94.637,165.625,93.559,165.655,92.986,167.531L92.986,167.531z"/>
	</g>
	<g>
		<path fill-rule="evenodd" clip-rule="evenodd" fill="#666666" d="M139.406,139.37c-0.004-0.171,0.279-0.344,0.414-0.26
			c0.23,0.123,0.352,0.413,0.358,0.662c-0.003,0.118-0.241,0.14-0.353,0.086C139.644,139.756,139.404,139.58,139.406,139.37
			L139.406,139.37z"/>
	</g>
	<g>
		<path fill-rule="evenodd" clip-rule="evenodd" fill="#666666" d="M136.566,141.554c-0.246-0.007-0.182-0.614,0.022-0.771
			c0.224-0.192,0.872-0.252,0.874,0.037C137.451,141.196,136.958,141.563,136.566,141.554L136.566,141.554z"/>
	</g>
	<g>
		<path fill-rule="evenodd" clip-rule="evenodd" fill="#666666" d="M136.16,139.063c-0.209-0.119-0.175-0.571,0.015-0.718
			c0.233-0.166,0.608-0.038,0.837,0.109c0.134,0.084,0.174,0.363,0.047,0.451C136.812,139.084,136.426,139.229,136.16,139.063
			L136.16,139.063z"/>
	</g>
	<g>
		<path fill-rule="evenodd" clip-rule="evenodd" fill="#666666" d="M146.447,131.296c-0.445-0.098-0.375-0.639,0.074-0.566
			c0.859,0.139,1.838,0.372,2.584,0.875c0.648,0.451,0.041,1.38-0.402,0.771C148.124,131.594,147.221,131.488,146.447,131.296
			L146.447,131.296z"/>
	</g>
	<g>
		<path fill-rule="evenodd" clip-rule="evenodd" fill="#666666" d="M153.228,139.922c0,0,0.587,0.537,0.921,0.58
			c0.322,0.042,0.426,0.84-0.101,0.771c-0.542-0.07-1.408-0.644-1.377-0.887C152.703,140.142,152.918,139.096,153.228,139.922
			L153.228,139.922z"/>
	</g>
	<g>
		<path fill-rule="evenodd" clip-rule="evenodd" fill="#666666" d="M151.064,136.535c0,0-0.618,0.627-0.527-0.068
			c0.09-0.683,0.384-2.021,0.949-1.947c0.58,0.077,0.641,0.217,0.974,1.164c0.32,0.959,0.818,1.967,1.614,2.49
			c0.795,0.522-0.857,1.131-1.071,0.568c-0.214-0.567-1.062-2.001-1.239-2.233C151.598,136.277,151.189,135.896,151.064,136.535
			L151.064,136.535z"/>
	</g>
</g>
</svg>
