<?xml version="1.0" encoding="utf-8"?>
<!-- Generator: Adobe Illustrator 16.0.0, SVG Export Plug-In . SVG Version: 6.00 Build 0)  -->
<!DOCTYPE svg PUBLIC "-//W3C//DTD SVG 1.1//EN" "http://www.w3.org/Graphics/SVG/1.1/DTD/svg11.dtd">
<svg version="1.1" id="Layer_1" xmlns="http://www.w3.org/2000/svg" xmlns:xlink="http://www.w3.org/1999/xlink" x="0px" y="0px"
	 width="250px" height="250px" viewBox="0 0 250 250" enable-background="new 0 0 250 250" xml:space="preserve">
<path fill="#666666" d="M120.539,188.382c-13.916-7.225-22.182-12.98-30.344-21.134c-7.545-7.54-12.5-14.158-17.734-23.702
	c-8.93-16.279-12.365-34.379-10.828-57.044l0.166-2.438l2.508-1.894c11.631-8.775,23.914-14.991,35.709-18.067
	c8.996-2.345,15.239-3.128,24.967-3.128c8.968,0,13.816,0.53,22.352,2.446c10.688,2.398,22.281,7.542,32.678,14.498
	c4.281,2.863,8.361,5.964,8.604,6.537c0.129,0.309,0.248,5.387,0.262,11.281c0.021,9.781-0.029,11.096-0.57,15.032
	c-2.207,16.047-6.666,27.94-15.385,41.042c-8.748,13.142-20.043,23.634-34.216,31.769c-2.78,1.597-12.542,6.8-13.202,7.037
	C125.29,190.695,123.055,189.688,120.539,188.382L120.539,188.382z"/>
<g>
	<path fill="#666666" d="M125.072,201.299c-0.392,0-0.688-0.095-0.878-0.167c-1.694-0.638-12.69-6.02-15.474-7.531
		c-20.614-11.201-34.18-24.517-45.361-44.522c-7.581-13.564-11.553-27.768-12.877-46.053c-0.301-4.155-0.154-17.512,0.243-22.33
		l0.225-2.719l3.483-2.664c10.928-8.355,23.762-15.397,35.213-19.32c6.574-2.252,14.279-4.018,22.286-5.106
		c2.97-0.403,8.141-0.645,13.829-0.645c4.995,0,9.325,0.189,11.88,0.521c13.733,1.785,24.065,4.82,35.665,10.478
		c8.667,4.227,17.98,10.151,24.917,15.849l1.446,1.188l0.332,5.925c0.367,6.617,0.162,19.303-0.395,24.238
		c-0.917,8.12-2.014,13.496-4.346,21.305c-1.983,6.646-3.186,9.683-6.119,15.479c-5.844,11.541-12.028,20.151-20.68,28.791
		c-9.969,9.953-19.746,16.531-36.072,24.272C126.942,200.87,126.012,201.299,125.072,201.299z M53.831,79.551l-0.115,1.392
		c-0.38,4.615-0.527,17.899-0.241,21.866c1.291,17.825,5.147,31.645,12.504,44.807c10.885,19.474,24.096,32.438,44.174,43.349
		c2.754,1.496,13.158,6.571,14.98,7.313c0.668-0.186,3.03-1.306,5.973-2.701c16.19-7.676,25.412-13.874,35.238-23.685
		c8.413-8.401,14.431-16.782,20.123-28.023c2.836-5.603,3.998-8.543,5.921-14.981c2.274-7.617,3.345-12.861,4.239-20.782
		c0.532-4.722,0.732-17.365,0.377-23.734l-0.256-4.61l-0.43-0.353c-6.764-5.558-15.857-11.341-24.324-15.47
		c-11.289-5.505-21.353-8.46-34.739-10.2c-2.396-0.311-6.693-0.496-11.493-0.496c-5.479,0-10.623,0.236-13.426,0.617
		c-7.703,1.048-15.416,2.813-21.717,4.972c-11.158,3.822-23.682,10.699-34.363,18.865L53.831,79.551z"/>
</g>
<path fill="#666666" d="M120.615,187.302c-13.679-7.102-21.802-12.76-29.824-20.773c-7.42-7.411-12.287-13.916-17.434-23.299
	c-8.778-16.001-12.154-33.793-10.645-56.071l0.164-2.397l2.465-1.862c11.433-8.625,23.507-14.735,35.102-17.758
	c8.842-2.306,14.977-3.075,24.541-3.075c8.812,0,13.581,0.522,21.969,2.404c10.508,2.358,21.902,7.414,32.123,14.252
	c4.207,2.813,8.219,5.861,8.455,6.426c0.129,0.303,0.244,5.295,0.258,11.089c0.021,9.614-0.028,10.906-0.559,14.776
	c-2.172,15.773-6.554,27.464-15.125,40.343c-8.597,12.917-19.7,23.229-33.631,31.228c-2.732,1.568-12.33,6.683-12.979,6.915
	C125.285,189.576,123.088,188.586,120.615,187.302L120.615,187.302z"/>
<g>
	<path fill="#FFFFFF" d="M130.839,171.641c9.346-1.018,18.335-4.524,25.821-10.073c2.57-1.905,7.135-6.308,9.256-8.927
		c5.363-6.628,9.08-14.479,10.889-22.999c0.667-3.142,0.711-3.731,0.717-9.894c0.006-5.71-0.064-6.931-0.561-9.508
		c-2.975-15.517-12.283-28.522-26.062-36.408c-4.83-2.768-11.056-4.962-17.05-6.015c-4.001-0.701-11.857-0.842-15.677-0.276
		c-12.996,1.922-24.462,8.111-32.694,17.646c-11.757,13.617-15.703,31.627-10.728,48.952c4.043,14.078,14.414,26.286,27.748,32.668
		c4.836,2.314,11.504,4.224,16.833,4.822C122.154,171.946,127.977,171.952,130.839,171.641L130.839,171.641z M117.531,165.11
		c-15.918-2.685-29.742-13.731-35.476-28.344c-2.21-5.63-3.056-9.724-3.255-15.696c-0.164-4.902,0.175-8.383,1.209-12.501
		c4.504-17.886,18.318-31.117,36.07-34.542c3.943-0.761,4.22-0.737,4.698,0.41c1.077,2.576,2.062,7.916,3.048,16.527
		c0.415,0.786-0.109,6.734,1.613,6.01c0.326-0.205,0.496-0.816,0.64-2.307c1.04-10.741,2.716-19.648,3.933-20.904
		c0.316-0.326,0.695-0.318,2.998,0.052c9.469,1.529,18.104,6.012,25.122,13.042c3.679,3.685,6.001,6.818,8.208,11.071
		c3.996,7.701,5.65,14.889,5.338,23.165c-0.161,4.208-0.547,6.779-1.608,10.675c-4.45,16.331-17.962,29.141-34.569,32.774
		c-1.615,0.354-3.487,0.719-4.164,0.81l-1.226,0.169l-0.411-0.98c-1.228-2.924-2.787-11.545-3.434-18.969
		c-0.157-1.835-0.346-3.542-0.417-3.788c-0.132-0.459-0.985-0.623-1.224-0.237c-0.072,0.119-0.43,2.838-0.791,6.045
		c-1.086,9.613-2.565,17.068-3.511,17.667C119.908,165.521,119.985,165.525,117.531,165.11L117.531,165.11z"/>
</g>
<g>
	<path fill="#FFFFFF" d="M125.949,119.955l0.067-13.28l0.96-0.08c0.873-0.072,0.971-0.155,1.041-0.899l0.08-0.817l-2.684-0.082
		c-3.514-0.104-3.562-0.093-3.464,0.904c0.067,0.715,0.188,0.83,0.978,0.943l0.899,0.128l0.069,5.994
		c0.037,3.294-0.026,5.932-0.145,5.86c-0.116-0.073-1.466-3.207-3-6.965l-2.783-6.832l-3.368,0.071l-3.364,0.071v0.772
		c0,0.705,0.08,0.776,0.965,0.851l0.967,0.08l-0.066,12.126l-0.067,12.126h-1.157h-1.156l-2.659-12.334
		c-3.224-14.938-3.038-14.175-3.528-14.363c-1.065-0.409-1.211,0.028-3.533,10.679c-2.347,10.738-3.01,12.87-4.491,14.436
		c-1.046,1.105-2.427,1.711-3.896,1.711h-1.299l0.066-12.141l0.068-12.143l0.9-0.128c0.797-0.114,0.898-0.216,0.898-0.899v-0.772
		h-3.983h-3.983l-0.084,0.743c-0.097,0.844,0.271,1.176,1.305,1.182l0.708,0.004v12.078v12.076h-0.622
		c-1.061,0-1.435,0.272-1.435,1.041c0,0.4,0.087,0.78,0.192,0.846c0.105,0.063,3.311,0.042,7.118-0.051l6.925-0.165l0.784-3.854
		l0.784-3.854l2.112-0.075c2.021-0.071,2.118-0.051,2.237,0.514c0.457,2.144,0.917,4.698,0.917,5.097
		c0,0.344-0.228,0.49-0.834,0.549c-0.739,0.072-0.834,0.172-0.834,0.853v0.771l6.165,0.069c5.354,0.059,6.207,0.015,6.464-0.334
		c0.525-0.724,0.126-1.371-0.899-1.456l-0.938-0.078l-0.068-9.491c-0.037-5.221,0.024-9.584,0.139-9.696
		c0.111-0.114,1.982,4.215,4.154,9.619c5.353,13.32,4.762,12.059,5.602,11.964l0.709-0.083L125.949,119.955L125.949,119.955z
		 M101.084,122.64c-0.014-0.618,1.916-9.315,2.062-9.315c0.207,0,2.008,9.022,1.859,9.315c-0.053,0.104-0.957,0.193-2.01,0.193
		C101.946,122.833,101.086,122.744,101.084,122.64L101.084,122.64z M137.914,133.092c2.203-0.612,3.887-2.976,4.693-6.601
		c0.493-2.206,0.389-2.631-0.643-2.631c-0.932,0-0.943,0.017-1.57,2.469c-0.686,2.679-1.539,4.088-2.703,4.473
		c-1.703,0.562-3.219-0.192-4.052-2.018c-0.507-1.106-0.556-1.716-0.638-7.881c-0.131-9.462,0.435-12.931,2.25-13.87
		c2.389-1.234,4.411,0.491,5.128,4.367c0.313,1.691,0.521,2.013,1.214,1.881c0.434-0.082,0.492-0.463,0.625-4.071
		c0.082-2.189,0.099-4.123,0.037-4.302c-0.198-0.574-1.328-0.371-1.631,0.293l-0.28,0.614l-1.244-0.773
		c-1.124-0.698-1.405-0.763-2.923-0.667c-1.337,0.087-1.893,0.262-2.75,0.867c-3.008,2.122-5.104,7.65-5.104,13.454
		c0,6.708,2.646,12.72,6.296,14.315C135.566,133.424,136.623,133.45,137.914,133.092L137.914,133.092z M166.858,132.738
		c0.577-0.695,0.208-1.288-0.881-1.426l-1.015-0.129l-2.896-13.362c-1.594-7.349-2.898-13.392-2.902-13.427
		c-0.002-0.035-0.347-0.063-0.766-0.063c-0.896,0-0.726-0.52-2.435,7.452c-0.653,3.038-1.847,8.589-2.657,12.334l-1.471,6.81
		l-1.222,0.078l-1.225,0.077l0.067-12.154l0.067-12.156l0.899-0.128c0.8-0.114,0.898-0.216,0.898-0.899v-0.772h-3.982h-3.983v0.772
		c0,0.684,0.101,0.785,0.898,0.899l0.899,0.128v12.077v12.078l-0.899,0.128c-0.795,0.115-0.907,0.226-0.978,0.969l-0.083,0.839
		l6.12-0.067l6.119-0.069l0.083-0.71c0.069-0.612-0.027-0.731-0.708-0.868c-0.432-0.086-0.781-0.229-0.777-0.316
		c0.008-0.089,0.273-1.435,0.592-2.989l0.574-2.824l2.103-0.075c2.011-0.071,2.107-0.049,2.228,0.514
		c0.464,2.171,0.918,4.701,0.918,5.112c0,0.348-0.184,0.486-0.635,0.486c-0.361,0-0.745,0.212-0.898,0.498
		c-0.344,0.642-0.34,0.677,0.137,1.154C159.621,133.277,166.39,133.304,166.858,132.738L166.858,132.738z M155.367,122.254
		c0.066-0.317,0.5-2.456,0.965-4.753c0.467-2.296,0.929-4.177,1.031-4.177c0.104,0,0.566,1.995,1.028,4.434
		c0.462,2.438,0.895,4.576,0.961,4.753c0.09,0.241-0.409,0.322-1.993,0.322C155.303,122.833,155.25,122.817,155.367,122.254
		L155.367,122.254z"/>
</g>
</svg>
