<?xml version="1.0" encoding="utf-8"?>
<!-- Generator: Adobe Illustrator 16.0.0, SVG Export Plug-In . SVG Version: 6.00 Build 0)  -->
<!DOCTYPE svg PUBLIC "-//W3C//DTD SVG 1.1//EN" "http://www.w3.org/Graphics/SVG/1.1/DTD/svg11.dtd">
<svg version="1.1" id="Layer_1" xmlns="http://www.w3.org/2000/svg" xmlns:xlink="http://www.w3.org/1999/xlink" x="0px" y="0px"
	 width="250px" height="250px" viewBox="0 0 250 250" enable-background="new 0 0 250 250" xml:space="preserve">
<g>
	<path fill="#666666" d="M185.244,134.004h-2.787l-1.646,5.097h2.658c0.295,0,0.875-0.096,1.787-0.33
		c0.439-0.113,0.873-0.364,1.271-0.799c0.404-0.426,0.688-0.895,0.873-1.45c0.256-0.815,0.256-1.433-0.012-1.866
		C187.109,134.221,186.398,134.004,185.244,134.004"/>
	<path fill="#666666" d="M145.814,117.511c1.311,0,2.283-0.174,2.955-0.556c0.674-0.36,1.32-0.999,1.938-1.901
		c0.629-0.907,1.293-2.375,2.027-4.394c0.924-2.708,1.236-4.532,0.889-5.517c-0.342-0.999-1.307-1.476-2.916-1.476h-1.523
		l-4.867,13.844H145.814z"/>
	<path fill="#666666" d="M90.588,134.004h-2.76l-1.658,5.097h2.643c0.291,0,0.873-0.096,1.789-0.33
		c0.438-0.113,0.873-0.364,1.289-0.799c0.387-0.426,0.689-0.895,0.873-1.45c0.256-0.815,0.256-1.433-0.01-1.866
		C92.451,134.221,91.742,134.004,90.588,134.004"/>
	<polygon fill="#666666" points="102.865,104.479 97.486,113.595 101.879,113.595 	"/>
	<path fill="#666666" d="M125.008,80.191c-52.174,0-94.742,20.146-94.742,44.821c0,24.681,42.568,44.814,94.742,44.814
		c52.178,0,94.75-20.134,94.75-44.814C219.758,100.337,177.186,80.191,125.008,80.191 M167.922,112.766l1.771-5.244l17.238-0.282
		l-3.447,5.331l-17.016,8.07l9.076-8.152L167.922,112.766z M154.184,97.919c1.828,0,3.168,0.317,4.062,0.934
		c0.898,0.625,1.498,1.502,1.793,2.648c0.309,1.194,0.379,2.548,0.166,4.089c-0.213,1.554-0.631,3.186-1.246,4.91
		c-0.955,2.713-1.932,4.818-2.926,6.299c-1.008,1.51-2.123,2.73-3.334,3.742c-1.225,1.007-2.375,1.702-3.494,2.027
		c-1.52,0.456-2.797,0.686-3.895,0.686h-9.16l8.904-25.334H154.184z M101.879,97.919h6.715l-1.396,25.334h-6.434l0.49-4.18h-7.033
		l-2.434,4.18h-6.295L101.879,97.919z M75.98,97.919h6.156l-6.703,19.087h9.607l-2.18,6.247H67.078L75.98,97.919z M72.053,143.06
		l-17.238,0.295l3.441-5.331l17.021-8.074l-9.064,8.161l7.609-0.277L72.053,143.06z M99.297,135.896
		c-0.461,1.406-1.086,2.596-1.902,3.621c-0.807,0.998-1.736,1.822-2.799,2.448c-0.66,0.399-1.508,0.755-2.527,0.989
		c0.65,0.33,1.094,0.634,1.342,0.92c0.16,0.227,0.359,0.66,0.582,1.329c0.217,0.677,0.338,1.206,0.369,1.571l0.676,7.284h-7.109
		l-0.883-7.692c-0.107-0.99-0.281-1.615-0.523-1.937c-0.318-0.382-0.773-0.59-1.342-0.59h-0.574l-3.311,10.219h-6.344l8.174-25.119
		h10.537c1.936,0,3.355,0.19,4.258,0.627c0.895,0.382,1.467,1.155,1.746,2.274C99.947,132.953,99.822,134.308,99.297,135.896
		 M122.988,141.288c-0.945,2.935-2.131,5.356-3.555,7.241c-1.42,1.893-3.029,3.325-4.896,4.401
		c-1.871,1.024-3.928,1.562-6.189,1.562c-2.318,0-4.068-0.469-5.279-1.354c-1.211-0.911-1.971-2.353-2.27-4.297
		c-0.326-1.963,0.008-4.385,0.967-7.328c1.346-4.089,3.316-7.293,5.908-9.576c2.596-2.292,5.561-3.427,8.865-3.427
		c3.398,0,5.66,1.117,6.754,3.357C124.4,134.126,124.305,137.26,122.988,141.288 M124.305,123.253l-2.574-13.908l-4.883,13.908
		h-5.783l8.895-25.334h5.756l2.578,14.013l4.914-14.013h5.809l-8.895,25.334H124.305z M128.607,154.06l0.469-25.119h6.605
		l-1.307,18.069l10.424-18.069h6.41l-15.762,25.119H128.607z M166.604,143.424h-9.811l-1.611,4.932h10.887l-1.84,5.704h-17.225
		l8.178-25.119h16.904l-1.75,5.367h-10.57l-1.307,3.985h9.824L166.604,143.424z M193.947,135.896
		c-0.443,1.406-1.094,2.596-1.902,3.621c-0.803,0.998-1.73,1.822-2.795,2.448c-0.66,0.399-1.51,0.755-2.527,0.989
		c0.652,0.33,1.096,0.634,1.342,0.92c0.152,0.227,0.355,0.66,0.582,1.329c0.209,0.677,0.348,1.206,0.369,1.571l0.689,7.284h-7.145
		l-0.885-7.692c-0.105-0.99-0.248-1.615-0.504-1.937c-0.326-0.382-0.777-0.59-1.363-0.59h-0.547l-3.33,10.219h-6.328l8.178-25.119
		h10.506c1.957,0,3.389,0.19,4.289,0.627c0.893,0.382,1.475,1.155,1.744,2.274C194.598,132.953,194.451,134.308,193.947,135.896"/>
	<path fill="#666666" d="M114.611,134.377c-1.264,0-2.449,0.548-3.604,1.676c-1.129,1.086-2.102,2.935-2.951,5.496
		c-0.826,2.526-1.016,4.358-0.625,5.461c0.416,1.111,1.275,1.667,2.582,1.667c1.355,0,2.6-0.547,3.695-1.641
		c1.084-1.077,2.088-3.03,2.998-5.844c0.781-2.353,0.951-4.071,0.525-5.165C116.803,134.925,115.947,134.377,114.611,134.377"/>
	<path fill="#666666" d="M125.008,74.617c-55.1,0-100.047,22.656-100.047,50.395c0,27.745,44.947,50.371,100.047,50.371
		c55.104,0,100.029-22.626,100.029-50.371C225.037,97.273,180.111,74.617,125.008,74.617 M125.008,172.457
		c-53.885,0-97.82-21.314-97.82-47.445c0-26.133,43.936-47.438,97.82-47.438c53.881,0,97.828,21.306,97.828,47.438
		C222.836,151.143,178.889,172.457,125.008,172.457"/>
</g>
</svg>
