<?xml version="1.0" encoding="utf-8"?>
<!-- Generator: Adobe Illustrator 16.0.0, SVG Export Plug-In . SVG Version: 6.00 Build 0)  -->
<!DOCTYPE svg PUBLIC "-//W3C//DTD SVG 1.1//EN" "http://www.w3.org/Graphics/SVG/1.1/DTD/svg11.dtd">
<svg version="1.1" id="Layer_1" xmlns="http://www.w3.org/2000/svg" xmlns:xlink="http://www.w3.org/1999/xlink" x="0px" y="0px"
	 width="250px" height="250px" viewBox="0 0 250 250" enable-background="new 0 0 250 250" xml:space="preserve">
<g>
	<path fill="#666666" d="M109.105,107.553c-2.635,4.152-2.863,6.162-2.939,7.51c-0.09,1.317-0.09,3.682,2.049,5.62
		c3.619,3.208,8.666,2.689,13.143,2.689h36.922c1.574,0,2.037-0.459,2.879-1.598c2.955-4.5,4.279-9.369,4.279-13.731
		c0-9.341-6.09-21.103-21.49-26.422l-1.732,2.476c12.213,5.778,17.275,13.343,17.275,23.926c0.055,2.836-0.678,5.905-2.547,8.736
		h-35.902c-2.152,0-2.445-2.424-1.682-3.785c3.191-5.628,6.459-10.603,10.295-15.72c3.631-4.825,7.205-9.337,10.947-14.063
		c1.02-1.313,0.34-2.579-1.682-2.99c-4.191-0.886-8.578-1.495-13.877-1.495c-29.455,0-40.197,16.852-40.197,29.345
		c0,13.534,10.836,29.264,40.271,29.264c16.342,0,27.045-5.244,33.24-11.981h-6.248c-5.426,4.981-14.719,8.517-26.992,8.517
		c-24.934,0-34.125-13.967-34.125-25.99c0.186-10.725,10.053-25.54,34.75-26.035c0.938-0.027,1.658,0.827,1.01,1.634
		C122.527,88.633,110.48,105.389,109.105,107.553"/>
	<path fill="#666666" d="M220.086,155.91h-23.627c0.316-2.863,2.793-5.26,5.299-5.26h23.912l-0.084-4.983H200.24
		c-8.021,0-14.436,6.637-14.625,14.356c-0.031,0.537,0.332,0.87,0.945,0.87l28.764-0.104c1.479,0.198,2.609,1.369,2.609,2.737
		c0,1.55-1.416,2.784-3.115,2.784h-31.646v-20.629h-9.311v20.685h-17.133c-4.658,0-5.615-2.816-5.615-5.395v-15.408h-15.455
		c-1.535,1.036-3.01,2.167-4.58,3.116l-9.16,5.632l-11.924-8.677H91.459H73.971c-4.738,0-8.381,1.233-11.082,3.361
		c-4.848,3.812-6.391,7.847-6.328,9.649h6.309c-2.771,2.064-4.639,4.541-5.615,7.412H36.521c-3.721,0-6.117-2.634-6.117-5.197
		v-15.408h-9.16v16.01c0,5.75,5.482,9.729,14.277,9.729h55.938h13.537c1.451-0.973,2.812-2.009,4.322-2.919l9.436-5.694
		l11.961,8.503h13.615l-17.99-13.494l9.246-6.012c1.971-1.289,4.035-2.372,6.055-3.566v13.589c0,5.727,1.469,9.696,13.047,9.696
		l65.398-0.158c5.045,0.079,8.289-3.408,8.289-7.608C228.375,159.351,224.648,155.91,220.086,155.91 M103.148,166.003H91.459H69.271
		c0.088-2.642,2.904-5.292,5.475-5.292h16.713h4.619v-5.291h-4.619H68.996c-0.305-1.551,2.602-4.588,4.824-4.588h17.639h6.699v-2.84
		l15.779,11.279L103.148,166.003z"/>
</g>
</svg>
