<?xml version="1.0" encoding="utf-8"?>
<!-- Generator: Adobe Illustrator 16.0.0, SVG Export Plug-In . SVG Version: 6.00 Build 0)  -->
<!DOCTYPE svg PUBLIC "-//W3C//DTD SVG 1.1//EN" "http://www.w3.org/Graphics/SVG/1.1/DTD/svg11.dtd">
<svg version="1.1" id="Layer_1" xmlns="http://www.w3.org/2000/svg" xmlns:xlink="http://www.w3.org/1999/xlink" x="0px" y="0px"
	 width="250px" height="250px" viewBox="0 0 250 250" enable-background="new 0 0 250 250" xml:space="preserve">
<g>
	<path fill="#666666" d="M107.801,168.679l0.245,1.938h14.883l1.091,18.277l1.054-18.277h14.261l0.284-1.9
		c2.725-18.678,4.156-37.358,4.225-55.998l12.573-1.645l-12.573-1.603c-0.068-18.655-1.5-37.283-4.225-55.941l-0.284-1.908h-14.352
		l-1.062-18.28l-1.04,18.28h-14.846l-0.256,1.946c-2.345,18.956-3.588,37.614-3.684,55.96l-12.566,1.63l12.54,1.61
		C104.114,131.747,105.366,150.375,107.801,168.679 M135.478,166.19h-10.159l2.923-51.43l11.156-1.454
		C139.285,130.927,137.965,148.547,135.478,166.19 M135.478,56.057c2.512,17.598,3.808,35.214,3.92,52.831l-11.156-1.428
		l-2.977-51.403H135.478z M111.953,56.057h10.672l-2.946,51.423l-11.152,1.465C108.642,91.603,109.798,73.975,111.953,56.057
		 M119.685,114.772l2.971,51.418h-10.722c-2.228-17.3-3.385-34.936-3.432-52.85L119.685,114.772z"/>
	<path fill="#666666" d="M124.685,200.462c0.935,0,1.699,0.328,2.271,0.958c0.592,0.66,1.063,1.591,1.4,2.805l0.541-0.179
		l-0.778-4.24c-0.138,0.187-0.259,0.309-0.41,0.378c-0.141,0.084-0.329,0.095-0.59,0.095c-0.274,0-0.634-0.072-1.03-0.244
		c-0.412-0.148-0.824-0.229-1.26-0.229c-1.748,0-3.133,0.794-4.161,2.396c-1.013,1.614-1.556,3.637-1.556,6.061
		c0,2.896,0.496,5.026,1.454,6.373c0.981,1.352,2.282,2.012,3.92,2.012c1.062,0,1.999-0.432,2.771-1.282
		c0.809-0.886,1.352-1.996,1.627-3.336l-0.527-0.302c-0.222,1.248-0.684,2.214-1.344,2.954c-0.701,0.732-1.481,1.092-2.416,1.092
		c-1.354,0-2.324-0.66-2.929-2.026c-0.575-1.344-0.868-3.202-0.868-5.572c0-2.176,0.34-4.015,1.008-5.488
		C122.495,201.21,123.447,200.462,124.685,200.462"/>
	<path fill="#666666" d="M98.298,202.118l6.736,14.338h0.468V201.34c0-0.256,0.084-0.439,0.237-0.572
		c0.158-0.134,0.313-0.184,0.559-0.184h0.716v-0.603h-3.532v0.603h0.709c0.274,0,0.504,0.05,0.607,0.184
		c0.113,0.133,0.188,0.316,0.188,0.572v11.262h-0.188l-5.936-12.62h-2.776v0.603h0.61c0.347,0,0.556,0.034,0.693,0.184
		c0.13,0.133,0.207,0.316,0.207,0.572v13.758c0,0.268-0.077,0.454-0.199,0.592c-0.115,0.114-0.297,0.18-0.612,0.18h-0.699v0.587
		h3.524v-0.587h-0.705c-0.248,0-0.44-0.065-0.569-0.18c-0.13-0.138-0.206-0.324-0.206-0.592v-12.991h0.168V202.118z"/>
	<path fill="#666666" d="M82.584,215.869h-2.032c-0.237,0-0.427-0.054-0.576-0.18c-0.157-0.138-0.21-0.324-0.21-0.576V201.34
		c0-0.256,0.053-0.439,0.21-0.572c0.149-0.134,0.339-0.184,0.576-0.184h2.032v-0.592h-7.04v0.592h2.016
		c0.312,0,0.507,0.05,0.61,0.184c0.106,0.133,0.166,0.316,0.166,0.572v13.773c0,0.252-0.06,0.438-0.166,0.576
		c-0.104,0.126-0.298,0.18-0.61,0.18h-2.016v0.587h7.04V215.869z"/>
	<path fill="#666666" d="M61.481,212.693l-0.438-0.176c-0.298,1.138-0.737,2.012-1.313,2.55c-0.607,0.538-1.305,0.812-2.103,0.812
		h-2.401c-0.244,0-0.416-0.064-0.564-0.202c-0.156-0.114-0.229-0.312-0.229-0.564V201.34c0-0.244,0.072-0.439,0.229-0.572
		c0.148-0.13,0.32-0.199,0.564-0.199h0.61v-0.576h-4.221v0.576h0.565c0.328,0,0.543,0.069,0.648,0.199
		c0.145,0.133,0.19,0.328,0.19,0.572v13.773c0,0.252-0.046,0.45-0.168,0.564c-0.091,0.138-0.308,0.202-0.61,0.202h-0.626v0.588
		h9.073L61.481,212.693z"/>
	<path fill="#666666" d="M189.614,215.869h-0.707c-0.222,0-0.436-0.054-0.564-0.18c-0.145-0.138-0.232-0.324-0.232-0.576v-12.995
		h0.18l6.738,14.338h0.491V201.34c0-0.256,0.06-0.439,0.224-0.572c0.129-0.134,0.341-0.184,0.575-0.184h0.673v-0.592h-3.509v0.592
		h0.706c0.279,0,0.496,0.05,0.626,0.184c0.102,0.133,0.146,0.316,0.146,0.572v11.262h-0.146l-5.923-12.609h-2.777v0.592h0.584
		c0.324,0,0.557,0.034,0.68,0.184c0.148,0.133,0.217,0.316,0.217,0.572v13.773c0,0.252-0.052,0.438-0.161,0.576
		c-0.134,0.114-0.336,0.18-0.631,0.18h-0.688v0.587h3.5V215.869z"/>
	<path fill="#666666" d="M173.981,212.693l-0.433-0.176c-0.304,1.138-0.739,2.012-1.327,2.55c-0.585,0.538-1.289,0.812-2.1,0.812
		h-2.4c-0.205,0-0.408-0.064-0.561-0.202c-0.156-0.114-0.221-0.312-0.221-0.564V201.34c0-0.244,0.064-0.439,0.221-0.572
		c0.152-0.13,0.355-0.199,0.561-0.199h0.623v-0.576h-4.22v0.576h0.578c0.31,0,0.506,0.069,0.648,0.199
		c0.13,0.133,0.192,0.328,0.192,0.572v13.773c0,0.252-0.062,0.45-0.192,0.564c-0.118,0.138-0.308,0.202-0.618,0.202h-0.633v0.588
		h9.072L173.981,212.693z"/>
	<path fill="#666666" d="M146.644,199.79c-1.462,0-2.642,0.778-3.558,2.328c-0.929,1.526-1.376,3.564-1.376,6.057
		c0,2.572,0.5,4.618,1.476,6.163c0.944,1.531,2.104,2.32,3.458,2.32c1.391,0,2.57-0.767,3.535-2.285
		c0.907-1.485,1.407-3.572,1.407-6.198c0-2.302-0.461-4.286-1.316-5.919C149.369,200.606,148.159,199.79,146.644,199.79
		 M149.911,208.175c0,2.893-0.313,4.919-0.885,6.114c-0.61,1.206-1.396,1.782-2.383,1.782c-0.93,0-1.717-0.622-2.326-1.878
		c-0.636-1.256-0.937-3.256-0.937-6.019c0-2.58,0.294-4.496,0.889-5.771c0.605-1.286,1.386-1.942,2.374-1.942
		c1.159,0,1.991,0.718,2.496,2.13C149.644,204.007,149.911,205.873,149.911,208.175"/>
</g>
</svg>
