<?xml version="1.0" encoding="utf-8"?>
<!-- Generator: Adobe Illustrator 16.0.0, SVG Export Plug-In . SVG Version: 6.00 Build 0)  -->
<!DOCTYPE svg PUBLIC "-//W3C//DTD SVG 1.1//EN" "http://www.w3.org/Graphics/SVG/1.1/DTD/svg11.dtd">
<svg version="1.1" id="Layer_1" xmlns="http://www.w3.org/2000/svg" xmlns:xlink="http://www.w3.org/1999/xlink" x="0px" y="0px"
	 width="250px" height="250px" viewBox="0 0 250 250" enable-background="new 0 0 250 250" xml:space="preserve">
<g>
	<path fill="#666666" d="M124.336,34.811c-14.492,0-28.094,9.482-38.25,26.677c-10.031,16.985-15.547,39.557-15.547,63.506
		c0,23.973,5.516,46.538,15.547,63.529c10.156,17.194,23.758,26.666,38.25,26.666c14.531,0,28.109-9.472,38.27-26.666
		c10.023-16.991,15.516-39.557,15.516-63.529c0-23.949-5.492-46.521-15.516-63.506C152.445,44.293,138.867,34.811,124.336,34.811
		 M124.336,212.523c-13.508,0-26.25-9.006-35.941-25.367c-9.797-16.571-15.172-38.644-15.172-62.162
		c0-23.507,5.375-45.568,15.172-62.145c9.691-16.356,22.434-25.368,35.941-25.368c13.539,0,26.297,9.012,35.957,25.368
		c9.777,16.577,15.164,38.638,15.164,62.145c0,23.519-5.387,45.591-15.164,62.162C150.633,203.518,137.875,212.523,124.336,212.523"
		/>
	<polygon fill="#666666" points="149.434,119.924 149.434,119.017 124.336,119.017 99.258,119.017 99.258,119.924 124.336,119.924 	
		"/>
	<polygon fill="#666666" points="124.336,125.25 149.434,125.25 149.434,124.319 124.336,124.319 99.242,124.319 99.242,125.25 	"/>
	<polygon fill="#666666" points="152.094,121.444 124.336,121.444 96.566,121.444 96.566,122.386 124.336,122.386 152.094,122.386 	
		"/>
	<path fill="#666666" d="M145.867,131.919c2.438,0,3.566-2.224,3.566-3.998h2.453v-1.117h-27.551H96.797v1.117h2.445
		c0,1.774,1.129,3.998,3.566,3.998c2.441,0,3.348-1.554,3.348-3.783c2.449,0,11.383,0,11.383,10.674h6.797h6.797
		c0-10.674,8.918-10.674,11.387-10.674C142.52,130.365,143.402,131.919,145.867,131.919"/>
	<path fill="#666666" d="M133.75,140.023h-9.414h-9.414c-0.25,0-0.465,0.215-0.465,0.471v3.726c0,0.255,0.215,0.471,0.465,0.471
		h9.414h9.414c0.246,0,0.457-0.216,0.457-0.471v-3.726C134.207,140.238,133.996,140.023,133.75,140.023"/>
	<path fill="#666666" d="M96.582,115.308v2.784h27.754h27.777v-2.784h-2.438c0-13.237,2.438-29.7,11.648-41.859
		c-5.965,1.35-13.281,7.696-16.246,11.621c2.422-0.817,4.598-2.428,6.73-3.238c-2.133,4.593-8.383,23.541-8.383,33.477h-5.949
		c-7.059-11.875-11.109-18.358-11.109-42.665c3.773,2.155,5.129,3.783,9.211,4.582c-4.605-4.582-11.242-14.847-11.242-24.839
		c0,9.993-6.633,20.257-11.223,24.839c4.051-0.799,5.406-2.427,9.207-4.582c0,24.307-4.051,30.783-11.121,42.665h-5.949
		c0-9.936-6.246-28.884-8.406-33.477c2.16,0.811,4.32,2.421,6.781,3.238c-2.98-3.925-10.285-10.271-16.254-11.621
		c9.211,12.159,11.633,28.623,11.633,41.859H96.582z M126.914,103.433c0.805,4.582,3.773,8.093,5.68,11.875h-5.68V103.433z
		 M121.762,103.433v11.875h-5.672C117.992,111.525,120.957,108.015,121.762,103.433"/>
	<polygon fill="#666666" points="142.473,172.094 145.254,172.094 143.836,166.751 	"/>
	<path fill="#666666" d="M131.602,154.365v-8.16c0-0.238-0.191-0.46-0.469-0.46h-6.797h-6.797c-0.289,0-0.496,0.222-0.496,0.46v8.16
		l-38.688,0.006c6.852,32.672,24.863,55.986,45.98,55.986c21.137,0,39.145-23.32,46.008-55.998L131.602,154.365z M97.297,176.506
		h-1.871l-0.016-11.365l-3.082,9.034l-2.891-9.034v11.365h-1.891v-14.428h3.07l1.809,6.301l1.797-6.301h3.074V176.506z
		 M106.535,176.506l-0.574-2.246h-4.062l-0.508,2.246h-2.516l3.918-14.428h2.16l4.094,14.428H106.535z M118.109,174.623
		c-0.332,0.703-0.805,1.265-1.371,1.61c-0.602,0.357-1.352,0.521-2.188,0.521c-1.305,0-2.27-0.419-4.449-2.053l1.488-1.889
		c1.848,1.242,2.336,1.458,2.969,1.458c0.641,0,1.16-0.204,1.465-0.59c0.336-0.397,0.488-0.856,0.488-1.39
		c0-0.329-0.07-0.63-0.199-0.862c-0.129-0.238-0.391-0.459-0.715-0.629c-0.266-0.119-0.867-0.494-1.699-0.879
		c-1.152-0.596-2.004-1.327-2.57-1.793c-0.676-0.595-1.363-1.525-1.363-2.653c0-0.743,0.195-1.458,0.488-2.093
		c0.289-0.641,0.746-1.021,1.281-1.361c0.559-0.346,1.613-0.42,2.383-0.42c1.262,0,2.52,0.607,3.766,1.895l-1.617,1.695
		c-0.879-0.828-1.5-1.111-2.059-1.219c-0.48-0.091-1.137,0.011-1.461,0.368c-0.238,0.228-0.328,0.522-0.328,0.891
		c0,0.352,0.09,0.624,0.316,0.885c0.25,0.317,1.094,0.992,1.969,1.531c1.02,0.59,1.824,1.038,2.297,1.378
		c1.109,0.822,1.203,1.344,1.281,1.576c0.281,0.636,0.328,0.959,0.328,1.895C118.609,173.312,118.43,173.896,118.109,174.623
		 M126.957,176.506h-6.637v-14.428h6.445v2.428h-4.391v3.192h3.992v2.416h-3.992v3.953h4.582V176.506z M136.543,176.506h-2.066
		l-1.594-3.198c-0.414,0.028-0.809,0.045-1.195,0.045v3.153h-2.031v-14.428h2.031c3.098,0,6.254,0.936,6.254,5.314
		c0,3.38-1.461,4.871-3.227,5.506L136.543,176.506z M146.496,176.506l-0.562-2.246h-4.082l-0.516,2.246h-2.516l3.902-14.428h2.191
		l4.094,14.428H146.496z M156.449,164.506h-2.996v12h-2.059v-12h-2.984v-2.428h8.039V164.506z M158.773,162.078h2.031v14.428h-2.031
		V162.078z"/>
	<polygon fill="#666666" points="102.531,172.094 105.352,172.094 103.887,166.751 	"/>
	<path fill="#666666" d="M131.688,164.239v6.998c1.68,0,3.992-0.346,3.992-3.731C135.68,164.704,133.648,164.239,131.688,164.239"/>
</g>
</svg>
