<?xml version="1.0" encoding="utf-8"?>
<!-- Generator: Adobe Illustrator 16.0.0, SVG Export Plug-In . SVG Version: 6.00 Build 0)  -->
<!DOCTYPE svg PUBLIC "-//W3C//DTD SVG 1.1//EN" "http://www.w3.org/Graphics/SVG/1.1/DTD/svg11.dtd">
<svg version="1.1" id="Layer_1" xmlns="http://www.w3.org/2000/svg" xmlns:xlink="http://www.w3.org/1999/xlink" x="0px" y="0px"
	 width="250px" height="250px" viewBox="0 0 250 250" enable-background="new 0 0 250 250" xml:space="preserve">
<g>
	<path fill="#666666" d="M169.891,73.51c-11.219-12.038-29.561-14.637-44.984-14.637c-15.559,0-34.467,2.6-45.488,15.338
		c-0.205,0.22-0.354,0.457-0.543,0.701c-5.406,6.436-8.736,15.686-8.736,28.065c0,38.187,31.148,44.285,54.768,44.285
		c23.814,0,54.965-6.098,54.965-44.285c0-12.38-3.332-21.629-8.77-28.065C170.693,74.448,170.275,73.979,169.891,73.51
		 M89.211,81.01c7.357-11.32,21.365-14.121,35.695-14.121c14.377,0,28.016,2.624,35.537,13.771c0.135,0.264,0.322,0.517,0.457,0.765
		c-12.73,7.46-27.234,7.729-35.994,26.435c-9.525-18.159-23.862-18.285-36.459-25.478C88.682,81.916,88.943,81.475,89.211,81.01
		 M124.906,139.243c-21.162,0.188-41.123-5.916-41.123-36.265c0-2.265,0-4.53,0.354-6.456c0.118-0.417,0.213-0.843,0.331-1.268
		c7.13,2.395,14.244,4.797,21.388,7.208c8.375,3.49,13.986,8.375,19.051,19.349c5.08-10.974,10.508-16.56,19.088-20.05
		c7.193-2.56,14.369-5.128,21.547-7.685c0.062,0.169,0.104,0.35,0.133,0.547c0.371,2.426,0.545,5.404,0.545,8.366
		C166.219,133.327,146.091,139.432,124.906,139.243"/>
	<g>
		<polygon fill="#666666" points="128.434,169.077 139.75,159.702 115.973,159.702 115.973,169.077 		"/>
		<path fill="#666666" d="M205.096,159.702h-20.994v8.492h16.654c4.837,0,4.072,3.159,4.072,3.159h-13.344
			c-1.648,0-6.863-0.244-9.4,3.797v-1.512c0-14.314-10.815-13.937-10.815-13.937h-28.211l-28.731,22.673v-13.928
			c0-9.123-9.414-8.745-9.414-8.745H83.941v8.492h16.645c4.844,0,4.199,3.159,4.199,3.159H91.439c-1.646,0-6.727-0.244-9.279,3.672
			v-3.538c0-12.534-11.329-11.785-11.329-11.785H35.506v31.426h10.683v-22.051h7.499v22.042h10.18v-22.042h3.418
			c4.965,0,4.318,4.05,4.318,4.05v17.992H82.16v-4.183c2.553,4.183,7.633,4.183,7.633,4.183h29.236l28.848-23.177v23.06h22.636
			c4.323,0,8.382-2.159,10.304-7.988c1.143,7.988,9.138,8.114,9.138,8.114h24.542v-22.681
			C214.496,159.324,205.096,159.702,205.096,159.702 M104.65,182.501H93.456c0,0-2.268,0.135-2.268-2.151
			c0-1.898,1.771-2.023,2.403-2.023h11.059V182.501z M167.598,181.871h-9.54v-13.299h9.657c0,0,4.562,0.378,4.562,6.209
			C172.277,180.61,170.143,181.871,167.598,181.871 M204.578,182.501h-11.18c0,0-2.293,0.135-2.293-2.151
			c0-1.898,1.898-2.023,2.537-2.023h10.936V182.501z"/>
		<polygon fill="#666666" points="122.338,191.119 146.105,191.119 146.105,181.879 133.636,181.879 		"/>
	</g>
</g>
</svg>
