<?xml version="1.0" encoding="utf-8"?>
<!-- Generator: Adobe Illustrator 16.0.0, SVG Export Plug-In . SVG Version: 6.00 Build 0)  -->
<!DOCTYPE svg PUBLIC "-//W3C//DTD SVG 1.1//EN" "http://www.w3.org/Graphics/SVG/1.1/DTD/svg11.dtd">
<svg version="1.1" id="Layer_1" xmlns="http://www.w3.org/2000/svg" xmlns:xlink="http://www.w3.org/1999/xlink" x="0px" y="0px"
	 width="250px" height="250px" viewBox="0 0 250 250" enable-background="new 0 0 250 250" xml:space="preserve">
<path fill="#666666" d="M124.973,45.208c-44.522-0.017-80.646,35.713-80.646,79.781c0,44.057,36.095,79.787,80.646,79.804
	c44.566,0,80.7-35.725,80.7-79.804C205.673,80.943,169.557,45.208,124.973,45.208 M124.973,201.759
	c-30.303,0-54.078-15.757-65.404-37.412l1.732-0.645c2.933,4.806,6.791,9.022,11.955,14.725c6.371,7.004,26.5,20.506,51.688,20.506
	c26.832,0.012,50.395-13.906,63.617-35.158c1.02-0.291,1.351-0.729,1.002-1.62c6.051-10.671,10.167-24.066,10.167-37.166
	c0-8.254-1.212-14.96-3.129-20.955c-1.435-4.52-3.444-9.017-4.323-10.794c-0.258-0.421-0.274-0.645-0.286-1.038
	c0.313,0.269,0.477,0.449,0.718,0.88c1.178,2.147,3.785,7.374,5.012,10.783c1.66,4.564,4.645,10.855,4.645,21.123
	C202.365,166.982,167.986,201.781,124.973,201.759 M60.293,162.558l56.504-40.636l-4.834-2.748l-50.331,41.859
	c-5.663-10.256-9.589-23.411-9.589-35.916c0-39.638,31.543-71.718,71.505-71.964l-10.306,64.092l4.811,2.792l6.471-66.884
	c0.123-0.841,0.679-0.841,0.679,0l0.392,70.529l11.473-6.74l-10.979-63.8c39.269,1.054,71.813,32.713,71.813,71.847
	c0,12.617-3.835,25.789-9.611,36.111l-50.292-41.897l-4.845,2.764l54.066,39.207c1.307,0.92,0.896,1.346-0.499,0.572l-60.705-35.013
	v13.121l60.855,23.248c-12.744,20.804-35.77,34.104-62.102,34.104c-26.387,0-49.029-13.29-61.792-34.127l60.974-23.259v-13.121
	l-63.127,36.465C59.299,163.982,58.912,163.533,60.293,162.558 M58.828,163.271c-2.675-5.54-5.489-13.335-6.656-19.497
	c-0.018-0.364-0.072-0.65,0.04-0.976c0.2,0.252,0.291,0.521,0.448,0.947c1.84,5.664,3.42,10.744,7.604,18.393L58.828,163.271z
	 M202.241,111.47c-0.179-0.219-0.298-0.539-0.438-0.92c-5.898-18.179-10.911-25.323-20.612-35.943
	c-12.752-14.001-33.572-24.807-55.727-24.835c-42.346,0-76.69,34.367-76.69,76.703c0,12.605,2.742,23.461,4.938,28.934
	c2.604,6.325,7.066,14.859,7.285,15.241c0.196,0.448,0.23,0.628,0.241,1.021c-0.313-0.247-0.448-0.443-0.718-0.847
	c-1.291-1.867-6.549-11.344-8.198-15.477c-3.549-9.017-6.19-18.841-6.19-29.152c0-43.647,35.326-79.058,79.008-79.058
	c38.992,0,70.461,27.1,77.101,63.379C202.264,110.858,202.365,111.155,202.241,111.47"/>
</svg>
