<?xml version="1.0" encoding="utf-8"?>
<!-- Generator: Adobe Illustrator 16.0.0, SVG Export Plug-In . SVG Version: 6.00 Build 0)  -->
<!DOCTYPE svg PUBLIC "-//W3C//DTD SVG 1.1//EN" "http://www.w3.org/Graphics/SVG/1.1/DTD/svg11.dtd">
<svg version="1.1" id="Layer_1" xmlns="http://www.w3.org/2000/svg" xmlns:xlink="http://www.w3.org/1999/xlink" x="0px" y="0px"
	 width="250px" height="250px" viewBox="0 0 250 250" enable-background="new 0 0 250 250" xml:space="preserve">
<g>
	<g>
		<g>
			<g>
				<path fill="#666666" d="M124.995,205.031c-44.128,0-80.027-35.902-80.027-80.031s35.899-80.031,80.027-80.031
					c44.132,0,80.035,35.902,80.035,80.031S169.127,205.031,124.995,205.031z M124.995,45.969
					c-43.577,0-79.027,35.453-79.027,79.031s35.45,79.031,79.027,79.031c43.58,0,79.035-35.453,79.035-79.031
					S168.575,45.969,124.995,45.969z"/>
				<path fill="#666666" d="M124.995,205.531c-44.403,0-80.527-36.126-80.527-80.531s36.124-80.531,80.527-80.531
					c44.407,0,80.535,36.126,80.535,80.531S169.402,205.531,124.995,205.531z M124.995,46.469c-43.3,0-78.527,35.229-78.527,78.531
					s35.228,78.531,78.527,78.531c43.305,0,78.535-35.229,78.535-78.531S168.3,46.469,124.995,46.469z M124.995,45.469
					c43.855,0,79.535,35.678,79.535,79.531C204.53,81.146,168.851,45.469,124.995,45.469c-43.852,0-79.527,35.678-79.527,79.531
					C45.468,81.146,81.144,45.469,124.995,45.469z"/>
			</g>
		</g>
		<g>
			<g>
				<path fill="#666666" d="M71.916,80.514c-1.273-0.85-2.805-1.872-3.89-2.703l-0.028,0.039c0.805,1.069,1.627,2.252,2.508,3.601
					l3.103,4.733l-0.644,0.86l-5.244-1.704c-1.548-0.508-2.944-1.004-4.172-1.534l-0.02,0.025c1.074,0.844,2.499,2.009,3.756,3.07
					l3.592,3.049l-0.809,1.081l-8.325-7.174l1.081-1.446l5.367,1.675c1.354,0.443,2.542,0.864,3.62,1.324l0.029-0.039
					c-0.722-0.884-1.451-1.917-2.267-3.136l-3.08-4.737l1.08-1.446l9.191,6.015l-0.828,1.107L71.916,80.514z"/>
			</g>
			<g>
				<path fill="#666666" d="M88.52,65.794l-3.529,2.387l2.213,3.273l3.936-2.659l0.664,0.983l-5.105,3.452l-6.141-9.081l4.904-3.315
					l0.666,0.983l-3.732,2.523l1.941,2.869l3.528-2.387L88.52,65.794z"/>
			</g>
			<g>
				<path fill="#666666" d="M100.471,53.878c0.644-0.345,1.603-0.716,2.537-0.995c1.448-0.433,2.463-0.447,3.293-0.051
					c0.67,0.309,1.18,0.938,1.422,1.747c0.414,1.387-0.184,2.566-1.178,3.271l0.014,0.047c0.895,0.039,1.601,0.643,2.176,1.658
					c0.779,1.362,1.332,2.301,1.671,2.641l-1.403,0.419c-0.259-0.245-0.763-1.079-1.449-2.299c-0.744-1.356-1.467-1.734-2.713-1.413
					l-1.277,0.382l1.357,4.549l-1.354,0.405L100.471,53.878z M103.254,58.256l1.388-0.414c1.449-0.433,2.131-1.502,1.772-2.702
					c-0.405-1.354-1.564-1.653-3.001-1.241c-0.654,0.195-1.104,0.397-1.303,0.525L103.254,58.256z"/>
			</g>
			<g>
				<path fill="#666666" d="M130.796,60.43c-0.527,0.247-1.575,0.482-2.908,0.449c-3.091-0.075-5.37-2.084-5.281-5.679
					c0.084-3.432,2.467-5.701,5.866-5.618c1.366,0.033,2.221,0.348,2.59,0.552l-0.369,1.146c-0.53-0.273-1.291-0.487-2.201-0.51
					c-2.569-0.062-4.318,1.539-4.388,4.418c-0.065,2.684,1.438,4.445,4.105,4.511c0.86,0.021,1.744-0.137,2.32-0.399L130.796,60.43z
					"/>
			</g>
			<g>
				<path fill="#666666" d="M148.6,53.434l-2.247,6.088c-0.85,2.304-0.187,3.658,1.186,4.164c1.524,0.563,2.874-0.083,3.714-2.356
					l2.246-6.089l1.343,0.496l-2.213,5.996c-1.167,3.159-3.308,3.842-5.535,3.021c-2.106-0.777-3.248-2.568-2.071-5.758l2.235-6.058
					L148.6,53.434z"/>
			</g>
			<g>
				<path fill="#666666" d="M169.562,64.411c0.65,0.334,1.5,0.912,2.262,1.522c1.179,0.946,1.766,1.772,1.912,2.683
					c0.126,0.726-0.101,1.503-0.63,2.162c-0.907,1.128-2.217,1.307-3.362,0.889l-0.029,0.038c0.476,0.757,0.381,1.682-0.129,2.731
					c-0.678,1.416-1.137,2.403-1.224,2.875l-1.142-0.916c0.055-0.353,0.454-1.24,1.068-2.499c0.693-1.383,0.592-2.193-0.379-3.035
					l-1.039-0.835l-2.973,3.703l-1.103-0.886L169.562,64.411z M167.543,69.189l1.128,0.906c1.179,0.946,2.446,0.9,3.23-0.076
					c0.885-1.104,0.474-2.227-0.685-3.175c-0.531-0.428-0.952-0.683-1.172-0.774L167.543,69.189z"/>
			</g>
			<g>
				<path fill="#666666" d="M178.145,88.731l3.871-2.583l3.326-6.388l0.896,1.34l-1.659,2.966c-0.455,0.812-0.828,1.453-1.277,2.162
					l0.02,0.027c0.767-0.141,1.57-0.227,2.494-0.335l3.395-0.368l0.895,1.341l-7.279,0.437l-3.885,2.593L178.145,88.731z"/>
			</g>
		</g>
		<g>
			<path fill-rule="evenodd" clip-rule="evenodd" fill="#666666" d="M62.801,125c0-34.35,27.846-62.198,62.195-62.198
				S187.197,90.65,187.197,125s-27.852,62.198-62.201,62.198S62.801,159.35,62.801,125L62.801,125z"/>
		</g>
		<g>
			<path fill-rule="evenodd" clip-rule="evenodd" fill="#FFFFFF" d="M182.367,115.146h-19.121c-4.416,0-9.127,1.91-12.361,7.501
				l-33.115,59.733c2.367,0.297,4.783,0.448,7.227,0.448c31.941,0,57.83-25.892,57.83-57.829
				C182.826,121.588,182.932,118.396,182.367,115.146C182.367,115.146,182.932,118.396,182.367,115.146L182.367,115.146z"/>
		</g>
		<g>
			<path fill-rule="evenodd" clip-rule="evenodd" fill="#FFFFFF" d="M93.973,173.812c2.621,1.671,5.391,3.133,8.271,4.369
				l33.637-59.8c1.617-3.384,4.562-7.063,11.033-7.063l34.182,0.01c-0.383-1.508-0.812-3.28-1.307-4.735h-32.141
				c-3.969,0.021-15.736,0.169-21.035,9.288L93.973,173.812L93.973,173.812z"/>
		</g>
		<g>
			<path fill-rule="evenodd" clip-rule="evenodd" fill="#FFFFFF" d="M75.988,155.716c1.787,2.84,3.809,5.51,6.041,7.985
				l29.73-52.528c2.203-4.411,9.266-8.384,13.822-8.384l52.801-0.057c-0.672-1.611-1.412-3.183-2.225-4.715h-54.836
				c-4.562,0.063-13.682,0.505-18.096,8.744L75.988,155.716L75.988,155.716z"/>
		</g>
		<g>
			<path fill-rule="evenodd" clip-rule="evenodd" fill="#FFFFFF" d="M173.947,94.188c-10.242-16.235-28.34-27.018-48.951-27.018
				c-31.934,0-57.83,25.888-57.83,57.829c0,4.302,0.475,8.497,1.363,12.531l19.99-35.48c2.648-5.001,11.768-7.795,16.77-7.795
				L173.947,94.188L173.947,94.188z"/>
		</g>
	</g>
	<g>
		<circle fill="#666666" cx="192.75" cy="121" r="3.5"/>
	</g>
	<g>
		<circle fill="#666666" cx="55.75" cy="121" r="3.5"/>
	</g>
</g>
</svg>
