<?xml version="1.0" encoding="utf-8"?>
<!-- Generator: Adobe Illustrator 16.0.0, SVG Export Plug-In . SVG Version: 6.00 Build 0)  -->
<!DOCTYPE svg PUBLIC "-//W3C//DTD SVG 1.1//EN" "http://www.w3.org/Graphics/SVG/1.1/DTD/svg11.dtd">
<svg version="1.1" id="Layer_1" xmlns="http://www.w3.org/2000/svg" xmlns:xlink="http://www.w3.org/1999/xlink" x="0px" y="0px"
	 width="250px" height="250px" viewBox="0 0 250 250" enable-background="new 0 0 250 250" xml:space="preserve">
<g>
	<path fill="#666666" d="M125.127,161.516c20.178,0,36.533-16.355,36.533-36.523c0-20.186-16.355-36.546-36.533-36.546
		s-36.535,16.36-36.535,36.546C88.592,145.16,104.949,161.516,125.127,161.516 M125.127,91.166
		c18.695,0,33.822,15.148,33.822,33.827c0,18.661-15.127,33.804-33.822,33.804c-18.68,0-33.814-15.144-33.814-33.804
		C91.312,106.313,106.447,91.166,125.127,91.166"/>
	<path fill="#666666" d="M25.803,110.43c1.658,2.012,3.672,4.373,6.002,6.97h-0.016c2.172,2.42,4.621,5.046,7.34,7.816h0.008
		c2.215,2.223,4.588,4.573,7.139,6.947H46.25c2.754,2.559,5.674,5.177,8.789,7.812h0.025c2.762,2.34,5.689,4.672,8.729,6.97l0,0
		c3.418,2.576,7.014,5.093,10.758,7.518h0.018h11.777h5.893c8.08,9.024,19.824,14.715,32.889,14.715s24.807-5.69,32.889-14.715
		h17.424h0.01c33.309-21.566,54.447-51.292,54.447-51.292h-0.018h-66.316c-7.602-13.368-21.971-22.345-38.436-22.345
		c-16.467,0-30.826,8.978-38.42,22.345h-2.686H20.131h-0.025c0,0,1.977,2.774,5.689,7.26H25.803z M47.934,132.163
		c-2.432-2.256-4.84-4.577-7.205-6.947h40.229c0.01,2.357,0.193,4.691,0.572,6.947H47.934z M202.082,132.163h-33.359
		c0.379-2.256,0.572-4.59,0.59-6.947h39.977C206.914,127.586,204.508,129.907,202.082,132.163 M222.74,110.43
		c-1.709,2.033-3.738,4.403-6.061,6.97h-48.016c-0.422-2.403-1.02-4.731-1.801-6.97H222.74z M166.711,139.975h26.482
		c-2.92,2.425-5.885,4.756-8.873,6.97h-20.834C164.75,144.723,165.826,142.391,166.711,139.975 M125.127,86.746
		c21.119,0,38.234,17.122,38.234,38.247c0,21.102-17.115,38.224-38.234,38.224c-21.113,0-38.242-17.122-38.242-38.224
		C86.885,103.868,104.014,86.746,125.127,86.746 M86.783,146.944H65.695c-2.971-2.214-5.934-4.545-8.881-6.97h26.744
		C84.426,142.391,85.512,144.723,86.783,146.944 M83.408,110.43c-0.793,2.239-1.391,4.567-1.811,6.97H33.33
		c-2.316-2.567-4.344-4.92-6.045-6.97H83.408z"/>
	<g>
		<rect x="120.828" y="115.628" fill="#666666" width="4" height="18.926"/>
	</g>
	<polygon fill="#666666" points="106.961,134.554 111.709,123.431 111.709,134.554 116.363,134.554 116.363,115.628 
		111.818,115.628 111.709,115.628 111.236,115.628 105.883,128.104 100.959,115.628 95.74,115.628 95.74,134.554 99.713,134.554 
		99.713,123.162 104.232,134.554 	"/>
	<polygon fill="#666666" points="133.174,123.141 141.963,134.554 145.531,134.554 145.531,115.628 141.516,115.628 
		141.516,127.131 141.516,127.14 132.668,115.628 129.217,115.628 129.217,134.554 133.174,134.554 	"/>
	<g>
		<rect x="149.996" y="115.628" fill="#666666" width="4" height="18.926"/>
	</g>
</g>
</svg>
