<?xml version="1.0" encoding="utf-8"?>
<!-- Generator: Adobe Illustrator 16.0.0, SVG Export Plug-In . SVG Version: 6.00 Build 0)  -->
<!DOCTYPE svg PUBLIC "-//W3C//DTD SVG 1.1//EN" "http://www.w3.org/Graphics/SVG/1.1/DTD/svg11.dtd">
<svg version="1.1" id="Layer_1" xmlns="http://www.w3.org/2000/svg" xmlns:xlink="http://www.w3.org/1999/xlink" x="0px" y="0px"
	 width="250px" height="250px" viewBox="0 0 250 250" enable-background="new 0 0 250 250" xml:space="preserve">
<g>
	<polygon fill="#666666" points="124.91,45.981 100.742,87.883 124.91,129.579 149.262,87.883 	"/>
	<polygon fill="#666666" points="124.91,129.575 149.262,171.319 197.617,171.319 173.453,129.575 	"/>
	<polygon fill="#666666" points="52.383,171.319 100.742,171.319 124.91,129.575 76.57,129.575 	"/>
	<polygon fill="#666666" points="70.266,192.554 66.336,183.399 62.363,183.399 62.363,203.496 65.953,203.496 65.953,190.396 
		70.266,199.91 74.781,190.396 74.781,203.496 78.379,203.496 78.379,183.399 74.418,183.399 	"/>
	<g>
		<rect x="81.723" y="183.399" fill="#666666" width="3.375" height="20.088"/>
	</g>
	<polygon fill="#666666" points="86.852,186.463 91.156,186.463 91.156,203.496 94.75,203.496 94.75,186.463 99.066,186.463 
		99.066,183.399 86.852,183.399 	"/>
	<path fill="#666666" d="M106.977,191.833c-2.859-1.438-3.969-2.153-3.969-3.582c0-1.278,0.902-1.981,2.516-1.981
		c1.812,0,2.703,1.617,2.703,3.247h3.617c-0.176-3.41-1.805-6.288-6.32-6.288c-4.129,0-6.102,2.157-6.102,5.203
		c0,2.865,1.809,4.482,4.488,6.091c3.801,2.153,4.68,2.698,4.68,3.938c0,1.45-1.066,2.329-2.879,2.329
		c-2.16,0-3.051-1.784-3.051-3.568h-3.426c0.188,3.758,1.812,6.799,6.477,6.799c3.43,0,6.473-1.965,6.473-5.727
		C112.184,195.059,110.215,193.635,106.977,191.833"/>
	<path fill="#666666" d="M123.754,197.221c0,2.153-1.059,3.393-3.008,3.393c-2.379,0-3.469-1.239-3.469-3.393v-13.812h-3.57v13.812
		c0,5.357,3.766,6.627,7.039,6.627c3.008,0,6.613-1.424,6.613-6.627v-13.812h-3.605V197.221z"/>
	<path fill="#666666" d="M139.602,192.914c0.895-0.193,2.887-1.802,2.887-4.482c0-3.226-2.367-5.023-6.117-5.023h-6.652v20.088
		h7.359c3.609,0,6.137-2.338,6.137-5.572C143.215,194.698,140.855,193.274,139.602,192.914 M136.18,200.438h-2.887v-13.975h2.715
		c1.629,0,2.879,0.712,2.879,2.509c0,1.798-1.082,2.51-2.879,2.51h-1.43v3.217h1.43c2.145,0,3.41,0.733,3.41,2.689
		C139.418,199.55,138.152,200.438,136.18,200.438"/>
	<polygon fill="#666666" points="176.844,191.292 169.641,191.292 169.641,183.408 165.875,183.408 165.875,203.496 
		169.641,203.496 169.641,194.698 177.008,194.698 177.008,203.496 180.59,203.496 180.59,183.408 176.844,183.408 	"/>
	<g>
		<rect x="145.297" y="183.399" fill="#666666" width="3.375" height="20.088"/>
	</g>
	<g>
		<rect x="184.16" y="183.399" fill="#666666" width="3.375" height="20.088"/>
	</g>
	<path fill="#666666" d="M158.883,191.648c-2.91-1.608-3.973-2.329-3.973-3.586c0-1.253,1.062-1.96,2.492-1.96
		c1.812,0,2.715,1.424,2.895,3.217h3.402c-0.188-3.397-1.77-6.275-6.297-6.275c-4.129,0-6.098,2.162-6.098,5.212
		c0,2.856,1.789,4.465,4.484,5.924c3.797,2.136,4.66,2.848,4.66,4.113c0,1.428-1.051,2.32-2.848,2.32
		c-2.16,0-3.062-1.969-3.062-3.771h-3.426c0.191,3.946,1.805,6.829,6.488,6.829c3.406,0,6.484-1.986,6.484-5.555
		C164.059,194.698,162.105,193.45,158.883,191.648"/>
</g>
</svg>
