<?xml version="1.0" encoding="utf-8"?>
<!-- Generator: Adobe Illustrator 16.0.0, SVG Export Plug-In . SVG Version: 6.00 Build 0)  -->
<!DOCTYPE svg PUBLIC "-//W3C//DTD SVG 1.1//EN" "http://www.w3.org/Graphics/SVG/1.1/DTD/svg11.dtd">
<svg version="1.1" id="Layer_1" xmlns="http://www.w3.org/2000/svg" xmlns:xlink="http://www.w3.org/1999/xlink" x="0px" y="0px"
	 width="250px" height="250px" viewBox="0 0 250 250" enable-background="new 0 0 250 250" xml:space="preserve">
<path fill-rule="evenodd" clip-rule="evenodd" fill="#666666" d="M76.733,98.224c-0.037,0.605-0.037,1.226-0.037,1.836
	c0,25.13,20.366,45.5,45.497,45.5c20.839,0,38.398-14.01,43.783-33.116l-73.006,0.77l17.56-13.521L76.733,98.224z M78.374,87.776
	l73.461-0.696l-17.933,13.617l33.742,1.449c0.026-0.684,0.045-1.386,0.045-2.087c0-25.113-20.374-45.487-45.496-45.487
	C101.328,54.572,83.74,68.619,78.374,87.776z M114.312,183.184c2.388,0,4.128-1.222,4.128-4.31c0-3.094-1.74-4.314-4.128-4.314
	l-13.222-0.01c-0.219,0-0.4,0.183-0.4,0.396v7.851c0,0.228,0.182,0.4,0.4,0.4L114.312,183.184z M173.721,168.04
	c0-0.374,0.311-0.666,0.675-0.666h10.817c0.373,0,0.664,0.292,0.664,0.666v25.062c0,0.219,0.174,0.4,0.401,0.4h22.972
	c0.364,0,0.664,0.287,0.664,0.662v5.85c0,0.368-0.3,0.66-0.664,0.66h-35.118c-0.219,0-0.411-0.175-0.411-0.396V168.04z
	 M169.759,167.374c0.364,0,0.674,0.292,0.674,0.666v5.845c0,0.359-0.31,0.665-0.674,0.665h-24.876c-0.229,0-0.401,0.183-0.401,0.396
	v5.094c0,0.223,0.173,0.4,0.401,0.4h19.354c0.364,0,0.666,0.297,0.666,0.662v5.845c0,0.373-0.302,0.665-0.666,0.665h-19.354
	c-0.229,0-0.401,0.173-0.401,0.401v5.089c0,0.219,0.173,0.4,0.401,0.4h24.876c0.364,0,0.674,0.287,0.674,0.662v5.85
	c0,0.368-0.31,0.66-0.674,0.66h-37.014c-0.228,0-0.409-0.175-0.409-0.401v-32.497c0-0.229,0.182-0.402,0.409-0.402H169.759z
	 M69.407,192.966c1.868-0.278,3.718-1.558,4.312-3.919c0.328-1.266,0.299-8.729,0-10.228c-0.594-2.356-2.462-3.397-4.312-3.622
	c-4.519-0.521-9.294-0.483-13.421,0c-1.869,0.225-3.728,1.266-4.311,3.622c-0.31,1.498-0.319,8.962,0,10.228
	c0.583,2.361,2.451,3.641,4.311,3.919C60.113,193.467,64.889,193.484,69.407,192.966z M74.893,200.583
	c-8.838,1.007-16.475,0.97-24.53,0c-3.626-0.552-8.317-2.67-9.456-7.271c-1.158-4.597-1.021-13.691,0-18.743
	c1.139-4.61,5.82-6.752,9.456-7.194c8.056-0.965,15.692-1.012,24.53,0c3.645,0.414,8.319,2.584,9.468,7.194
	c1.012,5.052,1.157,14.146,0,18.743C83.212,197.913,78.511,200.031,74.893,200.583z M118.995,190.378H101.09
	c-0.219,0-0.4,0.178-0.4,0.392v9.245c0,0.368-0.293,0.66-0.655,0.66H89.208c-0.365,0-0.665-0.292-0.665-0.66v-32.238
	c0-0.229,0.182-0.402,0.401-0.402l30.051-0.004c6.315,0,10.88,3.344,10.88,11.504C129.875,187.033,125.311,190.378,118.995,190.378z
	 M70.838,97.977l-15.954-0.679v-9.284L72.27,87.83c5.485-22.47,25.76-39.153,49.924-39.153c28.375,0,51.382,23.013,51.382,51.383
	c0,0.789-0.009,1.567-0.055,2.342l15.847,0.684v9.117l-17.268,0.187c-5.531,22.423-25.777,39.066-49.906,39.066
	c-28.384,0-51.393-23.012-51.393-51.396C70.801,99.366,70.82,98.669,70.838,97.977z"/>
</svg>
