<?xml version="1.0" encoding="utf-8"?>
<!-- Generator: Adobe Illustrator 16.0.0, SVG Export Plug-In . SVG Version: 6.00 Build 0)  -->
<!DOCTYPE svg PUBLIC "-//W3C//DTD SVG 1.1//EN" "http://www.w3.org/Graphics/SVG/1.1/DTD/svg11.dtd">
<svg version="1.1" id="Layer_1" xmlns="http://www.w3.org/2000/svg" xmlns:xlink="http://www.w3.org/1999/xlink" x="0px" y="0px"
	 width="250px" height="250px" viewBox="0 0 250 250" enable-background="new 0 0 250 250" xml:space="preserve">
<path fill="#666666" d="M181.208,68.221c-1.666-4.791-6.211-8.201-11.533-8.201H80.326c-5.319,0-9.868,3.41-11.534,8.201
	l-16.896,48.656v64.981c0,4.466,3.656,8.122,8.123,8.122h8.122c4.51,0,8.122-3.656,8.122-8.122v-8.123h97.472v8.123
	c0,4.466,3.657,8.122,8.123,8.122h8.122c4.506,0,8.123-3.656,8.123-8.122v-64.981L181.208,68.221z M80.326,149.368
	c-6.743,0-12.185-5.442-12.185-12.185S73.583,125,80.326,125c6.742,0,12.184,5.441,12.184,12.184S87.068,149.368,80.326,149.368z
	 M169.674,149.368c-6.743,0-12.185-5.442-12.185-12.185S162.931,125,169.674,125c6.742,0,12.184,5.441,12.184,12.184
	S176.417,149.368,169.674,149.368z M68.141,108.755l12.185-36.552h89.349l12.184,36.552H68.141z"/>
</svg>
