<?xml version="1.0" encoding="utf-8"?>
<!-- Generator: Adobe Illustrator 16.0.0, SVG Export Plug-In . SVG Version: 6.00 Build 0)  -->
<!DOCTYPE svg PUBLIC "-//W3C//DTD SVG 1.1//EN" "http://www.w3.org/Graphics/SVG/1.1/DTD/svg11.dtd">
<svg version="1.1" id="Layer_1" xmlns="http://www.w3.org/2000/svg" xmlns:xlink="http://www.w3.org/1999/xlink" x="0px" y="0px"
	 width="250px" height="250px" viewBox="0 0 250 250" enable-background="new 0 0 250 250" xml:space="preserve">
<g>
	<path fill="#666666" d="M144.709,89.777l2.139,1.104c0.535-1.492,1.457-4.129,2.285-6.672c-0.598-1.381-1.166-2.776-1.723-4.32
		c-0.404,1.303-0.844,2.702-1.268,4.017c-0.551,1.77-1.088,3.445-1.24,4.048c-0.15,0.673-0.738,1.116-1.453,1.116
		c-0.344,0-0.824-0.116-1.428-0.365c-0.346,1.423-0.658,2.449-1.004,3.581c-0.264,0.852-0.578,1.797-0.926,3.072
		c1.561,2.353,4.104,6.14,5.666,8.406c0.023,0,0.055,0.012,0.07,0.016c-1.354-1.963-2.723-3.97-3.598-5.249
		C143.324,94.544,143.838,93.576,144.709,89.777"/>
	<path fill="#666666" d="M92.027,139.453c0.9,0.21,1.842,0.54,2.799,0.968c-1.158-1.065-2.535-1.975-3.963-2.616
		C91.381,138.508,92.027,139.453,92.027,139.453"/>
	<path fill="#666666" d="M137.002,124.867c0.135,0.082,0.268,0.183,0.467,0.314C137.398,125.132,137.199,124.987,137.002,124.867"/>
	<path fill="#666666" d="M103.334,99.429l8.688-0.125l-1.773-2.119l-8.758,0.144c-0.668,1.606-2.449,3.57-6.053,3.834
		c0.182,0,0.357,0.016,0.547,0.055c0.412,0.541,1.439,2.065,1.439,2.065C99.857,103.675,102.797,101.816,103.334,99.429"/>
	<path fill="#666666" d="M93.379,98.946c-0.848,0.124-1.936,0.475-2.305,1.392l-0.447,1.214l-0.055-0.031
		c0.502,0.548,1.131,1.085,1.867,1.431c0.42-0.738,1.398-1.613,2.643-1.758c-0.154,0-0.256,0.027-0.412,0.027l-1.352,0.012
		l0.029-1.354L93.379,98.946z"/>
	<path fill="#666666" d="M155.771,79.13c-0.295-0.591-0.584-1.205-0.777-1.858c-0.732-2.5-0.176-5.934,1.418-8.691
		c-0.012,0-0.012,0-0.012,0c-0.291-0.159-0.551-0.217-0.84-0.217c-0.93,0-1.715,0.82-2.104,1.504
		c-1.088,1.895-1.029,3.407,0.227,7.661c0.809,2.792,2.803,7.699,3.973,10.646l0.281,0.653c1.404,3.492,1.982,4.942,2.814,9.192
		c0.709,3.422-0.574,6.898-2.068,8.676c-2.566,3.075-6.455,4.156-8.771,4.546c1.236,2.698,1.998,4.557,2.348,5.661
		c0.326,0.957,0.871,1.648,1.676,2.062c-0.641-1.673-1.457-3.71-2.119-5.172c0,0,5.709-0.669,9.123-4.768
		c1.275-1.54,2.629-4.087,2.605-7.147c-0.062-6.875-5.529-16.985-6.879-20.469C156.443,80.849,156.109,80.056,155.771,79.13"/>
	<path fill="#666666" d="M98.459,82.295c-0.561-0.715-1.168-1.516-1.844-2.422c-0.701,0.183-1.541,0.261-2.629,0.261
		c-1,0-2.395-0.102-3.625-0.312l1.279,1.789C93.947,82.479,95.674,82.692,98.459,82.295"/>
	<path fill="#666666" d="M119.066,67.037c0.41,0.062,0.787,0.081,1.129,0.081c0.59,0,1.057-0.081,1.523-0.214
		c-0.723-0.738-1.633-0.844-2.096-0.844c-0.859,0-1.656,0.323-2.205,0.867h0.012C118.01,66.928,118.566,66.967,119.066,67.037"/>
	<path fill="#666666" d="M161.85,146.017c0.77,0.141,1.205-1.065,0.947-2.025c-0.428-1.657-1.477-4.024-1.539-5.075v-13.847
		c-0.91-1.062-2.146-2.986-2.201-3.057v14.081v0.062v0.051c-0.121,1.097,0.475,2.598,0.805,3.092
		c0.643,0.929,0.58,2.192,0.168,2.963c-0.326,0.614-0.883,0.979-1.486,0.979l-0.158-0.008l-0.121-0.008
		c-0.738-0.124-1.424-0.249-2.045-0.357c-2.107-0.381-3.645-0.657-5.148-0.657c-1.938,0-3.889,0.49-6.773,1.688l-0.592,0.257
		l-0.568-0.35l-0.139-0.07c-1.275-0.809-3.574-2.189-6.348-2.566c0.992,1.318,1.742,2.333,1.742,2.333
		c3.896,0,6.799,2.003,8.338,2.939C153.068,143.77,155.561,144.881,161.85,146.017"/>
	<path fill="#666666" d="M87.582,77.189l0.291-0.24l0.887-0.704c-0.91-0.926-1.629-1.065-2.146-1.065
		c-0.137,0-0.271,0.027-0.404,0.039c-0.031,0.132-0.055,0.229-0.055,0.229s0.701,0.945,1.26,1.785
		C87.469,77.209,87.516,77.209,87.582,77.189"/>
	<path fill="#666666" d="M116.264,76.567c0,0.012-0.012,0.02,0,0.043c0,0,0.051,0.062,0.137,0.155
		c0.031-0.065,0.055-0.124,0.078-0.198H116.264z"/>
	<path fill="#666666" d="M167.973,88.563c1.074-0.816-1.574-5.152-1.512-6.031c0.062-0.793,0.078-1.521,0.357-2.376
		c0.279-0.94,0.73-2.333,1.02-3.775c0.498-2.8-0.721-6.257-2.762-8.66c0.568,1.502,0.773,3.229,0.592,5.032
		c-0.176,1.275-0.549,2.438-0.855,3.375c-0.082,0.226-0.156,0.439-0.23,0.657c-0.236,0.751-0.432,1.393-0.494,2.062
		c0.027,0.322,0.451,1.256,0.74,1.874c0.895,1.972,1.83,4.001,0.354,5.137c-0.191,0.132-0.518,0.311-0.988,0.311
		c-0.268,0-0.625-0.073-0.93-0.202c0.816,0.681,1.564,1.194,1.988,1.47C165.252,87.436,167.506,88.91,167.973,88.563"/>
	<path fill="#666666" d="M146.932,67.736c-0.461-0.882-0.963-1.703-1.453-2.488c0.459,0.941,0.902,1.87,1.338,2.784
		C146.848,67.924,146.891,67.846,146.932,67.736"/>
	<path fill="#666666" d="M131.861,121.216c0,0,3.764,2.753,5.637,3.985c3.002,1.964,4.359,2.854,7.303,4.348
		c0.391-0.175,0.832-0.276,1.238-0.338c0.021-0.362-0.07-0.949-0.406-1.432c-0.357-0.521-0.924-0.793-1.699-0.793
		c-0.307,0-0.629,0.047-0.975,0.128l-0.086,0.02l-0.094,0.012l-0.941,0.07l-0.416,0.027l-0.33-0.19
		c-0.189-0.121-4.85-2.719-8.434-5.347c-0.836-0.614-1.676-1.237-2.404-1.773c-0.463-0.339-0.906-0.688-1.287-0.953
		c-6.82,6.296-14.939,14.688-15.545,16.165c-0.725,1.707-0.324,2.637-0.023,3.316c0.459,1.07,0.389,2.318-0.121,3.096
		c-0.326,0.521-0.883,0.824-1.467,0.824c-0.193,0-0.381-0.031-0.566-0.089c-0.809-0.276-5.041-1.606-9.107-1.606
		c-1.998,0-3.578,0.338-4.635,0.992l-0.262,0.187c0.906,0.638,1.723,1.419,2.447,2.372c3.646-2.392,11.898-0.211,14.967,0.801
		c0.836,0.354,1.535-0.28,1.477-1.462c-0.078-1.322-1.395-3.216-0.66-5.39C116.766,134.305,126.541,126.267,131.861,121.216"/>
	<path fill="#666666" d="M84.863,74.13c0.432-0.094,0.988-0.218,1.58-0.241c0.053,0,0.1-0.008,0.17-0.008
		c1.158,0,2.551,0.475,3.982,2.582l-0.801,0.63l-1.105,0.863c0.328,0.245,1.199,0.471,2.299,0.63
		c0.941,0.144,1.998,0.245,2.998,0.245c1.299,0,2.477-0.159,3.096-0.525c0,0,1.314,1.75,2.846,3.741
		c1.973,2.559,4.27,5.506,4.678,5.72c0.408,0.222-2.764,0.393-6.295,0.649c-3.025,0.051-5.871,0.09-8.119,0.147
		c-2,0.031-3.461,1.556-3.955,2.862c-0.479,1.307-1.027,4.052-0.797,5.25l1.135-0.366c0.23,0.428,0.428,0.759,0.607,1.065
		c0.863,1.447,1.189,1.925,2.691,2.489c0.832-2.116,3.576-2.311,4.518-2.311c0.219,0,0.326,0,0.326,0l-0.047,2.349
		c5.332-0.035,5.826-3.881,5.826-3.881l10.379-0.155l2.834,3.418l3.721,4.538c-5.369,5.596-9.121,12.518-13.186,19.929
		c1.951,1.77,1.26,5.394-1.936,5.743c-0.117,0.004-0.23,0.004-0.348,0.004c-1.791,0-3.732-1.283-5.977-1.283
		c-0.4,0-0.801,0.047-1.229,0.137c-3.6,0.789-2.861,3.663-5.697,7.442c0.631,0.147,1.238,0.361,1.879,0.606
		c2.201,0.922,4.348,2.431,5.871,4.173c1.389-0.879,3.33-1.206,5.328-1.206c3.602,0,7.543,1.012,9.516,1.676
		c0.059,0.012,0.105,0.031,0.158,0.031c0.572,0,0.771-1.135,0.344-2.096c-0.344-0.859-0.844-2.178,0.064-4.348
		c0.818-1.947,10.084-11.354,16.648-17.323c0.016,0,0.1,0.055,0.221,0.14c0.549,0.405,2.414,1.797,4.348,3.205
		c3.555,2.608,8.24,5.312,8.24,5.312l1.197-0.102c0.494-0.112,0.934-0.159,1.322-0.144c0.256,0.02,0.486,0.047,0.691,0.094
		c0.094,0.019,0.18,0.062,0.297,0.085c0.17,0.059,0.361,0.144,0.535,0.241c0.133,0.078,0.25,0.175,0.373,0.272
		c0.039,0.008,0.051,0.05,0.094,0.058c0.809,0.747,1.113,1.855,1.113,2.715c0,0.334-0.039,0.642-0.129,0.863
		c-0.121,0.314-0.279,0.583-0.471,0.816c-0.051,0.059-0.117,0.086-0.152,0.147c-0.193,0.163-0.338,0.319-0.547,0.439
		c-0.086,0.043-0.172,0.074-0.25,0.109c-0.217,0.112-0.459,0.198-0.715,0.261c-0.016,0-0.027,0-0.027,0.019
		c-0.326,0.051-0.711,0.074-1.074,0.047c-1.734-0.128-3.631-0.96-5.918,0.393c-2.324,1.291-1.354,5.674-2.744,7.497
		c0.91,0,1.814,0.125,2.674,0.308c2.625,0.61,4.729,1.925,5.893,2.641c6.322-2.676,8.246-1.82,14.682-0.728
		c0.463,0.082,0.775-1.205,0.273-2.057c-0.408-0.708-1.156-2.423-1.035-3.804l-0.016-4.191v-9.675v-1.579h-0.016v-0.026
		c-1.291,0.163-2.34,0.097-3.242-0.125c-0.848-0.214-1.564-0.571-2.104-1.054c0-0.016-0.012-0.02-0.012-0.031
		c-0.211-0.187-0.389-0.381-0.553-0.603c-0.008-0.016-0.031-0.027-0.031-0.039c-0.357-0.463-0.584-0.979-0.77-1.521
		c-0.514-1.656-2.029-4.985-3.037-7.124c0,0,4.238-0.116,7.672-2.41c0.75-0.502,1.467-1.112,2.076-1.863
		c0.436-0.517,0.836-1.166,1.16-1.913c0.652-1.454,1.041-3.34,0.715-5.634c-0.521-3.769-1.898-6.945-2.723-9.084
		c-1.119-2.982-3.445-8.119-4.348-11.188c-0.629-2.182-1.072-3.736-1.135-5.074c-0.016-0.319-0.016-0.638,0-0.938v-0.004
		c0.062-0.94,0.342-1.812,0.91-2.8c0.613-1.166,1.912-2.271,3.445-2.161c0.365,0.022,0.797,0.108,1.186,0.318
		c1.373,0.646,1.07,1.019,0.93,1.264c-0.459,0.712-0.816,1.466-1.107,2.252c-0.811,2.061-1.023,4.277-0.521,5.98
		c0.594,1.99,1.979,3.756,3.277,5.016c0.824,0.805,1.602,1.42,2.131,1.758c0,0,2.307,1.493,2.77,1.147
		c1.076-0.821-1.73-4.779-1.627-6.062c0.047-0.816,0.273-1.532,0.553-2.372c0.285-0.965,0.871-2.403,1.043-3.842
		c0.311-2.776-0.561-5.413-2.287-7.193c-1.115-1.151-2.582-1.96-4.324-2.182c-1.143-0.16-5.836-0.875-9.107,4.005
		c-0.295,0.439-0.652,1.187-0.955,2.05c-0.301,0.96-0.521,2.045-0.475,3.091c-1.604-3.842-3.555-8.197-5.693-11.413
		c-0.271-0.35-1.104-1.36-1.92-2.228c-0.67-0.712-1.334-1.35-1.635-1.436c-2.686-0.723-7.986-1.99-9.465-2.072
		c0,0,0.039,0.012,0.039,0.035c-0.039-0.02-0.047-0.023-0.07-0.023c-1.174,0.116-9.961,3.259-10.258,3.651
		c0,0-1.014,1.054-1.014,1.069c-2.076,0.514-6.389,1.183-6.717,1.587c-0.908,1.127-0.271,2.181,0.031,2.644
		c0.109,0.167,0.801,2.605,2.031,2.605h0.307l3.049,0.008c0.75-1.291,2.209-1.999,3.689-1.999c1.641,0,3.283,0.879,3.998,2.796
		c-0.18,0.074-0.334,0.145-0.498,0.218c-0.816,0.351-1.625,0.665-2.916,0.665c-0.342,0-0.719-0.031-1.129-0.077
		c-0.053,0-0.115-0.008-0.17-0.016c-0.482-0.062-0.988-0.102-1.467-0.102c-1.465,0-2.818,0.288-3.643,0.591
		c-0.51,0.194-0.816,0.374-0.816,0.514c0.047,0.653,3.508,0.867,4.416,0.879c1.027,0.031,2.412,0.101,3.834,0.101
		c0.658,0,1.338-0.016,1.977-0.065c-0.18,0.245-0.377,0.451-0.576,0.634c-1.068,0.94-2.598,1.33-3.725,1.33h-2.924h-2.404
		c0.266,1.131,0.709,2.169,1.346,3.028h2.178c0.98,0.07,1.09,0.319,0.965,0.747c-0.047,0.226-0.156,0.479-0.25,0.773
		c-0.123,0.358-0.291,0.767-0.473,1.183c-0.584,1.478-1.479,3.188-2.723,4.301c-5.395-4.713-12.639-10.601-17.732-14.341
		c-0.994-0.7-3.893-1.275-6.664-1.275c-1.498,0-2.986,0.171-4.061,0.579c-0.891,0.334-1.445,1.062-1.766,1.641l1.525,0.439
		C83.113,70.979,84.863,74.13,84.863,74.13 M125.242,60.341c0.098-0.031,0.211-0.101,0.211-0.101S125.383,60.274,125.242,60.341
		 M145.439,105.023c-0.148-0.034-0.334-0.05-0.479-0.101v0.004c-1.703-2.47-4.717-6.976-6.268-9.337
		c1.092-3.993,1.59-4.957,2.461-8.757c0,0,1.688,0.922,2.268,0.922c0.016,0,0.016,0.008,0.027,0.008
		c0.037,0,0.084-0.008,0.139-0.016v-0.02c0.016-0.012,0.047-0.012,0.047-0.043c0.4-1.688,3.135-9.62,3.625-12.175
		c0,0,0.408,1.132,0.959,2.78c0.479,1.431,0.996,2.726,1.537,3.998c0.805,1.971,1.641,3.826,2.387,5.716
		c1.688,4.262,2.283,6.078,2.84,8.975c0.428,2.264,0.205,4.363-0.689,5.576c-0.463,0.606-1.248,1.377-2.422,1.952
		c-0.055,0.012-0.086,0.031-0.133,0.047c-0.279,0.124-0.578,0.249-0.895,0.342c-0.076,0.027-0.135,0.047-0.209,0.062
		c-0.164,0.062-0.326,0.093-0.537,0.14c-0.102,0.02-0.186,0.039-0.303,0.062c-0.309,0.051-0.623,0.09-0.934,0.116
		c-0.164,0.004-0.295,0.012-0.459,0.016c-0.184,0.016-0.365,0.016-0.576,0.016c-0.311-0.016-0.637-0.031-0.967-0.069h-0.012
		c-0.227-0.023-0.439-0.047-0.639-0.078C145.961,105.121,145.719,105.062,145.439,105.023 M120.502,61.624
		c-0.205-0.669-0.221-1.283-0.082-2.115c1.311-0.202,3.197-0.459,4.426-0.459c0.18,0,0.311,0.047,0.408,0.132
		c0.416,0.265,0.459,0.941-0.121,1.218c-1.025,0.458-2.955,1.124-4.49,1.641C120.576,61.896,120.545,61.764,120.502,61.624"/>
	<path fill="#666666" d="M179.514,167.719c-8.273,0.202-13.744,5.883-13.559,14.111c0.211,8.275,5.447,13.183,13.812,12.984
		c8.465-0.218,13.676-5.732,13.676-14.446C193.443,172.638,187.801,167.509,179.514,167.719 M179.893,191.695
		c-4.336,0-6.98-3.526-7.117-9.787c-0.17-6.812,2.365-10.97,6.992-10.978c4.635,0,6.797,4.312,6.945,10.409
		C186.797,185.073,185.619,191.68,179.893,191.695"/>
	<path fill="#666666" d="M131.406,191.003c0,0-0.078,0.074-0.238,0.145c-0.836,0.385-2.559,0.587-4.301,0.338
		c-4.42-0.606-7.361-4.643-7.361-10.048c0-6.4,5.65-9.869,9.43-10.028c3.781-0.144,6.293,0.646,7.486,0.983l0.977-3.025
		c-2.676-1.244-6.059-1.664-9.01-1.664c-12.125,0-16.096,8.139-16.096,13.637c0,7.108,4.744,13.479,14.848,13.479
		c6.963,0,10.938-2.38,10.938-2.38v-10.915h-6.672V191.003z"/>
	<path fill="#666666" d="M136.41,172.393c0,0-0.051-0.008-0.094-0.027C136.332,172.365,136.387,172.385,136.41,172.393"/>
	<path fill="#666666" d="M136.182,172.318C135.691,172.183,135.943,172.253,136.182,172.318"/>
	<polygon fill="#666666" points="194.139,172.144 202.305,172.144 202.305,193.663 209.109,193.663 209.109,172.144 
		217.514,172.144 217.514,168.652 194.139,168.652 	"/>
	<path fill="#666666" d="M53.771,169.608c-1.82-0.777-2.971-0.956-8.016-0.956H32.484v25.019h7.137v-9.224h6.723
		c6.211,0,11.408-1.311,11.408-8.531C57.752,173.505,56.045,170.577,53.771,169.608 M44.672,181.616h-5.078v-9.838l5.396-0.031
		c3.104,0,5.549,2.209,5.549,4.931C50.539,179.427,48.148,181.616,44.672,181.616"/>
	<path fill="#666666" d="M102.004,185.805c0,3.41-2.232,5.6-5.33,5.6h-0.016c-3.088,0-5.426-2.065-5.426-5.876v-16.876h-6.648
		v15.103c0,4.238,1.041,6.183,2.48,7.63c2.404,2.402,5.055,3.43,9.594,3.43h0.027c4.541,0,7.201-1.202,9.604-3.621
		c1.471-1.442,2.365-3.196,2.365-7.291v-15.25h-6.65V185.805z"/>
	<polygon fill="#666666" points="60.717,193.671 79.953,193.671 79.953,189.646 67.475,189.646 67.475,181.52 77.564,181.52 
		77.564,178.479 67.475,178.479 67.475,172.206 79.953,172.206 79.953,168.652 60.717,168.652 	"/>
	<polygon fill="#666666" points="143.838,193.671 163.09,193.671 163.09,189.735 150.604,189.735 150.604,181.612 160.701,181.612 
		160.701,178.575 150.604,178.575 150.604,172.3 163.09,172.3 163.09,168.652 143.838,168.652 	"/>
</g>
</svg>
