<?xml version="1.0" encoding="utf-8"?>
<!-- Generator: Adobe Illustrator 16.0.0, SVG Export Plug-In . SVG Version: 6.00 Build 0)  -->
<!DOCTYPE svg PUBLIC "-//W3C//DTD SVG 1.1//EN" "http://www.w3.org/Graphics/SVG/1.1/DTD/svg11.dtd">
<svg version="1.1" id="Layer_1" xmlns="http://www.w3.org/2000/svg" xmlns:xlink="http://www.w3.org/1999/xlink" x="0px" y="0px"
	 width="250px" height="250px" viewBox="0 0 250 250" enable-background="new 0 0 250 250" xml:space="preserve">
<g>
	<path fill="#666666" d="M141.453,99.503l-14.984-22.836l7.923-19.087l-27.286,41.718l17.497,24.47L141.453,99.503z M124.706,81.443
		l13.458,19.131l-13.458,19.533l-14.021-19.533L124.706,81.443z"/>
	<path fill="#666666" d="M114.068,146.346l0.465,0.75h21.372l0.455-0.777l27.769-45.753l0.487-0.83l-0.487-0.804L136.57,53.965
		l-0.469-0.75h-22.587l-0.481,0.768L85.902,98.949l-0.526,0.804l0.526,0.812L114.068,146.346z M115.296,56.365h19.029l26.604,43.388
		l-0.026,0.054h-16.748l-24.051,34.684l3.214-7.803l-18.819-26.881H89.134l-0.044-0.089L115.296,56.365z"/>
	<path fill="#666666" d="M57.772,171.628c0-7.32-6.071-8.347-6.071-8.347H26.437c0.179,2.143,3.981,4.312,3.981,4.312v22.443
		l-2.848,1.375v3.375h16.342v-3.375l-3.191-1.375v-9.767l1.446-0.071l5.396,14.498h11.244v-3.134l-7.61-11.186
		C51.197,180.377,57.772,178.976,57.772,171.628 M46.604,176.306h-5.883v-6.919h5.883c0,0,1.059,1.911,1.059,3.545
		C47.662,174.592,46.604,176.306,46.604,176.306"/>
	<polygon fill="#666666" points="87.107,184.037 80.313,184.037 80.313,189.492 74.368,189.492 74.368,180.645 78.341,180.645 
		79.805,182.627 83.233,182.627 83.233,173.842 80.233,173.842 78.252,175.833 74.368,175.833 74.368,168.557 80.233,168.557 
		80.233,171.949 87.519,171.949 87.519,163.174 60.745,163.174 60.745,166.066 63.727,167.414 63.727,189.911 60.745,191.822 
		60.745,194.875 87.107,194.875 	"/>
	<polygon fill="#666666" points="106.762,194.875 115.327,194.875 115.327,168.048 118.8,166.575 118.881,163.094 107.052,163.094 
		107.052,166.494 110.02,167.494 110.104,178.314 101.365,163.094 89.107,163.174 89.107,165.995 91,166.986 91,190.43 
		88.027,192.331 88.027,194.875 99.803,194.875 99.803,192.331 96.977,190.563 96.977,178.734 	"/>
	<path fill="#666666" d="M131.478,194.786h16.488v-3.375l-2.99-1.285l-9.575-27.023l-13.752-0.062v3.446l3.928,3.723l-6.035,19.917
		c0,0-1.429,1.098-3.165,1.74v2.92h11.213v-2.92l-2.919-1.009l1.691-5.723h6.705l1.875,4.991l-3.464,1.839V194.786z
		 M127.933,179.779l1.375-4.66l1.723,4.66H127.933z"/>
	<path fill="#666666" d="M160.17,196.785c10.57,0,11.748-8.284,11.748-8.284v-20.462l2.455-1.009v-3.374h-10.762v3.275l3.379,1.107
		v21.354c0,0-2.285,1.464-4.37,1.464c-2.106,0-3.825-1.464-3.825-1.464v-21.354l3.825-1.553v-2.929l-19.502,0.099v2.919l4.915,1.464
		v20.658C148.033,188.697,149.564,196.785,160.17,196.785"/>
	<polygon fill="#666666" points="194.331,190.947 188.947,190.947 188.947,169.485 193.425,167.03 193.425,163.558 175.73,163.558 
		175.73,166.932 178.199,168.039 178.199,191.43 175.302,192.438 175.302,195.696 200.245,195.777 200.245,185.492 194.331,185.492 
			"/>
	<polygon fill="#666666" points="196.79,174.396 203.183,174.396 203.276,169.387 205.539,169.387 205.539,189.876 201.169,191.866 
		201.169,195.696 219.743,195.696 219.743,191.866 215.386,189.965 215.386,169.387 217.297,169.387 217.297,174.396 
		223.563,174.396 223.563,163.656 196.79,163.656 	"/>
</g>
</svg>
