<?xml version="1.0" encoding="utf-8"?>
<!-- Generator: Adobe Illustrator 16.0.0, SVG Export Plug-In . SVG Version: 6.00 Build 0)  -->
<!DOCTYPE svg PUBLIC "-//W3C//DTD SVG 1.1//EN" "http://www.w3.org/Graphics/SVG/1.1/DTD/svg11.dtd">
<svg version="1.1" id="Layer_1" xmlns="http://www.w3.org/2000/svg" xmlns:xlink="http://www.w3.org/1999/xlink" x="0px" y="0px"
	 width="250px" height="250px" viewBox="0 0 250 250" enable-background="new 0 0 250 250" xml:space="preserve">
<path fill-rule="evenodd" clip-rule="evenodd" fill="#666666" d="M125.703,189.582c6.482-0.101,14.764-1.001,14.764-1.001
	s4.945,0.201,8.236-5.838c22.809-41.12,25.699-92.373,25.699-109.14c0-10.782-9.729-11.28-17.168-12.277
	c-7.186-0.946-19.656-0.8-31.732-0.8c-12.479,0-25.305-0.146-32.746,0.8c-7.432,0.997-17.16,1.495-17.16,12.277
	c0,16.767,2.943,68.02,25.699,109.14c3.346,6.039,8.236,5.838,8.236,5.838S119.057,189.582,125.703,189.582"/>
<path fill-rule="evenodd" clip-rule="evenodd" fill="#FFFFFF" d="M125,138.146c4.82,0,14.85,3.056,24.754,9.264
	c10.084-18.74,14.387-50.001,15.918-67.571C154.26,77.907,125,78.344,125,78.344s-29.262-0.437-40.674,1.495
	c1.531,17.57,5.834,48.831,15.918,67.571C110.148,141.202,120.178,138.146,125,138.146"/>
<path fill-rule="evenodd" clip-rule="evenodd" fill="#666666" d="M149.152,144.768c6.289-11.929,12.523-39.625,14.525-63.38
	c-7.688-1.097-30.744-1.197-38.176-1.197c-5.742,0-31.045,0-39.182,1.197c2.002,23.755,8.283,51.451,14.572,63.38
	c6.537-4.191,18.668-8.533,24.855-8.533C132.139,136.732,142.963,140.824,149.152,144.768"/>
<g>
	<path fill-rule="evenodd" clip-rule="evenodd" fill="#666666" d="M125.888,52.996c-0.192-0.039-0.641-0.128-1.011,0.247
		l-0.373,0.367c0,0.004,0.103,0.514,0.103,0.514l0.201-0.8c0.206-0.255,0.502-0.348,0.695-0.348l-5.509-0.008
		c-11.113-0.023-21.604-0.046-28.211,0.815c0.01,0-0.78,0.101-0.78,0.101c-1.769,0.224-3.608,0.455-5.416,0.807
		c-1.916,0.348-4.782,0.962-7.416,2.226c-4.628,2.206-10.14,6.885-10.14,16.646c0,10.794,1.292,66.973,26.672,112.807
		c2.752,4.987,6.391,7.352,8.947,8.456c2.544,1.108,4.622,1.279,5.626,1.279l-0.092-0.008c0.092,0.011,9.518,0.954,16.71,0.954
		c6.214-0.104,13.398-0.78,14.982-0.954l-0.107,0.008c0.796,0,2.943-0.128,5.579-1.283c2.541-1.077,6.173-3.423,8.947-8.452
		c25.381-45.737,26.672-101.993,26.672-112.807c0-9.743-5.486-14.429-10.084-16.646c-2.757-1.294-5.594-1.889-7.486-2.229
		c-1.916-0.37-3.871-0.614-5.756-0.85l-0.433-0.054c-7.108-0.912-19.156-0.861-30.798-0.815l-1.716,0.008L125.888,52.996z
		 M125.703,54.92l1.716-0.004c11.583-0.051,23.557-0.101,30.542,0.796c0.008,0,0.44,0.054,0.44,0.054
		c1.855,0.231,3.771,0.472,5.642,0.835c1.8,0.32,4.464,0.881,7.006,2.07c4.088,1.971,8.972,6.158,8.972,14.893
		c0,10.729-1.276,66.544-26.424,111.863c-2.511,4.547-5.743,6.648-8.013,7.611c-2.319,1.012-4.134,1.12-4.814,1.12h-0.054
		l-0.056,0.008c-1.56,0.174-8.658,0.842-14.779,0.942c-5.943,0-14.108-0.699-16.504-0.942l-0.046-0.008h-0.055
		c-0.688,0-2.542-0.108-4.844-1.116c-2.296-0.985-5.542-3.106-8.027-7.615c-25.15-45.416-26.427-101.15-26.427-111.863
		c0-8.746,4.906-12.926,9.025-14.893c2.426-1.163,5.124-1.738,6.946-2.066c1.753-0.344,3.554-0.572,5.302-0.792l0.788-0.101
		c6.474-0.847,16.903-0.823,27.954-0.8l5.509,0.008c0.423,0,0.671-0.197,0.811-0.363l0.293-0.355c0-0.008-0.093-0.456-0.093-0.456
		l-0.255,0.861c-0.255,0.267-0.602,0.321-0.812,0.282c0,0.004,0.017,0.004,0.062,0.016l0.092,0.02L125.703,54.92z"/>
	<rect x="84.729" y="65.876" fill="none" width="81.043" height="8.985"/>
	<path fill-rule="evenodd" clip-rule="evenodd" fill="#FFFFFF" d="M163.625,68.321c0-0.448-0.202-0.846-0.595-1.098
		c-0.402-0.251-1.007-0.397-1.747-0.397c-0.199-0.05-0.402,0-0.603,0c-0.247,0-0.495,0-0.751,0.05l-0.045,0.097v0.851l-0.054,2.194
		c0.054,0,0.154,0.05,0.255,0.05h0.248c0.949,0,1.745-0.097,2.348-0.348C163.331,69.519,163.625,69.021,163.625,68.321
		 M159.783,70.917v0.851v1.344l0.048,1.248c-0.349-0.046-0.649-0.046-0.85-0.046h-0.296h-0.253l0.2-4.296v-2.442v-0.352v-0.846
		h0.401c0.102,0.047,0.248,0.047,0.448,0.047h2.395c0.897,0,1.647,0.15,2.196,0.401c0.549,0.298,0.85,0.749,0.85,1.444
		c0,0.549-0.301,1.051-0.796,1.399c-0.502,0.348-1.25,0.599-2.25,0.749l0.102,0.101l0.997,1.047l0.904,0.997l1.098,1.097
		c0.199,0.201,0.347,0.352,0.447,0.452c0.1,0.101,0.202,0.201,0.348,0.297v0.051c-0.146,0-0.301-0.051-0.402-0.051h-0.493h-0.302
		h-0.502l-0.047-0.05c-0.248-0.247-0.649-0.745-1.252-1.395c-0.594-0.699-0.996-1.147-1.297-1.448
		c-0.248-0.298-0.642-0.649-1.098-1.047h-0.549L159.783,70.917z M147.81,66.127h-2.845l-2.302-0.05l0.054,2.646l-0.054,1.295v1.348
		l-0.094,1.349c0,0.448-0.053,0.9-0.101,1.348h1.3h1.545l2.441,0.051c0-0.15-0.046-0.251-0.046-0.302c0-0.05,0-0.101,0.046-0.196
		v-0.201c-0.348,0.05-0.85,0.101-1.5,0.101h-1.94h-0.546l0.045-0.95v-2.346v-0.1h0.997c0.997,0,1.847,0.05,2.549,0.15v-0.251V69.77
		c0.048-0.05,0.048-0.15,0.048-0.2c-0.502,0-0.897,0.05-1.197,0.05h-1.5l-0.396-0.05h-0.453v-0.796l0.099-2.098l2.697,0.05
		c0.248,0,0.401,0.051,0.549,0h0.604c0-0.101-0.055-0.201-0.055-0.301c0-0.047,0.055-0.097,0.055-0.147V66.127z M129.195,70.067
		l-1.353,2.546h-0.1l-0.549-1.047l-0.597-1.197l-1.644-3.442l-0.402-0.95l-0.056-0.101c-0.045,0-0.146,0-0.244,0.05h-0.403
		c-0.293,0-0.594,0-0.843-0.05l1.392,2.746l0.647,1.248l1.398,2.793c0.057,0.051,0.154,0.252,0.304,0.549
		c0.146,0.251,0.247,0.498,0.301,0.649c0.202-0.051,0.347-0.051,0.495-0.051l0.453,0.051c0.194-0.448,0.396-0.896,0.597-1.349
		c0.248-0.448,0.501-0.896,0.749-1.344l0.649-1.248l0.648-1.248l1.546-2.797c-0.248,0.05-0.402,0.05-0.504,0.05
		c-0.045,0-0.146,0-0.292-0.05h-0.302c-0.102,0.452-0.301,1-0.694,1.746C130.038,68.371,129.643,69.171,129.195,70.067
		 M107.632,73.962c1.196,0,2.146-0.348,2.896-1.098c0.751-0.699,1.1-1.6,1.1-2.696c0-0.796-0.148-1.445-0.403-1.897
		c-0.202-0.498-0.648-0.946-1.298-1.298c-0.595-0.397-1.444-0.595-2.396-0.548c-1.196,0-2.141,0.352-2.889,1.051
		c-0.704,0.745-1.098,1.646-1.052,2.742c0,0.8,0.147,1.449,0.401,1.897c0.247,0.498,0.694,0.95,1.345,1.348
		C105.985,73.811,106.734,74.012,107.632,73.962 M113.07,70.118c0.055,1.146-0.495,2.147-1.5,2.993
		c-1.043,0.8-2.341,1.202-3.938,1.248c-1.694,0-2.99-0.348-3.989-1.047c-1.003-0.749-1.497-1.746-1.497-3.044
		c-0.055-1.198,0.447-2.194,1.497-2.994c0.999-0.8,2.295-1.248,3.888-1.248c1.746-0.05,3.099,0.302,4.097,1.001
		C112.575,67.723,113.07,68.773,113.07,70.118 M89.813,68.572c0-0.448-0.194-0.8-0.647-1.047c-0.45-0.251-0.998-0.352-1.747-0.352
		c-0.193,0-0.396,0.05-0.649,0.05c-0.193,0-0.448,0.051-0.694,0.101l-0.055,0.101v0.846l0.099,2.199c0.055,0,0.155,0.05,0.258,0.05
		c0.098,0,0.145,0,0.245-0.05c0.95,0,1.745-0.151,2.35-0.452C89.566,69.77,89.867,69.271,89.813,68.572 M86.119,71.365l0.055,0.851
		l0.047,1.348l0.101,1.248c-0.348-0.051-0.595-0.051-0.795-0.051c-0.146,0.051-0.248,0.051-0.349,0.051
		c-0.102,0-0.2,0.05-0.255,0.05V70.52l-0.1-2.445l-0.048-0.302c0-0.297,0-0.599-0.046-0.896h0.396h0.445l2.397-0.1
		c0.903-0.051,1.651,0.05,2.248,0.297c0.549,0.251,0.85,0.699,0.896,1.398c0,0.549-0.248,1.047-0.693,1.449
		c-0.502,0.348-1.252,0.648-2.197,0.846l0.048,0.051l1.05,1l0.996,0.946l1.098,1.047c0.248,0.201,0.402,0.352,0.504,0.448
		c0.101,0.055,0.247,0.15,0.394,0.302v0.05c-0.146-0.05-0.293-0.05-0.447-0.05h-0.45c-0.146,0-0.244,0.05-0.347,0.05
		c-0.101,0-0.248,0-0.447,0.051l-0.102-0.101c-0.247-0.247-0.703-0.649-1.297-1.298c-0.604-0.649-1.052-1.098-1.354-1.398
		c-0.294-0.298-0.695-0.6-1.144-0.947h-0.604V71.365z"/>
	<path fill-rule="evenodd" clip-rule="evenodd" fill="#FFFFFF" d="M96.604,81.097c0.2,11.98,2.598,27.8,4.79,37.829
		c2.195,9.982,4.29,17.018,4.29,17.018l-0.842,0.251c0,0-2.148-7.039-4.343-17.068c-2.203-10.082-4.645-25.953-4.846-38.029H96.604z
		"/>
	<path fill-rule="evenodd" clip-rule="evenodd" fill="#FFFFFF" d="M106.534,80.448c1.196,28.298,5.987,52.651,5.987,52.651
		l-0.895,0.197c0,0-4.848-24.4-5.99-52.799L106.534,80.448z"/>
	<path fill-rule="evenodd" clip-rule="evenodd" fill="#FFFFFF" d="M116.615,80.448c0.248,18.068,2.251,50.005,2.251,50.005
		l-0.905,0.051c0,0-2.049-31.938-2.293-50.056H116.615z"/>
	<path fill-rule="evenodd" clip-rule="evenodd" fill="#FFFFFF" d="M153.943,81.097c-0.2,11.98-2.643,27.8-4.79,37.829
		c-2.194,9.982-4.343,17.018-4.343,17.018l0.896,0.251c0,0,2.147-7.039,4.343-17.068c2.203-10.082,4.644-25.953,4.845-38.029
		H153.943z"/>
	<path fill-rule="evenodd" clip-rule="evenodd" fill="#FFFFFF" d="M143.96,80.448c-1.143,28.298-5.934,52.651-5.934,52.651
		l0.896,0.197c0,0,4.79-24.4,5.988-52.799L143.96,80.448z"/>
	<path fill-rule="evenodd" clip-rule="evenodd" fill="#FFFFFF" d="M133.933,80.448c-0.248,18.068-2.296,50.005-2.296,50.005
		l0.95,0.051c0,0,2.049-31.938,2.294-50.056H133.933z"/>
	<path fill-rule="evenodd" clip-rule="evenodd" fill="#FFFFFF" d="M97.323,92.748c0.911,9.364,2.543,19.178,4.071,26.178
		c2.195,9.982,4.29,17.018,4.29,17.018l-0.842,0.251c0,0-2.148-7.039-4.343-17.068c-1.554-7.107-3.222-17.094-4.142-26.602
		C96.675,92.598,97,92.671,97.323,92.748"/>
	<path fill-rule="evenodd" clip-rule="evenodd" fill="#FFFFFF" d="M107.538,95.908c1.832,21.159,4.983,37.191,4.983,37.191
		l-0.895,0.197c0,0-3.232-16.291-5.039-37.74C106.905,95.673,107.221,95.789,107.538,95.908"/>
	<path fill-rule="evenodd" clip-rule="evenodd" fill="#FFFFFF" d="M117.243,100.026c0.673,15.314,1.623,30.427,1.623,30.427
		l-0.905,0.051c0,0-0.989-15.43-1.668-30.922C116.607,99.729,116.926,99.876,117.243,100.026"/>
	<path fill-rule="evenodd" clip-rule="evenodd" fill="#FFFFFF" d="M150.156,113.911c-0.331,1.785-0.671,3.469-1.003,5.015
		c-2.194,9.982-4.343,17.018-4.343,17.018l0.896,0.251c0,0,2.147-7.039,4.343-17.068c0.341-1.561,0.688-3.256,1.027-5.053
		C150.775,114.023,150.465,113.969,150.156,113.911"/>
	<path fill-rule="evenodd" clip-rule="evenodd" fill="#FFFFFF" d="M141.356,111.354c-1.622,13.042-3.33,21.746-3.33,21.746
		l0.896,0.197c0,0,1.692-8.639,3.321-21.615C141.951,111.578,141.65,111.466,141.356,111.354"/>
	<path fill-rule="evenodd" clip-rule="evenodd" fill="#FFFFFF" d="M132.926,107.688c-0.616,12.323-1.289,22.766-1.289,22.766
		l0.95,0.051c0,0,0.657-10.223,1.267-22.376C133.545,107.981,133.237,107.834,132.926,107.688"/>
	<path fill-rule="evenodd" clip-rule="evenodd" fill="#FFFFFF" d="M127.048,125.732v52.088c0.262-0.204,0.532-0.417,0.795-0.634
		v-42.955C127.549,131.817,127.272,128.881,127.048,125.732 M127.048,97.261v4.188c0.58-0.652,0.518-1.928,0.202-3.334
		C127.194,97.883,127.125,97.593,127.048,97.261"/>
	<path fill-rule="evenodd" clip-rule="evenodd" fill="#FFFFFF" d="M126.198,94.282v84.176c0.27-0.193,0.532-0.395,0.796-0.595
		v-52.834c-0.574-8.267-0.844-17.817-0.494-23.222c0.199-0.069,0.362-0.174,0.494-0.305v-4.439
		C126.775,96.222,126.482,95.175,126.198,94.282"/>
	<path fill-rule="evenodd" clip-rule="evenodd" fill="#FFFFFF" d="M125.401,92.86v86.277c0.217-0.119,0.302-0.324,0.302-0.324
		c0.163-0.116,0.332-0.236,0.495-0.355V94.282c-0.178-0.557-0.349-1.055-0.495-1.406L125.401,92.86z"/>
	<path fill-rule="evenodd" clip-rule="evenodd" fill="#FFFFFF" d="M124.598,93.058v85.953c0.101,0.065,0.202,0.135,0.301,0.2h0.293
		c0.078-0.016,0.149-0.042,0.21-0.073V92.86l-0.703-0.035L124.598,93.058z"/>
	<path fill-rule="evenodd" clip-rule="evenodd" fill="#FFFFFF" d="M123.801,95.009v83.445c0.265,0.189,0.535,0.375,0.797,0.557
		V93.058C124.443,93.421,124.133,94.162,123.801,95.009"/>
	<path fill-rule="evenodd" clip-rule="evenodd" fill="#FFFFFF" d="M123.006,97.222v4.25c0.14,0.15,0.325,0.263,0.55,0.336
		c0.315,5.451,0.031,15.113-0.55,23.431v52.621c0.263,0.2,0.525,0.401,0.795,0.595V95.009
		C123.517,95.73,123.224,96.526,123.006,97.222"/>
	<path fill-rule="evenodd" clip-rule="evenodd" fill="#FFFFFF" d="M122.951,101.417v-4.033c-0.074,0.264-0.146,0.511-0.199,0.73
		C122.434,99.497,122.375,100.757,122.951,101.417 M122.156,134.464v42.719c0.263,0.217,0.534,0.43,0.795,0.638v-51.883
		C122.721,129.109,122.45,132.057,122.156,134.464"/>
	<path fill-rule="evenodd" clip-rule="evenodd" fill="#FFFFFF" d="M125.602,95.472c0,47.51-0.054,75.406-0.054,82.291
		c7.386-5.088,14.022-14.87,16.218-18.266c-5.585-2.894-11.829-11.875-13.822-20.158c-1.5-6.188-2.797-28.147-2.193-37.632
		c0,0,0.046-0.846,0,0c0.046-0.448,0.4-0.699,0.4-0.699s-0.054,0.251-0.4,0.699c0.896-1.097,0.949-1.197,0.795-3.291
		c0.101,0.599,0.202,0.846,0.202,0.846S125.996,96.469,125.602,95.472"/>
	<path fill-rule="evenodd" clip-rule="evenodd" fill="#FFFFFF" d="M124.954,95.472c0,47.51,0.048,75.406,0.048,82.291
		c-7.388-5.088-14.024-14.87-16.22-18.266c5.539-2.894,11.829-11.875,13.822-20.158c1.5-6.188,2.744-28.147,2.195-37.632
		c0,0-0.048-0.846,0,0c-0.048-0.448-0.402-0.699-0.402-0.699s0,0.251,0.402,0.699c-0.897-1.097-0.999-1.197-0.85-3.291
		c-0.102,0.599-0.149,0.846-0.149,0.846S124.552,96.469,124.954,95.472"/>
	<path fill-rule="evenodd" clip-rule="evenodd" fill="#FFFFFF" d="M126.398,96.747v4.612c0.146-0.089,0.262-0.193,0.349-0.34v-2.994
		C126.653,97.612,126.53,97.172,126.398,96.747"/>
	<path fill-rule="evenodd" clip-rule="evenodd" fill="#FFFFFF" d="M126.052,95.657v82.353c0.06-0.062,0.13-0.128,0.191-0.197
		l0.155-0.101v-76.353v-4.612C126.282,96.364,126.159,95.989,126.052,95.657"/>
	<path fill-rule="evenodd" clip-rule="evenodd" fill="#FFFFFF" d="M125.75,94.815v83.418c0.116-0.073,0.231-0.166,0.347-0.27V95.808
		c-0.069-0.212-0.138-0.409-0.202-0.587L125.75,94.815z"/>
	<path fill-rule="evenodd" clip-rule="evenodd" fill="#FFFFFF" d="M125.401,93.869v84.538c0.116-0.042,0.231-0.1,0.349-0.174V94.815
		L125.401,93.869z"/>
	<path fill-rule="evenodd" clip-rule="evenodd" fill="#FFFFFF" d="M125.045,92.926v85.548c0.118,0,0.233-0.027,0.356-0.066V93.869
		L125.045,92.926z"/>
	<path fill-rule="evenodd" clip-rule="evenodd" fill="#FFFFFF" d="M124.698,93.899v84.52c0.116,0.043,0.231,0.059,0.347,0.055
		V92.926C125.045,92.926,124.898,93.34,124.698,93.899"/>
	<path fill-rule="evenodd" clip-rule="evenodd" fill="#FFFFFF" d="M124.35,94.889v83.311c0.11,0.104,0.226,0.174,0.349,0.22v-84.52
		C124.59,94.201,124.475,94.545,124.35,94.889"/>
	<path fill-rule="evenodd" clip-rule="evenodd" fill="#FFFFFF" d="M124.003,95.912v81.8c0.102,0.209,0.217,0.371,0.347,0.487V94.889
		C124.227,95.248,124.104,95.604,124.003,95.912"/>
	<path fill-rule="evenodd" clip-rule="evenodd" fill="#FFFFFF" d="M123.654,97.122v3.99c0.086,0.077,0.18,0.139,0.296,0.197v76.307
		l0.053,0.096v-81.8c-0.039,0.108-0.069,0.213-0.101,0.306C123.825,96.511,123.733,96.816,123.654,97.122"/>
	<path fill-rule="evenodd" clip-rule="evenodd" fill="#FFFFFF" d="M123.502,97.678v3.272c0.105,0.15,0.263,0.267,0.448,0.359v-5.242
		l-0.048,0.15C123.772,96.688,123.625,97.195,123.502,97.678"/>
	<path fill-rule="evenodd" clip-rule="evenodd" fill="#FFFFFF" d="M124.003,103.295v34.881c0.587-0.058,1.16-0.089,1.7-0.089
		c0.093,0.012,0.191,0.02,0.293,0.027v-33.826C125.341,103.96,124.668,103.627,124.003,103.295"/>
	<path fill-rule="evenodd" clip-rule="evenodd" fill="#FFFFFF" d="M142.314,158.608v1.483c0.486-0.753,0.751-1.193,0.751-1.193
		C142.817,158.817,142.569,158.721,142.314,158.608"/>
	<path fill-rule="evenodd" clip-rule="evenodd" fill="#FFFFFF" d="M141.465,158.176v3.214c0.356-0.532,0.657-0.996,0.905-1.375
		v-1.387C142.066,158.501,141.774,158.346,141.465,158.176"/>
	<path fill-rule="evenodd" clip-rule="evenodd" fill="#FFFFFF" d="M140.569,157.616v5.096c0.332-0.476,0.633-0.92,0.896-1.322
		v-3.214C141.171,158.006,140.87,157.82,140.569,157.616"/>
	<path fill-rule="evenodd" clip-rule="evenodd" fill="#FFFFFF" d="M139.673,156.955v7.035c0.316-0.448,0.617-0.877,0.896-1.278
		v-5.096C140.274,157.411,139.974,157.19,139.673,156.955"/>
	<path fill-rule="evenodd" clip-rule="evenodd" fill="#FFFFFF" d="M138.775,156.206v9.021c0.311-0.429,0.612-0.839,0.897-1.236
		v-7.035C139.371,156.72,139.076,156.469,138.775,156.206"/>
	<path fill-rule="evenodd" clip-rule="evenodd" fill="#FFFFFF" d="M137.871,155.363v11.061c0.317-0.405,0.611-0.808,0.904-1.197
		v-9.021C138.475,155.939,138.173,155.657,137.871,155.363"/>
	<path fill-rule="evenodd" clip-rule="evenodd" fill="#FFFFFF" d="M137.03,154.49v13.031c0.309-0.395,0.603-0.78,0.896-1.163V155.41
		C137.627,155.116,137.323,154.812,137.03,154.49"/>
	<path fill-rule="evenodd" clip-rule="evenodd" fill="#FFFFFF" d="M136.127,153.475v15.171c0.307-0.379,0.61-0.754,0.903-1.124
		V154.49C136.729,154.162,136.428,153.822,136.127,153.475"/>
	<path fill-rule="evenodd" clip-rule="evenodd" fill="#FFFFFF" d="M135.229,152.365v17.369c0.309-0.366,0.604-0.729,0.897-1.089
		v-15.171C135.825,153.115,135.524,152.748,135.229,152.365"/>
	<path fill-rule="evenodd" clip-rule="evenodd" fill="#FFFFFF" d="M134.334,151.156v19.625c0.302-0.352,0.603-0.699,0.896-1.047
		v-17.369C134.929,151.972,134.628,151.569,134.334,151.156"/>
	<path fill-rule="evenodd" clip-rule="evenodd" fill="#FFFFFF" d="M133.437,149.839v21.951c0.302-0.332,0.604-0.672,0.897-1.009
		v-19.625C134.023,150.728,133.723,150.287,133.437,149.839"/>
	<path fill-rule="evenodd" clip-rule="evenodd" fill="#FFFFFF" d="M132.587,148.472v24.237c0.303-0.32,0.604-0.645,0.896-0.974
		v-21.823C133.174,149.445,132.875,148.962,132.587,148.472"/>
	<path fill-rule="evenodd" clip-rule="evenodd" fill="#FFFFFF" d="M131.682,146.876v26.772c0.312-0.31,0.611-0.622,0.905-0.939
		v-24.237C132.278,147.95,131.978,147.417,131.682,146.876"/>
	<path fill-rule="evenodd" clip-rule="evenodd" fill="#FFFFFF" d="M130.787,145.076v29.468c0.301-0.297,0.603-0.595,0.895-0.896
		v-26.772C131.375,146.285,131.073,145.683,130.787,145.076"/>
	<path fill-rule="evenodd" clip-rule="evenodd" fill="#FFFFFF" d="M129.891,142.978v32.421c0.301-0.282,0.602-0.564,0.896-0.854
		v-29.468C130.461,144.384,130.168,143.685,129.891,142.978"/>
	<path fill-rule="evenodd" clip-rule="evenodd" fill="#FFFFFF" d="M128.995,140.351v35.859c0.301-0.264,0.593-0.537,0.896-0.812
		v-32.421C129.552,142.104,129.25,141.228,128.995,140.351"/>
	<path fill-rule="evenodd" clip-rule="evenodd" fill="#FFFFFF" d="M128.091,136.082v40.9c0.301-0.255,0.604-0.511,0.904-0.772
		v-35.859c-0.132-0.439-0.248-0.877-0.355-1.313C128.454,138.284,128.269,137.28,128.091,136.082"/>
	<path fill-rule="evenodd" clip-rule="evenodd" fill="#FFFFFF" d="M127.25,128.298v49.368c0.299-0.235,0.593-0.479,0.896-0.727
		v-40.525C127.813,134.274,127.51,131.45,127.25,128.298"/>
	<path fill-rule="evenodd" clip-rule="evenodd" fill="#FFFFFF" d="M126.345,108.707v69.643c0.301-0.224,0.602-0.448,0.905-0.684
		v-49.368C126.73,122.136,126.384,114.719,126.345,108.707 M126.345,104.462v2.426c0.008-0.842,0.015-1.649,0.039-2.41
		L126.345,104.462z"/>
	<path fill-rule="evenodd" clip-rule="evenodd" fill="#FFFFFF" d="M125.447,104.014v75.093c0.18-0.119,0.256-0.293,0.256-0.293
		c0.208-0.15,0.425-0.31,0.642-0.464v-69.643c0-0.622,0-1.229,0-1.819v-2.426L125.447,104.014z"/>
	<path fill-rule="evenodd" clip-rule="evenodd" fill="#FFFFFF" d="M124.552,103.565v75.41c0.116,0.081,0.231,0.158,0.347,0.235
		h0.293c0.102-0.019,0.186-0.058,0.256-0.104v-75.093L124.552,103.565z"/>
	<path fill-rule="evenodd" clip-rule="evenodd" fill="#FFFFFF" d="M123.654,103.121v1.229c0.04,1.896,0.04,4.083,0,6.429v67.567
		c0.296,0.217,0.598,0.429,0.897,0.63v-75.41L123.654,103.121z"/>
	<path fill-rule="evenodd" clip-rule="evenodd" fill="#FFFFFF" d="M122.805,127.896v49.809c0.293,0.232,0.597,0.46,0.897,0.677
		v-75.236l-0.087-0.043C123.849,109.356,123.469,119.667,122.805,127.896"/>
	<path fill-rule="evenodd" clip-rule="evenodd" fill="#FFFFFF" d="M121.908,136.317v40.661c0.295,0.247,0.596,0.49,0.896,0.726
		v-49.809C122.544,131.16,122.233,134.097,121.908,136.317"/>
	<path fill-rule="evenodd" clip-rule="evenodd" fill="#FFFFFF" d="M121.004,140.494v35.716c0.303,0.262,0.597,0.518,0.904,0.769
		v-40.661c-0.161,1.094-0.332,2.018-0.501,2.72C121.293,139.521,121.153,140.007,121.004,140.494"/>
	<path fill-rule="evenodd" clip-rule="evenodd" fill="#FFFFFF" d="M120.108,143.06v32.339c0.294,0.274,0.595,0.544,0.896,0.812
		v-35.716C120.752,141.352,120.45,142.209,120.108,143.06"/>
	<path fill-rule="evenodd" clip-rule="evenodd" fill="#FFFFFF" d="M119.213,145.13v29.41c0.294,0.29,0.595,0.576,0.896,0.858V143.06
		C119.831,143.755,119.53,144.446,119.213,145.13"/>
	<path fill-rule="evenodd" clip-rule="evenodd" fill="#FFFFFF" d="M118.362,146.822v26.872c0.295,0.302,0.597,0.599,0.896,0.893
		v-29.565C118.974,145.628,118.681,146.23,118.362,146.822"/>
	<path fill-rule="evenodd" clip-rule="evenodd" fill="#FFFFFF" d="M117.468,148.417v24.343c0.293,0.312,0.594,0.626,0.895,0.935
		v-26.872C118.076,147.362,117.775,147.892,117.468,148.417"/>
	<path fill-rule="evenodd" clip-rule="evenodd" fill="#FFFFFF" d="M116.562,149.862v21.924c0.301,0.324,0.594,0.648,0.905,0.974
		v-24.343C117.173,148.908,116.871,149.391,116.562,149.862"/>
	<path fill-rule="evenodd" clip-rule="evenodd" fill="#FFFFFF" d="M115.668,151.176v19.595c0.292,0.34,0.593,0.676,0.895,1.016
		v-21.924C116.276,150.311,115.976,150.747,115.668,151.176"/>
	<path fill-rule="evenodd" clip-rule="evenodd" fill="#FFFFFF" d="M114.77,152.381v17.339c0.293,0.348,0.597,0.699,0.898,1.051
		v-19.595C115.371,151.589,115.07,151.991,114.77,152.381"/>
	<path fill-rule="evenodd" clip-rule="evenodd" fill="#FFFFFF" d="M113.92,153.432v15.256c0.293,0.359,0.594,0.727,0.897,1.09
		v-17.458C114.521,152.702,114.221,153.072,113.92,153.432"/>
	<path fill-rule="evenodd" clip-rule="evenodd" fill="#FFFFFF" d="M113.023,154.452v13.107c0.286,0.375,0.588,0.75,0.896,1.128
		v-15.256C113.627,153.783,113.324,154.123,113.023,154.452"/>
	<path fill-rule="evenodd" clip-rule="evenodd" fill="#FFFFFF" d="M112.128,155.383v11.014c0.284,0.383,0.588,0.77,0.896,1.163
		v-13.107C112.723,154.776,112.42,155.085,112.128,155.383"/>
	<path fill-rule="evenodd" clip-rule="evenodd" fill="#FFFFFF" d="M111.224,156.225v8.967c0.293,0.391,0.587,0.792,0.904,1.205
		v-11.014C111.827,155.677,111.524,155.958,111.224,156.225"/>
	<path fill-rule="evenodd" clip-rule="evenodd" fill="#FFFFFF" d="M110.327,156.975v6.973c0.287,0.398,0.589,0.815,0.896,1.244
		v-8.967C110.923,156.491,110.629,156.743,110.327,156.975"/>
	<path fill-rule="evenodd" clip-rule="evenodd" fill="#FFFFFF" d="M109.43,157.635v5.026c0.28,0.405,0.58,0.834,0.897,1.286v-6.973
		C110.026,157.214,109.726,157.435,109.43,157.635"/>
	<path fill-rule="evenodd" clip-rule="evenodd" fill="#FFFFFF" d="M108.58,158.168v3.237c0.272,0.406,0.573,0.851,0.897,1.325v-5.13
		C109.177,157.809,108.877,157.998,108.58,158.168"/>
	<path fill-rule="evenodd" clip-rule="evenodd" fill="#FFFFFF" d="M107.685,158.628v1.395c0.24,0.379,0.541,0.846,0.896,1.383
		v-3.237C108.279,158.342,107.979,158.497,107.685,158.628"/>
	<path fill-rule="evenodd" clip-rule="evenodd" fill="#FFFFFF" d="M107.685,160.022v-1.395c-0.238,0.104-0.472,0.197-0.703,0.271
		C106.981,158.898,107.229,159.312,107.685,160.022"/>
	<g>
		<path fill-rule="evenodd" clip-rule="evenodd" fill="#FFFFFF" d="M104.238,179.845V177.7
			C103.118,177.759,103.845,179.195,104.238,179.845"/>
		<path fill-rule="evenodd" clip-rule="evenodd" fill="#FFFFFF" d="M104.989,180.571v-2.771c-0.312-0.081-0.557-0.111-0.751-0.101
			v2.145c0.115,0.189,0.201,0.312,0.201,0.312S104.649,180.301,104.989,180.571"/>
		<path fill-rule="evenodd" clip-rule="evenodd" fill="#FFFFFF" d="M105.783,181.235v-3.279c-0.253-0.023-0.501-0.07-0.749-0.144
			v2.801C105.243,180.775,105.5,180.984,105.783,181.235"/>
		<path fill-rule="evenodd" clip-rule="evenodd" fill="#FFFFFF" d="M106.534,181.915v-3.944c-0.256,0.012-0.503,0.008-0.751-0.015
			v3.279C106.017,181.437,106.27,181.664,106.534,181.915"/>
		<path fill-rule="evenodd" clip-rule="evenodd" fill="#FFFFFF" d="M107.328,182.653v-4.764c-0.244,0.039-0.501,0.066-0.74,0.081
			v3.995c0.124,0.123,0.262,0.255,0.394,0.39C107.091,182.46,107.206,182.561,107.328,182.653"/>
		<path fill-rule="evenodd" clip-rule="evenodd" fill="#FFFFFF" d="M108.079,183.066v-5.315c-0.254,0.054-0.503,0.101-0.751,0.139
			v4.764C107.553,182.808,107.81,182.947,108.079,183.066"/>
		<path fill-rule="evenodd" clip-rule="evenodd" fill="#FFFFFF" d="M108.828,183.341v-5.771c-0.256,0.065-0.501,0.127-0.749,0.182
			v5.315C108.318,183.171,108.572,183.264,108.828,183.341"/>
		<path fill-rule="evenodd" clip-rule="evenodd" fill="#FFFFFF" d="M109.632,183.554v-6.201c-0.255,0.07-0.503,0.14-0.751,0.205
			v5.799C109.129,183.434,109.377,183.495,109.632,183.554"/>
		<path fill-rule="evenodd" clip-rule="evenodd" fill="#FFFFFF" d="M110.375,183.7v-6.556l-0.743,0.208v6.201
			C109.888,183.611,110.133,183.657,110.375,183.7"/>
		<path fill-rule="evenodd" clip-rule="evenodd" fill="#FFFFFF" d="M111.177,183.812v-6.889c-0.254,0.066-0.502,0.136-0.748,0.205
			v6.579C110.698,183.751,110.946,183.785,111.177,183.812"/>
		<path fill-rule="evenodd" clip-rule="evenodd" fill="#FFFFFF" d="M111.926,183.886v-7.154c-0.253,0.062-0.501,0.123-0.749,0.192
			v6.889C111.479,183.847,111.74,183.87,111.926,183.886"/>
		<path fill-rule="evenodd" clip-rule="evenodd" fill="#FFFFFF" d="M112.677,183.901v-7.336c-0.257,0.05-0.503,0.107-0.751,0.166
			v7.154c0.186,0.012,0.294,0.016,0.294,0.016h0.007h0.025h0.038h0.055h0.061h0.077h0.084H112.677z"/>
		<path fill-rule="evenodd" clip-rule="evenodd" fill="#FFFFFF" d="M113.472,183.901v-7.483c-0.255,0.039-0.503,0.085-0.749,0.136
			v7.348h0.07h0.123h0.132h0.146h0.162H113.472z"/>
		<path fill-rule="evenodd" clip-rule="evenodd" fill="#FFFFFF" d="M114.221,183.901v-7.576c-0.256,0.023-0.501,0.059-0.749,0.093
			v7.483h0.046h0.178h0.186h0.203H114.221z"/>
		<path fill-rule="evenodd" clip-rule="evenodd" fill="#FFFFFF" d="M115.017,183.901v-7.63c-0.247,0.008-0.503,0.026-0.748,0.05
			v7.58h0.015h0.208h0.218h0.224H115.017z"/>
		<path fill-rule="evenodd" clip-rule="evenodd" fill="#FFFFFF" d="M115.766,183.901v-7.63c-0.13-0.004-0.262-0.004-0.399-0.004
			c-0.116,0-0.233,0-0.35,0.004v7.63h0.149h0.236h0.248H115.766z"/>
		<path fill-rule="evenodd" clip-rule="evenodd" fill="#FFFFFF" d="M116.562,183.901v-7.592c-0.231-0.019-0.479-0.03-0.741-0.038
			v7.63h0.076h0.256h0.256H116.562z"/>
		<path fill-rule="evenodd" clip-rule="evenodd" fill="#FFFFFF" d="M117.311,183.901v-7.503c-0.223-0.034-0.47-0.065-0.748-0.089
			v7.592h0.108h0.271h0.27H117.311z"/>
		<path fill-rule="evenodd" clip-rule="evenodd" fill="#FFFFFF" d="M118.062,183.901v-7.34c-0.226-0.062-0.472-0.116-0.751-0.163
			v7.503h0.171h0.279h0.277H118.062z"/>
		<path fill-rule="evenodd" clip-rule="evenodd" fill="#FFFFFF" d="M118.866,183.901v-7.027c-0.217-0.108-0.457-0.213-0.751-0.298
			v7.325h0.202h0.276H118.866z"/>
		<path fill-rule="evenodd" clip-rule="evenodd" fill="#FFFFFF" d="M119.606,183.901v-6.475c-0.187-0.193-0.425-0.383-0.74-0.553
			v7.027h0.014h0.279h0.284H119.606z"/>
		<path fill-rule="evenodd" clip-rule="evenodd" fill="#FFFFFF" d="M120.411,183.901v-5.49c-0.257-0.27-0.45-0.606-0.751-0.931
			v6.421h0.062h0.286h0.277H120.411z"/>
		<path fill-rule="evenodd" clip-rule="evenodd" fill="#FFFFFF" d="M121.159,183.901v-4.764c-0.31-0.29-0.562-0.549-0.748-0.727
			v5.49h0.154h0.277h0.271H121.159z"/>
		<path fill-rule="evenodd" clip-rule="evenodd" fill="#FFFFFF" d="M121.955,183.901v-4.064c-0.277-0.22-0.525-0.44-0.749-0.648
			v4.713h0.178h0.271h0.271H121.955z"/>
		<path fill-rule="evenodd" clip-rule="evenodd" fill="#FFFFFF" d="M122.706,183.901v-3.527c-0.272-0.166-0.518-0.352-0.751-0.537
			v4.064h0.226h0.262h0.248H122.706z"/>
		<path fill-rule="evenodd" clip-rule="evenodd" fill="#FFFFFF" d="M123.454,183.901v-3.114c-0.263-0.119-0.518-0.263-0.748-0.413
			v3.527h0.23h0.248h0.233H123.454z"/>
		<path fill-rule="evenodd" clip-rule="evenodd" fill="#FFFFFF" d="M124.252,183.901v-2.809c-0.257-0.077-0.512-0.17-0.75-0.278
			v3.087h0.145h0.217h0.217H124.252z"/>
		<path fill-rule="evenodd" clip-rule="evenodd" fill="#FFFFFF" d="M125.002,183.901v-2.662c-0.258-0.027-0.513-0.081-0.75-0.146
			v2.809h0.038h0.199h0.192h0.18H125.002z"/>
		<path fill-rule="evenodd" clip-rule="evenodd" fill="#FFFFFF" d="M125.796,183.901v-2.67l-0.093,0.023
			c-0.225,0.016-0.441,0.008-0.658-0.012v2.658h0.154h0.157h0.146H125.796z"/>
		<path fill-rule="evenodd" clip-rule="evenodd" fill="#FFFFFF" d="M126.545,183.901v-2.94c-0.24,0.108-0.486,0.201-0.749,0.271
			v2.67H126.545z"/>
		<path fill-rule="evenodd" clip-rule="evenodd" fill="#FFFFFF" d="M127.293,183.901v-3.361c-0.237,0.154-0.485,0.298-0.748,0.421
			v2.94H127.293z"/>
		<path fill-rule="evenodd" clip-rule="evenodd" fill="#FFFFFF" d="M128.091,183.901v-3.976c-0.225,0.201-0.479,0.398-0.742,0.579
			v3.396H128.091z"/>
		<path fill-rule="evenodd" clip-rule="evenodd" fill="#FFFFFF" d="M128.841,183.901v-4.694c-0.216,0.229-0.474,0.476-0.75,0.719
			v3.976H128.841z"/>
		<path fill-rule="evenodd" clip-rule="evenodd" fill="#FFFFFF" d="M129.643,183.901v-5.54l-0.055,0.05
			c-0.177,0.182-0.407,0.444-0.694,0.746v4.744H129.643z"/>
		<path fill-rule="evenodd" clip-rule="evenodd" fill="#FFFFFF" d="M130.394,183.901v-6.437c-0.301,0.31-0.503,0.63-0.751,0.896
			v5.54H130.394z"/>
		<path fill-rule="evenodd" clip-rule="evenodd" fill="#FFFFFF" d="M131.188,183.901v-7.035c-0.317,0.166-0.557,0.355-0.749,0.549
			v6.486H131.188z"/>
		<path fill-rule="evenodd" clip-rule="evenodd" fill="#FFFFFF" d="M131.938,183.901v-7.329c-0.292,0.085-0.54,0.186-0.749,0.294
			v7.035H131.938z"/>
		<path fill-rule="evenodd" clip-rule="evenodd" fill="#FFFFFF" d="M132.688,183.901v-7.499c-0.279,0.047-0.534,0.104-0.751,0.17
			v7.329H132.688z"/>
		<path fill-rule="evenodd" clip-rule="evenodd" fill="#FFFFFF" d="M133.482,183.901v-7.592c-0.27,0.02-0.518,0.051-0.749,0.085
			v7.507H133.482z"/>
		<path fill-rule="evenodd" clip-rule="evenodd" fill="#FFFFFF" d="M134.233,183.901v-7.63c-0.272,0.008-0.518,0.02-0.751,0.038
			v7.592H134.233z"/>
		<path fill-rule="evenodd" clip-rule="evenodd" fill="#FFFFFF" d="M135.027,183.901v-7.626c-0.13-0.008-0.262-0.008-0.392-0.008
			c-0.126,0-0.241,0-0.356,0.004v7.63H135.027z"/>
		<path fill-rule="evenodd" clip-rule="evenodd" fill="#FFFFFF" d="M135.778,183.901v-7.576c-0.247-0.023-0.495-0.042-0.751-0.05
			v7.626H135.778z"/>
		<path fill-rule="evenodd" clip-rule="evenodd" fill="#FFFFFF" d="M136.527,183.901v-7.483c-0.248-0.034-0.493-0.069-0.749-0.093
			v7.576H136.527z"/>
		<path fill-rule="evenodd" clip-rule="evenodd" fill="#FFFFFF" d="M137.323,183.901v-7.336c-0.247-0.051-0.495-0.098-0.739-0.136
			v7.472H137.323z"/>
		<path fill-rule="evenodd" clip-rule="evenodd" fill="#FFFFFF" d="M138.073,183.886v-7.154c-0.248-0.059-0.494-0.116-0.75-0.166
			v7.336h0.449C137.772,183.901,137.888,183.897,138.073,183.886"/>
		<path fill-rule="evenodd" clip-rule="evenodd" fill="#FFFFFF" d="M138.877,183.805v-6.869c-0.248-0.065-0.502-0.131-0.749-0.193
			v7.14C138.313,183.866,138.575,183.843,138.877,183.805"/>
		<path fill-rule="evenodd" clip-rule="evenodd" fill="#FFFFFF" d="M139.618,183.7v-6.56c-0.238-0.069-0.493-0.14-0.741-0.205v6.869
			C139.101,183.777,139.356,183.743,139.618,183.7"/>
		<path fill-rule="evenodd" clip-rule="evenodd" fill="#FFFFFF" d="M140.423,183.546v-6.182c-0.249-0.065-0.497-0.139-0.75-0.208
			v6.536C139.912,183.65,140.168,183.604,140.423,183.546"/>
		<path fill-rule="evenodd" clip-rule="evenodd" fill="#FFFFFF" d="M141.171,183.349v-5.783c-0.246-0.062-0.494-0.127-0.748-0.201
			v6.182C140.668,183.487,140.925,183.422,141.171,183.349"/>
		<path fill-rule="evenodd" clip-rule="evenodd" fill="#FFFFFF" d="M141.92,183.078v-5.331c-0.247-0.054-0.492-0.116-0.749-0.182
			v5.783C141.428,183.268,141.681,183.179,141.92,183.078"/>
		<path fill-rule="evenodd" clip-rule="evenodd" fill="#FFFFFF" d="M142.717,182.646v-4.752c-0.248-0.034-0.496-0.081-0.749-0.135
			v5.296C142.237,182.936,142.492,182.8,142.717,182.646"/>
		<path fill-rule="evenodd" clip-rule="evenodd" fill="#FFFFFF" d="M143.465,181.95v-3.979c-0.245-0.011-0.493-0.038-0.748-0.077
			v4.752c0.124-0.093,0.247-0.186,0.349-0.29C143.203,182.213,143.336,182.081,143.465,181.95"/>
		<path fill-rule="evenodd" clip-rule="evenodd" fill="#FFFFFF" d="M144.262,181.204v-3.248c-0.248,0.022-0.493,0.026-0.749,0.015
			v3.933C143.782,181.646,144.03,181.409,144.262,181.204"/>
		<path fill-rule="evenodd" clip-rule="evenodd" fill="#FFFFFF" d="M145.01,180.575v-2.763c-0.237,0.073-0.493,0.116-0.748,0.144
			v3.248C144.548,180.949,144.804,180.741,145.01,180.575"/>
		<path fill-rule="evenodd" clip-rule="evenodd" fill="#FFFFFF" d="M145.761,179.845v-2.148c-0.194-0.003-0.439,0.031-0.751,0.116
			v2.763c0.343-0.271,0.55-0.418,0.55-0.418S145.646,180.034,145.761,179.845"/>
		<path fill-rule="evenodd" clip-rule="evenodd" fill="#FFFFFF" d="M145.808,177.7v2.063
			C146.21,179.084,146.843,177.771,145.808,177.7"/>
		<path fill-rule="evenodd" clip-rule="evenodd" fill="#FFFFFF" d="M104.293,179.926v-2.229
			C103.043,177.716,103.916,179.315,104.293,179.926"/>
		<path fill-rule="evenodd" clip-rule="evenodd" fill="#FFFFFF" d="M105.136,180.69v-2.851c-0.031-0.008-0.062-0.016-0.102-0.027
			c-0.309-0.081-0.548-0.119-0.741-0.116v2.229c0.084,0.144,0.146,0.231,0.146,0.231S104.702,180.343,105.136,180.69"/>
		<path fill-rule="evenodd" clip-rule="evenodd" fill="#FFFFFF" d="M105.985,181.413v-3.442c-0.293-0.015-0.573-0.058-0.85-0.131
			v2.851C105.375,180.884,105.66,181.127,105.985,181.413"/>
		<path fill-rule="evenodd" clip-rule="evenodd" fill="#FFFFFF" d="M106.836,182.205v-4.253c-0.293,0.026-0.574,0.034-0.851,0.019
			v3.442C106.247,181.646,106.534,181.911,106.836,182.205"/>
		<path fill-rule="evenodd" clip-rule="evenodd" fill="#FFFFFF" d="M107.685,182.87v-5.038c-0.293,0.054-0.57,0.093-0.849,0.12
			v4.253l0.146,0.15C107.174,182.549,107.416,182.723,107.685,182.87"/>
		<path fill-rule="evenodd" clip-rule="evenodd" fill="#FFFFFF" d="M108.534,183.244v-5.598c-0.293,0.069-0.57,0.132-0.85,0.186
			v5.038C107.94,183.013,108.226,183.136,108.534,183.244"/>
		<path fill-rule="evenodd" clip-rule="evenodd" fill="#FFFFFF" d="M109.377,183.495v-6.072c-0.286,0.077-0.572,0.154-0.843,0.224
			v5.598C108.805,183.341,109.091,183.422,109.377,183.495"/>
		<path fill-rule="evenodd" clip-rule="evenodd" fill="#FFFFFF" d="M110.227,183.673v-6.49c-0.286,0.082-0.572,0.162-0.85,0.24
			v6.072C109.663,183.565,109.947,183.623,110.227,183.673"/>
		<path fill-rule="evenodd" clip-rule="evenodd" fill="#FFFFFF" d="M111.076,183.801v-6.854c-0.283,0.081-0.572,0.158-0.85,0.235
			v6.49C110.527,183.728,110.813,183.77,111.076,183.801"/>
		<path fill-rule="evenodd" clip-rule="evenodd" fill="#FFFFFF" d="M111.926,183.886v-7.154c-0.284,0.069-0.572,0.143-0.85,0.216
			v6.854C111.425,183.843,111.717,183.87,111.926,183.886"/>
		<path fill-rule="evenodd" clip-rule="evenodd" fill="#FFFFFF" d="M112.775,183.901v-7.355c-0.293,0.054-0.569,0.119-0.85,0.186
			v7.154c0.186,0.012,0.294,0.016,0.294,0.016h0.007h0.025h0.038h0.055h0.061h0.077h0.084h0.11H112.775z"/>
		<path fill-rule="evenodd" clip-rule="evenodd" fill="#FFFFFF" d="M113.618,183.901v-7.503c-0.284,0.039-0.562,0.089-0.843,0.147
			v7.355h0.018h0.123h0.132h0.146h0.162h0.161H113.618z"/>
		<path fill-rule="evenodd" clip-rule="evenodd" fill="#FFFFFF" d="M114.423,183.901v-7.596c-0.286,0.023-0.573,0.059-0.851,0.101
			v7.495h0.123h0.186h0.203h0.199H114.423z"/>
		<path fill-rule="evenodd" clip-rule="evenodd" fill="#FFFFFF" d="M115.272,183.901v-7.634c-0.286,0.004-0.573,0.016-0.85,0.038
			v7.596h0.068h0.218h0.224h0.233H115.272z"/>
		<path fill-rule="evenodd" clip-rule="evenodd" fill="#FFFFFF" d="M116.114,183.901v-7.618c-0.23-0.012-0.479-0.016-0.748-0.016
			h-0.094v7.634h0.13h0.248h0.247H116.114z"/>
		<path fill-rule="evenodd" clip-rule="evenodd" fill="#FFFFFF" d="M116.964,183.901v-7.549c-0.254-0.031-0.541-0.055-0.85-0.069
			v7.618h0.039h0.256h0.262h0.271H116.964z"/>
		<path fill-rule="evenodd" clip-rule="evenodd" fill="#FFFFFF" d="M117.814,183.901v-7.402c-0.255-0.062-0.532-0.108-0.851-0.146
			v7.549h0.248h0.27h0.279H117.814z"/>
		<path fill-rule="evenodd" clip-rule="evenodd" fill="#FFFFFF" d="M118.666,183.901v-7.124c-0.241-0.108-0.52-0.201-0.852-0.278
			v7.402h0.224h0.279h0.276H118.666z"/>
		<path fill-rule="evenodd" clip-rule="evenodd" fill="#FFFFFF" d="M119.507,183.901v-6.571c-0.21-0.201-0.479-0.391-0.841-0.553
			v7.124h0.214h0.279h0.284H119.507z"/>
		<path fill-rule="evenodd" clip-rule="evenodd" fill="#FFFFFF" d="M120.356,183.901v-5.544c-0.27-0.306-0.472-0.68-0.85-1.027
			v6.571h0.216h0.286h0.277H120.356z"/>
		<path fill-rule="evenodd" clip-rule="evenodd" fill="#FFFFFF" d="M121.206,183.901v-4.713c-0.331-0.313-0.602-0.592-0.795-0.777
			l-0.055-0.054v5.544h0.209h0.277h0.271H121.206z"/>
		<path fill-rule="evenodd" clip-rule="evenodd" fill="#FFFFFF" d="M122.056,183.901v-3.983c-0.317-0.247-0.602-0.498-0.85-0.729
			v4.713h0.178h0.271h0.271H122.056z"/>
		<path fill-rule="evenodd" clip-rule="evenodd" fill="#FFFFFF" d="M122.907,183.901v-3.403c-0.311-0.178-0.589-0.379-0.852-0.58
			v3.983h0.125h0.262h0.248H122.907z"/>
		<path fill-rule="evenodd" clip-rule="evenodd" fill="#FFFFFF" d="M123.75,183.901v-2.982c-0.296-0.116-0.582-0.263-0.843-0.421
			v3.403h0.029h0.248h0.233h0.229H123.75z"/>
		<path fill-rule="evenodd" clip-rule="evenodd" fill="#FFFFFF" d="M124.598,183.901v-2.724c-0.293-0.062-0.571-0.151-0.848-0.259
			v2.982h0.113h0.217h0.21h0.199H124.598z"/>
		<path fill-rule="evenodd" clip-rule="evenodd" fill="#FFFFFF" d="M125.447,183.901v-2.639c-0.293,0-0.57-0.031-0.85-0.085v2.724
			h0.084h0.18h0.177h0.161h0.157H125.447z"/>
		<path fill-rule="evenodd" clip-rule="evenodd" fill="#FFFFFF" d="M126.297,183.901v-2.836c-0.192,0.077-0.395,0.143-0.594,0.189
			c-0.085,0.008-0.169,0.008-0.256,0.008v2.639h0.056H126.297z"/>
		<path fill-rule="evenodd" clip-rule="evenodd" fill="#FFFFFF" d="M127.094,183.901v-3.233c-0.263,0.162-0.549,0.305-0.851,0.417
			v2.816H127.094z"/>
		<path fill-rule="evenodd" clip-rule="evenodd" fill="#FFFFFF" d="M127.943,183.901v-3.848c-0.263,0.216-0.541,0.429-0.85,0.614
			v3.233H127.943z"/>
		<path fill-rule="evenodd" clip-rule="evenodd" fill="#FFFFFF" d="M128.793,183.901v-4.644c-0.248,0.259-0.532,0.533-0.85,0.796
			v3.848H128.793z"/>
		<path fill-rule="evenodd" clip-rule="evenodd" fill="#FFFFFF" d="M129.643,183.901v-5.54l-0.055,0.05
			c-0.198,0.201-0.461,0.511-0.795,0.847v4.644H129.643z"/>
		<path fill-rule="evenodd" clip-rule="evenodd" fill="#FFFFFF" d="M130.485,183.901v-6.537c-0.356,0.34-0.565,0.699-0.843,0.997
			v5.54H130.485z"/>
		<path fill-rule="evenodd" clip-rule="evenodd" fill="#FFFFFF" d="M131.336,183.901v-7.108c-0.362,0.17-0.634,0.367-0.851,0.571
			v6.537H131.336z"/>
		<path fill-rule="evenodd" clip-rule="evenodd" fill="#FFFFFF" d="M132.186,183.901v-7.398c-0.333,0.085-0.61,0.182-0.85,0.29
			v7.108H132.186z"/>
		<path fill-rule="evenodd" clip-rule="evenodd" fill="#FFFFFF" d="M133.035,183.901v-7.549c-0.315,0.038-0.603,0.093-0.85,0.15
			v7.398H133.035z"/>
		<path fill-rule="evenodd" clip-rule="evenodd" fill="#FFFFFF" d="M133.885,183.901v-7.618c-0.309,0.015-0.595,0.038-0.85,0.069
			v7.549H133.885z"/>
		<path fill-rule="evenodd" clip-rule="evenodd" fill="#FFFFFF" d="M134.727,183.901v-7.634h-0.091
			c-0.272,0-0.518,0.004-0.751,0.016v7.618H134.727z"/>
		<path fill-rule="evenodd" clip-rule="evenodd" fill="#FFFFFF" d="M135.576,183.901v-7.596c-0.276-0.022-0.563-0.034-0.85-0.038
			v7.634H135.576z"/>
		<path fill-rule="evenodd" clip-rule="evenodd" fill="#FFFFFF" d="M136.428,183.901v-7.495c-0.278-0.042-0.564-0.077-0.852-0.101
			v7.596H136.428z"/>
		<path fill-rule="evenodd" clip-rule="evenodd" fill="#FFFFFF" d="M137.278,183.901v-7.348c-0.278-0.055-0.565-0.104-0.851-0.147
			v7.495H137.278z"/>
		<path fill-rule="evenodd" clip-rule="evenodd" fill="#FFFFFF" d="M138.128,183.882v-7.14c-0.279-0.069-0.565-0.131-0.85-0.188
			v7.348h0.494C137.772,183.901,137.902,183.897,138.128,183.882"/>
		<path fill-rule="evenodd" clip-rule="evenodd" fill="#FFFFFF" d="M138.923,183.801v-6.854c-0.277-0.073-0.564-0.146-0.85-0.216
			v7.154C138.282,183.866,138.575,183.843,138.923,183.801"/>
		<path fill-rule="evenodd" clip-rule="evenodd" fill="#FFFFFF" d="M139.772,183.673v-6.49c-0.277-0.077-0.562-0.158-0.85-0.235
			v6.854C139.178,183.77,139.472,183.728,139.772,183.673"/>
		<path fill-rule="evenodd" clip-rule="evenodd" fill="#FFFFFF" d="M140.622,183.495v-6.076c-0.277-0.074-0.563-0.154-0.85-0.236
			v6.49C140.044,183.627,140.328,183.569,140.622,183.495"/>
		<path fill-rule="evenodd" clip-rule="evenodd" fill="#FFFFFF" d="M141.465,183.248v-5.605c-0.271-0.069-0.557-0.143-0.843-0.224
			v6.076C140.908,183.426,141.194,183.345,141.465,183.248"/>
		<path fill-rule="evenodd" clip-rule="evenodd" fill="#FFFFFF" d="M142.314,182.889v-5.061c-0.279-0.05-0.557-0.116-0.85-0.186
			v5.605C141.766,183.147,142.052,183.028,142.314,182.889"/>
		<path fill-rule="evenodd" clip-rule="evenodd" fill="#FFFFFF" d="M143.166,182.252v-4.304c-0.278-0.023-0.559-0.066-0.852-0.12
			v5.061c0.293-0.154,0.549-0.332,0.751-0.533L143.166,182.252z"/>
		<path fill-rule="evenodd" clip-rule="evenodd" fill="#FFFFFF" d="M144.014,181.433v-3.462c-0.276,0.016-0.555,0.004-0.848-0.022
			v4.304C143.459,181.946,143.752,181.672,144.014,181.433"/>
		<path fill-rule="evenodd" clip-rule="evenodd" fill="#FFFFFF" d="M144.863,180.698v-2.847c-0.276,0.069-0.562,0.108-0.85,0.119
			v3.462C144.331,181.139,144.627,180.892,144.863,180.698"/>
		<path fill-rule="evenodd" clip-rule="evenodd" fill="#FFFFFF" d="M145.706,179.926v-2.229c-0.185,0-0.409,0.039-0.696,0.116
			c-0.045,0.016-0.099,0.027-0.146,0.039v2.847c0.427-0.355,0.696-0.541,0.696-0.541S145.622,180.069,145.706,179.926"/>
		<path fill-rule="evenodd" clip-rule="evenodd" fill="#FFFFFF" d="M145.706,177.696v2.229
			C146.093,179.312,146.981,177.686,145.706,177.696"/>
		<path fill-rule="evenodd" clip-rule="evenodd" fill="#FFFFFF" d="M146.21,177.84v1.116
			C146.38,178.512,146.464,178.063,146.21,177.84"/>
	</g>
	<path fill-rule="evenodd" clip-rule="evenodd" fill="#666666" d="M125.594,104.087c0,42.275-0.046,67.217-0.046,73.676
		c7.386-5.088,14.022-14.87,16.218-18.266c-5.585-2.894-11.829-11.875-13.822-20.158c-1.382-5.714-2.595-24.859-2.302-35.229
		L125.594,104.087z"/>
	<path fill-rule="evenodd" clip-rule="evenodd" fill="#666666" d="M124.954,103.767c0,42.468,0.048,67.521,0.048,73.996
		c-7.388-5.088-14.024-14.87-16.22-18.266c5.539-2.894,11.829-11.875,13.822-20.158c1.398-5.783,2.581-25.331,2.279-35.607
		L124.954,103.767z"/>
	<path fill-rule="evenodd" clip-rule="evenodd" fill="#FFFFFF" d="M126.052,104.312v73.698c0.06-0.062,0.13-0.128,0.191-0.197
		l0.155-0.101v-73.227L126.052,104.312z"/>
	<path fill-rule="evenodd" clip-rule="evenodd" fill="#FFFFFF" d="M125.75,104.16v74.073c0.116-0.073,0.231-0.166,0.347-0.27v-73.63
		L125.75,104.16z"/>
	<path fill-rule="evenodd" clip-rule="evenodd" fill="#FFFFFF" d="M125.401,103.986v74.421c0.116-0.042,0.231-0.1,0.349-0.174
		V104.16L125.401,103.986z"/>
	<path fill-rule="evenodd" clip-rule="evenodd" fill="#FFFFFF" d="M125.045,103.812v74.661c0.118,0,0.233-0.027,0.356-0.066v-74.421
		L125.045,103.812z"/>
	<path fill-rule="evenodd" clip-rule="evenodd" fill="#FFFFFF" d="M124.698,103.639v74.78c0.116,0.043,0.231,0.059,0.347,0.055
		v-74.661L124.698,103.639z"/>
	<path fill-rule="evenodd" clip-rule="evenodd" fill="#FFFFFF" d="M124.35,103.465v74.734c0.11,0.104,0.226,0.174,0.349,0.22v-74.78
		L124.35,103.465z"/>
	<path fill-rule="evenodd" clip-rule="evenodd" fill="#FFFFFF" d="M124.003,103.295v74.417c0.102,0.209,0.217,0.371,0.347,0.487
		v-74.734L124.003,103.295z"/>
	<polygon fill-rule="evenodd" clip-rule="evenodd" fill="#FFFFFF" points="124.003,177.712 124.003,103.295 123.95,103.268 
		123.95,177.616 	"/>
	<polygon fill-rule="evenodd" clip-rule="evenodd" fill="#FFFFFF" points="124.003,177.712 124.003,103.295 123.95,103.268 
		123.95,177.616 	"/>
	<path fill="#FFFFFF" d="M112.894,163.785c-0.142,0.065-0.304,0.008-0.363-0.127c-0.07-0.136-0.009-0.298,0.123-0.363
		c5.664-2.708,10.849-11.396,10.863-11.424c0.077-0.128,0.248-0.17,0.378-0.093c0.123,0.077,0.171,0.243,0.092,0.375
		C123.972,152.181,118.702,161.008,112.894,163.785"/>
</g>
</svg>
