<?xml version="1.0" encoding="utf-8"?>
<!-- Generator: Adobe Illustrator 16.0.0, SVG Export Plug-In . SVG Version: 6.00 Build 0)  -->
<!DOCTYPE svg PUBLIC "-//W3C//DTD SVG 1.1//EN" "http://www.w3.org/Graphics/SVG/1.1/DTD/svg11.dtd">
<svg version="1.1" id="Layer_1" xmlns="http://www.w3.org/2000/svg" xmlns:xlink="http://www.w3.org/1999/xlink" x="0px" y="0px"
	 width="250px" height="250px" viewBox="0 0 250 250" enable-background="new 0 0 250 250" xml:space="preserve">
<g>
	<g>
		<path fill-rule="evenodd" clip-rule="evenodd" fill="#666666" d="M118.521,88c-0.352,0-0.876,0-1.4,0c0,1-0.877,1.864-2.453,1.864
			c-1.4,0-2.102-0.763-2.275-1.463c-0.35,0-0.701,0-1.051-0.175c0,2.451,1.75,3.038,3.502,3.038
			C116.068,91.265,117.995,91,118.521,88z"/>
		<path fill-rule="evenodd" clip-rule="evenodd" fill="#666666" d="M132.18,97.683c5.254,4.027,3.678,10.156-1.227,16.284
			c-0.525-2.626-1.225-4.902-2.977-6.828c0.351,3.327-0.523,9.455-7.354,12.783c0.175-2.627-0.175-4.903-0.699-7.18
			c-0.526,0.525-1.401,1.225-2.277,1.926c-0.175-0.701-0.35-1.926-0.175-2.802c1.226-1.05,2.277-2.45,3.502-3.851
			c1.051,2.627,1.576,6.129,1.752,7.705c2.451-2.277,4.377-6.479,1.926-14.008c3.677,1.927,5.602,3.855,7.004,7.008
			c3.852-6.479-0.175-9.802-6.129-12.078c7.006-0.875,15.585-4.015,19.963-12.771c-2.977-0.174-7.53,0.9-11.908,6.504
			c-0.525-0.351-1.225-0.828-1.4-1.355c1.752-2.451,3.852-4.282,6.129-5.508c-0.176-0.35-0.351-0.512-0.523-0.512h-24.343
			c-0.876,0-1.751,1.324-2.101,3.076c0.525,0.174,1.4-0.076,2.275-0.076c0.877,0,1.75,0,2.803,0c1.75,0,4.377,0.238,5.953,1.289
			c-0.175,0.699-0.524,1.287-0.875,1.637c-0.351-0.175-0.701-0.175-1.051-0.35c-0.875,4.028-3.677,4.903-5.604,4.903
			c-4.903,0-5.778-3.853-5.428-5.953c-2.451-1.402-4.729-2.276-6.48-2.276c-4.202,0-5.953,4.728-6.654,7.354
			c2.277-0.701,4.203-1.052,5.779-1.052c2.277,0,3.852,0.526,5.078,1.927c1.226,1.752,2.802,2.102,3.326,2.102
			c2.277,0.7,6.306,2.102,6.306,4.027c0,0.351,0,0.876-0.526,1.401c-4.027,5.078-7.705,6.479-10.857,6.479
			c-1.575,0-2.801-0.351-3.852-0.701c0.875,2.451,3.327,2.977,5.254,2.977c1.575,0,2.977-0.175,5.953-0.875
			c-3.151,2.451-5.777,5.604-6.479,10.507c2.802-2.102,5.779-2.627,8.93-2.627c-3.677,3.854-5.777,7.705-5.777,11.558
			c0,4.027,1.75,6.304,2.977,7.705c1.4-6.479,4.729-10.508,6.829-12.608c1.226,9.106,0.526,18.912-0.175,22.765
			c3.852-1.401,7.18-3.151,9.805-6.654c1.576-2.626,1.752-10.331,1.227-16.635c3.327,2.101,6.305,5.953,7.707,9.104
			c1.926-1.926,2.975-4.553,2.975-8.055c0-3.853-1.225-7.355-2.451-9.982c2.802,0.877,5.254,2.103,7.18,4.38
			c0.525-1.753,0.875-3.328,0.875-5.079c0-6.129-3.328-10.507-5.604-12.783c3.678,0,5.779,0.7,7.881,1.4
			c0.174-3.852-0.877-8.405-4.378-12.082C141.11,93.479,138.133,95.581,132.18,97.683z"/>
		<path fill-rule="evenodd" clip-rule="evenodd" fill="#666666" d="M125,51.628c-40.451,0-73.372,32.746-73.372,73.372
			c0,40.451,32.921,73.372,73.372,73.372s73.373-32.921,73.373-73.372C198.373,84.374,165.451,51.628,125,51.628z M85.6,94.53
			c1.576,1.401,4.027,4.027,7.705,4.027c3.853,0,6.654-1.4,9.281-1.4c1.927,0,5.252,1.051,6.83,4.377
			c-0.877-0.7-2.627-1.575-5.604-1.575c-2.101,0-5.778,2.102-8.931,2.102C89.979,102.061,87.176,98.033,85.6,94.53z
			 M150.741,105.388c-1.226-0.701-3.677-1.751-5.078-2.102c2.276,3.502,2.978,6.654,2.978,10.156c0,2.451-0.526,5.078-1.576,7.53
			l-0.701,1.927c-1.399-1.927-2.451-3.328-4.026-4.553c0.351,1.225,0.874,3.852,0.874,5.603c0,4.729-1.926,8.931-6.303,11.732
			c-0.877-2.276-2.627-5.604-4.377-7.704c0.173,4.377,0,9.455-1.753,12.782c-3.325,4.378-7.88,7.005-15.06,8.756
			c1.227-2.977,2.276-10.857,1.752-20.312c-1.402,2.101-2.977,6.129-3.502,11.207c-1.752-1.401-7.004-5.254-7.004-12.083
			c0-2.803,1.049-5.604,2.801-8.405c-2.451,1.051-4.203,2.627-5.954,6.129c-0.526-4.903,0.351-10.157,2.802-14.01
			c-6.305-0.175-8.055-3.852-7.705-9.454c1.751,1.575,3.678,2.628,6.304,2.628s5.954-1.05,9.282-5.427
			c-1.577-0.877-2.978-1.397-4.029-1.747c-1.225-0.351-3.15-0.694-5.078-3.146c-0.699-0.876-1.926-1.036-3.326-1.036
			c-1.752,0-4.379,0.38-8.405,2.481c0.525-10.157,5.429-13.247,9.28-13.247c1.927,0,4.203,0.819,6.655,2.22
			c0.35-2.101,1.926-4.313,3.677-4.313h25.391c0.526,0,1.053,0.986,1.576,1.688c1.752-0.701,3.503-1.116,4.904-1.116
			c1.225,0,2.102,0.176,2.277,0.176c0,0,1.049,0.175,1.225,0.525c-1.225,2.802-2.102,4.378-3.152,5.778
			C149.867,92.604,151.617,98.208,150.741,105.388z"/>
	</g>
	<path fill-rule="evenodd" clip-rule="evenodd" fill="#666666" d="M125,42.872c-45.354,0-82.128,36.773-82.128,82.128
		S79.646,207.128,125,207.128c45.355,0,82.128-36.773,82.128-82.128S170.355,42.872,125,42.872z M125,201.174
		c-42.027,0-76.174-34.321-76.174-76.174c0-42.026,34.146-76.175,76.174-76.175c41.852,0,76.174,34.148,76.174,76.175
		C201.174,166.853,166.852,201.174,125,201.174z"/>
	<path fill-rule="evenodd" clip-rule="evenodd" fill="#FFFFFF" d="M112.217,80.696l-8.756-20.313c3.678,0,7.355,1.576,7.355,4.554
		c0,0.875-0.352,1.926-1.051,2.977c0,0.175,0,0.175,0.175,0.175l0,0c0.7-0.699,1.576-1.226,2.626-1.226
		c1.928,0,3.328,1.575,3.328,3.502c0,1.752-1.4,3.327-3.328,3.327c-0.174,0-0.523,0-0.699,0c0.176,0.701,2.627,2.102,5.429,2.102
		c2.101,0,4.553-0.875,5.952-3.677c-0.523,0.525-1.399,0.701-2.101,0.701c-1.926,0-3.502-1.402-3.502-3.328s1.576-3.503,3.502-3.503
		c0.701,0,1.401,0.175,1.926,0.525c-0.7-0.525-1.225-1.399-1.225-2.451c0-1.751,1.575-3.327,3.501-3.327
		c1.928,0,3.502,1.576,3.502,3.327c0,0.876-0.35,1.751-1.051,2.276c0.526-0.176,1.051-0.351,1.578-0.351
		c1.926,0,3.5,1.577,3.5,3.503s-1.574,3.328-3.5,3.328c-0.877,0-1.578-0.351-2.277-0.701c0.526,1.4,3.15,3.852,6.304,3.852
		c1.753,0,3.679-0.7,5.429-2.276c-0.176,0-0.352,0-0.525,0c-2.102,0-3.677-1.575-3.677-3.327c0-1.927,1.575-3.502,3.677-3.502
		c0.876,0,1.752,0.526,2.451,1.226c0,0,0,0,0.176,0c0,0,0.175,0,0.175-0.175c-0.876-1.051-1.226-2.102-1.226-2.977
		c0-2.978,3.678-4.554,7.18-4.554l-8.406,20.139h-25.391C112.917,80.521,112.566,80.521,112.217,80.696L112.217,80.696z"/>
	<path fill-rule="evenodd" clip-rule="evenodd" fill="#FFFFFF" d="M88.576,153.193c6.479,0,12.434,1.051,12.434,6.479h-8.756
		c0-2.276-1.576-2.627-3.678-2.627c-1.926,0-3.327,0.525-3.327,1.927s1.227,2.102,4.378,2.102c7.881,0,11.383,1.4,12.084,5.078
		l5.078-12.608h11.381l5.43,13.484l5.604-13.484h11.206l6.306,14.885v-14.885h18.036c4.553,0,5.604,3.152,5.604,5.078
		c0,1.752-0.701,4.203-4.205,4.729c4.029,0.35,4.904,3.327,4.904,5.078c0,2.102-1.576,5.429-5.428,5.429H141.11l-1.226-3.151h-9.98
		l-1.402,3.151h-9.631l-1.4-3.151h-9.982l-1.4,3.151h-7.705l0.701-1.751c-1.227,1.051-3.328,2.276-10.332,2.276
		c-6.654,0-12.607-1.401-12.783-6.83h8.93c0,1.227,0.877,2.627,3.678,2.627c3.504,0,3.854-1.051,3.854-1.926
		c0-1.226-0.875-2.277-5.078-2.277c-6.129,0-10.508-1.05-10.508-5.953C76.844,154.419,83.323,153.193,88.576,153.193L88.576,153.193
		z M131.83,165.976h6.128l-3.151-7.529L131.83,165.976L131.83,165.976z M109.416,165.976h6.127l-3.15-7.529L109.416,165.976
		L109.416,165.976z M160.547,161.423c0.701,0,1.402-0.699,1.402-1.576c0-0.699-0.701-1.4-1.402-1.4h-6.479v2.977H160.547
		L160.547,161.423z M154.068,168.603h6.83c0.875,0,1.576-0.7,1.576-1.401c0-0.875-0.701-1.399-1.576-1.399h-6.83V168.603
		L154.068,168.603z"/>
</g>
</svg>
