<?xml version="1.0" encoding="utf-8"?>
<!-- Generator: Adobe Illustrator 16.0.0, SVG Export Plug-In . SVG Version: 6.00 Build 0)  -->
<!DOCTYPE svg PUBLIC "-//W3C//DTD SVG 1.1//EN" "http://www.w3.org/Graphics/SVG/1.1/DTD/svg11.dtd">
<svg version="1.1" id="Layer_1" xmlns="http://www.w3.org/2000/svg" xmlns:xlink="http://www.w3.org/1999/xlink" x="0px" y="0px"
	 width="250px" height="250px" viewBox="0 0 250 250" enable-background="new 0 0 250 250" xml:space="preserve">
<g>
	<path fill-rule="evenodd" clip-rule="evenodd" fill="#666666" d="M105.77,93.298c0.545-14.011,5.25-26.946,12.916-37.621h56.38
		v2.713C150.367,65.689,125.516,78.323,105.77,93.298L105.77,93.298z"/>
	<path fill-rule="evenodd" clip-rule="evenodd" fill="#666666" d="M164.237,164.448c-30.286-4.71-54.083-29.06-57.972-59.613
		c2.492-2.357,5.211-4.721,8.178-7.029c18.126-14.098,34.654-23.492,60.622-33.134v99.776H164.237L164.237,164.448z"/>
	<path fill-rule="evenodd" clip-rule="evenodd" fill="#666666" d="M145.093,164.448c-22.359-9.774-39-30.198-43.531-54.854
		c-10.159,11.079-15.066,22.054-14.782,30.315c0.533,15.598,15.584,24.539,37.016,24.539H145.093L145.093,164.448z"/>
	<path fill-rule="evenodd" clip-rule="evenodd" fill="#666666" d="M100.336,97.572c-0.012-0.508-0.012-1.028-0.012-1.545
		c0-14.86,4.355-28.722,11.846-40.351H63.365v96.628h2.688c0-2.481-0.03-4.519,0.526-7.582
		C69.654,128.86,82.443,112.271,100.336,97.572L100.336,97.572z"/>
	<path fill-rule="evenodd" clip-rule="evenodd" fill="#666666" d="M80.494,175.397v-3.831H69.141c-4.293,0.011-6.43,2.62-6.4,6.429
		c0.035,3.815,2.512,6.271,6.773,6.235h5.016c2.424-0.018,2.762,2.088,2.762,2.621c0.008,0.557-0.146,2.896-3.008,2.896H63.336
		v3.977h11.396c5.654,0,7.036-4.153,7.036-6.966c0-4.728-3.571-6.539-6.658-6.516h-5.45c-1.457,0-2.357-0.82-2.374-2.42
		c-0.013-1.652,1.093-2.411,2.492-2.426H80.494L80.494,175.397z"/>
	<polygon fill-rule="evenodd" clip-rule="evenodd" fill="#666666" points="95.51,171.566 90.404,171.566 81.854,193.725 
		86.459,193.725 92.799,176.648 98.91,193.725 103.748,193.725 95.51,171.566 	"/>
	<polygon fill-rule="evenodd" clip-rule="evenodd" fill="#666666" points="118.938,171.566 100.619,171.566 100.619,175.393 
		107.551,175.393 107.557,193.725 112.023,193.725 112.023,175.393 118.943,175.393 118.938,171.566 	"/>
	<path fill-rule="evenodd" clip-rule="evenodd" fill="#666666" d="M120.123,183.814c0,3.439-0.064,5.683,2.336,8.083
		c2.395,2.395,5.928,2.426,6.539,2.426c0.613,0,4.141-0.031,6.541-2.426c2.395-2.4,2.359-4.644,2.359-8.083v-8.513h6.104
		c2.212,0,3.411,1.083,3.411,3.134c0,2.236-1.591,3.239-3.637,3.239h-2.867l6.744,12.05h5.143l-5.645-9.14
		c2.381-0.514,4.738-3.042,4.738-6.454c0-4.852-3.736-6.564-6.449-6.564h-12.082l-0.008,14.618c0,1.421-1.021,4.049-4.328,4.041
		h0.008c-3.277,0.008-4.338-2.62-4.338-4.041l-0.006-14.618h-4.564V183.814L120.123,183.814z"/>
	<polygon fill-rule="evenodd" clip-rule="evenodd" fill="#666666" points="154.842,193.725 154.842,171.566 161.781,171.566 
		170.576,188.574 170.576,171.566 175.061,171.566 175.061,193.725 168.672,193.725 159.367,175.907 159.367,193.725 
		154.842,193.725 	"/>
	<path fill-rule="evenodd" clip-rule="evenodd" fill="#666666" d="M179.304,190.117c0-2.188,1.774-3.969,3.987-3.969
		c2.205,0,3.969,1.78,3.969,3.969c0,2.216-1.764,3.992-3.969,3.992C181.078,194.109,179.304,192.333,179.304,190.117
		L179.304,190.117z M186.562,190.117c0-1.797-1.459-3.271-3.271-3.271c-1.82,0-3.288,1.475-3.288,3.271
		c0,1.824,1.468,3.295,3.288,3.295C185.104,193.412,186.562,191.941,186.562,190.117L186.562,190.117z M182.445,190.385v2.022
		h-0.729v-4.68h1.514c0.857,0,1.744,0.233,1.744,1.291c0,0.54-0.324,0.961-0.951,1.092v0.018c0.646,0.129,0.719,0.41,0.791,0.918
		c0.068,0.447,0.117,0.938,0.276,1.361h-0.931c-0.055-0.271-0.129-0.563-0.158-0.841c-0.051-0.404-0.051-0.771-0.264-0.992
		c-0.178-0.189-0.424-0.17-0.681-0.189H182.445L182.445,190.385z M183.217,189.651c0.691-0.021,0.852-0.308,0.852-0.669
		c0-0.349-0.16-0.526-0.741-0.526h-0.882v1.195H183.217L183.217,189.651z"/>
</g>
</svg>
