<?xml version="1.0" encoding="utf-8"?>
<!-- Generator: Adobe Illustrator 16.0.0, SVG Export Plug-In . SVG Version: 6.00 Build 0)  -->
<!DOCTYPE svg PUBLIC "-//W3C//DTD SVG 1.1//EN" "http://www.w3.org/Graphics/SVG/1.1/DTD/svg11.dtd">
<svg version="1.1" id="Layer_1" xmlns="http://www.w3.org/2000/svg" xmlns:xlink="http://www.w3.org/1999/xlink" x="0px" y="0px"
	 width="250px" height="250px" viewBox="0 0 250 250" enable-background="new 0 0 250 250" xml:space="preserve">
<g>
	<path fill="#666666" d="M180.784,137.521c0.253-1.248,0.461-10.098,0.488-12.421c0.062-2.333-0.063-36.863-0.299-43.828
		c-0.045-0.978-0.668-19.446-0.75-21.228c-0.054-1.79-0.054-2.323-1.266-2.526c-1.248-0.181-32.816-2.804-37.871-2.93
		c-5.054-0.141-18.514-1.089-47.336,0.557c-17.737,0.976-25.186,10.179-26.759,17.528c-0.507,2.311-0.733,8.399-0.715,10.723
		c0.127,9.401,0.326,30.985,0.489,37.486c0,0,0.759,27.501,0.759,29.241c0,1.771,0.063,2.318,1.284,2.55
		c1.22,0.199,32.807,2.789,37.834,2.929c5.062,0.108,18.551,1.275,47.309-0.561C181.335,153.515,180.486,138.752,180.784,137.521
		 M177.032,109.541l-0.018,7.301c0,0,0.135,0.899-1.23,0.502c-3.507-0.99-69.521-15.821-104.643-20.92
		c-0.371-0.055-0.28-0.724-0.28-0.751v-5.37c0,0-0.072-0.659,0.38-0.605c13.569,2.07,47.643,7.604,56.015,9.076
		c8.389,1.329,46.069,8.427,49.234,9.109C177.132,107.995,177.032,109.541,177.032,109.541 M71.295,75.115
		c1.474-6.799,8.335-15.256,24.762-16.21c26.616-1.5,39.082-0.633,43.747-0.488c4.665,0.122,33.848,2.519,34.96,2.704
		c1.147,0.194,1.147,0.705,1.193,2.332c0.072,1.632,0.659,18.709,0.696,19.618c0.018,0.89-0.471,1.175-1.113,1.175
		c-3.416,0-45.002-3.49-53.826-3.326c-2.206,0.04-2.314,1.211-1.845,1.906c0.39,0.498,1.185,0.606,1.185,0.606
		s54.73,8.94,55.59,9.293c0.154,0.091,0.479,0.118,0.479,1.121v8.114c0,0,0.325,1.279-1.845,0.637
		C139.46,94.407,71.187,85.422,71.187,85.422c-0.434-0.059-0.533-0.1-0.533-0.339C70.653,82.927,70.825,77.235,71.295,75.115
		 M107.972,151.77c-4.691-0.122-33.865-2.526-34.995-2.717c-1.13-0.189-1.212-0.669-1.212-2.323c0-1.646-0.678-27.04-0.678-27.04
		s-0.181-1.203,1.175-1.022c2.976,0.403,49.795,4.802,54.162,4.842c4.34,0.081,3.155-1.334,3.046-1.587
		c-0.135-0.307-1.355-1.415-3.76-1.971c-2.378-0.583-15.613-4.041-24.581-6.066c-8.941-2.011-29.788-6.752-29.788-6.752
		s-0.552,0.04-0.588-0.715c0-2.201-0.055-5.026-0.055-5.026s-0.189-1.145,0.669-1.049c2.486,0.516,44.027,8.814,48.249,9.646
		c4.222,0.811,56.829,12.72,56.829,12.72s0.506,0.022,0.497,0.882c0,2.152-0.227,10.334-0.497,11.482
		c-0.227,1.129,0.542,14.753-24.745,16.187C125.095,152.959,112.619,151.896,107.972,151.77"/>
	<path fill="#666666" d="M68.122,183.479c-0.751-0.076-12.413-0.397-17.096-0.528c-0.578-0.031-1.446,0-2.531-0.158
		c-0.832-0.122-1.998-0.226-1.998-1.993c0-1.687,0.922-1.962,1.789-2.093c0.851-0.132,2.885-0.122,2.885-0.122h22.881v-3.843H48.16
		c-3.2,0-9.972-0.484-9.899,6.586c0.045,5.687,5,5.308,7.848,5.479c1.789,0.127,11.599,0.397,16.02,0.507
		c1.347,0.018,1.771,0.026,2.469,0.14c0.714,0.113,2.17,0.235,2.17,2.143c0,1.903-1.131,2.138-2.324,2.269
		c-1.185,0.145-2.351,0.109-2.351,0.109H38.351v3.811c0,0,28.695-0.014,28.759,0.026c3.101-0.284,7.621-0.212,7.766-5.682
		C75.092,183.234,69.054,183.601,68.122,183.479"/>
	<polygon fill="#666666" points="83.536,195.783 119.065,195.81 119.065,191.9 91.952,191.9 91.952,187 117.917,187 
		117.917,183.113 91.952,183.113 91.952,178.584 119.228,178.584 119.228,174.741 83.536,174.741 	"/>
	<path fill="#666666" d="M128.269,182.783v13.026h8.055v-8.366h21.182v8.366l8.091-0.026v-21.042h-27.79
		C134.669,174.782,128.241,174.968,128.269,182.783 M157.505,178.574v5.112h-21.218c-0.045-5.085,2.604-5.112,4.574-5.112H157.505z"
		/>
	<polygon fill="#666666" points="174.005,178.801 188.604,178.801 188.604,195.783 197.048,195.783 197.048,178.765 
		211.738,178.765 211.738,174.741 174.005,174.741 	"/>
</g>
</svg>
