<?xml version="1.0" encoding="utf-8"?>
<!-- Generator: Adobe Illustrator 16.0.0, SVG Export Plug-In . SVG Version: 6.00 Build 0)  -->
<!DOCTYPE svg PUBLIC "-//W3C//DTD SVG 1.1//EN" "http://www.w3.org/Graphics/SVG/1.1/DTD/svg11.dtd">
<svg version="1.1" id="Layer_1" xmlns="http://www.w3.org/2000/svg" xmlns:xlink="http://www.w3.org/1999/xlink" x="0px" y="0px"
	 width="250px" height="250px" viewBox="0 0 250 250" enable-background="new 0 0 250 250" xml:space="preserve">
<path fill="none" d="M122.715,177.456c-9.195,0-18.117-1.801-26.514-5.353c-8.113-3.432-15.397-8.343-21.652-14.6
	c-6.256-6.254-11.168-13.538-14.598-21.649c-3.553-8.397-5.354-17.318-5.354-26.516c0-9.196,1.801-18.116,5.354-26.515
	c3.43-8.11,8.341-15.396,14.598-21.651c6.256-6.257,13.541-11.167,21.652-14.599c8.396-3.551,17.316-5.352,26.514-5.352
	c9.196,0,18.117,1.801,26.514,5.352c8.112,3.432,15.396,8.342,21.65,14.599c6.258,6.256,11.168,13.54,14.6,21.651
	c3.553,8.398,5.353,17.318,5.353,26.515c0,9.197-1.8,18.118-5.353,26.516c-3.432,8.111-8.344,15.397-14.6,21.649
	c-6.252,6.257-13.538,11.168-21.65,14.6C140.832,175.655,131.911,177.456,122.715,177.456"/>
<path fill="#666666" d="M122.715,170.538c-16.348,0-31.715-6.364-43.274-17.925c-11.56-11.558-17.925-26.928-17.925-43.274
	c0-16.348,6.365-31.716,17.925-43.275s26.927-17.925,43.274-17.925c16.347,0,31.716,6.365,43.273,17.925
	c11.56,11.56,17.925,26.928,17.925,43.275c0,16.347-6.365,31.715-17.925,43.274C154.431,164.174,139.062,170.538,122.715,170.538"/>
<path fill="#FFFFFF" d="M122.715,165.571c-15.021,0-29.142-5.849-39.762-16.469c-10.622-10.622-16.471-24.743-16.471-39.762
	c0-15.022,5.849-29.143,16.471-39.765c10.62-10.62,24.741-16.471,39.762-16.471c15.02,0,29.141,5.851,39.761,16.471
	c10.622,10.622,16.471,24.742,16.471,39.765c0,15.019-5.849,29.14-16.471,39.762C151.855,159.723,137.734,165.571,122.715,165.571"
	/>
<g>
	<path fill="#666666" d="M122.715,40.985c-37.751,0-68.354,30.602-68.354,68.355c0,37.749,30.604,68.354,68.354,68.354
		c37.75,0,68.352-30.604,68.352-68.354C191.066,71.587,160.465,40.985,122.715,40.985 M170.725,157.351
		c-6.234,6.236-13.497,11.133-21.582,14.551c-8.371,3.542-17.262,5.337-26.428,5.337c-9.168,0-18.058-1.795-26.43-5.337
		c-8.084-3.418-15.346-8.314-21.582-14.551c-6.235-6.234-11.132-13.497-14.551-21.582c-3.541-8.37-5.335-17.263-5.335-26.428
		c0-9.169,1.794-18.061,5.335-26.432c3.419-8.085,8.315-15.346,14.551-21.581c6.236-6.236,13.498-11.133,21.582-14.553
		c8.372-3.539,17.262-5.334,26.43-5.334c9.166,0,18.057,1.795,26.428,5.334c8.085,3.42,15.348,8.316,21.582,14.553
		c6.237,6.235,11.133,13.496,14.552,21.581c3.541,8.371,5.337,17.263,5.337,26.432c0,9.165-1.796,18.058-5.337,26.428
		C181.857,143.854,176.962,151.116,170.725,157.351"/>
	<path fill="#666666" d="M122.715,178.194c-37.967,0-68.854-30.888-68.854-68.854c0-37.967,30.888-68.855,68.854-68.855
		c37.965,0,68.852,30.889,68.852,68.855C191.566,147.307,160.68,178.194,122.715,178.194z M122.715,41.941
		c-9.098,0-17.924,1.781-26.235,5.295c-8.024,3.395-15.232,8.255-21.423,14.445c-6.191,6.191-11.051,13.398-14.443,21.422
		c-3.515,8.308-5.296,17.135-5.296,26.237c0,9.102,1.781,17.927,5.296,26.233c3.394,8.026,8.253,15.233,14.443,21.423
		c6.191,6.191,13.399,11.052,21.423,14.443c8.309,3.516,17.136,5.298,26.235,5.298s17.926-1.782,26.232-5.298
		c8.027-3.393,15.234-8.252,21.424-14.443c6.189-6.187,11.05-13.395,14.444-21.423c3.516-8.31,5.298-17.136,5.298-26.233
		c0-9.1-1.782-17.927-5.298-26.237c-3.394-8.025-8.253-15.232-14.444-21.422c-6.188-6.189-13.396-11.05-21.423-14.445
		C140.638,43.723,131.812,41.941,122.715,41.941z"/>
</g>
<path fill="#666666" d="M87.213,144.558c-0.496,0-0.753-0.122-0.955-0.45c-2.356-3.843-4.061-6.45-6.75-10.332
	c-0.225-0.328-0.305-0.592-0.225-0.746c0.064-0.122,0.239-0.19,0.493-0.19h12.282c0.348,0,0.674,0.054,0.997,0.161
	c1.397,0.465,2.758,0.918,4.109,1.369c1.702,0.569,3.391,1.132,5.122,1.707c0.461,0.152,0.938,0.23,1.416,0.23
	c1.239,0,2.398-0.526,3.178-1.441c0.883-1.032,1.226-2.499,0.967-4.125c-2.521-15.821-12.351-24.633-31.87-28.573
	c-0.446-0.09-0.615-0.27-0.562-0.605c0.677-4.328,2-8.382,4.047-12.394c0.18-0.354,0.466-0.759,1.08-0.759
	c0.179,0,0.38,0.034,0.598,0.104c7.782,2.451,16.221,6.185,25.082,11.1c2.514,1.396,4.781,2.134,6.552,2.134
	c0.841,0,1.56-0.171,2.127-0.508c0.144-0.089,0.226-0.196,0.251-0.33c0.047-0.253-0.109-0.583-0.52-1.105
	c-9.636-12.204-19.676-19.091-26.403-22.72c-0.312-0.17-0.464-0.313-0.486-0.469c-0.027-0.172,0.099-0.397,0.381-0.69
	c1.591-1.646,4.808-4.726,8.489-6.845c0.234-0.139,0.422-0.199,0.611-0.199c0.256,0,0.532,0.107,0.988,0.38
	c10.756,6.376,19.043,13.426,26.078,22.186c0.116,0.145,0.232,0.294,0.352,0.449c1.096,1.407,2.457,3.159,5.667,3.159
	c0.181,0,0.37-0.006,0.562-0.018l0.104-0.006c0.234-0.009,0.436-0.02,0.542-0.165c0.073-0.104,0.079-0.255,0.015-0.475
	c-3.454-12.222-10.023-22.358-20.084-30.993c-0.27-0.234-0.396-0.458-0.354-0.635c0.042-0.173,0.248-0.313,0.599-0.401
	c3.303-0.757,6.826-1.218,9.916-1.297c0.178-0.005,0.35-0.011,0.514-0.017c0.319-0.009,0.62-0.021,0.901-0.021
	c1.173,0,2.013,0.177,3.091,1.103c8.543,7.342,14.408,16.238,17.432,26.441c3.596,12.141,3.188,26.253-1.213,41.949
	c-0.371,1.329-0.195,2.563,0.498,3.478c0.667,0.879,1.777,1.401,2.971,1.401h2.635c1.052,0,2.085-1.038,2.085-2.095v-0.35
	c0-0.328,0.142-0.372,0.276-0.372l0.154,0.017c3.934,0.813,7.271,2.423,10.502,5.063c0.123,0.102,0.187,0.197,0.187,0.284
	c0,0.084-0.063,0.179-0.187,0.275c-3.545,2.897-6.883,4.594-10.502,5.341l-0.154,0.019c-0.135,0-0.276-0.045-0.276-0.376v-0.488
	c0-1.044-1.069-2.108-2.117-2.108h-47.933c-0.637,0-1.119,0.203-1.689,0.531c-0.637,0.366-1.264,0.725-1.887,1.078
	c-1.116,0.636-2.17,1.236-3.267,1.88c-0.542,0.317-1.058,0.459-1.67,0.459H87.213 M130.211,112.309
	c-5.242,0-9.505,4.264-9.505,9.506c0,5.237,4.263,9.5,9.505,9.5s9.506-4.263,9.506-9.5
	C139.717,116.572,135.453,112.309,130.211,112.309z"/>
<path fill="#666666" d="M46.679,208.571c3.356,0.154,8.83,0.312,11.991,0.312c13.806,0,15.452-0.03,15.452-7.532
	c0-5.919-1.739-6.394-9.052-6.612l-8.483-0.257c-3.892-0.128-3.958-0.537-3.958-2.277c0-1.805,0.476-1.805,9.813-1.805
	c1.771,0,7.405,0.095,10.384,0.158c0.312,0,0.475-0.158,0.475-0.476v-3.863c0-0.313-0.162-0.474-0.445-0.504
	c-2.945-0.161-7.754-0.319-11.205-0.319c-13.549,0-15.729,0.255-15.729,7.249c0,5.984,1.326,6.776,10,7.062l7.785,0.252
	c3.642,0.127,3.708,0.568,3.708,1.931c0,1.869-0.16,1.964-8.772,1.964c-4.02,0-8.166-0.158-11.932-0.286
	c-0.316-0.03-0.474,0.128-0.474,0.443v4.052C46.236,208.38,46.394,208.537,46.679,208.571 M192.774,200.182h-10.13l4.653-9.216
	h0.823L192.774,200.182z M163.193,196.982v0.318c0,5.856-0.479,6.046-8.072,6.046h-6.27v-12.412h6.27
	C162.715,190.935,163.193,191.128,163.193,196.982 M130.325,196.982v0.318c0,6.395-0.251,6.489-7.724,6.489
	c-7.471,0-7.725-0.095-7.725-6.489v-0.318c0-6.394,0.254-6.487,7.725-6.487C130.074,190.495,130.325,190.589,130.325,196.982
	 M204.013,207.968l-10.921-21.873c-0.096-0.252-0.287-0.349-0.538-0.349h-9.687c-0.257,0-0.445,0.097-0.539,0.349l-10.922,21.873
	c-0.16,0.349-0.029,0.569,0.346,0.569h6.303c0.25,0,0.442-0.094,0.535-0.349l1.649-3.229h14.942l1.645,3.229
	c0.097,0.255,0.285,0.349,0.54,0.349h6.298C204.044,208.537,204.17,208.316,204.013,207.968 M155.087,185.746h-12.63
	c-0.314,0-0.479,0.16-0.479,0.474v21.843c0,0.317,0.164,0.475,0.479,0.475h12.63c13.519,0,15.29-0.666,15.29-11.303v-0.188
	C170.377,186.409,168.605,185.746,155.087,185.746 M106.188,207.968l-12.6-12.314l11.837-9.338c0.351-0.253,0.221-0.569-0.223-0.569
	H97.48c-0.221,0-0.38,0.062-0.57,0.221l-12.092,9.658v-9.405c0-0.313-0.156-0.474-0.473-0.474h-5.889
	c-0.317,0-0.477,0.16-0.477,0.474v21.843c0,0.317,0.159,0.475,0.477,0.475h5.889c0.316,0,0.473-0.157,0.473-0.475v-5.508
	l3.577-2.817l8.673,8.549c0.191,0.188,0.35,0.251,0.6,0.251h8.296C106.377,208.537,106.504,208.254,106.188,207.968
	 M107.531,196.982v0.318c0,11.045,1.811,11.714,15.07,11.714c13.266,0,15.07-0.669,15.07-11.748v-0.284
	c0-11.045-1.805-11.711-15.07-11.711C109.342,185.271,107.531,185.938,107.531,196.982 M54.179,180.462l2.883,3.289
	c0.157,0.188,0.316,0.253,0.568,0.253h6.047c0.255,0,0.412-0.064,0.569-0.253l2.883-3.289c0.252-0.288,0.156-0.571-0.255-0.571
	h-4.081c-0.258,0-0.416,0.095-0.574,0.283l-1.232,1.775h-0.668l-1.232-1.775c-0.157-0.188-0.316-0.283-0.602-0.283h-4.051
	C54.018,179.891,53.93,180.174,54.179,180.462"/>
</svg>
