<?xml version="1.0" encoding="utf-8"?>
<!-- Generator: Adobe Illustrator 16.0.0, SVG Export Plug-In . SVG Version: 6.00 Build 0)  -->
<!DOCTYPE svg PUBLIC "-//W3C//DTD SVG 1.1//EN" "http://www.w3.org/Graphics/SVG/1.1/DTD/svg11.dtd">
<svg version="1.1" id="Layer_1" xmlns="http://www.w3.org/2000/svg" xmlns:xlink="http://www.w3.org/1999/xlink" x="0px" y="0px"
	 width="250px" height="250px" viewBox="0 0 250 250" enable-background="new 0 0 250 250" xml:space="preserve">
<g>
	<path fill="#666666" d="M119.145,151.107c0.172-0.061,3.718-1.811,3.718-6.033c0-1.544-0.695-6.747-7.828-6.747H91.043v25.684
		c0.047,0,14.827,0.122,23.991,0c7.957-0.055,8.32-4.941,8.32-7.236C123.354,152.684,119.206,151.107,119.145,151.107 M98.75,143.53
		c0.194-0.13,9.054,0,14.116,0c1.504,0,2.892,0.938,2.892,2.63c0,1.936-1.216,2.774-2.661,2.774c-5.557,0-14.152,0.118-14.347,0
		V143.53z M113.216,158.829c-6.146,0-14.271,0.122-14.466,0v-5.552c0.194-0.122,9.645-0.065,14.357-0.122
		c1.622-0.064,3.129,1.079,3.129,2.893C116.236,157.98,114.729,158.829,113.216,158.829"/>
	<path fill="#666666" d="M190.537,154.119c0.188-0.051,3.856-2.516,3.856-6.635c0-4.813-1.925-9.157-9.041-9.157h-22.919v25.684
		h7.722v-7.963c0.057,0,9.274,0.071,13.873,0c1.996-0.054,3.623,2.059,3.623,3.86v4.103h6.888v-3.97
		C194.539,156.292,190.589,154.119,190.537,154.119 M184.27,151.341c-5.556,0-14,0.073-14.114,0v-7.811c0.184-0.13,9.062,0,14.114,0
		c1.933,0,3.137,2.263,3.137,4.076C187.406,149.417,186.133,151.341,184.27,151.341"/>
	<path fill="#666666" d="M136.995,138.32l-13.871,25.69h7.711l2.896-5.182h16.156l2.788,5.182h7.597l-13.875-25.69H136.995z
		 M136.513,153.285l5.054-9.299l5.304,9.299H136.513z"/>
	<path fill="#666666" d="M222.487,138.32c0.138,0.19,0,11.226-0.104,18.336c0,0.975-0.36,2.173-1.81,2.173h-13.389
		c-1.575,0-2.162-0.914-2.162-2.055c0-7.958-0.312-18.336-0.131-18.584h-7.601c-0.116,0.188-0.116,12.436,0,20.513
		c0.06,3.969,4.234,5.308,8.925,5.308c6.65,0,10.262,0.122,17.632,0c3.856-0.065,6.444-2.099,6.379-5.308
		c-0.058-7.1-0.119-20.383-0.119-20.383H222.487z"/>
	<path fill="#666666" d="M47.255,148.096c-6.16-0.306-13.64-0.23-18.22-0.489c-2.535-0.119-2.535-4.936,0.251-4.936h14.108
		c1.921,0,1.921,2.101,1.921,2.172h7.002c-0.133-0.306,0.728-7.476-6.037-7.476H25.897c-3.366,0-5.798,2.047-5.798,4.559v5.433
		c0,3.516,3.149,5.195,7.488,5.325c6.376,0.158,10.247,0.353,15.32,0.602c4.214,0.229,3.623,5.469,0,5.544
		c-4.821,0.122-7.84,0-13.136,0c-3.017,0-2.9-3.022-2.9-3.022h-6.995c-0.138,0.856-0.138,1.568,0,2.422
		c0.476,3.292,3.255,5.782,6.623,5.782h20.15c3.062,0,6.206-1.688,6.149-5.308c0,0-0.123-5.304-0.123-5.418
		C52.688,150.153,50.146,148.279,47.255,148.096"/>
	<path fill="#666666" d="M80.415,138.32c0.123,0.19,0.123,11.226,0,18.336c0,0.975-0.368,2.173-1.799,2.173H65.109
		c-1.447,0-2.181-0.914-2.181-2.055c0-7.958-0.127-18.383,0-18.584h-7.72c-0.129,0.188,0.047,12.436,0.123,20.513
		c0.065,3.926,4.098,5.308,8.801,5.308c6.754,0,10.388,0.122,17.621,0c3.856-0.065,6.562-2.099,6.505-5.308
		c-0.062-7.1-0.116-20.383-0.116-20.383H80.415z"/>
	<path fill="#666666" d="M101.09,92.54c-7.067,4.189-11.519,9.878-11.519,15.659c0,5.758,4.445,11.398,11.468,15.532
		c6.736,3.949,15.874,6.551,25.747,6.551c9.978,0,19.138-2.571,25.898-6.525c7.076-4.15,11.537-9.776,11.537-15.558
		s-4.479-11.48-11.571-15.67c-6.755-3.975-15.915-6.594-25.846-6.594C116.925,85.936,107.822,88.569,101.09,92.54 M163.124,108.199
		c0,5.369-4.247,10.666-10.979,14.607c-6.609,3.852-15.586,6.385-25.341,6.385c-9.7,0-18.623-2.533-25.198-6.385
		c-6.724-3.951-10.944-9.238-10.944-14.607c0-5.363,4.26-10.73,10.978-14.717c6.577-3.89,15.494-6.469,25.165-6.469
		c9.727,0,18.702,2.555,25.283,6.459C158.859,97.461,163.124,102.821,163.124,108.199"/>
	<polygon fill="#666666" points="113.107,91.777 109.655,100.533 94.325,103.828 109.655,107.09 113.291,116.414 116.943,107.288 
		133.551,103.828 116.76,100.181 	"/>
	<polygon fill="#666666" points="132.098,108.749 125.513,110.197 132.098,111.678 133.73,115.672 135.192,111.863 142.309,110.197 
		135.192,108.749 133.551,105.105 	"/>
	<polygon fill="#666666" points="151.074,105.105 149.429,108.749 143.032,110.197 149.429,111.678 151.074,115.672 
		152.533,111.863 159.652,110.197 152.533,108.749 	"/>
	<polygon fill="#666666" points="146.515,104.936 147.972,100.895 155.086,99.443 147.972,97.965 146.32,94.315 144.859,97.965 
		138.311,99.443 144.859,100.895 	"/>
	<polygon fill="#666666" points="139.758,113.854 138.117,117.505 131.734,118.961 138.117,120.423 139.758,124.25 141.387,120.423 
		148.53,118.961 141.211,117.318 	"/>
	<polygon fill="#666666" points="120.773,114.943 119.316,118.795 112.739,120.252 119.316,121.522 120.97,125.532 122.419,121.697 
		129.529,120.252 122.419,118.602 	"/>
</g>
</svg>
