<?xml version="1.0" encoding="utf-8"?>
<!-- Generator: Adobe Illustrator 16.0.0, SVG Export Plug-In . SVG Version: 6.00 Build 0)  -->
<!DOCTYPE svg PUBLIC "-//W3C//DTD SVG 1.1//EN" "http://www.w3.org/Graphics/SVG/1.1/DTD/svg11.dtd">
<svg version="1.1" id="Layer_1" xmlns="http://www.w3.org/2000/svg" xmlns:xlink="http://www.w3.org/1999/xlink" x="0px" y="0px"
	 width="250px" height="250px" viewBox="0 0 250 250" enable-background="new 0 0 250 250" xml:space="preserve">
<g>
	<g>
		<g>
			<polyline fill="#666666" points="134.614,160.437 101.637,160.437 101.637,167.767 117.558,167.767 101.079,183.163 
				101.079,189.306 134.564,189.306 134.564,181.945 117.9,181.945 134.614,166.589 134.614,160.437 			"/>
			<path fill="#666666" d="M82.221,190.042c13.188,0,16.58-3.366,16.58-10.792v-18.813H88.337v17.688
				c0,2.972-2.542,4.742-6.116,4.742c-3.711,0-6.098-1.778-6.098-4.787v-17.643H65.662v18.813
				C65.662,186.676,69.052,190.042,82.221,190.042"/>
			<path fill="#666666" d="M153.744,190.042c13.189,0,16.582-3.366,16.582-10.792v-18.813h-10.465v17.688
				c0,2.972-2.543,4.742-6.117,4.742c-3.71,0-6.097-1.778-6.097-4.787v-17.643h-10.461v18.813
				C137.187,186.676,140.576,190.042,153.744,190.042"/>
			<polyline fill="#666666" points="222.459,160.437 211.57,160.437 211.57,189.306 222.459,189.306 222.459,160.437 			"/>
			<polyline fill="#666666" points="209.93,160.437 195.568,160.437 183.994,170.396 183.994,160.437 173.082,160.437 
				173.082,189.306 183.994,189.306 183.994,179.068 194.749,189.306 209.398,189.306 193.451,174.492 209.93,160.437 			"/>
			<path fill="#666666" d="M39.912,168.416c0-2.23,3.311-2.306,4.424-2.306c1.141,0,3.658,0.447,5.354,3.257h12.314
				c0-5.435-5.137-9.763-17.613-9.763c-13.883,0-16.238,6.083-16.238,9.574c0,6.442,5.006,8.328,15.84,9.483
				c0.929,0.098,6.571-0.167,6.571,2.544c0,2.015-3.179,2.147-4.317,2.147c-1.168,0-3.338-0.19-5.142-3.38H27.541
				c0,6.334,4.268,10,18.678,10c13.246,0,16.766-5.412,16.766-9.53c0-3.997-2.725-8.06-14.037-9.506
				C44.232,170.325,39.912,170.068,39.912,168.416"/>
		</g>
	</g>
	<path fill="#666666" d="M167.478,118.729c0,0-7.889,2.287-23.175,11.68c-13.731,8.442-19.113,14.111-19.113,14.111L82.9,115.291
		c0,0,17.795-13.087,32.666-3.062l19.942,13.683l2.429-1.604L82.9,85.754c0,0,7.917-2.284,23.203-11.682
		c13.731-8.442,19.086-14.114,19.086-14.114l42.312,29.232c0,0-17.795,13.09-32.666,3.062l-19.941-13.679l-2.431,1.595
		L167.478,118.729"/>
</g>
</svg>
