<?xml version="1.0" encoding="utf-8"?>
<!-- Generator: Adobe Illustrator 16.0.0, SVG Export Plug-In . SVG Version: 6.00 Build 0)  -->
<!DOCTYPE svg PUBLIC "-//W3C//DTD SVG 1.1//EN" "http://www.w3.org/Graphics/SVG/1.1/DTD/svg11.dtd">
<svg version="1.1" id="Layer_1" xmlns="http://www.w3.org/2000/svg" xmlns:xlink="http://www.w3.org/1999/xlink" x="0px" y="0px"
	 width="250px" height="250px" viewBox="0 0 250 250" enable-background="new 0 0 250 250" xml:space="preserve">
<g>
	<polyline fill-rule="evenodd" clip-rule="evenodd" fill="#666666" points="54.725,197.209 54.725,168.097 42.996,168.097 
		42.996,155.997 82.91,155.997 82.91,168.097 71.527,168.097 71.527,197.209 54.725,197.209 	"/>
	<polyline fill-rule="evenodd" clip-rule="evenodd" fill="#666666" points="134.365,197.209 134.365,168.097 122.637,168.097 
		122.637,155.997 162.551,155.997 162.551,168.097 151.166,168.097 151.166,197.209 134.365,197.209 	"/>
	<polyline fill-rule="evenodd" clip-rule="evenodd" fill="#666666" points="79.1,197.263 94.186,156.044 111.373,156.044 
		127.406,197.263 111.219,197.263 102.875,172.34 94.564,197.263 79.1,197.263 	"/>
	<polyline fill-rule="evenodd" clip-rule="evenodd" fill="#666666" points="158.699,197.249 173.787,156.044 190.785,156.044 
		207.006,197.249 190.818,197.249 182.664,172.34 174.164,197.249 158.699,197.249 	"/>
	<path fill-rule="evenodd" clip-rule="evenodd" fill="#666666" d="M104.82,132.952c-24.322-5.547-41.887-20.951-41.887-39.003
		c0-2.264,0.275-4.473,0.803-6.635c11.852-3.216,42.955-7.999,48.645-4.229C116.117,85.281,108.84,114.893,104.82,132.952"/>
	<path fill-rule="evenodd" clip-rule="evenodd" fill="#666666" d="M185.744,87.308c0.533,2.162,0.811,4.378,0.811,6.642
		c0,18.086-17.641,33.517-42.043,39.036c-4.02-18.065-11.289-47.704-7.553-49.899C142.641,79.315,173.873,84.092,185.744,87.308"/>
	<path fill-rule="evenodd" clip-rule="evenodd" fill="#666666" d="M124.744,52.737c26.666,0,49.475,11.356,58.115,27.187
		c-9.938-1.547-55.975-12.601-55.461-3.479v58.669c-0.877,0.027-1.762,0.041-2.654,0.041c-0.939,0-1.871-0.014-2.811-0.047V76.444
		c0.514-9.114-45.299,1.905-55.305,3.473C75.27,64.094,98.084,52.737,124.744,52.737"/>
</g>
</svg>
