<?xml version="1.0" encoding="utf-8"?>
<!-- Generator: Adobe Illustrator 16.0.0, SVG Export Plug-In . SVG Version: 6.00 Build 0)  -->
<!DOCTYPE svg PUBLIC "-//W3C//DTD SVG 1.1//EN" "http://www.w3.org/Graphics/SVG/1.1/DTD/svg11.dtd">
<svg version="1.1" id="Layer_1" xmlns="http://www.w3.org/2000/svg" xmlns:xlink="http://www.w3.org/1999/xlink" x="0px" y="0px"
	 width="250px" height="250px" viewBox="0 0 250 250" enable-background="new 0 0 250 250" xml:space="preserve">
<path fill="#666666" d="M64.52,127.816h22.883c3.219-1.164,5.548-3.436,6.208-6.117H58.31
	C58.967,124.381,61.312,126.652,64.52,127.816 M5.002,109.733c0.688,2.682,3.018,4.911,6.198,6.106h9.627l0.494,0.198v24.294h6.015
	v-24.294l0.547-0.198h9.64c3.155-1.195,5.493-3.425,6.17-6.106v-0.065H5.002V109.733z M64.52,140.283h22.883
	c3.219-1.188,5.548-3.446,6.208-6.143H58.31C58.967,136.837,61.312,139.096,64.52,140.283 M64.52,115.924h22.883
	c3.219-1.2,5.548-3.438,6.208-6.147H58.31C58.967,112.486,61.312,114.724,64.52,115.924 M216.003,115.797h22.883
	c3.204-1.198,5.464-3.332,6.112-6.041h-35.3C210.334,112.465,212.798,114.599,216.003,115.797 M188.312,140.092
	c2.958-1.252,4.56-3.468,5.174-6.009h-26.398l0.021-24.383l-5.916,0.019v30.303L188.312,140.092z M116.719,115.732h21.118
	c3.178-0.917,5.521-3.31,6.17-5.999h-33.21v18.067h27.456v6.354h-21.251c-3.13,1.2-5.444,3.257-6.093,5.929l-0.112,0.249h33.364
	v-18.543h-27.442V115.732z M210.85,121.642v18.564h5.916v-12.361h21.526v12.361h5.907v-18.529L210.85,121.642z"/>
</svg>
