<?xml version="1.0" encoding="utf-8"?>
<!-- Generator: Adobe Illustrator 16.0.0, SVG Export Plug-In . SVG Version: 6.00 Build 0)  -->
<!DOCTYPE svg PUBLIC "-//W3C//DTD SVG 1.1//EN" "http://www.w3.org/Graphics/SVG/1.1/DTD/svg11.dtd">
<svg version="1.1" id="Layer_1" xmlns="http://www.w3.org/2000/svg" xmlns:xlink="http://www.w3.org/1999/xlink" x="0px" y="0px"
	 width="250px" height="250px" viewBox="0 0 250 250" enable-background="new 0 0 250 250" xml:space="preserve">
<g>
	<path fill="#666666" d="M153.284,177.829c-0.151-8.048-6.646-14.524-14.529-14.538c-8.101,0.014-14.581,6.49-14.558,14.538
		c-0.023,7.935,6.457,14.435,14.558,14.539C146.638,192.264,153.133,185.764,153.284,177.829 M130.712,177.829
		c-0.143-5.104,3.465-9.213,8.043-9.185c4.346-0.028,7.958,4.081,8.006,9.185c-0.048,5-3.66,9.128-8.006,9.189
		C134.177,186.957,130.569,182.829,130.712,177.829"/>
	<polygon fill="#666666" points="169.731,169.412 178.139,169.412 178.139,164.45 154.809,164.45 154.809,169.412 163.605,169.412 
		163.605,191.597 169.731,191.597 	"/>
	<path fill="#666666" d="M185.401,185.475h11.126l2.286,6.127h7.271l-11.12-27.16h-7.622l-11.485,27.16h7.271L185.401,185.475z
		 M191.163,170.941l3.802,9.951h-3.802h-3.835L191.163,170.941z"/>
	<polygon fill="#666666" points="51.11,191.597 57.236,191.597 57.236,169.412 65.653,169.412 65.653,164.45 42.679,164.45 
		42.679,169.412 51.11,169.412 	"/>
	<path fill="#666666" d="M96.256,177.829c-0.109-8.048-6.604-14.524-14.549-14.538c-8.033,0.014-14.52,6.49-14.529,14.538
		c0.01,7.935,6.496,14.435,14.529,14.539C89.651,192.264,96.146,185.764,96.256,177.829 M73.692,177.829
		c-0.108-5.104,3.513-9.213,8.029-9.185c4.422-0.028,8.029,4.081,8.029,9.185c0,5-3.607,9.128-8.029,9.189
		C77.205,186.957,73.584,182.829,73.692,177.829"/>
	<polygon fill="#666666" points="110.032,191.597 113.091,191.597 113.091,181.267 123.809,164.45 116.926,164.45 110.032,175.917 
		103.527,164.45 96.256,164.45 106.979,181.267 106.979,191.597 	"/>
	<g>
		<path fill="#666666" d="M122.758,57.632c-41.425,0-75.132,21.081-75.132,47.025c0,25.905,33.707,46.982,75.132,46.982
			s75.128-21.077,75.128-46.982C197.886,78.723,164.183,57.632,122.758,57.632z M129.845,66.178
			c17.598,1.06,30.37,5.737,32.544,11.873c0.582,1.656,0.402,3.385-0.535,4.99c-2.429,4.156-10.018,7.584-20.807,9.421l-1.132,0.198
			l-0.194-1.146c-1.756-10.789-5.667-19.292-10.652-23.282l-2.845-2.282L129.845,66.178z M133.069,92.206l0.218,1.259l-1.26,0.086
			c-3.021,0.231-6.145,0.354-9.27,0.354c-3.134,0-6.259-0.123-9.274-0.354l-1.269-0.086l0.223-1.259
			c1.732-9.743,5.609-15.575,10.32-15.575C127.482,76.631,131.322,82.463,133.069,92.206z M83.113,78.051
			c2.188-6.136,14.951-10.794,32.543-11.873l3.627-0.214l-2.851,2.269c-4.999,3.99-8.872,12.493-10.651,23.282l-0.189,1.146
			l-1.137-0.198c-10.784-1.837-18.363-5.265-20.792-9.421c-0.597-0.994-0.891-2.021-0.891-3.059
			C82.772,79.338,82.896,78.686,83.113,78.051z M115.051,143.535c-31.436-2.358-55.135-18.768-55.135-38.206
			c0-8.266,4.161-16.124,12.067-22.753l1.481-1.221l0.398,1.86c1.676,7.797,13.426,14.737,29.958,17.711l0.966,0.194l-0.062,3.91
			c0,16.612,4.271,30.593,11.148,36.468l2.671,2.301L115.051,143.535z M111,103.672v-0.436l0.269-1.24l1.366,0.109
			c3.237,0.279,6.681,0.431,10.061,0.431c3.361,0,6.764-0.151,10.025-0.431l1.261-0.109l0.022,1.676
			c0,15.43-5.085,27.09-11.5,27.085C116.089,130.757,111,119.102,111,103.672z M130.456,143.535l-3.499,0.265l2.67-2.301
			c6.879-5.875,11.149-19.855,11.149-36.468l-0.066-3.93l0.971-0.175c16.522-2.974,28.297-9.914,29.958-17.711l0.417-1.86
			l1.453,1.221c7.906,6.614,12.072,14.487,12.072,22.753C185.581,124.768,161.9,141.177,130.456,143.535z"/>
	</g>
</g>
</svg>
