<?xml version="1.0" encoding="utf-8"?>
<!-- Generator: Adobe Illustrator 16.0.0, SVG Export Plug-In . SVG Version: 6.00 Build 0)  -->
<!DOCTYPE svg PUBLIC "-//W3C//DTD SVG 1.1//EN" "http://www.w3.org/Graphics/SVG/1.1/DTD/svg11.dtd">
<svg version="1.1" id="Layer_1" xmlns="http://www.w3.org/2000/svg" xmlns:xlink="http://www.w3.org/1999/xlink" x="0px" y="0px"
	 width="250px" height="250px" viewBox="0 0 250 250" enable-background="new 0 0 250 250" xml:space="preserve">
<g>
	<path fill="#666666" d="M140.029,66.848c-4.938-1.307-10.165-1.992-15.426-1.992c-5.216,0-10.273,0.686-15.093,1.924l15.296,42.201
		L140.029,66.848z"/>
	<path fill="#666666" d="M184.878,125.215c0-7.523-1.296-14.719-3.808-21.371l-28.686,74.853
		C171.624,168.609,184.878,148.432,184.878,125.215"/>
	<path fill="#666666" d="M154.947,73.047l-17.684,48.661h-7.812h-9.26h-7.83L94.61,72.844c-6.562,3.756-12.287,8.711-17.038,14.572
		l25.207,65.359l9.231-23.877h7.116h9.99h7.111l9.227,23.877l25.456-66.141C166.419,81.21,161,76.6,154.947,73.047"/>
	<path fill="#666666" d="M124.604,44.678c-44.305,0-80.532,36.143-80.532,80.537c0,44.261,36.228,80.459,80.532,80.459
		c44.355,0,80.464-36.198,80.464-80.459C205.067,80.82,168.959,44.678,124.604,44.678 M124.604,195.378
		c-38.648,0-70.248-31.525-70.248-70.168c0-38.722,31.6-70.299,70.248-70.299c38.659,0,70.247,31.577,70.247,70.299
		C194.851,163.853,163.263,195.378,124.604,195.378"/>
	<path fill="#666666" d="M124.083,141.699l-15.557,40.368l-0.079,1.25c5.147,1.442,10.556,2.173,16.156,2.173
		c5.261,0,10.363-0.662,15.223-1.912l-0.176-1.511L124.083,141.699z"/>
	<path fill="#666666" d="M64.277,125.215c0,22.685,12.649,42.603,31.374,52.819l-27.957-72.867
		C65.455,111.436,64.277,118.155,64.277,125.215"/>
</g>
</svg>
