<?xml version="1.0" encoding="utf-8"?>
<!-- Generator: Adobe Illustrator 16.0.0, SVG Export Plug-In . SVG Version: 6.00 Build 0)  -->
<!DOCTYPE svg PUBLIC "-//W3C//DTD SVG 1.1//EN" "http://www.w3.org/Graphics/SVG/1.1/DTD/svg11.dtd">
<svg version="1.1" id="Layer_1" xmlns="http://www.w3.org/2000/svg" xmlns:xlink="http://www.w3.org/1999/xlink" x="0px" y="0px"
	 width="250px" height="250px" viewBox="0 0 250 250" enable-background="new 0 0 250 250" xml:space="preserve">
<g>
	<path fill="#666666" d="M198.489,109.436c-0.412-0.318-0.924-0.467-1.43-0.467h-6.268c-1.803-5.662-4.35-11.077-7.6-16.135
		l10.433-9.907l6.859,7.935c0.668,0.763,1.717,1.022,2.672,0.673c0.937-0.332,1.564-1.255,1.547-2.269l-0.484-36.856
		c-0.022-0.659-0.296-1.26-0.789-1.708c-0.476-0.479-1.103-0.704-1.757-0.668l-38.045,2.184c-1.009,0.058-1.865,0.744-2.152,1.703
		c-0.282,0.978,0.072,2.018,0.879,2.627l9.074,6.582l-9.114,8.836c-11.294-7.236-24.362-11.073-37.888-11.073
		c-31.06,0-57.416,20.224-66.365,48.077h-5.563c-0.457,0-0.901,0.112-1.296,0.373c-0.537,0.35-12.795,8.509-13.127,20.533
		c-0.201,7.455,4.179,14.512,13.016,21.004c0.412,0.291,0.91,0.461,1.407,0.461h5.819c9.15,27.455,35.328,47.334,66.109,47.334
		c30.786,0,56.941-19.879,66.101-47.334h6.532c0.492,0,0.955-0.152,1.367-0.439c0.511-0.35,12.369-8.724,12.584-20.802
		C211.149,122.719,206.94,115.771,198.489,109.436 M124.427,65.675c13.23,0,25.953,3.928,36.812,11.352
		c0.937,0.655,2.201,0.521,3.009-0.269l12.566-12.168c0.502-0.484,0.775-1.165,0.734-1.9c-0.062-0.699-0.412-1.346-0.99-1.74
		l-5.959-4.33l28.846-1.641l0.367,27.786l-4.188-4.896c-0.426-0.466-1.053-0.779-1.707-0.793c-0.664-0.014-1.278,0.192-1.763,0.668
		L178.427,90.75c-0.869,0.811-1,2.115-0.327,3.07c3.251,4.739,5.792,9.823,7.644,15.148h-17.914
		c-7.604-16.225-24.039-27.477-43.062-27.477c-18.995,0-35.422,11.252-43.039,27.477H63.142
		C71.901,83.805,96.053,65.675,124.427,65.675 M162.485,108.969H87.091c7.223-13.484,21.412-22.689,37.689-22.689
		C141.082,86.279,155.235,95.484,162.485,108.969 M124.427,193.877c-28.105,0-52.076-17.771-61.039-42.537h19.251
		c7.948,15.203,23.847,25.645,42.129,25.645c18.305,0,34.206-10.441,42.155-25.645h18.533
		C176.485,176.105,152.522,193.877,124.427,193.877 M88.108,151.34h73.354c-7.486,12.49-21.133,20.829-36.668,20.829
		C109.233,172.169,95.595,163.83,88.108,151.34 M196.261,146.543h-4.33h-4.949h-17.885h-5.178H85.634h-5.165H61.886h-4.98H53.31
		c-7.084-5.361-10.598-10.895-10.437-16.516c0.202-8.259,8.2-14.651,10.405-16.279h3.457h4.913h18.152h5.098h79.778h5.098h17.417
		h4.945h4.115c6.716,5.205,10.069,10.675,9.971,16.238C206.089,138.263,198.454,144.84,196.261,146.543"/>
	<polygon fill="#666666" points="86.817,121.285 82.755,121.285 77.892,121.285 73.019,121.285 73.019,123.988 76.694,123.988 
		70.328,135.811 63.424,124.042 68.458,124.006 68.45,121.285 60.187,121.285 55.372,121.285 48.428,121.285 48.428,124.042 
		53.036,124.042 54.884,127.408 60.013,136.859 62.069,140.607 73.171,140.607 77.376,132.905 82.194,124.006 82.339,124.006 
		86.817,123.971 	"/>
	<path fill="#666666" d="M99.24,120.733c-7.859,0-14.212,4.568-14.212,10.208c0,5.631,6.353,10.213,14.212,10.213
		c7.837,0,14.171-4.582,14.171-10.213C113.411,125.302,107.077,120.733,99.24,120.733 M99.017,138.105
		c-2.049,0-3.703-3.286-3.703-7.361c0-4.08,1.654-7.37,3.703-7.37c2.062,0,3.703,3.29,3.703,7.37
		C102.72,134.819,101.078,138.105,99.017,138.105"/>
	<path fill="#666666" d="M188.595,120.742c-0.09-0.014-0.201-0.014-0.287-0.014c-7.85,0-14.185,4.573-14.185,10.213
		c0,5.613,6.29,10.177,14.087,10.213h0.098c1.727,0,3.354-0.22,4.869-0.632c5.447-1.435,9.325-5.169,9.325-9.581
		c0-4.33-3.726-8.007-8.984-9.5C191.997,121.007,190.343,120.765,188.595,120.742 M188.688,137.989
		c-0.184,0.071-0.381,0.116-0.596,0.116c-2.035,0-3.694-3.286-3.694-7.365c0-4.076,1.659-7.366,3.694-7.366
		c0.301,0,0.578,0.062,0.843,0.184c1.649,0.727,2.864,3.677,2.864,7.183C191.8,134.412,190.442,137.442,188.688,137.989"/>
	<path fill="#666666" d="M133.245,137.595h-4.788v-13.553l4.546-0.036v-2.721h-18.256v2.757h4.623v13.553h-4.855v3.004l4.855,0.018
		h23.039v-8.976h-3.008C139.243,136.393,135.024,137.595,133.245,137.595"/>
	<polygon fill="#666666" points="175.849,121.285 171.675,121.285 166.807,121.285 162.059,121.285 162.059,123.988 
		165.722,123.988 159.342,135.811 152.446,124.042 157.49,124.006 157.478,121.285 137.446,121.285 137.446,124.042 
		142.068,124.042 151.079,140.607 162.198,140.607 167.511,130.838 171.218,124.006 172.056,124.006 175.845,123.971 	"/>
</g>
</svg>
